<svg width="24" height="24" viewBox="0 0 24 24" fill="none" xmlns="http://www.w3.org/2000/svg">
<g clip-path="url(#clip0_1426_4605)">
<path d="M11.997 22.0779C17.7116 22.0779 22.3443 17.4453 22.3443 11.7306C22.3443 6.01595 17.7116 1.3833 11.997 1.3833C6.2823 1.3833 1.64966 6.01595 1.64966 11.7306C1.64966 17.4453 6.2823 22.0779 11.997 22.0779Z" fill="#D9D9D9"/>
<path d="M6.75451 7.03017L6.63176 7.01221C6.47906 8.13496 6.20361 10.3625 6.20361 11.7368C6.20361 13.629 8.88625 16.2577 8.88625 16.2577L7.39224 17.5212C7.39224 17.5212 7.41619 17.5481 7.42816 17.5601L8.21559 17.6799L20.7186 11.8026L6.75451 7.03017Z" fill="white"/>
<path d="M6.92811 6.87149L6.80536 6.85353C6.67662 6.83556 6.37422 6.87149 6.35027 7.04515C6.24248 7.83556 6.14668 8.62598 6.06883 9.4194C5.98799 10.2398 5.88021 11.0901 5.92512 11.9164C5.99698 13.2457 6.99099 14.5092 7.81733 15.4853C8.07482 15.7907 8.34129 16.0901 8.62572 16.3685L8.65865 16.2038C8.16165 16.626 7.66165 17.0451 7.16464 17.4673C7.11973 17.5062 7.08081 17.5781 7.13171 17.632C7.29338 17.8026 7.67961 17.7787 7.89817 17.8116C8.05985 17.8356 8.19458 17.8505 8.35027 17.7907C8.5359 17.7188 8.71554 17.62 8.89518 17.5362C9.81733 17.102 10.7365 16.6709 11.6587 16.2368C14.1167 15.0811 16.5748 13.9254 19.0329 12.7697C19.6347 12.4883 20.2335 12.2038 20.8353 11.9224C20.973 11.8595 21.0958 11.7098 20.8952 11.641C19.3173 11.102 17.7365 10.5601 16.1587 10.0212C13.6646 9.1679 11.1706 8.3176 8.67662 7.46431C8.09578 7.2667 7.51494 7.0661 6.9341 6.8685C6.74847 6.80562 6.27242 7.07808 6.58979 7.18586C8.16763 7.72479 9.74847 8.2667 11.3263 8.80562C13.8203 9.65892 16.3143 10.5092 18.8084 11.3625C19.3892 11.5601 19.97 11.7607 20.5509 11.9583L20.6107 11.6769C19.2006 12.3386 17.7904 13.0032 16.3802 13.6649C14.1407 14.7158 11.9042 15.7697 9.66464 16.8206C9.14668 17.0631 8.62871 17.3086 8.10775 17.5511L8.39218 17.5152L7.99698 17.4553L7.75147 17.4194C7.72153 17.4164 7.67362 17.3954 7.64668 17.4044C7.59877 17.4164 7.61374 17.3565 7.65865 17.4044L7.62572 17.5691C8.12272 17.1469 8.62272 16.7278 9.11973 16.3056C9.16464 16.2697 9.20356 16.1919 9.15266 16.141C8.20057 15.2068 7.27542 14.0751 6.76344 12.8386C6.38919 11.9344 6.49398 10.9972 6.57482 10.0422C6.65865 9.01521 6.78141 7.99425 6.91913 6.97329L6.46404 7.16491L6.5868 7.18287C6.71254 7.20083 6.89817 7.18287 6.98799 7.07509C7.05386 6.99425 7.06883 6.88347 6.93111 6.8655L6.92811 6.87149Z" fill="black"/>
<path d="M6.72754 14.2335C6.72754 14.2335 7.62275 12.9701 9.01496 13.524C10.4072 14.0749 11.4611 15.2605 11.012 15.7575C10.5629 16.2545 9.06586 17.6228 7.91017 16.3353C6.75449 15.0479 6.72754 14.2306 6.72754 14.2306V14.2335Z" fill="#FF6057"/>
<path d="M9.38325 7.9222C9.38325 7.9222 8.17367 8.39525 8.04193 9.60484C7.91019 10.8144 9.17366 11.6827 10.6437 11.5779C12.1168 11.4731 13.1407 9.89525 12.6407 9.08088C12.1407 8.26651 10.485 7.79346 9.38025 7.92519L9.38325 7.9222Z" fill="#FF6057"/>
<path d="M13.7485 14.7068C13.7485 14.7068 11.9611 13.4434 13.1168 12.3925C14.2725 11.3416 16.6138 11.8655 17.0599 12.3655C17.506 12.8655 13.7485 14.7068 13.7485 14.7068Z" fill="#FF6057"/>
<path d="M7.97917 12.629C7.97917 12.629 7.14983 11.5062 7.09294 11.3655C7.03606 11.2248 7.07198 10.6948 7.07198 10.6948C7.07198 10.6948 7.60492 11.09 7.70372 11.2068C7.80252 11.3236 8.2157 12.2128 8.2157 12.2128L7.97917 12.626V12.629Z" fill="black"/>
<path d="M10.4043 12.8085C10.4821 12.7486 11.0151 12.0779 11.2336 12.1169C11.4522 12.1558 12.2576 12.1378 12.2576 12.1378C12.2576 12.1378 12.0809 12.6887 11.8235 12.7486C11.566 12.8085 10.4043 12.8085 10.4043 12.8085Z" fill="black"/>
<path d="M13.0061 11.2876C13.0061 11.2876 13.5001 10.7157 13.578 10.6379C13.6558 10.56 14.2875 10.3804 14.2875 10.3804C14.2875 10.3804 14.5839 10.4582 14.3474 10.6947C14.1109 10.9313 13.8354 11.1888 13.5989 11.2456C13.3624 11.3025 13.0061 11.2846 13.0061 11.2846V11.2876Z" fill="black"/>
<path d="M6.20359 11.7367C6.20359 10.3655 6.47904 8.13491 6.63173 7.01216L5.33532 6.83252C5.33532 6.83252 2.94311 13.0301 7.38922 17.5211L8.88323 16.2577C8.88323 16.2577 6.20059 13.6289 6.20059 11.7367H6.20359Z" fill="white"/>
<path d="M6.48505 11.6588C6.49104 10.0899 6.70062 8.51509 6.9102 6.9642C6.91918 6.90132 6.8623 6.89833 6.8114 6.88935C6.38026 6.82947 5.94613 6.76958 5.51499 6.7097C5.39822 6.69473 5.10182 6.74863 5.05391 6.88036C4.75751 7.64982 4.60182 8.49414 4.50301 9.30851C4.29044 11.06 4.43715 12.8714 5.08685 14.5211C5.54493 15.6858 6.24852 16.7277 7.12278 17.6199C7.23056 17.7307 7.55391 17.581 7.64673 17.5031C8.14373 17.081 8.64373 16.6618 9.14074 16.2396C9.16769 16.2157 9.17667 16.1828 9.14972 16.1588C8.67367 15.6887 8.23655 15.1738 7.83236 14.6408C7.19463 13.7935 6.50301 12.7576 6.48505 11.6588C6.48505 11.551 5.91619 11.6408 5.91918 11.8115C5.93715 12.9043 6.62277 13.9283 7.25152 14.7726C7.66769 15.3295 8.11978 15.8684 8.61679 16.3564L8.62577 16.2756C8.12876 16.6977 7.62876 17.1169 7.13176 17.539L7.65571 17.4223C5.10481 14.8145 4.47307 11.051 5.36828 7.59593C5.44014 7.32348 5.51499 7.04803 5.61679 6.78456L5.15571 6.95521L6.45212 7.13485L6.35331 7.06C6.14074 8.63186 5.92816 10.2247 5.92218 11.8115C5.92218 11.9163 6.48804 11.8325 6.48804 11.6588H6.48505Z" fill="black"/>
<path d="M12.2455 21.6945C8.62876 21.6766 5.23056 19.6257 3.51798 16.434C1.80541 13.2424 1.93115 9.11069 3.98205 6.02985C6.03295 2.94901 9.41319 1.39811 12.9521 1.83524C16.491 2.27237 19.6258 4.74542 20.9551 8.05979C22.4371 11.7634 21.5958 16.1496 18.7455 18.967C18.4012 19.3083 18.033 19.6257 17.6407 19.9131C17.4551 20.0478 17.2665 20.2813 17.533 20.443C17.7755 20.5927 18.2425 20.4819 18.4551 20.3263C20.2156 19.0388 21.5809 17.3113 22.3443 15.2604C23.1078 13.2095 23.1946 11.0508 22.6737 8.99692C21.7156 5.22745 18.6557 2.2544 14.8952 1.32027C11.1347 0.386138 6.62876 1.61668 3.88325 4.57775C1.17666 7.49392 0.24852 11.7664 1.64672 15.5149C3.04493 19.2634 6.35032 21.8263 10.1976 22.3472C10.7126 22.4161 11.2276 22.458 11.7485 22.461C12.03 22.461 12.4551 22.3712 12.6048 22.0987C12.7545 21.8263 12.4821 21.6945 12.2455 21.6945Z" fill="black"/>
</g>
<defs>
<clipPath id="clip0_1426_4605">
<rect width="22" height="21.4611" fill="white" transform="translate(1 1)"/>
</clipPath>
</defs>
</svg>
