<svg width="24" height="24" viewBox="0 0 24 24" fill="none" xmlns="http://www.w3.org/2000/svg">
<g clip-path="url(#clip0_1426_4624)">
<path d="M11.997 22.0779C17.7116 22.0779 22.3443 17.4453 22.3443 11.7306C22.3443 6.01595 17.7116 1.3833 11.997 1.3833C6.2823 1.3833 1.64966 6.01595 1.64966 11.7306C1.64966 17.4453 6.2823 22.0779 11.997 22.0779Z" fill="#D9D9D9"/>
<path d="M4.64663 12.7485C4.64663 12.7485 4.38915 15.2485 7.97897 15.8892C11.5688 16.5299 17.2724 16.3383 19.3862 13.7096C21.4999 11.0808 17.7185 9.67063 17.7185 9.67063L7.52986 8.58081C7.52986 8.58081 4.77537 9.47901 4.96699 10.503C5.15861 11.5269 5.73645 11.6557 6.24843 11.464C6.7604 11.2724 7.52986 10.3742 9.06879 10.9521C10.6077 11.5299 11.44 12.1706 11.8233 12.1706C12.2065 12.1706 10.9909 13.5808 10.9909 13.5808L5.86519 13.003L4.64663 12.7455V12.7485Z" fill="white"/>
<path d="M4.34419 12.7903C4.24239 13.8472 4.97592 14.8293 5.83521 15.3502C6.81425 15.943 7.98491 16.1047 9.10467 16.2245C10.2873 16.3502 11.4819 16.3861 12.6675 16.3173C14.8262 16.1945 17.2723 15.7903 18.9939 14.3772C19.6915 13.8023 20.3741 12.955 20.3292 12.0029C20.2963 11.2544 19.7633 10.6406 19.1885 10.2155C18.8352 9.95501 18.3981 9.66159 17.9729 9.53884C17.7454 9.47297 17.4849 9.47596 17.2484 9.45201L12.8142 8.97896L8.38012 8.5059C8.10766 8.47596 7.76634 8.38914 7.49389 8.45501C6.8861 8.60171 6.25437 8.92507 5.72443 9.24243C5.38311 9.44602 5.01784 9.69153 4.79928 10.0328C4.56275 10.4041 4.66155 10.8352 4.87113 11.2035C5.3382 12.0119 6.26934 11.6646 6.90107 11.2873C7.37712 11.0029 7.83221 10.8592 8.39209 10.97C9.11365 11.1167 9.81724 11.5029 10.4699 11.8382C10.8023 12.0089 11.1795 12.2754 11.5628 12.3233C11.7154 12.3412 11.6047 12.2993 11.5957 12.3173C11.5747 12.3652 11.5657 12.4161 11.5448 12.464C11.4639 12.6466 11.3292 12.8113 11.2125 12.97C11.0538 13.1825 10.8861 13.3891 10.7125 13.5927L11.1825 13.437C9.48491 13.2454 7.76335 13.1227 6.07173 12.8622C5.65856 12.7993 5.24539 12.6915 4.8382 12.6047C4.66754 12.5688 4.12862 12.8382 4.45796 12.9071C4.95796 13.0119 5.45497 13.1376 5.96395 13.1945L8.46095 13.476C9.20646 13.5598 9.94898 13.6496 10.6945 13.7275C10.931 13.7514 11.1376 13.7215 11.3113 13.5418C11.5747 13.2634 11.8202 12.934 12.0208 12.6077C12.0867 12.5029 12.2154 12.3352 12.2035 12.2005C12.1885 12.0358 12.0837 12.0508 11.949 12.0209C11.5089 11.9221 11.0897 11.6227 10.6915 11.4251C9.99389 11.0778 9.23341 10.6855 8.44598 10.6227C7.87413 10.5778 7.31724 10.7215 6.81125 10.982C6.48191 11.1526 6.09568 11.5538 5.71545 11.2963C5.2903 11.0119 5.12562 10.3053 5.44898 9.90411C5.75137 9.52986 6.23341 9.29034 6.66155 9.08674C6.84718 8.99992 7.0388 8.91908 7.23042 8.84423C7.3382 8.80231 7.51485 8.77237 7.60766 8.7065C7.60766 8.7065 7.22742 8.70351 7.38012 8.74243C7.437 8.7574 7.50287 8.75441 7.55976 8.76039L8.25137 8.83525L10.6166 9.08674L16.1286 9.67656C16.5807 9.72447 17.0358 9.75441 17.4849 9.82027C17.5328 9.82626 17.5448 9.83225 17.4789 9.81429C17.5448 9.83225 17.6077 9.86818 17.6675 9.89513C17.949 10.0209 18.2214 10.1706 18.4759 10.3442C19.1586 10.8113 19.8053 11.5149 19.7125 12.4041C19.5897 13.5688 18.4909 14.452 17.5208 14.949C16.3472 15.5478 15.0148 15.8113 13.7154 15.946C12.3442 16.0897 10.949 16.0748 9.57473 15.934C7.74838 15.7484 5.21844 15.2574 4.95796 13.0358C4.94598 12.9281 4.937 12.7754 4.94598 12.7065C4.96694 12.4909 4.35916 12.6107 4.34119 12.7933L4.34419 12.7903Z" fill="#231815"/>
<path d="M5.57783 13.6767C5.57783 13.6767 8.20657 14.8952 10.7036 15.024C13.2036 15.1527 18.8114 14.8324 19.9311 12.2994C21.0539 9.7665 18.0419 9.09584 17.497 8.67967C16.9521 8.2635 15.0299 7.3653 13.6527 7.43117C12.2754 7.49404 10.6736 7.71859 9.35927 7.91321C8.0449 8.10482 6.12274 8.36231 5.44909 8.74554C4.77543 9.12877 3.88022 9.9641 4.55088 10.6677C5.22454 11.3713 6.56885 10.3803 6.7934 10.0599C7.01795 9.73955 8.90717 9.64374 9.58082 9.89824C10.2545 10.1557 12.8503 10.8922 12.6886 11.6916C12.5269 12.491 10.6048 12.8443 9.41915 12.8773C8.23352 12.9102 6.91915 12.524 6.53591 12.2366C6.15268 11.9491 5.44609 11.4671 4.70957 11.7875C3.97304 12.1078 3.491 13.1976 5.57484 13.6767H5.57783Z" fill="#FF453A"/>
<path d="M15.3893 12.0719C15.3983 12.1198 15.4013 12.1677 15.4073 12.2156C15.4073 12.2275 15.4073 12.2365 15.4073 12.2485C15.4073 12.2545 15.4013 12.1766 15.4073 12.2305C15.4073 12.2605 15.4102 12.2874 15.4132 12.3174C15.4132 12.3862 15.4162 12.4551 15.4132 12.5269C15.4102 12.6856 15.3953 12.8473 15.3623 13.003C15.3593 13.021 15.3534 13.0419 15.3504 13.0599C15.3474 13.0778 15.3264 13.1467 15.3504 13.0748C15.3384 13.1138 15.3264 13.1557 15.3114 13.1946C15.2875 13.2635 15.2546 13.3772 15.2037 13.4311C15.2037 13.4311 15.2396 13.3802 15.2186 13.4072C15.2096 13.4162 15.2037 13.4281 15.1977 13.4401C15.1827 13.4611 15.1677 13.482 15.1528 13.503C15.1378 13.521 15.1258 13.5389 15.1078 13.5539C15.1019 13.5599 15.0929 13.5689 15.0869 13.5748C15.0599 13.6048 15.1348 13.5329 15.1049 13.5569C15.0749 13.5808 15.012 13.6168 14.9881 13.6467C14.9881 13.6467 15.054 13.6108 15.021 13.6257C15.0061 13.6347 14.9911 13.6437 14.9761 13.6497C14.9522 13.6617 14.9252 13.6736 14.9013 13.6856C14.7665 13.7425 14.6468 13.9222 14.7426 14.0599C14.8474 14.2096 15.0719 14.1826 15.2156 14.1228C15.9791 13.7964 16.1587 12.9072 16.1049 12.1587C16.0989 12.0689 16.0929 11.976 16.0779 11.8892C16.051 11.7186 15.7965 11.6886 15.6647 11.7305C15.509 11.7784 15.3564 11.8982 15.3863 12.0748L15.3893 12.0719Z" fill="#231815"/>
<path d="M12.0121 9.62584C12.0989 9.50908 12.1947 9.3983 12.2905 9.28752C12.3863 9.17674 12.4791 9.08093 12.5779 8.98213C12.6049 8.95818 12.6288 8.93123 12.6558 8.90728C12.6707 8.89531 12.6857 8.88034 12.6977 8.86836C12.7067 8.86237 12.7486 8.82046 12.7246 8.84441C12.6977 8.86836 12.7456 8.82644 12.7516 8.82046C12.7635 8.80848 12.7755 8.7995 12.7905 8.78752C12.8204 8.76357 12.8504 8.73962 12.8803 8.71567C12.9132 8.68872 12.9492 8.66477 12.9821 8.64082C12.9971 8.63183 13.0121 8.62285 13.027 8.61087C13.054 8.59291 12.9911 8.63183 12.9941 8.63183C13.0061 8.62584 13.015 8.61986 13.027 8.61387C13.042 8.60489 13.057 8.5989 13.0719 8.58992C13.0809 8.58692 13.0899 8.58093 13.0959 8.57794C13.1348 8.55698 13.057 8.59591 13.054 8.59591C13.0659 8.59591 13.0839 8.58393 13.0989 8.57794C13.1079 8.57495 13.1168 8.57195 13.1228 8.56896C13.1558 8.55399 13.021 8.60189 13.0749 8.58393C13.1558 8.55998 13.2426 8.53004 13.3085 8.47914C13.3384 8.45519 13.3983 8.40728 13.3833 8.35938C13.3504 8.23962 13.0689 8.2995 13.0031 8.32046C12.3713 8.50309 11.8863 9.02105 11.4851 9.51507C11.4492 9.55998 11.4132 9.60489 11.3773 9.65279C11.2845 9.77555 11.4582 9.80549 11.551 9.7995C11.6438 9.79351 11.7366 9.77555 11.8204 9.74261C11.8863 9.71567 11.9671 9.68273 12.0091 9.62584H12.0121Z" fill="#231815"/>
<path d="M14.8053 8.7456C14.9281 8.84141 15.0449 8.9492 15.1556 9.05997C15.2544 9.15878 15.3502 9.26656 15.4341 9.37734C15.455 9.40728 15.476 9.43423 15.497 9.46417C15.5059 9.47914 15.5149 9.49111 15.5239 9.50608C15.5299 9.51506 15.5359 9.52405 15.5419 9.53303C15.5329 9.51806 15.5389 9.52704 15.5419 9.53602C15.5778 9.5989 15.6107 9.66177 15.6377 9.73063C15.6646 9.7995 15.6856 9.87435 15.6946 9.9492C15.6946 9.96716 15.6946 9.98213 15.6976 10.0001C15.6976 10.0091 15.6976 10.0181 15.6976 10.03C15.6976 10.0151 15.6976 10.0091 15.6976 10.03C15.6916 10.069 15.6886 10.1049 15.6766 10.1408C15.6347 10.2845 15.8922 10.2785 15.97 10.2666C16.0598 10.2516 16.1526 10.2276 16.2305 10.1797C16.2814 10.1468 16.3473 10.1079 16.3652 10.045C16.452 9.74261 16.3023 9.44321 16.1347 9.20069C15.982 8.97914 15.7874 8.78153 15.5838 8.60189C15.5389 8.56297 15.494 8.52405 15.4461 8.48812C15.3263 8.3953 15.1197 8.43722 14.991 8.49411C14.9341 8.51806 14.6796 8.65578 14.8023 8.7486L14.8053 8.7456Z" fill="#231815"/>
<path d="M17.4461 12.4881C17.3743 12.7485 17.2605 13.015 17.0958 13.2306L17.1228 13.1946C17.0958 13.2306 17.0659 13.2635 17.033 13.2964C17.018 13.3114 17.003 13.3234 16.9881 13.3384C16.9521 13.3683 17.024 13.3144 17.003 13.3264C16.9941 13.3324 16.9851 13.3384 16.9731 13.3473C16.9491 13.3653 16.8803 13.4102 16.8923 13.4521C16.9042 13.494 16.9851 13.503 17.015 13.503C17.1767 13.509 17.3653 13.4611 17.503 13.3713C17.8114 13.1707 17.9821 12.8024 18.0929 12.4641C18.1018 12.4342 18.1138 12.4012 18.1228 12.3683C18.1557 12.2485 17.9012 12.2845 17.8444 12.2964C17.7545 12.3144 17.6617 12.3384 17.5809 12.3803C17.536 12.4012 17.4551 12.4372 17.4402 12.4881H17.4461Z" fill="#231815"/>
<path d="M11.479 13.0001C11.5778 13.1468 11.6796 13.2875 11.7874 13.4253C11.9641 13.6528 12.1557 13.8833 12.3862 14.054C12.5329 14.1618 12.6826 14.2217 12.8653 14.2247C12.9521 14.2247 13.0569 14.1977 13.1347 14.1678C13.1946 14.1438 13.2844 14.1049 13.3233 14.051C13.4192 13.9223 13.2395 13.8983 13.1497 13.8983C13.2605 13.8983 13.2156 13.9013 13.1886 13.8983C13.1407 13.8923 13.2455 13.9163 13.2126 13.9043C13.1886 13.8953 13.1647 13.8893 13.1407 13.8773C13.1198 13.8684 13.1048 13.8474 13.1407 13.8773C13.1317 13.8684 13.1168 13.8654 13.1078 13.8564C13.0838 13.8414 13.0569 13.8235 13.0329 13.8055C12.9251 13.7247 12.8263 13.6288 12.7335 13.53C12.5569 13.3414 12.3982 13.1378 12.2485 12.9312C12.2126 12.8803 12.1766 12.8324 12.1437 12.7785L12.1647 12.8115C12.0898 12.6977 11.8952 12.7366 11.7814 12.7666C11.7006 12.7905 11.6138 12.8175 11.5479 12.8714C11.5209 12.8923 11.4461 12.9552 11.473 12.9941L11.479 13.0001Z" fill="#231815"/>
<path d="M15.0689 11.542C15.6228 11.542 16.1767 11.5121 16.7276 11.4941C16.9192 11.4881 17.1168 11.4941 17.3084 11.4761C17.4731 11.4612 17.5779 11.3744 17.6827 11.2606C17.7156 11.2246 17.7516 11.1887 17.7875 11.1528C17.7546 11.1857 17.8234 11.1169 17.8354 11.1079C17.8683 11.0779 17.9013 11.048 17.9342 11.0211C18.2126 10.7845 18.554 10.53 18.9013 10.6857C19.2096 10.8235 19.7007 10.3773 19.2935 10.1977C18.4701 9.83243 17.554 10.4881 17.042 11.0989L17.3593 10.9432C16.6108 10.9672 15.8623 11.0031 15.1168 11.0061C14.9611 11.0061 14.7546 11.1258 14.7396 11.2965C14.7246 11.4791 14.9192 11.542 15.0629 11.542H15.0689Z" fill="#231815"/>
<path d="M19.8384 12.1079C19.6887 11.9312 19.4881 11.7905 19.2965 11.6678C18.7666 11.3324 18.1708 11.1378 17.554 11.042C17.3953 11.0181 17.1917 11.072 17.066 11.1738C16.9582 11.2606 16.9821 11.3564 17.1199 11.3773C17.6708 11.4612 18.2246 11.6468 18.6857 11.9462C18.8654 12.063 19.054 12.1977 19.1917 12.3624C19.3294 12.527 19.9851 12.2815 19.8384 12.1079Z" fill="#231815"/>
<path d="M10.3443 9.37434C10.3592 9.33243 10.3772 9.29051 10.3952 9.25159L10.3712 9.30249C10.452 9.11985 10.5449 8.9432 10.6586 8.77853C10.6886 8.73362 10.7215 8.68871 10.7574 8.6468C10.7724 8.62883 10.8113 8.58692 10.7514 8.65278C10.7604 8.6438 10.7694 8.63482 10.7784 8.62284C10.7964 8.60189 10.8173 8.58392 10.8353 8.56596C10.8532 8.54799 10.8742 8.53602 10.8922 8.51805C10.8083 8.5929 10.8682 8.53901 10.8952 8.51805C10.952 8.48213 10.8143 8.55398 10.8592 8.53602C10.8682 8.53302 10.8772 8.53003 10.8832 8.52404C10.9281 8.50308 10.7724 8.55698 10.8353 8.54201C10.8982 8.52704 10.7365 8.55997 10.7844 8.55099C10.8742 8.53602 10.967 8.51207 11.0449 8.46117C11.0898 8.43123 11.1676 8.37135 11.1736 8.31147C11.1916 8.15877 10.979 8.13781 10.8742 8.15578C10.6646 8.18871 10.485 8.27255 10.3203 8.40428C10.2155 8.48811 10.1257 8.5959 10.0479 8.70668C9.91911 8.88332 9.81731 9.07793 9.72749 9.27554C9.70055 9.33542 9.6736 9.39231 9.64965 9.45518C9.62869 9.50907 9.67959 9.56296 9.7215 9.58392C9.78438 9.61686 9.88019 9.61985 9.94905 9.61087C10.0987 9.58991 10.2814 9.52404 10.3413 9.37135L10.3443 9.37434Z" fill="#231815"/>
<path d="M10.3593 13.3204C10.4341 13.4461 10.518 13.5629 10.6048 13.6797C10.7755 13.9072 10.9641 14.1288 11.1886 14.3024C11.3144 14.3982 11.4521 14.4731 11.6048 14.509C11.6707 14.524 11.7605 14.509 11.8234 14.497C11.9102 14.482 12.006 14.4551 12.0868 14.4162C12.1437 14.3892 12.3234 14.2904 12.1767 14.2575C12.1617 14.2545 12.1467 14.2485 12.1317 14.2455C12.1767 14.2575 12.1228 14.2425 12.1138 14.2395C12.0838 14.2276 12.0509 14.2126 12.021 14.1976C11.9581 14.1647 11.8982 14.1228 11.8413 14.0808C11.7186 13.988 11.6078 13.8773 11.506 13.7635L11.524 13.7844C11.3473 13.5868 11.1856 13.3713 11.0509 13.1407C11.027 13.1018 10.9701 13.1018 10.9311 13.1018C10.8503 13.1018 10.7575 13.1168 10.6797 13.1407C10.6018 13.1647 10.515 13.1886 10.4431 13.2335C10.4222 13.2455 10.3383 13.2934 10.3593 13.3264V13.3204Z" fill="#231815"/>
<path d="M12.2456 21.6947C8.6288 21.6768 5.23059 19.6259 3.51802 16.4342C1.80544 13.2426 1.93119 9.11088 3.98209 6.03005C6.03299 2.94921 9.41323 1.39831 12.9521 1.83544C16.4911 2.27256 19.6258 4.74562 20.9551 8.05999C22.4372 11.7636 21.5959 16.1498 18.7456 18.9672C18.4013 19.3085 18.033 19.6259 17.6408 19.9133C17.4551 20.048 17.2665 20.2815 17.533 20.4432C17.7755 20.5929 18.2426 20.4821 18.4551 20.3265C20.2156 19.039 21.5809 17.3115 22.3444 15.2606C23.1078 13.2097 23.1947 11.051 22.6737 8.99711C21.7156 5.22765 18.6557 2.2546 14.8953 1.32047C10.9821 0.347414 6.6258 1.61388 3.88029 4.57496C1.13478 7.53604 0.248557 11.7666 1.64676 15.5151C3.04496 19.2636 6.35035 21.8265 10.1977 22.3474C10.7126 22.4163 11.2276 22.4582 11.7486 22.4612C12.03 22.4612 12.4551 22.3714 12.6048 22.0989C12.7545 21.8265 12.4821 21.6947 12.2456 21.6947Z" fill="black"/>
</g>
<defs>
<clipPath id="clip0_1426_4624">
<rect width="22" height="21.4611" fill="white" transform="translate(1 1)"/>
</clipPath>
</defs>
</svg>
