<svg width="122" height="62" viewBox="0 0 122 62" fill="none" xmlns="http://www.w3.org/2000/svg">
<rect x="122" y="52" width="122" height="52" rx="4" transform="rotate(180 122 52)" fill="#FF6057"/>
<path d="M94.3941 62L87.9908 51.0714L100.797 51.0714L94.3941 62Z" fill="#FF6057"/>
<path d="M9.26 13.036V14.296H12.932C12.884 14.824 12.8 15.304 12.692 15.76L8.696 15.988L8.9 17.32L12.188 17.02C11.54 18.244 10.4 19.264 8.6 20.164L9.44 21.412C13.58 19.336 14.504 16.444 14.504 13.036H9.26ZM16.124 11.968V23.02H17.72V11.968H16.124ZM22.7951 13.636C23.5751 13.636 24.1031 14.032 24.1031 14.704C24.1031 15.388 23.5751 15.772 22.7951 15.772C22.0151 15.772 21.4631 15.388 21.4631 14.704C21.4631 14.032 22.0151 13.636 22.7951 13.636ZM22.7951 16.972C24.4151 16.972 25.5911 16.048 25.5911 14.704C25.5911 13.372 24.4151 12.436 22.7951 12.436C21.1631 12.436 19.9871 13.372 19.9871 14.704C19.9871 16.048 21.1631 16.972 22.7951 16.972ZM26.3231 17.26C23.9711 17.584 21.2711 17.596 19.2191 17.596L19.3991 18.88C20.1671 18.88 21.0311 18.88 21.9311 18.844V22.708H23.5151V18.76C24.4751 18.688 25.4471 18.592 26.4191 18.412L26.3231 17.26ZM27.0311 11.98V19.408H24.8111V20.608H27.0311V23.02H28.6151V11.98H27.0311ZM38.9341 17.08H32.7421V14.176H38.8501V12.892H31.1581V18.34H38.9341V17.08ZM29.9941 20.416V21.712H40.0021V20.416H29.9941ZM44.7599 14.8C44.7599 14.032 45.3479 13.564 46.1759 13.564C47.0039 13.564 47.5919 14.032 47.5919 14.8C47.5919 15.58 47.0039 16.048 46.1759 16.048C45.3479 16.048 44.7599 15.58 44.7599 14.8ZM49.1159 14.8C49.1159 13.348 47.8679 12.292 46.1759 12.292C44.4959 12.292 43.2359 13.348 43.2359 14.8C43.2359 16.276 44.4959 17.32 46.1759 17.32C47.8679 17.32 49.1159 16.276 49.1159 14.8ZM46.1399 20.956H51.8519V17.932H44.5559V19.156H50.2919V19.816H44.5679V22.9H52.1639V21.676H46.1399V20.956ZM51.8519 14.104V11.98H50.2679V17.5H51.8519V15.4H53.3039V14.104H51.8519ZM60.563 16.6C59.123 16.828 57.839 16.888 56.015 16.9V15.94H59.531V12.604H54.443V13.876H57.971V14.764H54.455V18.172H55.427C57.623 18.172 59.099 18.124 60.743 17.86L60.563 16.6ZM57.275 20.272H61.523V21.664H57.275V20.272ZM55.715 22.9H63.071V19.024H55.715V22.9ZM61.475 11.992V18.532H63.071V11.992H61.475ZM69.6101 13.048C71.3741 13.048 72.3821 13.456 72.3821 14.176C72.3821 14.896 71.3741 15.304 69.6101 15.304C67.8461 15.304 66.8381 14.896 66.8381 14.176C66.8381 13.456 67.8461 13.048 69.6101 13.048ZM69.6101 16.036C71.9741 16.036 73.3901 15.388 73.3901 14.176C73.3901 12.964 71.9741 12.304 69.6101 12.304C67.2461 12.304 65.8301 12.964 65.8301 14.176C65.8301 15.388 67.2461 16.036 69.6101 16.036ZM66.9101 20.908H73.2341V18.484H65.9141V19.228H72.2621V20.188H65.9501V22.768H73.5581V22H66.9101V20.908ZM64.7381 16.768V17.56H74.4821V16.768H64.7381ZM82.3367 16.948H79.2887V15.148H82.3367V16.948ZM83.2967 12.724H82.3367V14.368H79.2887V12.724H78.3167V17.74H83.2967V12.724ZM80.4887 19.804H86.3207V19.012H79.5047V22.732H86.5127V21.94H80.4887V19.804ZM86.2247 14.716V12.136H85.2407V18.424H86.2247V15.532H87.8207V14.716H86.2247ZM93.4718 13.048C95.2358 13.048 96.2438 13.456 96.2438 14.176C96.2438 14.896 95.2358 15.304 93.4718 15.304C91.7078 15.304 90.6998 14.896 90.6998 14.176C90.6998 13.456 91.7078 13.048 93.4718 13.048ZM93.4718 16.036C95.8358 16.036 97.2518 15.388 97.2518 14.176C97.2518 12.964 95.8358 12.304 93.4718 12.304C91.1078 12.304 89.6918 12.964 89.6918 14.176C89.6918 15.388 91.1078 16.036 93.4718 16.036ZM90.7718 20.908H97.0958V18.484H89.7758V19.228H96.1238V20.188H89.8118V22.768H97.4198V22H90.7718V20.908ZM88.5998 16.768V17.56H98.3438V16.768H88.5998ZM9.596 35.356C11.264 35.068 12.848 34.168 13.508 32.896C14.156 34.168 15.752 35.068 17.42 35.356L17.804 34.576C15.908 34.3 14.048 33.064 14.048 31.648V31.588H17.42V30.796H9.56V31.588H12.956V31.648C12.956 33.064 11.096 34.3 9.224 34.576L9.596 35.356ZM18.368 36.256H8.648V37.06H12.992V40.888H13.976V37.06H18.38L18.368 36.256ZM28.6631 35.38C26.7791 35.044 24.7271 33.46 24.7271 31.672V30.844H23.6951V31.672C23.6951 33.46 21.6551 35.044 19.7711 35.38L20.1791 36.196C21.8351 35.848 23.5151 34.732 24.2111 33.196C24.9071 34.732 26.5991 35.848 28.2431 36.196L28.6631 35.38ZM24.7031 38.68V36.064H23.7191V38.68H19.3751V39.484H29.1431V38.68H24.7031ZM37.6501 32.008H31.3621V34.312H38.8141V33.604H32.3341V32.68H38.6221V30.436H31.3381V31.132H37.6501V32.008ZM32.2741 39.04H38.6581V36.748H31.2781V37.456H37.6861V38.356H31.3021V40.744H38.9941V40.036H32.2741V39.04ZM30.1141 35.128V35.872H39.8701V35.128H30.1141ZM44.2088 35.812C45.8768 35.56 47.4248 34.732 48.1088 33.568C48.7928 34.732 50.3288 35.56 51.9968 35.812L52.3448 35.02C50.4248 34.756 48.6008 33.568 48.6008 32.248H52.0328V31.456H48.6008V30.136H47.6168V31.456H44.1848V32.248H47.6048C47.6048 33.58 45.7928 34.756 43.8488 35.02L44.2088 35.812ZM52.9808 36.628H43.2488V37.432H47.6168V40.9H48.6008V37.432H52.9808V36.628ZM54.5518 31.276V32.092H58.4998C58.2718 34.636 56.7958 36.7 54.0478 38.08L54.5878 38.848C58.0678 37.108 59.4718 34.336 59.4718 31.276H54.5518ZM63.9838 34.492H62.2558V30.124H61.2718V40.888H62.2558V35.308H63.9838V34.492ZM67.3789 37.576C66.5389 37.576 65.9509 36.892 65.9509 35.932C65.9509 34.996 66.5389 34.312 67.3789 34.312C68.2069 34.312 68.8069 34.996 68.8069 35.932C68.8069 36.892 68.2069 37.576 67.3789 37.576ZM67.3789 33.484C66.0469 33.484 65.0749 34.492 65.0749 35.932C65.0749 37.396 66.0469 38.392 67.3789 38.392C68.7109 38.392 69.6829 37.396 69.6829 35.932C69.6829 34.492 68.7109 33.484 67.3789 33.484ZM67.8589 30.436H66.8869V31.96H64.7029V32.764H70.0429V31.96H67.8589V30.436ZM72.8869 30.112V34.66H71.5069V30.364H70.5829V40.36H71.5069V35.464H72.8869V40.876H73.8349V30.112H72.8869ZM77.578 33.616H83.074V35.596H77.578V33.616ZM80.818 38.704V36.388H84.034V30.892H83.074V32.812H77.578V30.892H76.606V36.388H79.822V38.704H75.454V39.508H85.21V38.704H80.818ZM89.385 31.144H88.437V33.196C88.437 35.044 87.549 36.976 86.073 37.84L86.685 38.584C87.753 37.924 88.533 36.7 88.917 35.272C89.301 36.58 90.021 37.72 91.041 38.344L91.605 37.576C90.189 36.712 89.385 34.888 89.385 33.16V31.144ZM92.217 33.988H90.441V34.804H92.217V40.36H93.141V30.364H92.217V33.988ZM94.401 30.124V40.888H95.337V30.124H94.401ZM100.304 36.16C100.748 36.268 101.264 36.328 101.792 36.328C102.332 36.328 102.848 36.268 103.304 36.16V38.692H100.304V36.16ZM101.792 31.576C103.52 31.576 104.768 32.368 104.768 33.568C104.768 34.768 103.52 35.56 101.792 35.56C100.064 35.56 98.8281 34.768 98.8281 33.568C98.8281 32.368 100.064 31.576 101.792 31.576ZM104.288 38.692V35.776C105.176 35.308 105.704 34.54 105.704 33.568C105.704 31.888 104.084 30.808 101.792 30.808C99.5121 30.808 97.8801 31.888 97.8801 33.568C97.8801 34.54 98.4201 35.32 99.3201 35.788V38.692H96.9201V39.508H106.7V38.692H104.288ZM108.595 37.348H109.351L109.495 32.26L109.531 31.012H108.415L108.451 32.26L108.595 37.348ZM108.967 40.156C109.411 40.156 109.759 39.82 109.759 39.328C109.759 38.836 109.411 38.476 108.967 38.476C108.535 38.476 108.175 38.836 108.175 39.328C108.175 39.82 108.535 40.156 108.967 40.156Z" fill="white"/>
</svg>
