<svg width="120" height="74" viewBox="0 0 120 74" fill="none" xmlns="http://www.w3.org/2000/svg">
<g filter="url(#filter0_d_1641_6518)">
<path fill-rule="evenodd" clip-rule="evenodd" d="M122 56C124.209 56 126 54.2091 126 52L126 8C126 5.79086 124.209 4 122 4L8 4.00001C5.79086 4.00001 4 5.79087 4 8.00001L4 52C4 54.2091 5.79087 56 8.00001 56L92.5346 56L98.3939 66L104.253 56H122Z" fill="#FF6057"/>
</g>
<path d="M13.26 18.036V19.296H16.932C16.884 19.824 16.8 20.304 16.692 20.76L12.696 20.988L12.9 22.32L16.188 22.02C15.54 23.244 14.4 24.264 12.6 25.164L13.44 26.412C17.58 24.336 18.504 21.444 18.504 18.036H13.26ZM20.124 16.968V28.02H21.72V16.968H20.124ZM26.7951 18.636C27.5751 18.636 28.1031 19.032 28.1031 19.704C28.1031 20.388 27.5751 20.772 26.7951 20.772C26.0151 20.772 25.4631 20.388 25.4631 19.704C25.4631 19.032 26.0151 18.636 26.7951 18.636ZM26.7951 21.972C28.4151 21.972 29.5911 21.048 29.5911 19.704C29.5911 18.372 28.4151 17.436 26.7951 17.436C25.1631 17.436 23.9871 18.372 23.9871 19.704C23.9871 21.048 25.1631 21.972 26.7951 21.972ZM30.3231 22.26C27.9711 22.584 25.2711 22.596 23.2191 22.596L23.3991 23.88C24.1671 23.88 25.0311 23.88 25.9311 23.844V27.708H27.5151V23.76C28.4751 23.688 29.4471 23.592 30.4191 23.412L30.3231 22.26ZM31.0311 16.98V24.408H28.8111V25.608H31.0311V28.02H32.6151V16.98H31.0311ZM42.9341 22.08H36.7421V19.176H42.8501V17.892H35.1581V23.34H42.9341V22.08ZM33.9941 25.416V26.712H44.0021V25.416H33.9941ZM48.7599 19.8C48.7599 19.032 49.3479 18.564 50.1759 18.564C51.0039 18.564 51.5919 19.032 51.5919 19.8C51.5919 20.58 51.0039 21.048 50.1759 21.048C49.3479 21.048 48.7599 20.58 48.7599 19.8ZM53.1159 19.8C53.1159 18.348 51.8679 17.292 50.1759 17.292C48.4959 17.292 47.2359 18.348 47.2359 19.8C47.2359 21.276 48.4959 22.32 50.1759 22.32C51.8679 22.32 53.1159 21.276 53.1159 19.8ZM50.1399 25.956H55.8519V22.932H48.5559V24.156H54.2919V24.816H48.5679V27.9H56.1639V26.676H50.1399V25.956ZM55.8519 19.104V16.98H54.2679V22.5H55.8519V20.4H57.3039V19.104H55.8519ZM64.563 21.6C63.123 21.828 61.839 21.888 60.015 21.9V20.94H63.531V17.604H58.443V18.876H61.971V19.764H58.455V23.172H59.427C61.623 23.172 63.099 23.124 64.743 22.86L64.563 21.6ZM61.275 25.272H65.523V26.664H61.275V25.272ZM59.715 27.9H67.071V24.024H59.715V27.9ZM65.475 16.992V23.532H67.071V16.992H65.475ZM73.6101 18.048C75.3741 18.048 76.3821 18.456 76.3821 19.176C76.3821 19.896 75.3741 20.304 73.6101 20.304C71.8461 20.304 70.8381 19.896 70.8381 19.176C70.8381 18.456 71.8461 18.048 73.6101 18.048ZM73.6101 21.036C75.9741 21.036 77.3901 20.388 77.3901 19.176C77.3901 17.964 75.9741 17.304 73.6101 17.304C71.2461 17.304 69.8301 17.964 69.8301 19.176C69.8301 20.388 71.2461 21.036 73.6101 21.036ZM70.9101 25.908H77.2341V23.484H69.9141V24.228H76.2621V25.188H69.9501V27.768H77.5581V27H70.9101V25.908ZM68.7381 21.768V22.56H78.4821V21.768H68.7381ZM86.3367 21.948H83.2887V20.148H86.3367V21.948ZM87.2967 17.724H86.3367V19.368H83.2887V17.724H82.3167V22.74H87.2967V17.724ZM84.4887 24.804H90.3207V24.012H83.5047V27.732H90.5127V26.94H84.4887V24.804ZM90.2247 19.716V17.136H89.2407V23.424H90.2247V20.532H91.8207V19.716H90.2247ZM97.4718 18.048C99.2358 18.048 100.244 18.456 100.244 19.176C100.244 19.896 99.2358 20.304 97.4718 20.304C95.7078 20.304 94.6998 19.896 94.6998 19.176C94.6998 18.456 95.7078 18.048 97.4718 18.048ZM97.4718 21.036C99.8358 21.036 101.252 20.388 101.252 19.176C101.252 17.964 99.8358 17.304 97.4718 17.304C95.1078 17.304 93.6918 17.964 93.6918 19.176C93.6918 20.388 95.1078 21.036 97.4718 21.036ZM94.7718 25.908H101.096V23.484H93.7758V24.228H100.124V25.188H93.8118V27.768H101.42V27H94.7718V25.908ZM92.5998 21.768V22.56H102.344V21.768H92.5998ZM13.596 40.356C15.264 40.068 16.848 39.168 17.508 37.896C18.156 39.168 19.752 40.068 21.42 40.356L21.804 39.576C19.908 39.3 18.048 38.064 18.048 36.648V36.588H21.42V35.796H13.56V36.588H16.956V36.648C16.956 38.064 15.096 39.3 13.224 39.576L13.596 40.356ZM22.368 41.256H12.648V42.06H16.992V45.888H17.976V42.06H22.38L22.368 41.256ZM32.6631 40.38C30.7791 40.044 28.7271 38.46 28.7271 36.672V35.844H27.6951V36.672C27.6951 38.46 25.6551 40.044 23.7711 40.38L24.1791 41.196C25.8351 40.848 27.5151 39.732 28.2111 38.196C28.9071 39.732 30.5991 40.848 32.2431 41.196L32.6631 40.38ZM28.7031 43.68V41.064H27.7191V43.68H23.3751V44.484H33.1431V43.68H28.7031ZM41.6501 37.008H35.3621V39.312H42.8141V38.604H36.3341V37.68H42.6221V35.436H35.3381V36.132H41.6501V37.008ZM36.2741 44.04H42.6581V41.748H35.2781V42.456H41.6861V43.356H35.3021V45.744H42.9941V45.036H36.2741V44.04ZM34.1141 40.128V40.872H43.8701V40.128H34.1141ZM48.2088 40.812C49.8768 40.56 51.4248 39.732 52.1088 38.568C52.7928 39.732 54.3288 40.56 55.9968 40.812L56.3448 40.02C54.4248 39.756 52.6008 38.568 52.6008 37.248H56.0328V36.456H52.6008V35.136H51.6168V36.456H48.1848V37.248H51.6048C51.6048 38.58 49.7928 39.756 47.8488 40.02L48.2088 40.812ZM56.9808 41.628H47.2488V42.432H51.6168V45.9H52.6008V42.432H56.9808V41.628ZM58.5518 36.276V37.092H62.4998C62.2718 39.636 60.7958 41.7 58.0478 43.08L58.5878 43.848C62.0678 42.108 63.4718 39.336 63.4718 36.276H58.5518ZM67.9838 39.492H66.2558V35.124H65.2718V45.888H66.2558V40.308H67.9838V39.492ZM71.3789 42.576C70.5389 42.576 69.9509 41.892 69.9509 40.932C69.9509 39.996 70.5389 39.312 71.3789 39.312C72.2069 39.312 72.8069 39.996 72.8069 40.932C72.8069 41.892 72.2069 42.576 71.3789 42.576ZM71.3789 38.484C70.0469 38.484 69.0749 39.492 69.0749 40.932C69.0749 42.396 70.0469 43.392 71.3789 43.392C72.7109 43.392 73.6829 42.396 73.6829 40.932C73.6829 39.492 72.7109 38.484 71.3789 38.484ZM71.8589 35.436H70.8869V36.96H68.7029V37.764H74.0429V36.96H71.8589V35.436ZM76.8869 35.112V39.66H75.5069V35.364H74.5829V45.36H75.5069V40.464H76.8869V45.876H77.8349V35.112H76.8869ZM81.578 38.616H87.074V40.596H81.578V38.616ZM84.818 43.704V41.388H88.034V35.892H87.074V37.812H81.578V35.892H80.606V41.388H83.822V43.704H79.454V44.508H89.21V43.704H84.818ZM93.385 36.144H92.437V38.196C92.437 40.044 91.549 41.976 90.073 42.84L90.685 43.584C91.753 42.924 92.533 41.7 92.917 40.272C93.301 41.58 94.021 42.72 95.041 43.344L95.605 42.576C94.189 41.712 93.385 39.888 93.385 38.16V36.144ZM96.217 38.988H94.441V39.804H96.217V45.36H97.141V35.364H96.217V38.988ZM98.401 35.124V45.888H99.337V35.124H98.401ZM104.304 41.16C104.748 41.268 105.264 41.328 105.792 41.328C106.332 41.328 106.848 41.268 107.304 41.16V43.692H104.304V41.16ZM105.792 36.576C107.52 36.576 108.768 37.368 108.768 38.568C108.768 39.768 107.52 40.56 105.792 40.56C104.064 40.56 102.828 39.768 102.828 38.568C102.828 37.368 104.064 36.576 105.792 36.576ZM108.288 43.692V40.776C109.176 40.308 109.704 39.54 109.704 38.568C109.704 36.888 108.084 35.808 105.792 35.808C103.512 35.808 101.88 36.888 101.88 38.568C101.88 39.54 102.42 40.32 103.32 40.788V43.692H100.92V44.508H110.7V43.692H108.288ZM112.595 42.348H113.351L113.495 37.26L113.531 36.012H112.415L112.451 37.26L112.595 42.348ZM112.967 45.156C113.411 45.156 113.759 44.82 113.759 44.328C113.759 43.836 113.411 43.476 112.967 43.476C112.535 43.476 112.175 43.836 112.175 44.328C112.175 44.82 112.535 45.156 112.967 45.156Z" fill="white"/>
<defs>
<filter id="filter0_d_1641_6518" x="0" y="0" width="134" height="74" filterUnits="userSpaceOnUse" color-interpolation-filters="sRGB">
<feFlood flood-opacity="0" result="BackgroundImageFix"/>
<feColorMatrix in="SourceAlpha" type="matrix" values="0 0 0 0 0 0 0 0 0 0 0 0 0 0 0 0 0 0 127 0" result="hardAlpha"/>
<feOffset dx="2" dy="2"/>
<feGaussianBlur stdDeviation="3"/>
<feComposite in2="hardAlpha" operator="out"/>
<feColorMatrix type="matrix" values="0 0 0 0 0 0 0 0 0 0 0 0 0 0 0 0 0 0 0.08 0"/>
<feBlend mode="normal" in2="BackgroundImageFix" result="effect1_dropShadow_1641_6518"/>
<feBlend mode="normal" in="SourceGraphic" in2="effect1_dropShadow_1641_6518" result="shape"/>
</filter>
</defs>
</svg>
