<svg width="18" height="18" viewBox="0 0 18 18" fill="none" xmlns="http://www.w3.org/2000/svg">
<path d="M16.5 11.046C14.1839 11.9836 11.6523 12.4998 9 12.4998C6.34775 12.4998 3.81608 11.9836 1.5 11.046M12.3333 4.99984V3.33317C12.3333 2.4127 11.5871 1.6665 10.6667 1.6665H7.33333C6.41286 1.6665 5.66667 2.4127 5.66667 3.33317V4.99984M9 9.99984H9.00833M3.16667 16.6665H14.8333C15.7538 16.6665 16.5 15.9203 16.5 14.9998V6.6665C16.5 5.74603 15.7538 4.99984 14.8333 4.99984H3.16667C2.24619 4.99984 1.5 5.74603 1.5 6.6665V14.9998C1.5 15.9203 2.24619 16.6665 3.16667 16.6665Z" stroke="#343434" stroke-width="2" stroke-linecap="round" stroke-linejoin="round"/>
</svg>
