<svg width="26" height="24" viewBox="0 0 26 24" fill="none" xmlns="http://www.w3.org/2000/svg">
<path fill-rule="evenodd" clip-rule="evenodd" d="M3.39995 4.00005C1.63264 4.00005 0.199951 5.43274 0.199951 7.20005V20C0.199951 21.7674 1.63264 23.2 3.39995 23.2H22.6C24.3673 23.2 25.8 21.7674 25.8 20V7.20005C25.8 5.43274 24.3673 4.00005 22.6 4.00005H20.0627C19.6383 4.00005 19.2314 3.83148 18.9313 3.53142L17.1372 1.73731C16.5371 1.13719 15.7232 0.800049 14.8745 0.800049H11.1254C10.2767 0.800049 9.46281 1.13719 8.86269 1.73731L7.06858 3.53142C6.76852 3.83148 6.36156 4.00005 5.93721 4.00005H3.39995ZM13 18.4C15.6509 18.4 17.8 16.251 17.8 13.6C17.8 10.9491 15.6509 8.80005 13 8.80005C10.349 8.80005 8.19995 10.9491 8.19995 13.6C8.19995 16.251 10.349 18.4 13 18.4Z" fill="#999999"/>
</svg>
