<svg width="32" height="32" viewBox="0 0 32 32" fill="none" xmlns="http://www.w3.org/2000/svg">
<g opacity="0.44">
<path fill-rule="evenodd" clip-rule="evenodd" d="M6.39995 8.00005C4.63264 8.00005 3.19995 9.43274 3.19995 11.2V24C3.19995 25.7674 4.63264 27.2 6.39995 27.2H25.6C27.3673 27.2 28.8 25.7674 28.8 24V11.2C28.8 9.43274 27.3673 8.00005 25.6 8.00005H23.0627C22.6383 8.00005 22.2314 7.83148 21.9313 7.53142L20.1372 5.73731C19.5371 5.13719 18.7232 4.80005 17.8745 4.80005H14.1254C13.2767 4.80005 12.4628 5.13719 11.8627 5.73731L10.0686 7.53142C9.76852 7.83148 9.36156 8.00005 8.93721 8.00005H6.39995ZM16 22.4C18.6509 22.4 20.8 20.251 20.8 17.6C20.8 14.9491 18.6509 12.8 16 12.8C13.349 12.8 11.2 14.9491 11.2 17.6C11.2 20.251 13.349 22.4 16 22.4Z" fill="#999999"/>
</g>
</svg>



