<svg width="18" height="18" viewBox="0 0 18 18" fill="none" xmlns="http://www.w3.org/2000/svg">
<path d="M16.175 17.5C15.875 17.5 15.585 17.39 15.355 17.17L14.095 16.01C13.715 15.66 13.225 15.47 12.715 15.47H9.295C7.625 15.47 6.255 14.11 6.255 12.43V11.01H11.345C12.955 11.01 14.265 9.69998 14.265 8.08998V6.59998L14.845 6.68998C16.335 6.91998 17.415 8.17998 17.415 9.68998V16.26C17.415 16.75 17.135 17.18 16.685 17.38C16.525 17.45 16.355 17.49 16.185 17.49L16.175 17.5ZM7.255 12.02V12.44C7.255 13.56 8.165 14.48 9.295 14.48H12.715C13.475 14.48 14.205 14.77 14.775 15.28L16.035 16.44C16.125 16.53 16.225 16.5 16.275 16.48C16.325 16.46 16.405 16.4 16.405 16.27V9.69998C16.405 8.90998 15.935 8.19998 15.255 7.86998V8.09998C15.255 10.26 13.495 12.02 11.335 12.02H7.255Z" fill="#999999"/>
<path d="M2.06496 14.75C1.86496 14.75 1.66496 14.71 1.46496 14.62C0.924961 14.38 0.584961 13.86 0.584961 13.27V4.42C0.584961 2.26 2.34496 0.5 4.50496 0.5H11.345C13.505 0.5 15.265 2.26 15.265 4.42V8.11C15.265 10.27 13.505 12.03 11.345 12.03H6.75496C6.00496 12.03 5.30496 12.3 4.75496 12.8L3.05496 14.36C2.77496 14.62 2.42496 14.75 2.06496 14.75ZM4.50496 1.5C2.89496 1.5 1.58496 2.81 1.58496 4.42V13.27C1.58496 13.56 1.80496 13.68 1.87496 13.71C1.94496 13.74 2.17496 13.82 2.38496 13.62L4.08496 12.06C4.81496 11.39 5.75496 11.02 6.73496 11.02H11.345C12.955 11.02 14.265 9.71 14.265 8.1V4.42C14.265 2.81 12.955 1.5 11.345 1.5H4.50496Z" fill="#999999"/>
</svg>
