<svg width="16" height="18" viewBox="0 0 16 18" fill="none" xmlns="http://www.w3.org/2000/svg">
<path d="M14.7646 7.58789V8.09789C14.7646 10.5379 12.7846 12.5179 10.3446 12.5179H5.76465C5.80465 13.8779 6.92465 14.9779 8.29465 14.9779H11.7146C12.3546 14.9779 12.9646 15.2179 13.4346 15.6479L14.6946 16.8079C15.1546 17.2379 15.9146 16.9079 15.9146 16.2779V9.70789C15.9146 8.81789 15.4546 8.04789 14.7646 7.59789V7.58789Z" fill="#FF453A"/>
<path d="M12.755 10.518C13.375 9.89805 13.755 9.04805 13.755 8.09805V7.18805V4.41805C13.755 2.52805 12.225 0.998047 10.335 0.998047H3.50496C1.61496 0.998047 0.0849609 2.52805 0.0849609 4.41805V13.268C0.0849609 13.858 0.564961 14.248 1.06496 14.248C1.29496 14.248 1.52496 14.168 1.71496 13.988L3.41496 12.428C4.04496 11.848 4.87496 11.528 5.72496 11.528H10.335C11.275 11.528 12.135 11.148 12.755 10.528V10.518Z" fill="#FF453A"/>
</svg>
