<svg width="16" height="18" viewBox="0 0 16 18" fill="none" xmlns="http://www.w3.org/2000/svg">
<path d="M14.7649 7.58777V8.09777C14.7649 10.5378 12.7849 12.5178 10.3449 12.5178H5.76489C5.80489 13.8778 6.92489 14.9778 8.29489 14.9778H11.7149C12.3549 14.9778 12.9649 15.2178 13.4349 15.6478L14.6949 16.8078C15.1549 17.2378 15.9149 16.9078 15.9149 16.2778V9.70777C15.9149 8.81777 15.4549 8.04777 14.7649 7.59777V7.58777Z" fill="#FF614C"/>
<path d="M12.755 10.5178C13.375 9.8978 13.755 9.0478 13.755 8.0978V7.1878V4.4178C13.755 2.5278 12.225 0.997803 10.335 0.997803H3.50496C1.61496 0.997803 0.0849609 2.5278 0.0849609 4.4178V13.2678C0.0849609 13.8578 0.564961 14.2478 1.06496 14.2478C1.29496 14.2478 1.52496 14.1678 1.71496 13.9878L3.41496 12.4278C4.04496 11.8478 4.87496 11.5278 5.72496 11.5278H10.335C11.275 11.5278 12.135 11.1478 12.755 10.5278V10.5178Z" fill="#FF614C"/>
</svg>
