<svg width="22" height="22" viewBox="0 0 22 22" fill="none" xmlns="http://www.w3.org/2000/svg">
<g clip-path="url(#clip0_139_9723)">
<path d="M21.344 10.7301C21.344 14.8888 18.8919 18.4726 15.356 20.1163C14.0326 20.7331 12.5536 21.0774 10.9967 21.0774C5.28115 21.0774 0.649414 16.4457 0.649414 10.7301C0.649414 5.01455 5.28115 0.382812 10.9967 0.382812C16.7123 0.382812 21.344 5.01455 21.344 10.7301Z" fill="#D9D9D9"/>
<path d="M11.2458 20.6948C7.62907 20.6768 4.23087 18.6259 2.51829 15.4343C0.805715 12.2427 0.931464 8.11093 2.98236 5.03009C5.03326 1.94926 8.4135 0.398358 11.9524 0.835484C15.4913 1.27261 18.6261 3.74566 19.9554 7.06003C21.4375 10.7636 20.5961 15.1499 17.7458 17.9672C17.4015 18.3085 17.0333 18.6259 16.641 18.9133C16.4554 19.0481 16.2668 19.2816 16.5333 19.4433C16.7758 19.593 17.2428 19.4822 17.4554 19.3265C19.2159 18.0391 20.5812 16.3115 21.3446 14.2606C22.1081 12.2097 22.1949 10.0511 21.674 7.99716C20.7159 4.2277 17.656 1.25465 13.8955 0.320514C10.1351 -0.613618 5.62907 0.616921 2.88356 3.578C0.138051 6.53908 -0.751171 10.7666 0.647033 14.5151C2.04524 18.2636 5.35063 20.8265 9.19793 21.3475C9.7129 21.4163 10.2279 21.4582 10.7488 21.4612C11.0303 21.4612 11.4554 21.3714 11.6051 21.099C11.7548 20.8265 11.4824 20.6948 11.2458 20.6948Z" fill="black"/>
<path d="M10.3683 13.4702C10.2455 13.4702 10.1228 13.4342 10.018 13.3564L4.86227 9.63783C4.59281 9.44322 4.53293 9.06897 4.72754 8.8025C4.92215 8.53304 5.29641 8.47316 5.56287 8.66777L10.3084 12.0899L15.7814 6.69771C16.018 6.46418 16.3952 6.46717 16.6287 6.7037C16.8623 6.94022 16.8593 7.31747 16.6228 7.551L10.7904 13.2995C10.6737 13.4133 10.524 13.4732 10.3713 13.4732L10.3683 13.4702Z" fill="#FF6057" stroke="#FF6057" stroke-width="0.408274" stroke-miterlimit="10"/>
</g>
<defs>
<clipPath id="clip0_139_9723">
<rect width="22" height="21.4611" fill="white"/>
</clipPath>
</defs>
</svg>
