<svg width="23" height="17" viewBox="0 0 23 17" fill="none" xmlns="http://www.w3.org/2000/svg">
<g clip-path="url(#clip0_2120_7671)">
<path d="M11.511 3.2865C14.8189 3.2865 18.1269 3.2865 21.4344 3.2865C22.4235 3.2865 23 3.85399 23 4.82861C23 8.37444 23 11.9203 23 15.4661C23 16.4256 22.4195 16.9991 21.4459 16.9991C14.8154 16.9996 8.18501 16.9996 1.55459 16.9991C0.580937 16.9996 0 16.426 0 15.4665C0 11.9138 0 8.36061 0 4.80744C0 3.86177 0.584015 3.2865 1.54272 3.2865C4.86518 3.2865 8.18765 3.2865 11.5101 3.2865H11.511ZM6.96421 9.61877C6.95145 12.0798 8.96648 14.0826 11.4758 14.1033C13.9794 14.1241 16.0292 12.1204 16.0367 9.64556C16.0441 7.19149 14.0291 5.1908 11.5361 5.17697C9.01398 5.16314 6.9774 7.14179 6.96421 9.61877Z" fill="#666666"/>
<path d="M15.9685 2.62569H7.08119C6.85515 1.2932 7.77383 0.23386 8.9014 0.0428243C9.05224 0.0173241 9.2066 0.0039257 9.35964 0.00349349C10.7867 0.000468039 12.2138 -0.00255741 13.6412 0.00349349C14.7882 0.00824777 15.6901 0.717499 15.9056 1.79067C15.9588 2.05518 15.9483 2.33179 15.969 2.62613L15.9685 2.62569Z" fill="#666666"/>
</g>
<defs>
<clipPath id="clip0_2120_7671">
<rect width="23" height="17" fill="white"/>
</clipPath>
</defs>
</svg>
