<svg width="56" height="56" viewBox="0 0 56 56" fill="none" xmlns="http://www.w3.org/2000/svg">
<circle cx="28" cy="28" r="28" fill="#FF6057"/>
<path d="M37.572 10.4941H18.2794C16.2903 10.4941 14.6777 12.1067 14.6777 14.0958V42.0222C14.6777 44.0114 16.2903 45.6239 18.2794 45.6239H37.572C39.5611 45.6239 41.1737 44.0114 41.1737 42.0222V14.0958C41.1737 12.1067 39.5611 10.4941 37.572 10.4941Z" fill="#FFEAE9"/>
<path d="M37.7476 45.135H34.3696C33.2381 45.135 32.1077 45.135 30.9762 45.135C29.7024 45.135 28.4276 45.135 27.1538 45.135C25.88 45.135 24.7065 45.135 23.4824 45.135C22.4838 45.135 21.4862 45.135 20.4876 45.135C19.8951 45.135 19.3017 45.135 18.7092 45.135C18.6241 45.135 18.5391 45.135 18.4541 45.135C18.5037 45.135 18.5362 45.1378 18.4665 45.135C18.4101 45.1321 18.3528 45.1292 18.2964 45.1245C18.1846 45.1149 18.0737 45.0996 17.9638 45.0796C17.9094 45.07 17.8549 45.0576 17.8014 45.0461C17.8941 45.0662 17.7937 45.0432 17.7574 45.0327C17.6523 45.0031 17.5491 44.9678 17.4478 44.9286C17.3465 44.8894 17.2481 44.8454 17.1516 44.7977C17.1105 44.7776 17.0694 44.7556 17.0293 44.7336C17.0025 44.7193 16.9757 44.704 16.949 44.6887C16.9929 44.7145 16.9681 44.7011 16.9394 44.682C16.7665 44.5683 16.6011 44.4469 16.4473 44.3084C15.8567 43.7752 15.4516 42.9916 15.3732 42.2108C15.357 42.0465 15.355 41.8812 15.355 41.7168C15.355 41.3183 15.355 40.9208 15.355 40.5223V35.2569C15.355 34.0777 15.355 32.8976 15.355 31.7184C15.355 30.5391 15.355 29.1726 15.355 27.8998C15.355 26.6269 15.355 25.3646 15.355 24.0974C15.355 22.8303 15.355 21.7247 15.355 20.5378C15.355 19.351 15.355 18.5215 15.355 17.5134V14.0522C15.355 13.9098 15.355 13.7674 15.3665 13.6241C15.3875 13.3642 15.4019 13.2867 15.4707 13.0459C15.529 12.8443 15.6054 12.6494 15.6962 12.4602C15.7038 12.4449 15.7497 12.3589 15.7153 12.421C15.6838 12.4783 15.722 12.4105 15.7258 12.4028C15.7487 12.3636 15.7717 12.3235 15.7956 12.2843C15.8558 12.1869 15.9208 12.0922 15.9896 12.0005C16.0173 11.9642 16.0479 11.9298 16.0746 11.8925C16.1243 11.8218 15.9991 11.9728 16.0593 11.9097C16.0746 11.8935 16.0899 11.8753 16.1052 11.8591C16.1769 11.7807 16.2523 11.7052 16.3317 11.6326C16.3708 11.5972 16.4148 11.5648 16.4521 11.5275C16.5065 11.4721 16.4005 11.5695 16.4024 11.5657C16.411 11.5514 16.4425 11.5342 16.4568 11.5237C16.5495 11.4558 16.6432 11.3899 16.7407 11.3297C16.7732 11.3096 16.8353 11.2886 16.8592 11.2599C16.8496 11.2714 16.6996 11.3411 16.8133 11.2867C16.8343 11.2771 16.8544 11.2657 16.8754 11.2561C16.9729 11.2083 17.0742 11.171 17.1726 11.1271C17.2433 11.0956 17.1047 11.1519 17.1019 11.1519C17.1114 11.1548 17.1745 11.128 17.1907 11.1223C17.2357 11.108 17.2806 11.0946 17.3255 11.0822C17.379 11.0678 17.4325 11.0545 17.486 11.042C17.509 11.0373 17.5329 11.0325 17.5558 11.0268C17.6447 11.0076 17.5587 11.0363 17.5223 11.0315C17.6198 11.0449 17.7574 11 17.8568 10.9933C17.938 10.9876 18.0202 10.9857 18.1014 10.9847C18.1893 10.9847 18.2773 10.9847 18.3652 10.9847H23.1441C24.374 10.9847 25.6048 10.9847 26.8347 10.9847C28.1027 10.9847 29.3708 10.9847 30.6389 10.9847C31.7732 10.9847 32.9085 10.9847 34.0428 10.9847C34.8521 10.9847 35.6606 10.9847 36.47 10.9847H37.1561C37.2153 10.9847 37.2755 10.9847 37.3348 10.9847C37.3682 10.9847 37.4562 10.9952 37.3319 10.9847C37.5498 11.0048 37.7619 11.0153 37.977 11.0602C37.9999 11.065 38.0228 11.0707 38.0467 11.0755C38.0257 11.0707 37.9454 11.0478 38.0458 11.0755C38.0907 11.0879 38.1356 11.1013 38.1805 11.1156C38.2847 11.1481 38.3869 11.1854 38.4863 11.2274C38.5857 11.2695 38.6831 11.3153 38.7787 11.366C38.8198 11.388 38.8599 11.4099 38.8991 11.4329C38.8303 11.3927 38.9603 11.473 38.9851 11.4893C39.1562 11.6039 39.3177 11.7329 39.4667 11.8753C39.5384 11.9432 39.6072 12.0148 39.6731 12.0884C39.7085 12.1286 39.7429 12.1687 39.7773 12.2098C39.7916 12.2279 39.806 12.2451 39.8203 12.2633L39.848 12.2996C39.8279 12.2719 39.827 12.2719 39.8452 12.2967C39.9646 12.4659 40.0716 12.6436 40.1615 12.83C40.2513 13.0163 40.3325 13.2304 40.3898 13.4406C40.4195 13.5486 40.4309 13.6088 40.4424 13.6719C40.4615 13.7827 40.4749 13.8945 40.4825 14.0063C40.5036 14.2939 40.4921 14.5864 40.4921 14.875C40.4921 15.1635 40.4921 16.057 40.4921 16.6485C40.4921 17.2401 40.4921 18.4307 40.4921 19.3223V22.6421C40.4921 23.8834 40.4921 25.1247 40.4921 26.366V41.6308C40.4921 41.95 40.5055 42.2749 40.4711 42.5921C40.4462 42.8215 40.4309 42.8979 40.3554 43.1416C40.2952 43.3356 40.215 43.5181 40.1299 43.7016C40.1032 43.7589 40.1385 43.6844 40.1423 43.6777C40.1271 43.7044 40.1127 43.7312 40.0974 43.758C40.0745 43.7981 40.0506 43.8373 40.0258 43.8755C39.9722 43.9596 39.9159 44.0408 39.8566 44.1201C39.8241 44.1631 39.7888 44.2033 39.7572 44.2463C39.8203 44.1622 39.784 44.2166 39.7419 44.2625C39.6703 44.3409 39.5948 44.4164 39.5155 44.489C39.482 44.5196 39.4467 44.5492 39.4123 44.5798C39.3224 44.661 39.5155 44.5062 39.3893 44.5979C39.3091 44.6562 39.2288 44.7145 39.1447 44.7671C39.0998 44.7957 39.052 44.8215 39.0071 44.8502C38.9412 44.8913 39.073 44.8129 39.074 44.8129C39.0635 44.811 39.0233 44.8397 39.0128 44.8445C38.922 44.8875 38.8322 44.9314 38.7386 44.9687C38.7242 44.9744 38.6554 44.9955 38.6516 45.0022C38.6516 45.0002 38.7969 44.9553 38.7214 44.9773C38.6688 44.9926 38.6172 45.0108 38.5646 45.026C38.4662 45.0547 38.3659 45.0748 38.2665 45.0977C38.1929 45.114 38.321 45.0882 38.3229 45.0882C38.3038 45.0853 38.2713 45.0958 38.2522 45.0987C38.1967 45.1063 38.1404 45.113 38.0849 45.1187C37.9712 45.1292 37.8575 45.134 37.7438 45.135C37.4323 45.1369 37.0175 45.3758 36.9143 45.6797C36.8016 46.0132 37.1332 46.1164 37.3931 46.1145C39.3568 46.1011 41.3196 44.6935 41.743 42.7345C41.8433 42.2682 41.8481 41.82 41.8481 41.3508V33.6878C41.8481 32.4398 41.8481 31.1928 41.8481 29.9448C41.8481 28.6968 41.8481 27.3656 41.8481 26.0755V18.9496C41.8481 18.0495 41.8481 17.1493 41.8481 16.2491C41.8481 15.6624 41.8481 15.0756 41.8481 14.4889C41.8481 14.1458 41.8624 13.7961 41.8185 13.4559C41.5824 11.5848 40.0143 10.1275 38.1279 10.0138C37.7142 9.98897 37.2937 10.0052 36.8799 10.0052H34.4661C33.326 10.0052 32.1851 10.0052 31.045 10.0052C29.7598 10.0052 28.4754 10.0052 27.1901 10.0052C25.9049 10.0052 24.7085 10.0052 23.4681 10.0052C22.4637 10.0052 21.4594 10.0052 20.4551 10.0052C19.8664 10.0052 19.2778 10.0052 18.6891 10.0052C18.5783 10.0052 18.4674 10.0033 18.3575 10.0062C17.3045 10.0348 16.2858 10.4668 15.486 11.1414C14.5304 11.9451 14 13.1281 14 14.3694V17.7246C14 18.7356 14 19.7466 14 20.7586C14 21.9512 14 23.1438 14 24.3354C14 25.527 14 26.8907 14 28.1683C14 29.4459 14 30.7379 14 32.0232C14 33.3085 14 34.416 14 35.6134V38.6684C14 39.4157 14 40.163 14 40.9103V42.0904C14 43.2372 14.4348 44.3285 15.2996 45.0996C15.9857 45.7122 16.9022 46.0791 17.8205 46.1097C17.9887 46.1154 18.1559 46.1145 18.3241 46.1145H26.785C28.0703 46.1145 29.3565 46.1145 30.6418 46.1145C31.7808 46.1145 32.9199 46.1145 34.059 46.1145H37.3959C37.7075 46.1145 38.1232 45.8727 38.2254 45.5698C38.3391 45.2344 38.0056 45.135 37.7467 45.135H37.7476Z" fill="black"/>
<path d="M20.9928 16.8617C21.4553 16.8617 21.9178 16.8617 22.3803 16.8617C23.4907 16.8617 24.6012 16.8617 25.7116 16.8617H33.1987C33.7625 16.8617 34.3282 16.8742 34.892 16.8617C34.8997 16.8617 34.9083 16.8617 34.9159 16.8617C35.0879 16.8617 35.3029 16.7738 35.4357 16.6678C35.5437 16.5817 35.668 16.4269 35.6727 16.2788C35.6842 15.91 35.3316 15.7829 35.022 15.7829H33.6344C32.524 15.7829 31.4136 15.7829 30.3032 15.7829H22.8151C22.2513 15.7829 21.6856 15.7704 21.1218 15.7829C21.1142 15.7829 21.1056 15.7829 21.0979 15.7829C20.9259 15.7829 20.7109 15.8708 20.5781 15.9769C20.4701 16.0629 20.3459 16.2177 20.3411 16.3658C20.3296 16.7346 20.6822 16.8617 20.9919 16.8617H20.9928Z" fill="black"/>
<path d="M20.7702 22.5233H32.9761C33.5409 22.5233 34.1047 22.5291 34.6694 22.5233C34.6771 22.5233 34.6857 22.5233 34.6933 22.5233C34.8739 22.5233 35.0689 22.4823 35.2352 22.4125C35.3546 22.3628 35.5362 22.2711 35.6088 22.1535C35.777 21.885 35.4645 21.7799 35.2428 21.7799H23.0369C22.4722 21.7799 21.9084 21.7742 21.3436 21.7799C21.336 21.7799 21.3274 21.7799 21.3197 21.7799C21.1391 21.7799 20.9442 21.821 20.7779 21.8907C20.6584 21.9404 20.4769 22.0322 20.4043 22.1497C20.2361 22.4182 20.5485 22.5233 20.7702 22.5233Z" fill="black"/>
<path d="M20.9818 28.4768C21.4444 28.4768 21.9069 28.4768 22.3694 28.4768C23.4798 28.4768 24.5902 28.4768 25.7006 28.4768H29.716C30.8733 28.4768 32.0305 28.4768 33.1877 28.4768C33.7515 28.4768 34.3172 28.4892 34.881 28.4768C34.8887 28.4768 34.8973 28.4768 34.9049 28.4768C35.0731 28.4768 35.2929 28.387 35.4257 28.2867C35.5299 28.2083 35.6618 28.064 35.6694 27.9235C35.6885 27.5623 35.3158 27.4801 35.032 27.4801H22.8261C22.2623 27.4801 21.6966 27.4677 21.1328 27.4801C21.1252 27.4801 21.1166 27.4801 21.1089 27.4801C20.9408 27.4801 20.721 27.57 20.5881 27.6703C20.484 27.7487 20.3521 27.893 20.3445 28.0334C20.3253 28.3946 20.698 28.4768 20.9818 28.4768Z" fill="black"/>
<path d="M20.9827 34.31H28.5912C28.7604 34.31 28.9792 34.2202 29.112 34.1198C29.2162 34.0415 29.3481 33.8952 29.3547 33.7538C29.3729 33.3916 29.0021 33.3047 28.7164 33.3047H21.1079C20.9388 33.3047 20.7199 33.3945 20.5871 33.4949C20.483 33.5732 20.3511 33.7194 20.3444 33.8608C20.3262 34.223 20.697 34.31 20.9827 34.31Z" fill="black"/>
<path d="M20.9755 40.111H28.584C28.7503 40.111 28.972 40.0202 29.1058 39.9237C29.2071 39.8501 29.3437 39.7115 29.3533 39.5739C29.3772 39.2184 28.9921 39.1602 28.7245 39.1602H21.115C20.9488 39.1602 20.7271 39.2509 20.5933 39.3475C20.492 39.421 20.3553 39.5596 20.3458 39.6972C20.3219 40.0527 20.707 40.111 20.9746 40.111H20.9755Z" fill="black"/>
<path d="M50.4068 21.6455C50.9573 21.0951 50.9573 20.2016 50.4068 19.6512L48.1841 17.4284C47.6337 16.878 46.7402 16.878 46.1898 17.4284L33.917 29.7022L38.1331 33.9183L50.4068 21.6455Z" fill="#FF453A"/>
<path d="M36.2627 35.087C36.9421 34.8691 37.5604 34.4926 38.065 33.988L38.1338 33.9192L33.9177 29.7031L33.8488 29.7719C33.3443 30.2765 32.9678 30.8948 32.7499 31.5742L32.167 33.3965L34.4413 35.6708L36.2636 35.0879L36.2627 35.087Z" fill="#FFD7A7"/>
<path d="M32.1662 33.3965L31.5824 35.2217C31.3788 35.8581 31.9789 36.4582 32.6154 36.2547L34.4406 35.6708L32.1662 33.3965V33.3965Z" fill="#585967"/>
<path d="M50.9178 19.424C50.2632 18.7694 49.6077 18.1139 48.9531 17.4593C48.868 17.3742 48.783 17.2873 48.697 17.2032C48.3482 16.8611 47.8818 16.6709 47.3926 16.6661C46.7495 16.6595 46.1436 16.9031 45.6897 17.357C45.3562 17.6906 45.0236 18.0231 44.6901 18.3566C44.0346 19.0121 43.38 19.6667 42.7245 20.3223C41.8912 21.1556 41.0579 21.9888 40.2246 22.8221C39.3913 23.6554 38.4902 24.5565 37.6225 25.4242C36.8647 26.182 36.1079 26.9388 35.3501 27.6966C34.8465 28.2002 34.3429 28.7038 33.8384 29.2084C33.3338 29.713 32.8627 30.1898 32.532 30.8148C32.3084 31.239 32.1718 31.6949 32.0265 32.1488C31.8517 32.6944 31.6777 33.2391 31.5029 33.7848C31.3576 34.2377 31.2124 34.6916 31.0681 35.1446C31.0098 35.3281 30.9706 35.5001 30.9907 35.6988C31.0442 36.2301 31.5248 36.5675 32.0189 36.6353C32.469 36.6974 32.9133 36.5073 33.3347 36.3716C33.8919 36.1929 34.449 36.0151 35.0061 35.8364C35.4266 35.7017 35.848 35.567 36.2684 35.4322C37.1132 35.1618 37.8824 34.7375 38.5151 34.1097C38.7473 33.8794 38.9776 33.6472 39.2088 33.4159C39.7822 32.8425 40.3555 32.2692 40.9289 31.6958L43.3131 29.3116C44.1856 28.4391 45.0571 27.5676 45.9296 26.6952L48.3463 24.2785C48.9416 23.6831 49.5369 23.0878 50.1323 22.4924C50.3731 22.2516 50.6168 22.0127 50.8557 21.7691C51.1395 21.4795 51.3421 21.0992 51.3707 20.6902C51.4042 20.2219 51.2446 19.7623 50.9159 19.425C50.7353 19.2396 50.3884 19.2816 50.1743 19.3839C50.03 19.4536 49.7042 19.6878 49.8924 19.8808C49.9689 19.9591 50.0377 20.0442 50.096 20.1378C50.1036 20.1503 50.139 20.2143 50.1113 20.1608C50.1218 20.1808 50.1313 20.2009 50.1399 20.221C50.1648 20.2764 50.1858 20.3337 50.203 20.392C50.2326 20.4924 50.2498 20.5946 50.2594 20.6988C50.2603 20.7102 50.2594 20.7647 50.2594 20.7064C50.2594 20.7284 50.2594 20.7504 50.2575 20.7724C50.2546 20.8383 50.247 20.9033 50.2345 20.9683C50.2269 21.0113 50.2164 21.0543 50.204 21.0963C50.1963 21.1231 50.1868 21.1489 50.1791 21.1756C50.161 21.2349 50.2173 21.0992 50.1715 21.1928C50.1495 21.2387 50.1275 21.2836 50.1027 21.3276C50.0883 21.3524 50.073 21.3763 50.0577 21.3992C50.0444 21.4193 49.9794 21.4986 50.0453 21.4212C50.0128 21.4594 49.9794 21.4958 49.944 21.5321C49.8647 21.6133 49.7835 21.6926 49.7032 21.7729C49.257 22.2191 48.8097 22.6664 48.3635 23.1126C47.6496 23.8265 46.9348 24.5412 46.221 25.2551C45.3734 26.1027 44.5267 26.9494 43.6791 27.797C42.842 28.6341 42.004 29.4721 41.1668 30.3092C40.4731 31.003 39.7803 31.6958 39.0865 32.3896C38.6737 32.8024 38.2609 33.2152 37.848 33.628L37.6751 33.801C37.6244 33.8517 37.5747 33.9013 37.5231 33.951C37.4849 33.9874 37.4457 34.0227 37.4066 34.0581C37.3817 34.08 37.3569 34.1011 37.332 34.123C37.3167 34.1355 37.3014 34.1488 37.2862 34.1613C37.3339 34.123 37.3358 34.1211 37.2928 34.1555C37.1982 34.2263 37.1036 34.297 37.0052 34.3619C36.9555 34.3944 36.9058 34.426 36.8552 34.4566C36.8275 34.4738 36.7988 34.49 36.7701 34.5062C36.6736 34.5645 36.8647 34.4585 36.7558 34.5148C36.6469 34.5712 36.5446 34.6209 36.4357 34.6677C36.3755 34.6935 36.3143 34.7184 36.2522 34.7423C36.2274 34.7518 36.2015 34.7595 36.1777 34.77C36.3258 34.7069 36.2044 34.7595 36.1719 34.77C36.1509 34.7767 36.1289 34.7834 36.1079 34.791C35.1494 35.0978 34.191 35.4045 33.2315 35.7113L32.6802 35.888C32.6352 35.9024 32.5903 35.9167 32.5445 35.931C32.5378 35.933 32.5311 35.9358 32.5244 35.9377C32.5129 35.9416 32.4804 35.9511 32.491 35.9482C32.4002 35.9788 32.5282 35.9377 32.5416 35.9416L32.5091 35.9454C32.4508 35.9502 32.4652 35.9502 32.5521 35.9473C32.5426 35.9425 32.4556 35.9454 32.4566 35.9406C32.4594 35.9301 32.576 35.9721 32.49 35.9425C32.489 35.9425 32.4336 35.931 32.4308 35.9253L32.4776 35.9454C32.4632 35.9396 32.4499 35.933 32.4355 35.9263C32.4136 35.9138 32.3906 35.9033 32.3686 35.89C32.3514 35.8794 32.3352 35.867 32.318 35.8565C32.2473 35.8106 32.3342 35.8909 32.3123 35.8508C32.2884 35.8078 32.232 35.7676 32.2014 35.7256C32.1899 35.7093 32.1794 35.6921 32.168 35.6749C32.1154 35.5966 32.1823 35.7122 32.1613 35.6597C32.1441 35.6166 32.1269 35.5736 32.1154 35.5287C32.1087 35.5029 32.1058 35.4771 32.1001 35.4523C32.0963 35.437 32.0915 35.3672 32.0944 35.4322C32.0925 35.3777 32.0992 35.3223 32.1087 35.2688C32.1288 35.1627 32.1699 35.0576 32.2024 34.9544C32.5225 33.9549 32.8417 32.9563 33.1618 31.9567C33.2048 31.822 33.2478 31.6882 33.2908 31.5534C33.3185 31.4674 33.3472 31.3805 33.3797 31.2964C33.373 31.3126 33.3586 31.348 33.3883 31.2773C33.3988 31.2534 33.4083 31.2285 33.4188 31.2046C33.4446 31.1444 33.4724 31.0842 33.501 31.025C33.5584 30.9065 33.6205 30.7909 33.6883 30.6781C33.7485 30.5768 33.8135 30.4774 33.8823 30.3819C33.9205 30.3284 33.9597 30.2758 33.9998 30.2242C33.9884 30.2385 33.9502 30.2844 34.0046 30.2194C34.0304 30.1888 34.0553 30.1592 34.0811 30.1286C34.1719 30.0245 34.2684 29.9261 34.3658 29.8276L34.4213 29.7722C34.7538 29.4397 35.0864 29.1071 35.418 28.7755C36.0611 28.1324 36.7052 27.4883 37.3483 26.8452C38.1691 26.0243 38.989 25.2044 39.8099 24.3836C40.6308 23.5627 41.5137 22.6797 42.3661 21.8273C43.123 21.0705 43.8798 20.3137 44.6366 19.5568L46.1866 18.0069L46.565 17.6284C46.588 17.6055 46.6109 17.5826 46.6338 17.5596C46.6348 17.5587 46.6357 17.5577 46.6367 17.5568C46.652 17.5415 46.7456 17.4526 46.6912 17.5033C46.6329 17.5577 46.716 17.4861 46.7237 17.4803C46.7514 17.4603 46.78 17.4431 46.8097 17.4249C46.8918 17.3733 46.781 17.4459 46.7743 17.444C46.7848 17.4478 46.8374 17.4144 46.8498 17.4087C46.9014 17.3867 46.9511 17.3943 46.8144 17.4173C46.8345 17.4134 46.8584 17.4029 46.8775 17.3972C46.9043 17.3895 46.931 17.3838 46.9578 17.3771C47.0342 17.357 46.8049 17.3953 46.9205 17.3848C46.9425 17.3829 46.9635 17.379 46.9855 17.3771C47.0017 17.3752 47.018 17.3742 47.0342 17.3733C47.0753 17.3714 47.0562 17.3714 46.975 17.3733C47.0103 17.3886 47.0992 17.38 47.1384 17.3828C47.1862 17.3867 47.1776 17.4106 47.1107 17.3781C47.126 17.3857 47.1565 17.3876 47.1747 17.3915C47.2292 17.4039 47.2798 17.423 47.3333 17.4392C47.2492 17.4144 47.2999 17.4249 47.3219 17.4354C47.3515 17.4507 47.3821 17.4641 47.4117 17.4794C47.4614 17.5061 47.5101 17.5357 47.556 17.5682C47.5741 17.5816 47.5933 17.595 47.6114 17.6093C47.5569 17.5654 47.6152 17.6151 47.6277 17.6265C47.6449 17.6428 47.6611 17.659 47.6773 17.6753C47.7796 17.7766 47.8799 17.8779 47.9812 17.9791C48.3835 18.3815 48.7858 18.7838 49.1882 19.1861L49.8876 19.8856C50.0711 20.069 50.4132 20.0299 50.6292 19.9267C50.7716 19.8579 51.1022 19.6209 50.9111 19.4297L50.9178 19.424Z" fill="black"/>
<path d="M35.9132 31.5665C35.8205 31.4738 34.1357 29.7891 34.1357 29.7891Z" fill="#FF7976"/>
<path d="M36.4323 31.3683L34.8651 29.8011L34.6549 29.5908C34.5946 29.5306 34.4379 29.5335 34.3672 29.5364C34.2258 29.5421 34.0662 29.5765 33.9353 29.63C33.8359 29.6702 33.4613 29.8317 33.6161 29.9865L35.1355 31.5059L35.3935 31.7639C35.4537 31.8241 35.6105 31.8212 35.6812 31.8183C35.8226 31.8126 35.9822 31.7782 36.1131 31.7247C36.2125 31.6846 36.5871 31.5231 36.4323 31.3683Z" fill="black"/>
<path d="M34.3155 35.6378C34.262 35.5843 33.2949 34.6172 33.2949 34.6172Z" fill="#FF7976"/>
<path d="M34.8355 35.4396C34.5354 35.1395 34.2353 34.8394 33.9353 34.5394L33.8149 34.419C33.7547 34.3588 33.598 34.3616 33.5272 34.3645C33.3858 34.3702 33.2262 34.4046 33.0953 34.4582C32.9912 34.5002 32.8612 34.5499 32.7895 34.6416C32.7456 34.698 32.7159 34.7544 32.7761 34.8146L33.6486 35.6871L33.7967 35.8352C33.8569 35.8954 34.0136 35.8925 34.0844 35.8896C34.2258 35.8839 34.3854 35.8495 34.5163 35.796C34.6205 35.7539 34.7504 35.7043 34.8221 35.6125C34.866 35.5561 34.8957 35.4998 34.8355 35.4396V35.4396Z" fill="black"/>
</svg>
