<svg width="20" height="20" viewBox="0 0 20 20" fill="none" xmlns="http://www.w3.org/2000/svg">
<path d="M18.8971 1.10297C17.9598 0.16571 16.4402 0.16571 15.503 1.10297L6.40002 10.2059V13.6H9.79413L18.8971 4.49708C19.8343 3.55982 19.8343 2.04023 18.8971 1.10297Z" fill="#F5F5F5"/>
<path fill-rule="evenodd" clip-rule="evenodd" d="M0.400024 5.20002C0.400024 3.87454 1.47454 2.80002 2.80002 2.80002H7.60002C8.26277 2.80002 8.80002 3.33728 8.80002 4.00002C8.80002 4.66277 8.26277 5.20002 7.60002 5.20002H2.80002V17.2H14.8V12.4C14.8 11.7373 15.3373 11.2 16 11.2C16.6628 11.2 17.2 11.7373 17.2 12.4V17.2C17.2 18.5255 16.1255 19.6 14.8 19.6H2.80002C1.47454 19.6 0.400024 18.5255 0.400024 17.2V5.20002Z" fill="#F5F5F5"/>
</svg>
