<svg width="72" height="72" viewBox="-10 0 72 50" fill="none" xmlns="http://www.w3.org/2000/svg">
<g filter="url(#filter0_d_1500_5427)">
<circle cx="34" cy="32" r="28" fill="#FF6057"/>
<circle cx="34" cy="32" r="27" stroke="#FF4A40" stroke-width="2"/>
</g>
<path d="M41.0845 15.3893H23.4695C21.6533 15.3893 20.181 16.8616 20.181 18.6778V44.1758C20.181 45.992 21.6533 47.4643 23.4695 47.4643H41.0845C42.9007 47.4643 44.373 45.992 44.373 44.1758V18.6778C44.373 16.8616 42.9007 15.3893 41.0845 15.3893Z" fill="#FFEAE9"/>
<path d="M41.2451 47.0173H38.1608C37.1278 47.0173 36.0956 47.0173 35.0625 47.0173C33.8995 47.0173 32.7356 47.0173 31.5725 47.0173C30.4095 47.0173 29.338 47.0173 28.2204 47.0173C27.3086 47.0173 26.3977 47.0173 25.4859 47.0173C24.945 47.0173 24.4032 47.0173 23.8622 47.0173C23.7845 47.0173 23.7069 47.0173 23.6292 47.0173C23.6746 47.0173 23.7043 47.0199 23.6406 47.0173C23.5891 47.0146 23.5368 47.012 23.4853 47.0077C23.3832 46.9989 23.282 46.985 23.1816 46.9667C23.1319 46.9579 23.0822 46.9466 23.0333 46.9361C23.118 46.9544 23.0263 46.9335 22.9932 46.9239C22.8972 46.8969 22.803 46.8646 22.7105 46.8288C22.618 46.793 22.5281 46.7529 22.44 46.7093C22.4025 46.6909 22.365 46.6709 22.3283 46.6508C22.3039 46.6377 22.2795 46.6238 22.255 46.6098C22.2952 46.6334 22.2725 46.6211 22.2463 46.6037C22.0884 46.4999 21.9375 46.3891 21.797 46.2625C21.2578 45.7757 20.8878 45.0602 20.8163 44.3474C20.8015 44.1973 20.7997 44.0464 20.7997 43.8963C20.7997 43.5325 20.7997 43.1695 20.7997 42.8057V37.9982C20.7997 36.9215 20.7997 35.844 20.7997 34.7673C20.7997 33.6906 20.7997 32.443 20.7997 31.2808C20.7997 30.1186 20.7997 28.966 20.7997 27.8091C20.7997 26.6521 20.7997 25.6427 20.7997 24.559C20.7997 23.4754 20.7997 22.718 20.7997 21.7975V18.6373C20.7997 18.5073 20.7997 18.3773 20.8102 18.2464C20.8294 18.0091 20.8425 17.9384 20.9053 17.7186C20.9585 17.5345 21.0283 17.3565 21.1112 17.1837C21.1182 17.1698 21.1601 17.0912 21.1286 17.148C21.0999 17.2003 21.1348 17.1384 21.1382 17.1314C21.1592 17.0956 21.1801 17.059 21.2019 17.0232C21.2569 16.9342 21.3162 16.8478 21.3791 16.7641C21.4044 16.7309 21.4323 16.6995 21.4567 16.6655C21.5021 16.6009 21.3878 16.7387 21.4427 16.6812C21.4567 16.6663 21.4707 16.6498 21.4846 16.6349C21.5501 16.5634 21.619 16.4944 21.6914 16.4281C21.7272 16.3959 21.7673 16.3662 21.8013 16.3322C21.8511 16.2816 21.7542 16.3706 21.756 16.3671C21.7638 16.354 21.7926 16.3383 21.8057 16.3287C21.8903 16.2667 21.9758 16.2065 22.0648 16.1516C22.0945 16.1332 22.1512 16.114 22.173 16.0879C22.1643 16.0983 22.0273 16.162 22.1312 16.1123C22.1503 16.1036 22.1687 16.0931 22.1879 16.0844C22.2769 16.0407 22.3693 16.0067 22.4592 15.9666C22.5238 15.9378 22.3973 15.9893 22.3946 15.9893C22.4034 15.9919 22.461 15.9675 22.4758 15.9622C22.5168 15.9491 22.5578 15.9369 22.5988 15.9256C22.6477 15.9125 22.6965 15.9003 22.7454 15.8889C22.7663 15.8846 22.7881 15.8802 22.8091 15.875C22.8902 15.8575 22.8117 15.8837 22.7786 15.8793C22.8675 15.8915 22.9932 15.8505 23.0839 15.8444C23.1581 15.8392 23.2331 15.8375 23.3073 15.8366C23.3876 15.8366 23.4678 15.8366 23.5481 15.8366H27.9115C29.0344 15.8366 30.1582 15.8366 31.2811 15.8366C32.4389 15.8366 33.5967 15.8366 34.7545 15.8366C35.7902 15.8366 36.8267 15.8366 37.8624 15.8366C38.6014 15.8366 39.3396 15.8366 40.0786 15.8366H40.705C40.7591 15.8366 40.8141 15.8366 40.8682 15.8366C40.8987 15.8366 40.979 15.8462 40.8656 15.8366C41.0645 15.8549 41.2582 15.8645 41.4545 15.9055C41.4754 15.9099 41.4964 15.9151 41.5182 15.9195C41.499 15.9151 41.4257 15.8942 41.5173 15.9195C41.5583 15.9308 41.5993 15.943 41.6403 15.9561C41.7354 15.9858 41.8288 16.0198 41.9195 16.0582C42.0103 16.0966 42.0993 16.1385 42.1865 16.1847C42.224 16.2048 42.2607 16.2248 42.2965 16.2458C42.2336 16.2091 42.3523 16.2824 42.375 16.2973C42.5312 16.402 42.6786 16.5198 42.8147 16.6498C42.8802 16.7117 42.943 16.7771 43.0032 16.8443C43.0355 16.881 43.0669 16.9176 43.0983 16.9551C43.1114 16.9717 43.1245 16.9874 43.1376 17.004L43.1629 17.0371C43.1445 17.0118 43.1437 17.0118 43.1602 17.0345C43.2693 17.189 43.367 17.3512 43.449 17.5214C43.5311 17.6915 43.6052 17.887 43.6576 18.0789C43.6846 18.1775 43.6951 18.2325 43.7056 18.2901C43.723 18.3913 43.7352 18.4934 43.7422 18.5954C43.7614 18.8581 43.7509 19.125 43.7509 19.3885C43.7509 19.652 43.7509 20.4678 43.7509 21.0079C43.7509 21.548 43.7509 22.6351 43.7509 23.4492V26.4803C43.7509 27.6136 43.7509 28.747 43.7509 29.8804V43.8178C43.7509 44.1092 43.7631 44.4059 43.7317 44.6955C43.7091 44.9049 43.6951 44.9747 43.6262 45.1972C43.5712 45.3743 43.4979 45.541 43.4203 45.7085C43.3958 45.7609 43.4281 45.6928 43.4316 45.6867C43.4176 45.7111 43.4045 45.7356 43.3906 45.76C43.3696 45.7966 43.3478 45.8324 43.3251 45.8673C43.2763 45.9441 43.2248 46.0182 43.1707 46.0907C43.1411 46.1299 43.1088 46.1666 43.08 46.2058C43.1376 46.1291 43.1044 46.1788 43.066 46.2207C43.0006 46.2922 42.9317 46.3611 42.8592 46.4275C42.8287 46.4554 42.7964 46.4824 42.765 46.5103C42.683 46.5845 42.8592 46.4432 42.7441 46.5269C42.6708 46.5801 42.5975 46.6334 42.5207 46.6814C42.4797 46.7075 42.4361 46.7311 42.3951 46.7573C42.3349 46.7948 42.4553 46.7232 42.4561 46.7232C42.4465 46.7215 42.4099 46.7477 42.4003 46.752C42.3174 46.7913 42.2354 46.8314 42.1499 46.8654C42.1368 46.8707 42.074 46.8899 42.0705 46.896C42.0705 46.8942 42.2031 46.8532 42.1342 46.8733C42.0862 46.8873 42.0391 46.9038 41.9911 46.9178C41.9012 46.944 41.8096 46.9623 41.7189 46.9832C41.6517 46.9981 41.7686 46.9745 41.7703 46.9745C41.7529 46.9719 41.7232 46.9815 41.7058 46.9841C41.6552 46.9911 41.6037 46.9972 41.5531 47.0024C41.4493 47.012 41.3454 47.0164 41.2416 47.0173C40.9572 47.019 40.5785 47.2371 40.4843 47.5146C40.3813 47.8191 40.6841 47.9133 40.9214 47.9116C42.7144 47.8994 44.5065 46.6142 44.893 44.8255C44.9847 44.3998 44.989 43.9905 44.989 43.5621V36.5655C44.989 35.426 44.989 34.2874 44.989 33.1479C44.989 32.0084 44.989 30.793 44.989 29.6152V23.1089C44.989 22.287 44.989 21.4651 44.989 20.6432C44.989 20.1075 44.989 19.5718 44.989 19.0361C44.989 18.7228 45.0021 18.4035 44.962 18.0929C44.7465 16.3845 43.3147 15.0539 41.5924 14.9501C41.2146 14.9274 40.8307 14.9423 40.4529 14.9423H38.2489C37.208 14.9423 36.1663 14.9423 35.1254 14.9423C33.9518 14.9423 32.7792 14.9423 31.6057 14.9423C30.4322 14.9423 29.3398 14.9423 28.2073 14.9423C27.2903 14.9423 26.3733 14.9423 25.4563 14.9423C24.9188 14.9423 24.3813 14.9423 23.8439 14.9423C23.7427 14.9423 23.6415 14.9405 23.5411 14.9431C22.5796 14.9693 21.6495 15.3637 20.9192 15.9797C20.0467 16.7134 19.5625 17.7936 19.5625 18.927V21.9904C19.5625 22.9135 19.5625 23.8366 19.5625 24.7606C19.5625 25.8494 19.5625 26.9383 19.5625 28.0263C19.5625 29.1143 19.5625 30.3594 19.5625 31.526C19.5625 32.6925 19.5625 33.8721 19.5625 35.0456C19.5625 36.2192 19.5625 37.2304 19.5625 38.3236V41.113C19.5625 41.7953 19.5625 42.4776 19.5625 43.1599V44.2375C19.5625 45.2845 19.9595 46.2809 20.7491 46.985C21.3756 47.5443 22.2123 47.8793 23.0508 47.9072C23.2043 47.9125 23.357 47.9116 23.5106 47.9116H31.2357C32.4093 47.9116 33.5836 47.9116 34.7572 47.9116C35.7972 47.9116 36.8372 47.9116 37.8772 47.9116H40.924C41.2085 47.9116 41.588 47.6908 41.6814 47.4143C41.7852 47.108 41.4807 47.0173 41.2442 47.0173H41.2451Z" fill="black"/>
<path d="M25.9467 21.2034C26.369 21.2034 26.7913 21.2034 27.2136 21.2034C28.2275 21.2034 29.2413 21.2034 30.2552 21.2034H37.0912C37.606 21.2034 38.1225 21.2147 38.6373 21.2034C38.6443 21.2034 38.6521 21.2034 38.6591 21.2034C38.8162 21.2034 39.0125 21.1231 39.1338 21.0262C39.2324 20.9477 39.3458 20.8064 39.3501 20.6711C39.3606 20.3343 39.0387 20.2183 38.756 20.2183H37.4891C36.4752 20.2183 35.4614 20.2183 34.4475 20.2183H27.6106C27.0958 20.2183 26.5793 20.207 26.0645 20.2183C26.0575 20.2183 26.0497 20.2183 26.0427 20.2183C25.8857 20.2183 25.6893 20.2986 25.5681 20.3954C25.4695 20.4739 25.3561 20.6153 25.3517 20.7505C25.3412 21.0873 25.6632 21.2034 25.9459 21.2034H25.9467Z" fill="black"/>
<path d="M25.7442 26.371H36.8886C37.4043 26.371 37.9191 26.3762 38.4347 26.371C38.4417 26.371 38.4496 26.371 38.4565 26.371C38.6214 26.371 38.7994 26.3334 38.9512 26.2697C39.0603 26.2244 39.2261 26.1406 39.2924 26.0333C39.446 25.7881 39.1606 25.6921 38.9582 25.6921H27.8137C27.2981 25.6921 26.7833 25.6869 26.2677 25.6921C26.2607 25.6921 26.2528 25.6921 26.2458 25.6921C26.0809 25.6921 25.9029 25.7297 25.7511 25.7934C25.6421 25.8387 25.4763 25.9225 25.41 26.0298C25.2564 26.275 25.5417 26.371 25.7442 26.371Z" fill="black"/>
<path d="M25.9371 31.8078C26.3594 31.8078 26.7817 31.8078 27.204 31.8078C28.2178 31.8078 29.2317 31.8078 30.2455 31.8078H33.9118C34.9684 31.8078 36.025 31.8078 37.0816 31.8078C37.5964 31.8078 38.1129 31.8191 38.6277 31.8078C38.6347 31.8078 38.6425 31.8078 38.6495 31.8078C38.803 31.8078 39.0037 31.7257 39.125 31.6341C39.2201 31.5626 39.3405 31.4308 39.3475 31.3026C39.3649 30.9728 39.0247 30.8977 38.7655 30.8977H27.621C27.1063 30.8977 26.5897 30.8864 26.075 30.8977C26.068 30.8977 26.0601 30.8977 26.0531 30.8977C25.8996 30.8977 25.6989 30.9798 25.5776 31.0714C25.4825 31.1429 25.3621 31.2747 25.3551 31.4029C25.3377 31.7327 25.678 31.8078 25.9371 31.8078Z" fill="black"/>
<path d="M25.9379 37.1334H32.8848C33.0392 37.1334 33.239 37.0514 33.3603 36.9598C33.4554 36.8883 33.5758 36.7548 33.5819 36.6257C33.5985 36.295 33.26 36.2156 32.9991 36.2156H26.0522C25.8978 36.2156 25.698 36.2976 25.5767 36.3892C25.4816 36.4607 25.3612 36.5942 25.3551 36.7234C25.3385 37.0541 25.677 37.1334 25.9379 37.1334Z" fill="black"/>
<path d="M25.9312 42.4294H32.8781C33.0299 42.4294 33.2323 42.3465 33.3544 42.2584C33.4469 42.1912 33.5717 42.0647 33.5804 41.9391C33.6022 41.6145 33.2506 41.5613 33.0063 41.5613H26.0586C25.9067 41.5613 25.7043 41.6442 25.5822 41.7323C25.4897 41.7995 25.3649 41.926 25.3562 42.0516C25.3344 42.3762 25.686 42.4294 25.9303 42.4294H25.9312Z" fill="black"/>
<path d="M52.8031 25.5709C53.3057 25.0683 53.3057 24.2526 52.8031 23.75L50.7737 21.7205C50.2711 21.218 49.4553 21.218 48.9528 21.7205L37.7472 32.927L41.5967 36.7765L52.8031 25.5709Z" fill="#FF453A"/>
<path d="M39.889 37.8429C40.5093 37.644 41.0738 37.3002 41.5345 36.8396L41.5973 36.7767L37.7478 32.9272L37.685 32.9901C37.2243 33.4507 36.8806 34.0153 36.6816 34.6356L36.1494 36.2995L38.226 38.376L39.8898 37.8438L39.889 37.8429Z" fill="#FFD7A7"/>
<path d="M36.1485 36.2996L35.6154 37.966C35.4295 38.5471 35.9775 39.0951 36.5585 38.9092L38.225 38.3761L36.1485 36.2996Z" fill="#585967"/>
<path d="M53.27 23.5425C52.6723 22.9448 52.0738 22.3463 51.4761 21.7486C51.3985 21.6709 51.3208 21.5915 51.2423 21.5148C50.9238 21.2024 50.498 21.0288 50.0513 21.0244C49.4641 21.0183 48.9109 21.2408 48.4965 21.6552C48.192 21.9597 47.8884 22.2634 47.5839 22.5679C46.9853 23.1664 46.3877 23.7641 45.7891 24.3626C45.0283 25.1234 44.2675 25.8843 43.5067 26.6451C42.7458 27.4059 41.9231 28.2287 41.1308 29.0209C40.4389 29.7128 39.7479 30.4038 39.056 31.0957C38.5962 31.5555 38.1364 32.0153 37.6757 32.476C37.215 32.9367 36.7849 33.3721 36.483 33.9427C36.2788 34.3301 36.1541 34.7463 36.0214 35.1607C35.8618 35.6589 35.703 36.1563 35.5433 36.6545C35.4107 37.068 35.2781 37.4825 35.1463 37.896C35.0931 38.0635 35.0573 38.2206 35.0757 38.4021C35.1245 38.8872 35.5634 39.1952 36.0145 39.2571C36.4254 39.3138 36.8311 39.1402 37.2159 39.0163C37.7246 38.8532 38.2332 38.6909 38.7419 38.5277C39.1258 38.4047 39.5106 38.2817 39.8945 38.1587C40.6658 37.9117 41.3682 37.5243 41.9457 36.9511C42.1578 36.7408 42.368 36.5288 42.5792 36.3177C43.1027 35.7942 43.6262 35.2707 44.1497 34.7472L46.3266 32.5703C47.1232 31.7737 47.9189 30.9779 48.7155 30.1813L50.9221 27.9748C51.4656 27.4312 52.0092 26.8876 52.5528 26.3441C52.7726 26.1242 52.9951 25.9061 53.2133 25.6836C53.4724 25.4192 53.6574 25.072 53.6835 24.6985C53.7141 24.271 53.5684 23.8513 53.2682 23.5433C53.1033 23.3741 52.7866 23.4125 52.5912 23.5058C52.4594 23.5695 52.1619 23.7833 52.3338 23.9595C52.4036 24.0311 52.4664 24.1087 52.5196 24.1942C52.5266 24.2056 52.5589 24.264 52.5336 24.2152C52.5432 24.2335 52.5519 24.2518 52.5598 24.2701C52.5824 24.3207 52.6016 24.3731 52.6173 24.4263C52.6444 24.5179 52.6601 24.6113 52.6688 24.7064C52.6697 24.7169 52.6688 24.7666 52.6688 24.7134C52.6688 24.7334 52.6688 24.7535 52.6671 24.7736C52.6645 24.8338 52.6575 24.8931 52.6461 24.9524C52.6392 24.9917 52.6296 25.031 52.6182 25.0693C52.6112 25.0938 52.6025 25.1173 52.5955 25.1418C52.579 25.1959 52.6304 25.072 52.5886 25.1575C52.5685 25.1993 52.5484 25.2404 52.5257 25.2805C52.5126 25.3032 52.4987 25.325 52.4847 25.3459C52.4725 25.3643 52.4132 25.4367 52.4734 25.366C52.4437 25.4009 52.4132 25.4341 52.3809 25.4672C52.3085 25.5414 52.2343 25.6138 52.161 25.6871C51.7536 26.0945 51.3452 26.5029 50.9378 26.9103C50.286 27.5621 49.6334 28.2147 48.9816 28.8665C48.2077 29.6404 47.4347 30.4134 46.6608 31.1873C45.8964 31.9517 45.1313 32.7168 44.3669 33.4812C43.7335 34.1146 43.1009 34.7472 42.4675 35.3806C42.0906 35.7575 41.7137 36.1344 41.3367 36.5114L41.1788 36.6693C41.1326 36.7155 41.0872 36.7609 41.0401 36.8063C41.0052 36.8394 40.9694 36.8717 40.9336 36.904C40.911 36.9241 40.8883 36.9433 40.8656 36.9633C40.8516 36.9747 40.8377 36.9869 40.8237 36.9982C40.8673 36.9633 40.8691 36.9616 40.8298 36.993C40.7434 37.0576 40.6571 37.1221 40.5672 37.1814C40.5218 37.2111 40.4765 37.2399 40.4302 37.2678C40.4049 37.2835 40.3787 37.2984 40.3526 37.3132C40.2644 37.3664 40.4389 37.2696 40.3395 37.321C40.24 37.3725 40.1466 37.4179 40.0472 37.4606C39.9922 37.4842 39.9364 37.5069 39.8797 37.5287C39.857 37.5374 39.8334 37.5444 39.8116 37.554C39.9468 37.4964 39.836 37.5444 39.8064 37.554C39.7872 37.5601 39.7671 37.5662 39.7479 37.5732C38.8728 37.8533 37.9977 38.1333 37.1217 38.4134L36.6182 38.5748C36.5772 38.5879 36.5362 38.601 36.4943 38.6141C36.4882 38.6158 36.4821 38.6185 36.476 38.6202C36.4655 38.6237 36.4359 38.6324 36.4455 38.6298C36.3626 38.6577 36.4795 38.6202 36.4917 38.6237L36.4621 38.6272C36.4088 38.6315 36.4219 38.6315 36.5013 38.6289C36.4926 38.6246 36.4132 38.6272 36.4141 38.6228C36.4167 38.6132 36.5231 38.6516 36.4446 38.6246C36.4437 38.6246 36.3931 38.6141 36.3905 38.6089L36.4333 38.6272C36.4202 38.622 36.408 38.6158 36.3949 38.6097C36.3748 38.5984 36.3539 38.5888 36.3338 38.5766C36.3181 38.567 36.3033 38.5556 36.2876 38.546C36.223 38.5042 36.3024 38.5775 36.2823 38.5408C36.2605 38.5015 36.209 38.4649 36.1811 38.4265C36.1706 38.4117 36.161 38.396 36.1506 38.3803C36.1026 38.3087 36.1637 38.4143 36.1445 38.3663C36.1288 38.327 36.1131 38.2878 36.1026 38.2468C36.0965 38.2232 36.0939 38.1997 36.0886 38.177C36.0851 38.163 36.0808 38.0993 36.0834 38.1587C36.0816 38.1089 36.0878 38.0583 36.0965 38.0095C36.1148 37.9126 36.1523 37.8166 36.182 37.7224C36.4743 36.8098 36.7657 35.898 37.058 34.9854C37.0972 34.8623 37.1365 34.7402 37.1758 34.6172C37.2011 34.5386 37.2272 34.4592 37.2569 34.3825C37.2508 34.3973 37.2377 34.4296 37.2648 34.365C37.2744 34.3432 37.2831 34.3205 37.2927 34.2987C37.3162 34.2437 37.3415 34.1888 37.3677 34.1347C37.4201 34.0265 37.4768 33.9209 37.5387 33.8179C37.5937 33.7255 37.653 33.6347 37.7158 33.5475C37.7507 33.4986 37.7865 33.4506 37.8232 33.4035C37.8127 33.4166 37.7778 33.4585 37.8275 33.3991C37.8511 33.3712 37.8738 33.3442 37.8973 33.3163C37.9802 33.2211 38.0683 33.1313 38.1573 33.0414L38.2079 32.9908C38.5116 32.6872 38.8152 32.3835 39.118 32.0808C39.7052 31.4936 40.2932 30.9055 40.8804 30.3183C41.6299 29.5688 42.3785 28.8202 43.128 28.0708C43.8775 27.3213 44.6837 26.5151 45.4619 25.7368C46.153 25.0458 46.844 24.3548 47.535 23.6637L48.9502 22.2485L49.2957 21.903C49.3167 21.8821 49.3376 21.8611 49.3585 21.8402C49.3594 21.8393 49.3603 21.8385 49.3612 21.8376C49.3751 21.8236 49.4606 21.7425 49.4109 21.7887C49.3577 21.8385 49.4336 21.773 49.4406 21.7678C49.4659 21.7495 49.492 21.7338 49.5191 21.7172C49.5941 21.6701 49.4929 21.7364 49.4868 21.7346C49.4964 21.7381 49.5444 21.7076 49.5557 21.7024C49.6028 21.6823 49.6482 21.6893 49.5234 21.7102C49.5418 21.7067 49.5636 21.6971 49.581 21.6919C49.6055 21.6849 49.6299 21.6797 49.6543 21.6736C49.7241 21.6552 49.5147 21.6901 49.6203 21.6805C49.6404 21.6788 49.6596 21.6753 49.6796 21.6736C49.6945 21.6718 49.7093 21.6709 49.7241 21.6701C49.7616 21.6683 49.7442 21.6683 49.67 21.6701C49.7023 21.684 49.7835 21.6762 49.8192 21.6788C49.8629 21.6823 49.855 21.7041 49.7939 21.6744C49.8079 21.6814 49.8358 21.6832 49.8524 21.6866C49.9021 21.698 49.9484 21.7154 49.9972 21.7303C49.9204 21.7076 49.9667 21.7172 49.9867 21.7268C50.0138 21.7407 50.0417 21.753 50.0688 21.7669C50.1141 21.7913 50.1586 21.8184 50.2005 21.8481C50.2171 21.8603 50.2345 21.8725 50.2511 21.8856C50.2014 21.8454 50.2546 21.8908 50.2659 21.9013C50.2817 21.9161 50.2965 21.9309 50.3113 21.9458C50.4047 22.0383 50.4963 22.1308 50.5888 22.2232C50.9561 22.5906 51.3234 22.9579 51.6907 23.3252L52.3294 23.9639C52.4969 24.1314 52.8093 24.0956 53.0065 24.0014C53.1365 23.9386 53.4384 23.7222 53.2639 23.5477L53.27 23.5425Z" fill="black"/>
<path d="M39.57 34.6297C39.4854 34.5451 37.9471 33.0068 37.9471 33.0068L39.57 34.6297Z" fill="#FF7976"/>
<path d="M40.0437 34.4486L38.6128 33.0177L38.4208 32.8258C38.3658 32.7708 38.2227 32.7734 38.1582 32.776C38.0291 32.7813 37.8833 32.8127 37.7638 32.8615C37.6731 32.8982 37.331 33.0456 37.4724 33.187L38.8597 34.5742L39.0952 34.8098C39.1502 34.8648 39.2933 34.8622 39.3579 34.8596C39.487 34.8543 39.6327 34.8229 39.7522 34.7741C39.843 34.7374 40.185 34.59 40.0437 34.4486Z" fill="black"/>
<path d="M38.112 38.3453C38.0632 38.2964 37.1802 37.4135 37.1802 37.4135L38.112 38.3453Z" fill="#FF7976"/>
<path d="M38.5864 38.1648C38.3125 37.8908 38.0385 37.6169 37.7645 37.3429L37.6546 37.233C37.5996 37.178 37.4565 37.1806 37.392 37.1832C37.2628 37.1885 37.1171 37.2199 36.9976 37.2688C36.9025 37.3071 36.7838 37.3525 36.7184 37.4363C36.6783 37.4877 36.6512 37.5392 36.7062 37.5942L37.5028 38.3908L37.638 38.526C37.693 38.581 37.8361 38.5784 37.9006 38.5758C38.0298 38.5705 38.1755 38.5391 38.295 38.4903C38.3901 38.4519 38.5088 38.4065 38.5742 38.3227C38.6143 38.2713 38.6414 38.2198 38.5864 38.1648Z" fill="black"/>
<defs>
<filter id="filter0_d_1500_5427" x="0" y="0" width="72" height="72" filterUnits="userSpaceOnUse" color-interpolation-filters="sRGB">
<feFlood flood-opacity="0" result="BackgroundImageFix"/>
<feColorMatrix in="SourceAlpha" type="matrix" values="0 0 0 0 0 0 0 0 0 0 0 0 0 0 0 0 0 0 127 0" result="hardAlpha"/>
<feOffset dx="2" dy="4"/>
<feGaussianBlur stdDeviation="4"/>
<feComposite in2="hardAlpha" operator="out"/>
<feColorMatrix type="matrix" values="0 0 0 0 1 0 0 0 0 0.270588 0 0 0 0 0.227451 0 0 0 0.2 0"/>
<feBlend mode="normal" in2="BackgroundImageFix" result="effect1_dropShadow_1500_5427"/>
<feBlend mode="normal" in="SourceGraphic" in2="effect1_dropShadow_1500_5427" result="shape"/>
</filter>
</defs>
</svg>
