<svg width="30" height="27" viewBox="0 0 30 27" fill="none" xmlns="http://www.w3.org/2000/svg">
<path d="M26.1485 2.68458C22.9847 -0.479169 17.8564 -0.479169 14.6943 2.68458L14.5972 2.78172L14.5 2.68458C11.3363 -0.477494 6.20798 -0.477494 3.04591 2.68458C-0.117841 5.84832 -0.117841 10.9766 3.04591 14.1387L3.14305 14.2359L14.5972 25.69L26.1485 14.1387C29.3122 10.975 29.3122 5.84665 26.1485 2.68458Z" fill="#FF453A"/>
<path d="M26.8219 2.50364C26.8219 2.46679 26.7365 2.3998 26.7063 2.37133C26.6661 2.33113 26.6242 2.29261 26.5824 2.25409C26.5003 2.17705 26.4166 2.10168 26.3311 2.02799C26.1586 1.87893 25.9794 1.73657 25.7935 1.60258C25.4351 1.34299 25.0549 1.11354 24.6597 0.915906C23.844 0.508923 22.9832 0.237602 22.0821 0.100266C20.1678 -0.192829 18.1563 0.168934 16.4279 1.02477C15.5118 1.47865 14.6995 2.08996 13.9793 2.81013L15.227 2.54049C14.6275 1.9409 13.9626 1.42003 13.2122 1.02142C12.405 0.59099 11.5508 0.301245 10.6531 0.138787C8.73877 -0.207902 6.72563 0.122039 4.96874 0.934329C4.48472 1.15876 4.02079 1.43008 3.58533 1.73657C3.38101 1.88061 3.18338 2.03469 2.99245 2.19715C2.87521 2.29596 2.75965 2.39645 2.64743 2.50029C2.54694 2.59408 2.36774 2.71802 2.36774 2.86373L2.42635 2.71299C1.32097 3.82675 0.527102 5.24868 0.192137 6.78617C-0.132779 8.27844 -0.0473632 9.85445 0.461784 11.2948C0.892214 12.5124 1.61574 13.5826 2.52684 14.492C2.77472 14.7399 3.02092 14.9861 3.26879 15.234C3.80139 15.7666 4.33566 16.3009 4.86825 16.8335C5.57503 17.5402 6.2818 18.247 6.99026 18.9555C7.759 19.7242 8.52607 20.4913 9.29482 21.26C10.0116 21.9768 10.7285 22.6937 11.4453 23.4105L13.1034 25.0686L13.9307 25.8959L13.9676 25.9328C14.0128 25.978 14.1116 25.9897 14.1702 25.9964C14.3059 26.0115 14.4449 25.9897 14.5755 25.9613C14.8016 25.9127 15.0478 25.8289 15.2153 25.6615C15.4046 25.4722 15.5922 25.2846 15.7814 25.0954C16.2755 24.6013 16.7679 24.1089 17.262 23.6148C17.947 22.9298 18.6303 22.2465 19.3153 21.5615C20.084 20.7927 20.8511 20.0257 21.6199 19.2569C22.3886 18.4882 23.0904 17.7864 23.8256 17.0512C24.4202 16.4566 25.0147 15.8621 25.6093 15.2675L26.6393 14.2375C27.2942 13.5826 27.8603 12.8524 28.2873 12.0267C28.9891 10.6701 29.2922 9.11753 29.1733 7.59679C29.0527 6.0459 28.4766 4.56535 27.5454 3.32096C27.3126 3.01111 27.058 2.71802 26.7833 2.44335C26.7113 2.36966 26.5187 2.373 26.4333 2.37635C26.2608 2.38305 26.0665 2.42492 25.9074 2.49024C25.7868 2.53881 25.3313 2.73644 25.5189 2.92402C25.8588 3.26569 26.1687 3.63582 26.445 4.03108L26.4032 3.97079C27.2406 5.17834 27.738 6.60194 27.8318 8.06741C27.8586 8.4744 27.8536 8.88138 27.8184 9.28836L27.8251 9.21467C27.7112 10.5026 27.2942 11.7571 26.6008 12.849C26.5807 12.8809 26.5589 12.9144 26.5388 12.9462C26.5003 13.0048 26.5271 12.9629 26.5355 12.9512C26.5238 12.9696 26.5104 12.9881 26.4986 13.0065C26.4517 13.0751 26.4048 13.1421 26.3546 13.2091C26.2558 13.3431 26.1536 13.4754 26.0464 13.6044C25.884 13.8003 25.7115 13.9896 25.5306 14.1705C25.4854 14.2157 25.4418 14.2592 25.3966 14.3045L24.5692 15.1318L23.1641 16.537C22.5712 17.1299 21.9783 17.7228 21.3871 18.314C20.7372 18.9638 20.0891 19.612 19.4392 20.2618C18.8028 20.8983 18.168 21.533 17.5316 22.1694C16.9722 22.7288 16.4112 23.2899 15.8518 23.8493C15.4381 24.263 15.0244 24.6767 14.609 25.092C14.4081 25.293 14.2071 25.4906 14.0078 25.6933C13.9994 25.7017 13.991 25.71 13.981 25.7201L15.2287 25.4504L14.8921 25.1138L13.9843 24.206C13.5388 23.7605 13.0916 23.3134 12.6461 22.8679C12.1102 22.3319 11.5726 21.7943 11.0366 21.2583L9.28979 19.5115C8.71533 18.937 8.14254 18.3642 7.56807 17.7898C7.0472 17.2689 6.52633 16.748 6.00378 16.2255C5.58843 15.8101 5.17474 15.3965 4.75939 14.9811L3.97054 14.1923C3.73942 13.9611 3.50662 13.7333 3.29224 13.4872C3.09796 13.2644 2.91708 13.0316 2.74792 12.7904L2.78979 12.8507C1.95238 11.6432 1.45496 10.2196 1.36117 8.75409C1.33437 8.34711 1.33939 7.94013 1.37456 7.53314L1.36786 7.60684C1.43151 6.87494 1.59229 6.15476 1.84854 5.46641C1.9775 5.12307 2.12824 4.7881 2.30242 4.46654C2.38951 4.30408 2.4833 4.1433 2.58211 3.98586C2.60556 3.94902 2.62901 3.91217 2.65246 3.87532C2.69098 3.8167 2.66418 3.85858 2.65581 3.8703C2.66753 3.85188 2.68093 3.83345 2.69265 3.81503C2.7496 3.73296 2.80654 3.65257 2.86516 3.57218C2.99077 3.40135 3.12476 3.23554 3.26209 3.07643C3.33579 2.99102 3.41115 2.90727 3.48987 2.82521C3.57529 2.73309 3.7143 2.63763 3.7143 2.50364L3.65568 2.65438C3.73272 2.57901 3.80976 2.50364 3.88848 2.42995C3.92532 2.39478 3.96385 2.36128 4.00069 2.32778C4.01744 2.31271 4.03419 2.29764 4.05094 2.28256C4.12965 2.21222 3.98729 2.33616 4.06099 2.27419C4.22679 2.13518 4.39762 2.00119 4.57348 1.87391C4.6589 1.81361 4.74431 1.75332 4.83141 1.69638C4.86825 1.67293 4.9051 1.6478 4.94194 1.62436C4.96539 1.60928 4.98884 1.59589 5.01061 1.58081C5.02736 1.57076 5.13287 1.50712 5.04578 1.55904C4.95869 1.61096 5.0977 1.52889 5.1245 1.51382C5.17139 1.48702 5.21829 1.46022 5.26686 1.43343C5.36233 1.38151 5.45779 1.33126 5.55493 1.28269C5.64202 1.23915 5.72911 1.19895 5.81788 1.15708C5.8564 1.13866 5.93009 1.11186 5.75256 1.18555C5.77768 1.1755 5.80113 1.16378 5.82625 1.15373C5.87985 1.13028 5.93511 1.10851 5.99038 1.08674C6.07915 1.05157 6.16959 1.0164 6.26003 0.984574C6.30525 0.967826 6.35047 0.952752 6.39569 0.937679C6.41746 0.929305 6.44761 0.912556 6.47106 0.912556L6.3555 0.949403C6.37559 0.942703 6.39569 0.936004 6.41579 0.929305C6.6084 0.869011 6.80435 0.817091 7.00198 0.770196C7.02208 0.765172 7.04385 0.760147 7.06395 0.756798C7.18621 0.728326 6.90316 0.790294 6.99193 0.771871C7.03883 0.761822 7.08572 0.753448 7.13262 0.743399C7.23645 0.723301 7.34197 0.706553 7.44581 0.689805C7.5396 0.676406 7.63506 0.664682 7.72885 0.652958C7.84777 0.637885 7.58817 0.666357 7.67191 0.659658C7.69871 0.657983 7.72383 0.654633 7.75063 0.652958C7.80255 0.647934 7.85614 0.644584 7.90806 0.63956C8.10904 0.626161 8.31002 0.619462 8.511 0.619462C8.53779 0.619462 8.56459 0.619462 8.58971 0.619462C8.66676 0.619462 8.44065 0.616112 8.55454 0.619462C8.60144 0.619462 8.65001 0.622812 8.6969 0.624486C8.80242 0.629511 8.90793 0.63621 9.01344 0.644584C9.21442 0.661333 9.41373 0.686455 9.61303 0.716602C9.65993 0.723301 9.70682 0.731675 9.75372 0.740049C9.77382 0.743399 9.79726 0.746749 9.81569 0.751773C9.69175 0.718277 9.79559 0.748423 9.82239 0.753448C9.9212 0.773546 10.02 0.795319 10.1188 0.818766C10.3215 0.867336 10.5208 0.92428 10.7184 0.987924C10.916 1.05157 11.1036 1.12023 11.2912 1.19728C11.38 1.23412 11.4704 1.27264 11.5575 1.31284C11.6011 1.33294 11.6463 1.35304 11.6898 1.37481C11.7149 1.38653 11.7384 1.39826 11.7635 1.40998C11.8607 1.45687 11.6999 1.37648 11.7953 1.42673C12.6026 1.84041 13.3144 2.38138 13.9542 3.02116C13.9994 3.06638 14.0982 3.07811 14.1568 3.08481C14.2925 3.09988 14.4315 3.07811 14.5621 3.04963C14.7882 3.00106 15.0344 2.91732 15.2019 2.74984C15.3141 2.63763 15.428 2.52541 15.5453 2.41655C15.5871 2.37803 15.629 2.34118 15.6709 2.30266C15.6876 2.28759 15.7044 2.27084 15.7211 2.25744C15.6324 2.32443 15.696 2.27921 15.7194 2.25912C15.8049 2.1871 15.892 2.11676 15.979 2.04809C16.1449 1.91913 16.3157 1.79686 16.4915 1.6813C16.5334 1.6545 16.5736 1.62771 16.6155 1.60091C16.649 1.57914 16.8215 1.48367 16.6574 1.57411C16.7528 1.52219 16.8449 1.46357 16.9404 1.41165C17.1196 1.31451 17.3022 1.21235 17.4931 1.13866C17.4914 1.13866 17.334 1.20733 17.4278 1.16713C17.4479 1.15876 17.468 1.15038 17.4864 1.14201C17.5366 1.12023 17.5852 1.10014 17.6355 1.08004C17.7343 1.03984 17.8348 1.003 17.9369 0.966151C17.9821 0.949403 18.0274 0.934329 18.0726 0.919256C18.1228 0.902507 18.2183 0.87571 18.0022 0.941028C18.0223 0.934329 18.0424 0.92763 18.0625 0.920931C18.1647 0.889109 18.2669 0.858962 18.369 0.832165C18.4611 0.807042 18.5549 0.783595 18.647 0.763497C18.6722 0.756798 18.699 0.751773 18.7241 0.746749C18.8112 0.726651 18.5298 0.786944 18.6521 0.761822C18.704 0.751773 18.7559 0.741724 18.8078 0.731675C19.0055 0.694829 19.2048 0.669707 19.4057 0.642909C19.1746 0.671382 19.3773 0.646259 19.4275 0.642909C19.4694 0.63956 19.5113 0.63621 19.5548 0.632861C19.6603 0.626161 19.7658 0.619462 19.8713 0.616112C19.9769 0.612763 20.0723 0.611088 20.1728 0.612763C20.1996 0.612763 20.2264 0.612763 20.2515 0.612763C20.2448 0.612763 20.1075 0.609413 20.1996 0.612763C20.2582 0.614437 20.3152 0.616112 20.3738 0.619462C20.5748 0.629511 20.7757 0.646259 20.9751 0.671381C21.0755 0.683105 21.1744 0.698179 21.2732 0.713252C21.315 0.719951 21.3569 0.726651 21.3988 0.735025C21.4072 0.735025 21.511 0.756798 21.434 0.741724C21.3569 0.726651 21.4691 0.748424 21.4842 0.751773C21.6869 0.793644 21.8895 0.842214 22.0888 0.899158C22.4807 1.01137 22.8626 1.15206 23.2327 1.32121C23.2813 1.34299 23.3299 1.36643 23.3784 1.38988C23.3751 1.38988 23.4705 1.4351 23.4236 1.41165C23.3885 1.39323 23.4739 1.43678 23.4823 1.4418C23.5844 1.49372 23.6832 1.54899 23.7821 1.60426C23.9914 1.72317 24.1957 1.85213 24.3934 1.98947C24.7886 2.26414 25.1588 2.57566 25.5004 2.91565L25.4586 2.85535C25.4586 2.94412 25.6595 2.97427 25.7031 2.97929C25.8605 2.99604 26.0481 2.96757 26.1988 2.9257C26.3931 2.87043 26.8051 2.75319 26.8051 2.49527L26.8219 2.50364Z" fill="#050101"/>
</svg>


