<svg width="18" height="18" viewBox="0 0 18 18" fill="none" xmlns="http://www.w3.org/2000/svg">
<path d="M13.505 17.4944H11.685L11.755 16.9344C11.765 16.8244 11.775 16.7044 11.775 16.5844V12.6144C11.775 11.0844 10.535 9.84437 9.00497 9.84437C7.47497 9.84437 6.23497 11.0844 6.23497 12.6144V16.5844C6.23497 16.7044 6.23497 16.8144 6.25497 16.9344L6.32497 17.4944H4.50497C2.35497 17.4944 0.594971 15.7444 0.594971 13.5844V6.38437C0.594971 5.78437 0.894971 5.24437 1.40497 4.92437L8.09497 0.754369C8.64497 0.414369 9.36497 0.404369 9.91497 0.754369L16.595 4.93437C17.105 5.25437 17.405 5.79437 17.405 6.39437V13.5944C17.405 15.7444 15.655 17.5044 13.495 17.5044L13.505 17.4944ZM12.775 16.4944H13.505C15.105 16.4944 16.415 15.1944 16.415 13.5844V6.38437C16.415 6.13437 16.285 5.90437 16.075 5.77437L9.38497 1.60437C9.15497 1.45437 8.86497 1.45437 8.62497 1.60437L1.94497 5.77437C1.73497 5.90437 1.60497 6.13437 1.60497 6.38437V13.5844C1.60497 15.1844 2.90497 16.4944 4.51497 16.4944H5.24497V12.6144C5.24497 10.5344 6.93497 8.84437 9.01497 8.84437C11.095 8.84437 12.785 10.5344 12.785 12.6144V16.4944H12.775Z" fill="#999999"/>
<path d="M12.685 17.4944H5.32499L5.26499 17.0544C5.24499 16.9044 5.23499 16.7444 5.23499 16.5844V12.6144C5.23499 10.5344 6.92498 8.84436 9.00498 8.84436C11.085 8.84436 12.775 10.5344 12.775 12.6144V16.5844C12.775 16.7444 12.765 16.9044 12.745 17.0544L12.685 17.4944ZM6.23499 16.4944H11.775V12.6144C11.775 11.0844 10.535 9.84436 9.00498 9.84436C7.47498 9.84436 6.23499 11.0844 6.23499 12.6144V16.4944V16.4944Z" fill="#999999"/>
</svg>
