<svg width="18" height="18" viewBox="0 0 18 18" fill="none" xmlns="http://www.w3.org/2000/svg">
<path d="M16.5898 4.93305L9.89984 0.753047C9.34984 0.413047 8.62984 0.413047 8.07984 0.753047L1.39984 4.93305C0.899844 5.25305 0.589844 5.79305 0.589844 6.39305V13.593C0.589844 15.743 2.33984 17.503 4.49984 17.503H5.30984L5.25984 17.063C5.23984 16.913 5.22984 16.753 5.22984 16.593V12.623C5.22984 10.543 6.91984 8.85305 8.99984 8.85305C11.0798 8.85305 12.7698 10.543 12.7698 12.623V16.593C12.7698 16.753 12.7598 16.913 12.7398 17.063L12.6898 17.503H13.4998C15.6498 17.503 17.4098 15.753 17.4098 13.593V6.38305C17.4098 5.78305 17.1098 5.24305 16.5998 4.92305L16.5898 4.93305Z" fill="#FF453A"/>
<path d="M8.98973 9.84277C7.45973 9.84277 6.21973 11.0828 6.21973 12.6128V17.4928H11.7597V12.6128C11.7597 11.0828 10.5197 9.84277 8.98973 9.84277V9.84277Z" fill="#FF453A"/>
</svg>
