<svg width="18" height="18" viewBox="0 0 18 18" fill="none" xmlns="http://www.w3.org/2000/svg">
<path d="M16.59 4.93256L9.89997 0.752559C9.34997 0.412559 8.62997 0.412559 8.07997 0.752559L1.39997 4.93256C0.899966 5.25256 0.589966 5.79256 0.589966 6.39256V13.5926C0.589966 15.7426 2.33997 17.5026 4.49997 17.5026H5.30997L5.25997 17.0626C5.23997 16.9126 5.22997 16.7526 5.22997 16.5926V12.6226C5.22997 10.5426 6.91997 8.85256 8.99997 8.85256C11.08 8.85256 12.77 10.5426 12.77 12.6226V16.5926C12.77 16.7526 12.76 16.9126 12.74 17.0626L12.69 17.5026H13.5C15.65 17.5026 17.41 15.7526 17.41 13.5926V6.38256C17.41 5.78256 17.11 5.24256 16.6 4.92256L16.59 4.93256Z" fill="#FF614C"/>
<path d="M8.98997 9.84253C7.45997 9.84253 6.21997 11.0825 6.21997 12.6125V17.4925H11.76V12.6125C11.76 11.0825 10.52 9.84253 8.98997 9.84253V9.84253Z" fill="#FF614C"/>
</svg>
