<svg width="20" height="20" viewBox="0 0 20 20" fill="none" xmlns="http://www.w3.org/2000/svg">
<path d="M9.99992 4.16659L9.99992 4.17492M9.99992 9.99992L9.99992 10.0083M9.99992 15.8333L9.99992 15.8416M9.99992 4.99992C9.53968 4.99992 9.16659 4.62682 9.16659 4.16659C9.16659 3.70635 9.53968 3.33325 9.99992 3.33325C10.4602 3.33325 10.8333 3.70635 10.8333 4.16659C10.8333 4.62682 10.4602 4.99992 9.99992 4.99992ZM9.99992 10.8333C9.53968 10.8333 9.16659 10.4602 9.16659 9.99992C9.16659 9.53968 9.53968 9.16659 9.99992 9.16659C10.4602 9.16659 10.8333 9.53968 10.8333 9.99992C10.8333 10.4602 10.4602 10.8333 9.99992 10.8333ZM9.99992 16.6666C9.53968 16.6666 9.16658 16.2935 9.16659 15.8333C9.16659 15.373 9.53968 14.9999 9.99992 14.9999C10.4602 14.9999 10.8333 15.373 10.8333 15.8333C10.8333 16.2935 10.4602 16.6666 9.99992 16.6666Z" stroke="#999999" stroke-linecap="round" stroke-linejoin="round"/>
</svg>
