<svg width="16" height="18" viewBox="0 0 16 18" fill="none" xmlns="http://www.w3.org/2000/svg">
<path d="M12.7141 12.8807C11.9865 13.6083 10.519 15.0758 9.41348 16.1813C8.63243 16.9624 7.36763 16.9623 6.58658 16.1813C5.50097 15.0957 4.0605 13.6552 3.286 12.8807C0.6825 10.2772 0.6825 6.05612 3.286 3.45262C5.88949 0.849126 10.1106 0.849126 12.7141 3.45262C15.3176 6.05612 15.3176 10.2772 12.7141 12.8807Z" stroke="#343434" stroke-width="2" stroke-linecap="round" stroke-linejoin="round"/>
<path d="M10.5 8.16667C10.5 9.54738 9.38075 10.6667 8.00004 10.6667C6.61933 10.6667 5.50004 9.54738 5.50004 8.16667C5.50004 6.78596 6.61933 5.66667 8.00004 5.66667C9.38075 5.66667 10.5 6.78596 10.5 8.16667Z" stroke="#343434" stroke-width="2" stroke-linecap="round" stroke-linejoin="round"/>
</svg>
