<svg width="16" height="18" viewBox="0 0 16 18" fill="none" xmlns="http://www.w3.org/2000/svg">
<path d="M12.714 12.8807C11.9865 13.6083 10.5189 15.0758 9.41343 16.1813C8.63239 16.9624 7.36759 16.9623 6.58654 16.1813C5.50092 15.0957 4.06046 13.6552 3.28595 12.8807C0.682459 10.2772 0.682459 6.05612 3.28595 3.45262C5.88945 0.849126 10.1105 0.849126 12.714 3.45262C15.3175 6.05612 15.3175 10.2772 12.714 12.8807Z" stroke="#343434" stroke-width="2" stroke-linecap="round" stroke-linejoin="round"/>
<path d="M10.5 8.16667C10.5 9.54738 9.38071 10.6667 8 10.6667C6.61929 10.6667 5.5 9.54738 5.5 8.16667C5.5 6.78596 6.61929 5.66667 8 5.66667C9.38071 5.66667 10.5 6.78596 10.5 8.16667Z" stroke="#343434" stroke-width="2" stroke-linecap="round" stroke-linejoin="round"/>
</svg>
