<svg width="24" height="24" viewBox="0 0 24 24" fill="none" xmlns="http://www.w3.org/2000/svg">
<path d="M14.9421 15.3978C13.4194 15.3978 11.9309 14.9463 10.6649 14.1003C9.39877 13.2543 8.41198 12.0519 7.82927 10.6451C7.24656 9.23837 7.0941 7.69037 7.39116 6.19691C7.68823 4.70348 8.42147 3.33168 9.49819 2.25496C10.5749 1.17825 11.9467 0.444999 13.4401 0.147936C14.9336 -0.149128 16.4816 0.00333595 17.8884 0.586049C19.2952 1.16876 20.4976 2.15555 21.3435 3.42162C22.1895 4.68771 22.641 6.17621 22.641 7.69891H14.9421V15.3978Z" fill="#FF5C21"/>
<path d="M14.9421 8.60223C16.4648 8.60223 17.9533 9.05377 19.2194 9.89973C20.4855 10.7457 21.4723 11.9481 22.055 13.3549C22.6377 14.7617 22.7902 16.3097 22.4931 17.8031C22.196 19.2965 21.4628 20.6683 20.3861 21.7451C19.3094 22.8218 17.9375 23.555 16.4441 23.8521C14.9507 24.1492 13.4027 23.9967 11.9959 23.414C10.5891 22.8313 9.38669 21.8445 8.54073 20.5784C7.69476 19.3123 7.24323 17.8238 7.24323 16.3011H14.9421V8.60223Z" fill="#FE3C00"/>
<path d="M15.8625 17.5554C15.5225 17.5554 15.2471 17.2791 15.2483 16.9391C15.2495 16.6005 15.5245 16.3267 15.8631 16.327L19.5453 16.3303C19.8858 16.3306 20.162 16.0546 20.162 15.7142C20.162 15.3737 19.8858 15.0978 19.5453 15.0981L15.8631 15.1013C15.5245 15.1016 15.2495 14.8279 15.2483 14.4893C15.2471 14.1492 15.5225 13.8729 15.8625 13.8729H19.5456C19.886 13.8729 20.162 13.5969 20.162 13.2565C20.162 12.9159 19.8857 12.6398 19.5451 12.6401L14.6338 12.6439C14.1456 12.6442 13.6774 12.8383 13.3322 13.1836C12.9869 13.5288 12.7929 13.997 12.7926 14.4852C12.7926 14.8257 12.5164 15.1017 12.1759 15.1016L2.61667 15.0978C2.27613 15.0976 2 15.3736 2 15.7142C2 16.0547 2.27613 16.3307 2.61667 16.3306L12.1759 16.3267C12.5164 16.3266 12.7926 16.6026 12.7926 16.9431C12.7929 17.4314 12.9869 17.8995 13.3322 18.2448C13.6774 18.59 14.1456 18.7841 14.6338 18.7844L19.5451 18.7883C19.8857 18.7885 20.162 18.5125 20.162 18.1719C20.162 17.8314 19.886 17.5554 19.5456 17.5554H15.8625Z" fill="white"/>
<path d="M17.9656 7.42133C17.9656 7.95439 17.8549 8.48229 17.6399 8.97479C17.425 9.46732 17.1099 9.91482 16.7126 10.2918C16.3154 10.6687 15.8438 10.9678 15.3248 11.1718C14.8058 11.3758 14.2495 11.4808 13.6878 11.4808C13.126 11.4808 12.5697 11.3758 12.0507 11.1718C11.5317 10.9678 11.0602 10.6687 10.663 10.2918C10.2657 9.91482 9.95062 9.46732 9.73562 8.97479C9.52065 8.48229 9.41 7.95439 9.41 7.42133H13.6878H17.9656Z" fill="white"/>
<path d="M22.641 7.42133H16.7245V8.70885H22.641V7.42133Z" fill="white"/>
<path d="M13.1598 15.0136H7.24323V16.3011H13.1598V15.0136Z" fill="white"/>
</svg>
