<svg width="68" height="26" viewBox="0 0 68 26" fill="none" xmlns="http://www.w3.org/2000/svg">
<g clip-path="url(#clip0_139_22406)">
<path d="M21.5863 8.4928C20.4981 3.63462 16.1396 0 10.9244 0C9.4176 0 7.98336 0.305197 6.67748 0.854551C5.79294 1.22634 5.48321 2.3195 6.05244 3.08804L7.27182 4.73055C7.62899 5.21054 8.23728 5.42418 8.82047 5.28268C9.78314 5.04962 11.3346 4.89147 12.6209 5.75435C12.8832 5.92914 13.1678 6.22602 13.4692 6.5978C16.4102 8.7425 19.1587 9.07545 21.5835 8.4928H21.5863Z" fill="#FF7976"/>
<path d="M13.4693 6.59824C14.5799 7.97995 15.8774 10.4826 16.8261 12.4663C17.0493 12.9325 16.4215 13.332 16.0867 12.9352L12.9977 9.27565C12.6685 8.88722 12.0713 8.79843 11.6835 9.1286C11.2733 9.47541 11.2566 10.0858 11.6277 10.4576L14.9482 13.7593C15.2105 14.0201 15.2607 14.4473 15.0263 14.7331C14.7557 15.0633 14.2646 15.0799 13.9716 14.7886L10.6427 11.4786C10.3246 11.1623 9.81952 11.0985 9.45399 11.3593C8.9573 11.7144 8.94893 12.4164 9.39539 12.791L13.1149 15.8956C13.5112 16.2286 13.1121 16.8529 12.6434 16.6309C10.1125 15.4379 6.72781 13.6788 5.8935 12.4525C5.02291 11.1734 5.18475 9.63356 5.41914 8.67358C5.56145 8.0937 5.34659 7.48886 4.86386 7.13372L3.16733 5.88796C2.39719 5.32196 1.31174 5.62716 0.926675 6.49558C0.335121 7.8329 0.00585938 9.30894 0.00585938 10.8627C0.00585938 12.63 0.524865 14.3724 1.33686 16.0177C3.2343 15.5433 5.79584 15.5794 8.54991 17.5493C12.3197 20.2489 15.6346 20.3765 18.425 19.3582C20.3336 16.8418 21.8543 13.8841 21.8543 10.8627C21.8543 10.0497 21.7622 9.25623 21.5892 8.49324C19.1644 9.07588 16.4159 8.74294 13.4749 6.59824H13.4693Z" fill="#FF6057"/>
<path d="M8.54411 17.5511C5.79003 15.5812 3.22849 15.5451 1.33105 16.0196C3.40708 20.2257 7.39448 23.7993 9.51515 25.5057C10.3355 26.166 11.5075 26.1688 12.3278 25.5057C13.8569 24.2738 16.3627 22.0708 18.4164 19.3573C15.626 20.3756 12.3111 20.2479 8.54132 17.5483L8.54411 17.5511Z" fill="#FF453A"/>
<path d="M26.0027 11.1933L26.3907 9.04494C27.2266 9.23977 27.9833 9.33849 28.6608 9.33849C29.0023 9.33849 29.3056 9.33329 29.5678 9.3229C29.8301 9.31251 30.065 9.29173 30.2699 9.26315V8.61112L29.0378 8.51241C28.4833 8.46305 28.0188 8.37472 27.6446 8.25263C27.2703 8.13054 26.9725 7.96168 26.7485 7.74867C26.5245 7.53565 26.3633 7.27848 26.2705 6.97714C26.1748 6.6758 26.1284 6.32511 26.1284 5.91986C26.1284 5.36394 26.1885 4.89895 26.3114 4.52487C26.4344 4.1534 26.6283 3.85206 26.8933 3.62346C27.1583 3.39486 27.5025 3.2338 27.926 3.14028C28.3494 3.04676 28.863 3 29.4722 3C30.6824 3 31.7779 3.10911 32.7586 3.32472L32.4172 5.40811C31.5648 5.27822 30.8846 5.21327 30.3737 5.21327C29.8629 5.21327 29.4312 5.23406 29.0734 5.27822V5.91726L30.0541 6.00299C30.6551 6.06014 31.1578 6.15625 31.5593 6.29134C31.9637 6.42642 32.2888 6.60047 32.5346 6.81868C32.7805 7.03689 32.9581 7.29147 33.0591 7.59021C33.163 7.88635 33.2121 8.22665 33.2121 8.61112C33.2121 9.16184 33.1356 9.62424 32.9854 10.0009C32.8324 10.3776 32.6494 10.6633 32.439 10.8582C32.2642 11.0166 32.0484 11.1413 31.7888 11.2322C31.5293 11.3232 31.2561 11.3907 30.9665 11.4323C30.677 11.4764 30.3874 11.5024 30.0923 11.5128C29.8 11.5232 29.535 11.5284 29.3001 11.5284C28.7073 11.5284 28.1363 11.4998 27.5872 11.4427C27.0408 11.3855 26.5109 11.3024 26 11.1933H26.0027Z" fill="#FF453A"/>
<path d="M39.0337 11.336V8.46029H36.9793V11.336H34.2393V3.19727H36.9793V6.07296H39.0337V3.19727H41.7737V11.336H39.0337V11.336Z" fill="#FF453A"/>
<path d="M45.1854 11.336H42.2979L44.5107 3.19727H48.7451L50.9579 11.336H48.0703L47.7507 10.0449H45.4914L45.1827 11.336H45.1854ZM46.5541 5.69369L45.9941 7.97191H47.2507L46.7044 5.69369H46.5568H46.5541Z" fill="#FF453A"/>
<path d="M57.4654 8.62135L58.9488 11.3334H55.9356L54.8182 8.91229H54.2254V11.3334H51.4854V3.19727H55.799C57.7604 3.19727 58.7439 4.14804 58.7439 6.05218C58.7439 7.35365 58.3178 8.2109 57.4654 8.62394V8.62135ZM54.851 5.27805H54.2227V6.90684H54.851C55.187 6.90684 55.4274 6.87307 55.575 6.80812C55.7225 6.74318 55.7962 6.59511 55.7962 6.36391V5.82098C55.7962 5.58978 55.7225 5.44171 55.575 5.37677C55.4274 5.31183 55.1843 5.27805 54.851 5.27805Z" fill="#FF453A"/>
<path d="M65.3854 8.26286H62.6453V9.25H66.0001V11.3334H59.9053V3.19727H65.9318L65.5903 5.28065H62.6453V6.3769H65.3854V8.26546V8.26286Z" fill="#FF453A"/>
<path d="M30.865 21.0362H29.0838V23H26.3438V14.8613H30.6574C32.6188 14.8613 33.6023 15.8641 33.6023 17.8669C33.6023 18.3085 33.5559 18.7216 33.4657 19.1034C33.3756 19.4879 33.2199 19.8204 33.004 20.1062C32.7882 20.3919 32.5068 20.6179 32.1599 20.7842C31.8129 20.9504 31.3813 21.0336 30.865 21.0336V21.0362ZM29.7121 16.9447H29.0838V18.9528H29.7121C30.0482 18.9528 30.2886 18.9216 30.4361 18.8541C30.5836 18.7891 30.6574 18.6358 30.6574 18.3995V17.4876C30.6574 17.2564 30.5836 17.1084 30.4361 17.0434C30.2886 16.9785 30.0454 16.9447 29.7121 16.9447Z" fill="#FF453A"/>
<path d="M39.9022 23H34.4248V14.8613H37.1649V20.9167H39.9049V23H39.9022Z" fill="#FF453A"/>
<path d="M42.6972 23H39.8096L42.0224 14.8613H46.2568L48.4696 23H45.582L45.2624 21.709H43.0031L42.6944 23H42.6972ZM44.0658 17.3578L43.5058 19.636H44.7624L44.2161 17.3578H44.0686H44.0658Z" fill="#FF453A"/>
<path d="M55.0921 16.9447H53.106V23H50.3659V16.9447H48.3799V14.8613H55.0893V16.9447H55.0921Z" fill="#FF453A"/>
<path d="M61.3229 19.9295H58.5828V20.9167H61.9376V23H55.8428V14.8613H61.8693L61.5278 16.9447H58.5828V18.041H61.3229V19.9295V19.9295Z" fill="#FF453A"/>
</g>
<defs>
<clipPath id="clip0_139_22406">
<rect width="67.0968" height="26" fill="white"/>
</clipPath>
</defs>
</svg>
