<svg width="34" height="40" viewBox="0 0 34 40" fill="none" xmlns="http://www.w3.org/2000/svg">
<path d="M33.0175 13.0647C31.3539 5.59044 24.6857 0 16.7101 0C14.4046 0 12.2115 0.468604 10.2152 1.31209C8.86098 1.88379 8.38769 3.56607 9.25929 4.74695L11.1243 7.27273C11.6679 8.00844 12.6004 8.33646 13.4955 8.1209C14.9716 7.76008 17.338 7.5164 19.3062 8.84724C19.7045 9.11903 20.145 9.57357 20.6042 10.1453C25.1028 13.4442 29.3062 13.955 33.0175 13.0647Z" fill="#FF7976"/>
<path d="M20.6045 10.1503C22.3055 12.2731 24.2924 16.125 25.7357 19.1756C26.0778 19.8926 25.1172 20.5065 24.6064 19.8973L19.8782 14.2647C19.3768 13.6649 18.463 13.5337 17.8679 14.0397C17.2399 14.574 17.2118 15.5158 17.7835 16.0829L22.8632 21.1625C23.2662 21.5655 23.3411 22.2216 22.9803 22.6621C22.5633 23.1681 21.8182 23.1963 21.3636 22.7464L16.2699 17.6527C15.7873 17.17 15.0094 17.0716 14.4517 17.4699C13.6926 18.0182 13.6785 19.096 14.3627 19.6724L20.0515 24.4474C20.6607 24.9582 20.0469 25.9188 19.3299 25.5768C15.4592 23.7398 10.2812 21.0313 9.00656 19.1475C7.67573 17.1794 7.9194 14.8083 8.28023 13.3368C8.49578 12.4465 8.16776 11.514 7.43205 10.9657L4.83599 9.04912C3.65979 8.1822 1.99625 8.64612 1.4105 9.98633C0.506092 12.0435 0 14.3162 0 16.7061C0 19.424 0.796626 22.1044 2.03843 24.6396C4.93908 23.9085 8.86129 23.9648 13.0694 26.9966C18.8379 31.1485 23.9082 31.3453 28.1771 29.7801C31.0965 25.9095 33.4255 21.3593 33.4255 16.7108C33.4255 15.4596 33.2849 14.2412 33.0225 13.0651C29.3112 13.9601 25.1078 13.4493 20.6092 10.1457L20.6045 10.1503Z" fill="#FF6057"/>
<path d="M13.069 27.0012C8.85627 23.9693 4.93874 23.9131 2.03809 24.6441C5.21522 31.1155 11.3118 36.6122 14.5592 39.2364C15.815 40.2533 17.6051 40.258 18.861 39.2364C21.204 37.3432 25.0325 33.9506 28.1768 29.78C23.9078 31.3451 18.8375 31.153 13.069 26.9965V27.0012Z" fill="#FF453A"/>
</svg>
