<svg width="22" height="22" viewBox="0 0 22 22" fill="none" xmlns="http://www.w3.org/2000/svg">
<g clip-path="url(#clip0_139_9703)">
<path d="M10.9967 21.0774C16.7114 21.0774 21.344 16.4448 21.344 10.7301C21.344 5.01546 16.7114 0.382812 10.9967 0.382812C5.28206 0.382812 0.649414 5.01546 0.649414 10.7301C0.649414 16.4448 5.28206 21.0774 10.9967 21.0774Z" fill="#D9D9D9"/>
<path d="M3.64565 11.7477C3.64565 11.7477 3.38817 14.2477 6.97799 14.8885C10.5678 15.5292 16.2714 15.3376 18.3852 12.7088C20.4989 10.0801 16.7175 8.6699 16.7175 8.6699L6.52889 7.58008C6.52889 7.58008 3.7744 8.47828 3.96601 9.50223C4.15763 10.5262 4.73547 10.6549 5.24745 10.4633C5.75943 10.2717 6.52889 9.37349 8.06781 9.95134C9.60673 10.5292 10.4391 11.1699 10.8223 11.1699C11.2055 11.1699 9.98997 12.5801 9.98997 12.5801L4.86422 12.0022L3.64565 11.7447V11.7477Z" fill="white"/>
<path d="M3.34346 11.7901C3.24166 12.847 3.97519 13.829 4.83447 14.35C5.81352 14.9428 6.98417 15.1045 8.10393 15.2242C9.28657 15.35 10.4812 15.3859 11.6668 15.317C13.8255 15.1943 16.2716 14.7901 17.9932 13.3769C18.6908 12.8021 19.3734 11.9548 19.3285 11.0027C19.2956 10.2542 18.7626 9.64039 18.1878 9.21524C17.8345 8.95476 17.3973 8.66135 16.9722 8.53859C16.7447 8.47273 16.4842 8.47572 16.2476 8.45177L11.8135 7.97871L7.37938 7.50566C7.10693 7.47572 6.76561 7.38889 6.49316 7.45476C5.88537 7.60147 5.25363 7.92482 4.72369 8.24219C4.38238 8.44578 4.01711 8.69129 3.79855 9.03261C3.56202 9.40386 3.66082 9.835 3.8704 10.2033C4.33747 11.0116 5.2686 10.6643 5.90034 10.2871C6.37639 10.0027 6.83148 9.85895 7.39136 9.96973C8.11292 10.1164 8.81651 10.5027 9.4692 10.838C9.80154 11.0087 10.1788 11.2751 10.562 11.323C10.7147 11.341 10.6039 11.2991 10.595 11.317C10.574 11.3649 10.565 11.4158 10.5441 11.4637C10.4632 11.6464 10.3285 11.811 10.2117 11.9697C10.053 12.1823 9.88537 12.3889 9.71172 12.5925L10.1818 12.4368C8.48417 12.2452 6.76262 12.1224 5.071 11.8619C4.65783 11.7991 4.24465 11.6913 3.83747 11.6045C3.66681 11.5685 3.12789 11.838 3.45723 11.9069C3.95723 12.0116 4.45423 12.1374 4.96322 12.1943L7.46022 12.4757C8.20573 12.5596 8.94825 12.6494 9.69376 12.7272C9.93028 12.7512 10.1369 12.7212 10.3105 12.5416C10.574 12.2631 10.8195 11.9338 11.0201 11.6075C11.086 11.5027 11.2147 11.335 11.2027 11.2003C11.1878 11.0356 11.083 11.0506 10.9482 11.0206C10.5081 10.9218 10.089 10.6224 9.69076 10.4248C8.99316 10.0775 8.23268 9.6853 7.44525 9.62243C6.8734 9.57752 6.31651 9.72123 5.81052 9.98171C5.48118 10.1524 5.09495 10.5536 4.71471 10.2961C4.28956 10.0116 4.12489 9.30506 4.44825 8.90386C4.75064 8.52961 5.23268 8.29009 5.66082 8.0865C5.84645 7.99967 6.03807 7.91883 6.22968 7.84398C6.33747 7.80207 6.51411 7.77213 6.60693 7.70626C6.60693 7.70626 6.22669 7.70326 6.37938 7.74219C6.43627 7.75716 6.50214 7.75416 6.55902 7.76015L7.25064 7.835L9.61591 8.0865L15.1279 8.67632C15.58 8.72422 16.0351 8.75416 16.4842 8.82003C16.5321 8.82602 16.5441 8.83201 16.4782 8.81404C16.5441 8.83201 16.6069 8.86793 16.6668 8.89488C16.9482 9.02063 17.2207 9.17033 17.4752 9.34398C18.1578 9.81105 18.8045 10.5146 18.7117 11.4039C18.589 12.5685 17.4902 13.4518 16.5201 13.9488C15.3464 14.5476 14.0141 14.811 12.7147 14.9458C11.3435 15.0895 9.94825 15.0745 8.57399 14.9338C6.74765 14.7482 4.21771 14.2572 3.95723 12.0356C3.94525 11.9278 3.93627 11.7751 3.94525 11.7063C3.96621 11.4907 3.35843 11.6104 3.34046 11.7931L3.34346 11.7901Z" fill="#231815"/>
<path d="M4.57734 12.6767C4.57734 12.6767 7.20608 13.8952 9.70309 14.024C12.2031 14.1527 17.8109 13.8324 18.9306 11.2994C20.0534 8.7665 17.0414 8.09584 16.4965 7.67967C15.9516 7.2635 14.0294 6.3653 12.6522 6.43117C11.2749 6.49404 9.67315 6.71859 8.35878 6.91321C7.04441 7.10482 5.12225 7.36231 4.4486 7.74554C3.77495 8.12877 2.87974 8.9641 3.5504 9.6677C4.22405 10.3713 5.56836 9.38027 5.79291 9.05991C6.01746 8.73955 7.90668 8.64374 8.58034 8.89824C9.25399 9.15572 11.8498 9.89225 11.6881 10.6916C11.5264 11.491 9.60429 11.8443 8.41866 11.8773C7.23303 11.9102 5.91866 11.524 5.53543 11.2366C5.15219 10.9491 4.44561 10.4671 3.70908 10.7875C2.97255 11.1078 2.49052 12.1976 4.57435 12.6767H4.57734Z" fill="#FF453A"/>
<path d="M14.3883 11.0721C14.3973 11.12 14.4003 11.1679 14.4063 11.2158C14.4063 11.2278 14.4063 11.2368 14.4063 11.2487C14.4063 11.2547 14.4003 11.1769 14.4063 11.2308C14.4063 11.2607 14.4093 11.2877 14.4123 11.3176C14.4123 11.3865 14.4153 11.4553 14.4123 11.5272C14.4093 11.6859 14.3943 11.8475 14.3614 12.0032C14.3584 12.0212 14.3524 12.0422 14.3494 12.0601C14.3464 12.0781 14.3254 12.1469 14.3494 12.0751C14.3374 12.114 14.3254 12.1559 14.3105 12.1949C14.2865 12.2637 14.2536 12.3775 14.2027 12.4314C14.2027 12.4314 14.2386 12.3805 14.2177 12.4074C14.2087 12.4164 14.2027 12.4284 14.1967 12.4404C14.1817 12.4613 14.1668 12.4823 14.1518 12.5032C14.1368 12.5212 14.1248 12.5392 14.1069 12.5541C14.1009 12.5601 14.0919 12.5691 14.0859 12.5751C14.059 12.605 14.1338 12.5332 14.1039 12.5571C14.0739 12.5811 14.0111 12.617 13.9871 12.6469C13.9871 12.6469 14.053 12.611 14.02 12.626C14.0051 12.635 13.9901 12.644 13.9751 12.6499C13.9512 12.6619 13.9242 12.6739 13.9003 12.6859C13.7656 12.7428 13.6458 12.9224 13.7416 13.0601C13.8464 13.2098 14.0709 13.1829 14.2147 13.123C14.9781 12.7966 15.1578 11.9074 15.1039 11.1589C15.0979 11.0691 15.0919 10.9763 15.0769 10.8895C15.05 10.7188 14.7955 10.6889 14.6638 10.7308C14.5081 10.7787 14.3554 10.8984 14.3853 11.0751L14.3883 11.0721Z" fill="#231815"/>
<path d="M11.0118 8.62609C11.0986 8.50932 11.1944 8.39854 11.2903 8.28777C11.3861 8.17699 11.4789 8.08118 11.5777 7.98238C11.6046 7.95842 11.6286 7.93148 11.6555 7.90753C11.6705 7.89555 11.6855 7.88058 11.6974 7.8686C11.7064 7.86262 11.7483 7.8207 11.7244 7.84465C11.6974 7.8686 11.7453 7.82669 11.7513 7.8207C11.7633 7.80872 11.7753 7.79974 11.7903 7.78777C11.8202 7.76381 11.8501 7.73986 11.8801 7.71591C11.913 7.68896 11.9489 7.66501 11.9819 7.64106C11.9968 7.63208 12.0118 7.6231 12.0268 7.61112C12.0537 7.59315 11.9908 7.63208 11.9938 7.63208C12.0058 7.62609 12.0148 7.6201 12.0268 7.61411C12.0417 7.60513 12.0567 7.59914 12.0717 7.59016C12.0807 7.58717 12.0897 7.58118 12.0956 7.57818C12.1346 7.55723 12.0567 7.59615 12.0537 7.59615C12.0657 7.59615 12.0837 7.58417 12.0986 7.57818C12.1076 7.57519 12.1166 7.5722 12.1226 7.5692C12.1555 7.55423 12.0208 7.60214 12.0747 7.58417C12.1555 7.56022 12.2423 7.53028 12.3082 7.47938C12.3382 7.45543 12.398 7.40753 12.3831 7.35962C12.3501 7.23986 12.0687 7.29974 12.0028 7.3207C11.3711 7.50333 10.8861 8.0213 10.4849 8.51531C10.4489 8.56022 10.413 8.60513 10.3771 8.65303C10.2843 8.77579 10.4579 8.80573 10.5507 8.79974C10.6435 8.79375 10.7364 8.77579 10.8202 8.74286C10.8861 8.71591 10.9669 8.68298 11.0088 8.62609H11.0118Z" fill="#231815"/>
<path d="M13.8046 7.7456C13.9274 7.84141 14.0441 7.9492 14.1549 8.05997C14.2537 8.15878 14.3495 8.26656 14.4333 8.37734C14.4543 8.40728 14.4753 8.43423 14.4962 8.46417C14.5052 8.47914 14.5142 8.49111 14.5232 8.50608C14.5292 8.51506 14.5351 8.52405 14.5411 8.53303C14.5322 8.51806 14.5381 8.52704 14.5411 8.53602C14.5771 8.5989 14.61 8.66177 14.6369 8.73063C14.6639 8.7995 14.6848 8.87435 14.6938 8.9492C14.6938 8.96716 14.6938 8.98213 14.6968 9.00009C14.6968 9.00908 14.6968 9.01806 14.6968 9.03003C14.6968 9.01506 14.6968 9.00908 14.6968 9.03003C14.6908 9.06896 14.6878 9.10488 14.6759 9.14081C14.6339 9.28453 14.8914 9.27854 14.9693 9.26656C15.0591 9.25159 15.1519 9.22764 15.2298 9.17973C15.2807 9.1468 15.3465 9.10788 15.3645 9.045C15.4513 8.74261 15.3016 8.44321 15.1339 8.20069C14.9813 7.97914 14.7866 7.78153 14.583 7.60189C14.5381 7.56297 14.4932 7.52405 14.4453 7.48812C14.3256 7.3953 14.119 7.43722 13.9902 7.49411C13.9333 7.51806 13.6789 7.65578 13.8016 7.7486L13.8046 7.7456Z" fill="#231815"/>
<path d="M16.4459 11.4883C16.374 11.7488 16.2603 12.0152 16.0956 12.2308L16.1225 12.1949C16.0956 12.2308 16.0657 12.2638 16.0327 12.2967C16.0178 12.3117 16.0028 12.3236 15.9878 12.3386C15.9519 12.3685 16.0237 12.3146 16.0028 12.3266C15.9938 12.3326 15.9848 12.3386 15.9728 12.3476C15.9489 12.3655 15.88 12.4105 15.892 12.4524C15.904 12.4943 15.9848 12.5033 16.0148 12.5033C16.1764 12.5093 16.3651 12.4614 16.5028 12.3715C16.8112 12.1709 16.9818 11.8027 17.0926 11.4643C17.1016 11.4344 17.1136 11.4015 17.1225 11.3685C17.1555 11.2488 16.901 11.2847 16.8441 11.2967C16.7543 11.3146 16.6615 11.3386 16.5806 11.3805C16.5357 11.4015 16.4549 11.4374 16.4399 11.4883H16.4459Z" fill="#231815"/>
<path d="M10.4785 12.0003C10.5773 12.1471 10.6791 12.2878 10.7869 12.4255C10.9636 12.653 11.1552 12.8836 11.3857 13.0542C11.5324 13.162 11.6821 13.2219 11.8648 13.2249C11.9516 13.2249 12.0564 13.1979 12.1342 13.168C12.1941 13.1441 12.2839 13.1051 12.3229 13.0512C12.4187 12.9225 12.239 12.8985 12.1492 12.8985C12.26 12.8985 12.2151 12.9015 12.1881 12.8985C12.1402 12.8926 12.245 12.9165 12.2121 12.9045C12.1881 12.8956 12.1642 12.8896 12.1402 12.8776C12.1193 12.8686 12.1043 12.8476 12.1402 12.8776C12.1312 12.8686 12.1163 12.8656 12.1073 12.8566C12.0833 12.8417 12.0564 12.8237 12.0324 12.8057C11.9247 12.7249 11.8259 12.6291 11.733 12.5303C11.5564 12.3417 11.3977 12.1381 11.248 11.9315C11.2121 11.8806 11.1762 11.8327 11.1432 11.7788L11.1642 11.8117C11.0893 11.698 10.8947 11.7369 10.7809 11.7668C10.7001 11.7908 10.6133 11.8177 10.5474 11.8716C10.5205 11.8926 10.4456 11.9554 10.4726 11.9944L10.4785 12.0003Z" fill="#231815"/>
<path d="M14.0684 10.5423C14.6223 10.5423 15.1762 10.5123 15.7271 10.4944C15.9187 10.4884 16.1163 10.4944 16.308 10.4764C16.4726 10.4614 16.5774 10.3746 16.6822 10.2608C16.7151 10.2249 16.7511 10.189 16.787 10.153C16.7541 10.186 16.8229 10.1171 16.8349 10.1081C16.8678 10.0782 16.9008 10.0482 16.9337 10.0213C17.2121 9.78477 17.5535 9.53028 17.9008 9.68597C18.2092 9.8237 18.7002 9.37759 18.293 9.19795C17.4696 8.83268 16.5535 9.48837 16.0415 10.0991L16.3589 9.94346C15.6104 9.96741 14.8619 10.0033 14.1163 10.0063C13.9607 10.0063 13.7541 10.1261 13.7391 10.2967C13.7241 10.4794 13.9187 10.5423 14.0624 10.5423H14.0684Z" fill="#231815"/>
<path d="M18.8379 11.1076C18.6882 10.931 18.4876 10.7903 18.296 10.6675C17.7661 10.3322 17.1703 10.1376 16.5535 10.0418C16.3948 10.0178 16.1912 10.0717 16.0655 10.1735C15.9577 10.2603 15.9816 10.3561 16.1194 10.3771C16.6703 10.4609 17.2242 10.6466 17.6852 10.946C17.8649 11.0627 18.0535 11.1975 18.1912 11.3621C18.3289 11.5268 18.9846 11.2813 18.8379 11.1076Z" fill="#231815"/>
<path d="M9.34401 8.37434C9.35898 8.33243 9.37695 8.29051 9.39491 8.25159L9.37096 8.30249C9.4518 8.11985 9.54461 7.9432 9.65839 7.77853C9.68833 7.73362 9.72126 7.68871 9.75719 7.6468C9.77216 7.62883 9.81108 7.58692 9.7512 7.65278C9.76018 7.6438 9.76916 7.63482 9.77815 7.62284C9.79611 7.60189 9.81707 7.58392 9.83503 7.56596C9.853 7.54799 9.87396 7.53602 9.89192 7.51805C9.80809 7.5929 9.86797 7.53901 9.89491 7.51805C9.9518 7.48213 9.81407 7.55398 9.85898 7.53602C9.86797 7.53302 9.87695 7.53003 9.88294 7.52404C9.92785 7.50308 9.77216 7.55698 9.83503 7.54201C9.89791 7.52704 9.73623 7.55997 9.78413 7.55099C9.87395 7.53602 9.96677 7.51207 10.0446 7.46117C10.0895 7.43123 10.1674 7.37135 10.1734 7.31147C10.1913 7.15877 9.97874 7.13781 9.87395 7.15578C9.66437 7.18871 9.48473 7.27255 9.32006 7.40428C9.21527 7.48811 9.12545 7.5959 9.04761 7.70668C8.91886 7.88332 8.81707 8.07793 8.72725 8.27554C8.7003 8.33542 8.67336 8.39231 8.6494 8.45518C8.62845 8.50907 8.67934 8.56296 8.72126 8.58392C8.78413 8.61686 8.87994 8.61985 8.9488 8.61087C9.09851 8.58991 9.28114 8.52404 9.34102 8.37135L9.34401 8.37434Z" fill="#231815"/>
<path d="M9.3588 12.3201C9.43365 12.4459 9.51749 12.5626 9.60431 12.6794C9.77497 12.907 9.96359 13.1285 10.1881 13.3022C10.3139 13.398 10.4516 13.4728 10.6043 13.5087C10.6702 13.5237 10.76 13.5087 10.8229 13.4968C10.9097 13.4818 11.0055 13.4549 11.0863 13.4159C11.1432 13.389 11.3229 13.2902 11.1762 13.2573C11.1612 13.2543 11.1462 13.2483 11.1313 13.2453C11.1762 13.2573 11.1223 13.2423 11.1133 13.2393C11.0834 13.2273 11.0504 13.2123 11.0205 13.1974C10.9576 13.1644 10.8977 13.1225 10.8408 13.0806C10.7181 12.9878 10.6073 12.877 10.5055 12.7632L10.5235 12.7842C10.3468 12.5866 10.1852 12.371 10.0504 12.1405C10.0265 12.1016 9.96958 12.1016 9.93066 12.1016C9.84982 12.1016 9.75701 12.1165 9.67916 12.1405C9.60132 12.1644 9.51449 12.1884 9.44264 12.2333C9.42168 12.2453 9.33785 12.2932 9.3588 12.3261V12.3201Z" fill="#231815"/>
<path d="M11.2456 20.6942C7.6288 20.6763 4.23059 18.6254 2.51802 15.4337C0.805443 12.2421 0.931192 8.1104 2.98209 5.02956C5.03299 1.94872 8.41323 0.397824 11.9521 0.834949C15.4911 1.27207 18.6258 3.74513 19.9551 7.0595C21.4372 10.7631 20.5959 15.1493 17.7456 17.9667C17.4013 18.308 17.033 18.6254 16.6408 18.9128C16.4551 19.0475 16.2665 19.2811 16.533 19.4427C16.7755 19.5924 17.2426 19.4817 17.4551 19.326C19.2156 18.0385 20.5809 16.311 21.3444 14.2601C22.1078 12.2092 22.1947 10.0505 21.6737 7.99662C20.7156 4.22716 17.6557 1.25411 13.8953 0.319979C9.98209 -0.653074 5.6258 0.613392 2.88029 3.57447C0.134785 6.53555 -0.751443 10.7661 0.646761 14.5146C2.04496 18.2631 5.35035 20.826 9.19766 21.3469C9.71263 21.4158 10.2276 21.4577 10.7486 21.4607C11.03 21.4607 11.4551 21.3709 11.6048 21.0984C11.7545 20.826 11.4821 20.6942 11.2456 20.6942Z" fill="black"/>
</g>
<defs>
<clipPath id="clip0_139_9703">
<rect width="22" height="21.4611" fill="white"/>
</clipPath>
</defs>
</svg>
