<svg width="24" height="24" viewBox="0 0 24 24" fill="none" xmlns="http://www.w3.org/2000/svg">
<path d="M15 17.0001H20L18.5951 15.5951C18.2141 15.2141 18 14.6973 18 14.1585V11.0001C18 8.38763 16.3304 6.16515 14 5.34148V5.00006C14 3.89549 13.1046 3.00006 12 3.00006C10.8954 3.00006 10 3.89549 10 5.00006V5.34148C7.66962 6.16515 6 8.38763 6 11.0001V14.1585C6 14.6973 5.78595 15.2141 5.40493 15.5951L4 17.0001H9M15 17.0001V18.0001C15 19.6569 13.6569 21.0001 12 21.0001C10.3431 21.0001 9 19.6569 9 18.0001V17.0001M15 17.0001H9" stroke="#191919" stroke-width="2" stroke-linecap="round" stroke-linejoin="round"/>
<circle cx="21" cy="3.00006" r="2" fill="#FF5B2D"/>
</svg>
