<svg width="44" height="44" viewBox="0 0 44 44" fill="none" xmlns="http://www.w3.org/2000/svg">
<g filter="url(#filter0_d_1707_535)">
<circle cx="22" cy="21" r="21" fill="#D9D9D9"/>
</g>
<g clip-path="url(#clip0_1707_535)">
<path d="M38.927 20.5385C38.927 27.3356 34.9145 33.1932 29.1284 35.8797C26.9629 36.8878 24.5427 37.4506 21.9951 37.4506C12.6423 37.4506 5.06311 29.8802 5.06311 20.5385C5.06311 11.1967 12.6423 3.62637 21.9951 3.62637C31.3478 3.62637 38.927 11.1967 38.927 20.5385Z" fill="#D9D9D9"/>
<path d="M22.4017 36.8242C16.4834 36.7948 10.9227 33.4427 8.12031 28.2262C5.31791 23.0097 5.52368 16.2566 8.8797 11.2212C12.2357 6.1857 17.767 3.65084 23.558 4.3653C29.3489 5.07976 34.4785 9.12183 36.6538 14.539C39.0789 20.5923 37.7022 27.7613 33.0381 32.3662C32.4747 32.924 31.8721 33.4427 31.2303 33.9125C30.9265 34.1327 30.6179 34.5144 31.0539 34.7787C31.4507 35.0234 32.215 34.8423 32.5629 34.5878C35.4437 32.4836 37.6777 29.66 38.9271 26.308C40.1764 22.9559 40.3185 19.4276 39.466 16.0707C37.8982 9.90969 32.8911 5.0504 26.7376 3.52361C20.5841 1.99683 13.2107 4.00807 8.71802 8.84779C4.22537 13.6875 2.77028 20.5972 5.05825 26.7239C7.34622 32.8506 12.755 37.0395 19.0506 37.891C19.8933 38.0035 20.736 38.072 21.5885 38.0769C22.049 38.0769 22.7447 37.9301 22.9897 37.4848C23.2346 37.0395 22.7888 36.8242 22.4017 36.8242Z" fill="black"/>
<path d="M20.9662 25.0161C20.7653 25.0161 20.5644 24.9573 20.393 24.8301L11.9564 18.7523C11.5155 18.4342 11.4175 17.8225 11.7359 17.387C12.0544 16.9466 12.6668 16.8487 13.1028 17.1668L20.8682 22.7601L29.8241 13.9469C30.2112 13.5652 30.8285 13.5701 31.2106 13.9566C31.5928 14.3432 31.5879 14.9598 31.2008 15.3415L21.657 24.7371C21.4659 24.9231 21.221 25.021 20.9711 25.021L20.9662 25.0161Z" fill="#FF6057" stroke="#FF6057" stroke-miterlimit="10"/>
</g>
<defs>
<filter id="filter0_d_1707_535" x="0" y="0" width="44" height="44" filterUnits="userSpaceOnUse" color-interpolation-filters="sRGB">
<feFlood flood-opacity="0" result="BackgroundImageFix"/>
<feColorMatrix in="SourceAlpha" type="matrix" values="0 0 0 0 0 0 0 0 0 0 0 0 0 0 0 0 0 0 127 0" result="hardAlpha"/>
<feOffset dy="1"/>
<feGaussianBlur stdDeviation="0.5"/>
<feComposite in2="hardAlpha" operator="out"/>
<feColorMatrix type="matrix" values="0 0 0 0 0 0 0 0 0 0 0 0 0 0 0 0 0 0 0.32 0"/>
<feBlend mode="normal" in2="BackgroundImageFix" result="effect1_dropShadow_1707_535"/>
<feBlend mode="normal" in="SourceGraphic" in2="effect1_dropShadow_1707_535" result="shape"/>
</filter>
<clipPath id="clip0_1707_535">
<rect width="36" height="35.0769" fill="white" transform="translate(4 3)"/>
</clipPath>
</defs>
</svg>
