<svg width="42" height="42" viewBox="0 0 42 42" fill="none" xmlns="http://www.w3.org/2000/svg">
<circle cx="21" cy="21" r="21" fill="#D9D9DF"/>
<path d="M21.3605 25.0853C19.671 25.0853 18.0193 24.5842 16.6145 23.6456C15.2096 22.7069 14.1147 21.3727 13.4681 19.8117C12.8216 18.2508 12.6524 16.5332 12.982 14.876C13.3116 13.2189 14.1252 11.6968 15.32 10.5021C16.5147 9.30737 18.0368 8.49377 19.6939 8.16415C21.351 7.83453 23.0687 8.0037 24.6296 8.65027C26.1906 9.29684 27.5248 10.3918 28.4634 11.7966C29.4021 13.2014 29.9031 14.8531 29.9031 16.5426H21.3605V25.0853Z" fill="#FF453A"/>
<path d="M21.3605 17.5449C23.0501 17.5449 24.7017 18.0459 26.1065 18.9846C27.5114 19.9233 28.6063 21.2575 29.2529 22.8184C29.8994 24.3794 30.0686 26.097 29.739 27.7541C29.4094 29.4112 28.5958 30.9334 27.4011 32.1281C26.2064 33.3228 24.6842 34.1364 23.0271 34.466C21.37 34.7957 19.6523 34.6265 18.0914 33.9799C16.5304 33.3333 15.1962 32.2384 14.2576 30.8336C13.3189 29.4287 12.8179 27.7771 12.8179 26.0875H21.3605V17.5449Z" fill="#FE3C00"/>
<path d="M22.3818 27.4794C22.0044 27.4794 21.6989 27.1728 21.7002 26.7955C21.7015 26.4198 22.0067 26.1161 22.3823 26.1164L26.4681 26.12C26.846 26.1203 27.1524 25.8142 27.1524 25.4364C27.1524 25.0586 26.846 24.7524 26.4681 24.7528L22.3823 24.7564C22.0067 24.7567 21.7015 24.4529 21.7002 24.0772C21.6989 23.6999 22.0044 23.3933 22.3818 23.3933H26.4684C26.8461 23.3933 27.1524 23.0871 27.1524 22.7094C27.1524 22.3314 26.8459 22.0251 26.4679 22.0254L21.0184 22.0297C20.4767 22.03 19.9572 22.2454 19.5741 22.6285C19.191 23.0115 18.9757 23.531 18.9754 24.0727C18.9754 24.4506 18.669 24.7568 18.2911 24.7567L7.68425 24.7524C7.30639 24.7523 7 25.0585 7 25.4364C7 25.8142 7.30639 26.1205 7.68425 26.1203L18.2911 26.1161C18.669 26.1159 18.9754 26.4222 18.9754 26.8C18.9757 27.3418 19.191 27.8612 19.5741 28.2443C19.9572 28.6274 20.4767 28.8427 21.0184 28.8431L26.4679 28.8474C26.8459 28.8477 27.1524 28.5413 27.1524 28.1634C27.1524 27.7857 26.8461 27.4794 26.4684 27.4794H22.3818Z" fill="white"/>
<path d="M24.7153 16.2344C24.7153 16.8259 24.5926 17.4116 24.354 17.9581C24.1155 18.5046 23.7659 19.0011 23.3251 19.4194C22.8843 19.8377 22.3611 20.1695 21.7852 20.3958C21.2093 20.6222 20.5921 20.7387 19.9687 20.7387C19.3454 20.7387 18.7282 20.6222 18.1523 20.3958C17.5764 20.1695 17.0532 19.8377 16.6124 19.4194C16.1717 19.0011 15.822 18.5046 15.5835 17.9581C15.3449 17.4116 15.2222 16.8259 15.2222 16.2344H19.9687H24.7153Z" fill="white"/>
<path d="M29.9029 16.2344H23.3379V17.663H29.9029V16.2344Z" fill="white"/>
<path d="M19.3829 24.6582H12.8179V26.0868H19.3829V24.6582Z" fill="white"/>
</svg>
