<svg width="44" height="44" viewBox="0 0 44 44" fill="none" xmlns="http://www.w3.org/2000/svg">
<g filter="url(#filter0_d_204_1802)">
<circle cx="22" cy="21" r="21" fill="white"/>
</g>
<path d="M13.6208 27.1914C10.3899 25.441 7.02808 25.1473 4.51562 25.2783C6.43668 33.157 13.5335 39.0035 22.0036 39.0035C27.0881 39.0035 31.6764 36.8919 34.9509 33.5023C24.3613 35.6456 19.3364 30.2913 13.6248 27.1914H13.6208Z" fill="#FF453A"/>
<path d="M39.6625 17.5072C38.0351 9.23947 30.7478 3 21.9998 3C19.408 3 16.9432 3.54774 14.7165 4.53605C13.5496 5.05204 13.1646 6.52459 13.9227 7.55259L16.9948 11.7122C17.4433 12.3235 18.2212 12.5974 18.9515 12.4029C20.3844 12.0179 22.8889 11.6725 24.9449 13.0657C25.5046 13.4428 26.1357 14.1691 26.7985 15.1019C30.4779 16.7133 34.4391 18.2415 39.6585 17.5072H39.6625Z" fill="#FF7976"/>
<path d="M26.8026 15.1022C28.3466 17.2852 30.0454 20.6034 31.3195 23.2945C31.6569 24.005 30.7043 24.6123 30.2002 24.0129L25.5166 18.4323C25.0165 17.837 24.1155 17.706 23.5241 18.21C22.905 18.7379 22.8772 19.6707 23.4408 20.2343L28.4895 25.283C28.8587 25.6522 28.946 26.2396 28.6562 26.6722C28.2633 27.2517 27.4655 27.3073 26.9932 26.8389L21.9484 21.7942C21.4681 21.3139 20.6981 21.2147 20.1504 21.6116C19.4002 22.1554 19.3843 23.2231 20.0591 23.7906L25.6953 28.5218C26.2986 29.0259 25.6873 29.9785 24.9768 29.6411C21.1387 27.8193 16.0106 25.1401 14.7484 23.2707C13.3552 21.2147 13.7045 18.7102 14.0856 17.2773C14.28 16.547 14.0022 15.769 13.3949 15.3205L8.97332 12.0539C7.98501 11.3236 6.57596 11.6491 6.00838 12.7406C4.72635 15.2134 4 18.0235 4 21.0003C4 22.4729 4.18258 23.9057 4.51599 25.2751C7.02845 25.1441 10.3903 25.4378 13.6212 27.1882C19.3327 30.2841 24.3577 35.6425 34.9473 33.4991C38.075 30.2603 40 25.8546 40 21.0003C40 19.8056 39.8809 18.6347 39.6587 17.5035C34.4392 18.2378 30.4781 16.7097 26.7987 15.0983L26.8026 15.1022Z" fill="#FF6057"/>
<defs>
<filter id="filter0_d_204_1802" x="0" y="0" width="44" height="44" filterUnits="userSpaceOnUse" color-interpolation-filters="sRGB">
<feFlood flood-opacity="0" result="BackgroundImageFix"/>
<feColorMatrix in="SourceAlpha" type="matrix" values="0 0 0 0 0 0 0 0 0 0 0 0 0 0 0 0 0 0 127 0" result="hardAlpha"/>
<feOffset dy="1"/>
<feGaussianBlur stdDeviation="0.5"/>
<feComposite in2="hardAlpha" operator="out"/>
<feColorMatrix type="matrix" values="0 0 0 0 0 0 0 0 0 0 0 0 0 0 0 0 0 0 0.32 0"/>
<feBlend mode="normal" in2="BackgroundImageFix" result="effect1_dropShadow_204_1802"/>
<feBlend mode="normal" in="SourceGraphic" in2="effect1_dropShadow_204_1802" result="shape"/>
</filter>
</defs>
</svg>
