<svg width="20" height="20" viewBox="0 0 20 20" fill="none" xmlns="http://www.w3.org/2000/svg">
<path d="M18.9366 11.0732C19.3432 10.87 19.6 10.4544 19.6 9.99992C19.6 9.54539 19.3432 9.12987 18.9366 8.9266L2.13663 0.526602C1.71099 0.313782 1.19981 0.372589 0.833612 0.676504C0.467417 0.980418 0.315412 1.47201 0.446146 1.92958L2.16043 7.92957C2.30762 8.44473 2.77848 8.7999 3.31426 8.7999L8.79998 8.7999C9.46272 8.7999 9.99997 9.33716 9.99997 9.9999C9.99997 10.6626 9.46272 11.1999 8.79997 11.1999L3.31426 11.1999C2.77849 11.1999 2.30762 11.5551 2.16043 12.0702L0.446145 18.0702C0.315412 18.5278 0.467416 19.0194 0.833612 19.3233C1.19981 19.6272 1.71099 19.686 2.13663 19.4732L18.9366 11.0732Z" fill="#FF5C21"/>
</svg>
