<svg width="20" height="20" viewBox="0 0 20 20" fill="none" xmlns="http://www.w3.org/2000/svg">
<path d="M18.9363 11.0732C19.3428 10.87 19.5996 10.4544 19.5996 9.99992C19.5996 9.54539 19.3428 9.12987 18.9363 8.9266L2.13626 0.526602C1.71062 0.313782 1.19944 0.372589 0.833246 0.676504C0.467051 0.980418 0.315046 1.47201 0.44578 1.92958L2.16006 7.92957C2.30725 8.44473 2.77811 8.7999 3.31389 8.7999L8.79961 8.7999C9.46235 8.7999 9.99961 9.33716 9.99961 9.9999C9.99961 10.6626 9.46235 11.1999 8.79961 11.1999L3.3139 11.1999C2.77812 11.1999 2.30726 11.5551 2.16007 12.0702L0.445779 18.0702C0.315046 18.5278 0.46705 19.0194 0.833245 19.3233C1.19944 19.6272 1.71062 19.686 2.13626 19.4732L18.9363 11.0732Z" fill="#FF453A"/>
</svg>
