<svg width="346" height="454" viewBox="0 0 346 454" fill="none" xmlns="http://www.w3.org/2000/svg">
<path d="M63.1508 134.196C63.1508 134.196 49.6217 123.674 52.6294 98.8691C52.6294 98.8691 65.4093 111.649 72.9231 101.877C72.9231 101.877 96.9737 115.406 102.989 96.6161C102.989 96.6161 138.316 116.161 140.569 76.3224C140.569 76.3224 166.878 56.0287 136.057 37.2388C136.057 37.2388 134.553 1.16291 106.746 16.1959C106.746 16.1959 90.9637 -13.8701 70.67 7.92748C70.67 7.92748 52.6294 -1.84477 48.1233 10.1805C48.1233 10.1805 14.3004 -2.5994 14.3004 37.988C14.3004 37.988 -15.7655 49.2641 11.2928 78.5754C11.2928 78.5754 -8.25172 104.13 33.8395 101.122C33.8395 101.122 27.0749 120.667 63.1508 134.196V134.196Z" fill="#EAEAEA"/>
<path d="M88.3195 48.0413C88.143 47.5369 81.1824 37.6383 74.0454 38.6723C66.9083 39.7189 62.7471 39.5676 68.8376 44.0314C74.9281 48.4953 77.4626 49.2392 78.0553 51.9125C78.0553 51.9125 81.0311 63.0594 74.0454 63.8034C67.0596 64.5473 66.013 63.9547 63.3398 61.5715C60.6665 59.1882 57.5393 54.8757 57.2493 58.0029C56.9467 61.1301 57.4006 61.8741 57.4006 61.8741C57.4006 61.8741 52.9368 62.3154 55.32 64.6987C57.7033 67.0819 57.7033 66.3379 57.7033 66.3379C57.7033 66.3379 51.9028 71.5457 58.5986 70.3478C65.2943 69.1625 61.1205 67.3719 65.2943 67.8258C69.4555 68.2672 75.1046 71.8357 81.8003 68.5698C88.496 65.3039 92.0646 58.9108 88.3447 48.0539L88.3195 48.0413Z" fill="#FF453A"/>
<path d="M45.0185 31.7996C45.1068 31.8753 45.195 31.9509 45.2959 32.0266C45.359 32.077 45.6868 32.3292 45.4725 32.1653C45.6364 32.2788 45.7877 32.3923 45.9516 32.5057C46.9604 33.1993 47.9313 33.7289 49.0284 34.2207C52.433 35.7338 56.2663 35.9608 59.9483 35.2042C60.3897 35.1159 63.1134 35.469 62.8738 36.2508C62.5207 37.3857 62.1803 38.5332 61.8272 39.668C61.6254 40.3363 61.5498 41.6351 60.7806 41.8243C57.6912 42.6061 54.2109 42.6313 51.0838 42.1647C48.524 41.7738 45.939 40.9164 43.9215 39.2645C43.354 38.798 44.4259 38.7223 44.678 38.7475C45.4094 38.798 46.2542 39.0375 46.8217 39.5167C48.7762 41.1181 51.4242 41.219 53.8579 41.1181C55.3584 41.0551 56.8716 40.8912 58.3343 40.5507L58.0443 40.7399C58.5865 38.9493 59.1287 37.1713 59.6835 35.3808C60.6545 35.7338 61.6254 36.0743 62.609 36.4274C57.7164 37.4235 52.6347 36.8561 48.0196 34.9646C45.9516 34.1198 43.8332 33.0227 42.1561 31.5222C41.6139 31.0304 42.6353 30.98 42.9127 31.0052C43.6188 31.0556 44.5141 31.2826 45.0563 31.7744L45.0185 31.7996Z" fill="black"/>
<path d="M81.3089 36.7678C81.3719 40.1472 79.6444 43.3374 77.7656 46.0485C77.4755 46.452 77.1855 46.8555 76.8829 47.259C76.8072 47.3599 76.7316 47.4734 76.6433 47.5617C76.4794 47.713 76.6685 47.4104 76.6811 47.4734C76.7064 47.5869 76.5298 47.9147 76.492 48.0282L76.202 48.8983L75.7985 50.1088C75.6597 50.5376 75.1806 50.6006 74.8023 50.6384C73.0622 50.8402 71.3346 51.0293 69.5945 51.2311C68.9136 51.3067 67.8418 50.9663 67.4887 50.3358C67.0978 49.6549 67.8292 49.3775 68.384 49.3144C70.1241 49.1127 71.8516 48.9235 73.5918 48.7218L72.5956 49.2514C72.8856 48.3939 73.1252 47.486 73.4657 46.6412C73.6926 46.0737 74.2223 45.582 74.5753 45.0902C76.3281 42.6313 78.1565 39.5293 78.0934 36.4021C78.0808 35.6708 78.9256 35.5825 79.4931 35.6455C79.9849 35.696 81.2837 36.0743 81.3089 36.7804V36.7678Z" fill="black"/>
<path d="M89.3407 50.4494C86.8692 51.0673 84.2842 51.6599 81.9262 52.6435C81.7244 52.7317 81.5227 52.82 81.3461 52.9335C81.0687 53.0974 81.2452 53.047 81.0687 53.1983C80.703 53.5135 80.2365 53.7657 79.833 54.0431C78.9377 54.6484 78.0802 55.5185 76.958 55.5563C75.5457 55.6067 74.1334 55.6446 72.7211 55.695C71.9772 55.7202 71.0819 55.5185 70.4514 55.0898C69.9722 54.7619 69.9848 54.371 70.6531 54.3584C72.1915 54.308 73.7299 54.2575 75.2683 54.2071L74.7891 54.3206C75.7474 53.6649 76.7058 53.0092 77.6641 52.3535C77.7272 52.3156 78.1937 51.9878 77.9667 52.1769C78.0802 52.076 78.1433 51.9499 78.2694 51.8617C78.6855 51.559 79.2529 51.3951 79.7195 51.2186C81.9892 50.3737 84.3724 49.7685 86.7178 49.1884C87.424 49.0119 88.3193 49.2767 88.9624 49.5919C89.2524 49.7306 90.0594 50.2729 89.3407 50.462V50.4494Z" fill="black"/>
<path d="M85.6084 63.866C83.5656 62.6555 81.5229 61.4324 79.4801 60.2219C79.1901 60.0453 78.9001 59.8814 78.61 59.7049C78.4839 59.6292 78.1813 59.4148 78.2443 59.2131C78.3074 59.0113 78.6731 58.9735 78.8118 58.9735C79.581 58.9483 80.4132 59.1879 81.0815 59.5788C83.1243 60.7893 85.167 62.0124 87.2098 63.2229C87.4998 63.3995 87.7899 63.5634 88.0799 63.7399C88.206 63.8156 88.5086 64.03 88.4456 64.2317C88.3825 64.4335 88.0168 64.4713 87.8781 64.4713C87.1089 64.4965 86.2767 64.2569 85.6084 63.866Z" fill="black"/>
<path d="M76.996 65.0768C78.0805 66.3756 79.1649 67.687 80.2493 68.9858C80.4006 69.1749 80.552 69.3514 80.7033 69.5406C80.8294 69.6919 80.9302 69.8684 80.7537 70.0198C80.5772 70.1711 80.1358 70.1711 79.9215 70.1585C79.4927 70.1332 79.064 70.045 78.6731 69.881C78.3705 69.755 78.0048 69.6162 77.7904 69.3641C76.706 68.0653 75.6216 66.7539 74.5371 65.4551C74.3858 65.2659 74.2345 65.0894 74.0832 64.9002C73.9571 64.7489 73.8562 64.5724 74.0328 64.4211C74.2093 64.2698 74.6506 64.2698 74.865 64.2824C75.2937 64.3076 75.7224 64.3958 76.1133 64.5598C76.416 64.6859 76.7817 64.8246 76.996 65.0768Z" fill="black"/>
<path d="M72.7093 41.3451C71.9711 41.3451 71.3727 40.7467 71.3727 40.0085C71.3727 39.2703 71.9711 38.6719 72.7093 38.6719C73.4475 38.6719 74.0459 39.2703 74.0459 40.0085C74.0459 40.7467 73.4475 41.3451 72.7093 41.3451Z" fill="black"/>
<path d="M61.5367 66.539C59.9479 66.022 58.3465 65.505 56.7577 64.9754C56.5307 64.8997 56.3037 64.8241 56.0767 64.7484C55.6985 64.6223 55.3076 64.4836 55.0049 64.2188C54.8536 64.0801 54.5888 63.7901 54.6771 63.5505C54.9041 62.9326 56.0263 63.0587 56.4929 63.21C58.0817 63.727 59.6831 64.244 61.2719 64.7736C61.4989 64.8493 61.7259 64.9249 61.9528 65.0006C62.3311 65.1267 62.722 65.2654 63.0247 65.5302C63.176 65.6689 63.4408 65.9589 63.3525 66.1985C63.1255 66.8164 62.0033 66.6903 61.5367 66.539Z" fill="black"/>
<path d="M54.5261 67.4727H61.4362C62.1298 67.4727 63.1133 67.7248 63.5673 68.2923C64.0212 68.8597 63.1638 69.0363 62.7476 69.0363C60.7301 69.0363 58.7126 69.0363 56.695 69.0363H55.8376C55.144 69.0363 54.1605 68.7841 53.7065 68.2166C53.2526 67.6492 54.11 67.4727 54.5261 67.4727Z" fill="black"/>
<path d="M61.5116 60.9157C63.4409 65.1526 70.4392 65.5813 74.2473 63.9672C79.329 61.811 77.7906 55.3296 75.9875 51.408C74.8148 48.8483 71.3093 47.1081 69.0774 45.3428C67.4003 44.0188 65.7484 42.6569 64.2731 41.1186C63.3148 40.1224 62.0412 38.7984 61.8773 37.3357C61.3981 33.1492 70.5653 34.3346 72.5829 34.5237C78.8877 35.0785 85.6086 36.6547 90.2742 41.2194C96.9952 47.8017 96.0747 58.6712 91.6361 66.2622C88.2441 72.0626 82.3553 74.4585 75.7353 73.9793C72.5703 73.7523 69.3296 73.021 66.442 71.6717C66.0006 71.47 65.4962 71.2682 65.1053 70.9656L64.8153 70.7765C65.3954 70.8773 65.4458 70.9782 64.954 71.0791C64.8153 71.243 64.1092 71.5835 63.8948 71.7474C63.0247 72.4157 62.2556 73.311 61.6251 74.2189C61.0955 74.9881 57.9809 73.9541 58.6366 73.0336C59.7967 71.3565 61.5116 69.5533 63.6426 69.3263C65.8871 69.0994 67.829 70.8269 69.897 71.47C75.9496 73.3614 82.9984 72.6301 87.0966 67.3592C92.2539 60.714 94.158 49.4661 88.5719 42.5561C84.3603 37.3609 77.1854 36.1503 70.868 35.9486C69.4935 35.9108 66.1141 35.5577 65.2188 37.0835C64.5631 38.2057 65.8493 39.6558 66.5176 40.4376C69.1404 43.4892 72.6333 45.7841 75.7857 48.2178C76.7188 48.9491 77.8537 49.6805 78.5346 50.6767C79.493 52.0637 80.0604 53.9804 80.4513 55.5944C81.0566 58.0659 81.2457 60.9283 79.7325 63.1224C77.7402 65.9974 73.6547 66.4009 70.4518 66.3757C66.1772 66.3379 60.2758 64.7869 58.2961 60.4618C57.9304 59.6674 61.045 59.9826 61.4864 60.9283L61.5116 60.9157Z" fill="black"/>
<path d="M65.4952 134.428C63.785 133.093 62.3735 131.252 61.1574 129.477C57.938 124.781 56.0215 119.265 55.1691 113.657C54.4525 108.95 54.5014 104.167 55.066 99.4436C54.2842 99.6553 53.5024 99.8616 52.7207 100.073C54.2625 101.615 56.0704 102.956 57.9162 104.102C61.2225 106.154 65.1423 107.582 69.062 106.74C71.5974 106.197 73.7038 104.661 75.2783 102.641L73.1772 103.206C75.9732 104.775 79.0731 105.948 82.146 106.816C87.5967 108.353 93.8618 108.83 98.938 105.866C102.206 103.955 104.275 100.736 105.42 97.2014L103.238 97.9506C104.405 98.5966 105.637 99.1341 106.87 99.639C109.736 100.817 112.722 101.756 115.773 102.31C119.503 102.989 123.369 103.103 127.077 102.218C131.154 101.246 134.753 98.9604 137.321 95.6487C140.812 91.1426 142.202 85.2684 142.777 79.7036C142.875 78.7752 142.946 77.8415 143 76.9077L142.761 77.2768C145.633 75.0564 148.136 72.0921 150.036 69.0247C151.676 66.3808 152.919 63.422 153.321 60.322C153.793 56.7008 153.06 53.0634 151.323 49.8548C148.402 44.4529 143.38 40.5169 138.233 37.3626L138.488 37.6449C138.44 36.4451 138.288 35.2453 138.119 34.0618C137.728 31.3581 137.126 28.6708 136.241 26.0865C135.204 23.0517 133.765 20.0603 131.653 17.6227C129.541 15.1851 126.496 13.2903 123.162 12.7583C118.417 11.9982 113.58 13.4098 109.324 15.4511C108.607 15.7931 107.901 16.1623 107.201 16.5369C107.858 16.5586 108.52 16.5803 109.177 16.602C107.402 13.2306 105.002 10.0763 102.342 7.36183C97.6187 2.52457 91.2667 -1.00973 84.3284 0.260665C79.008 1.23789 74.5291 4.53874 70.9025 8.40963L72.8461 8.0296C70.6799 6.85693 68.3182 5.96657 65.9621 5.27166C61.9229 4.0827 57.1887 3.46922 53.2473 5.34223C50.7879 6.50947 49.0832 8.50736 48.1168 11.0319C48.8443 10.7821 49.5718 10.5324 50.2993 10.2826C49.1266 9.83747 47.8997 9.51173 46.6782 9.22942C43.9256 8.59422 41.0863 8.2359 38.2577 8.26305C34.6094 8.30105 30.9177 8.94168 27.6006 10.5107C23.7948 12.3077 20.6894 15.2231 18.5938 18.8714C15.635 24.0235 14.6035 30.0986 14.3592 35.9619C14.3212 36.9229 14.2994 37.8838 14.2994 38.8393L15.0269 38.1607C11.6881 39.4148 8.49038 41.5918 5.94416 44.0566C3.72369 46.2065 1.92126 48.7853 0.900599 51.7224C-0.348077 55.311 -0.223209 59.2307 0.813735 62.8573C2.65417 69.3016 6.91053 74.9098 11.384 79.7688L11.3732 79.2421C10.7543 80.0511 10.2168 80.9306 9.71191 81.8155C8.60982 83.7482 7.68145 85.8276 7.16027 87.9937C6.60108 90.3391 6.5305 92.9179 7.54573 95.1492C8.87041 98.0646 11.6555 99.8616 14.5872 100.915C20.0759 102.886 26.1673 102.956 31.9221 102.706C32.9156 102.663 33.9091 102.609 34.9026 102.538L33.8439 101.973C33.0241 104.346 33.225 107.229 33.7136 109.628C35.0872 116.382 39.8864 121.893 45.2449 125.948C50.6033 130.004 56.9933 133.098 63.4104 135.509C63.9696 135.72 64.6319 135.617 65.1368 135.291C65.43 135.107 65.9023 134.51 65.3377 134.298C59.5341 132.115 53.8445 129.455 48.752 125.888C45.3915 123.532 42.2861 120.72 39.8973 117.365C38.2523 115.052 36.9819 112.468 36.3087 109.704C35.8472 107.81 35.6844 106.002 35.8255 104.21C35.8961 103.369 35.9993 102.489 36.2761 101.686C36.4661 101.137 35.4781 101.105 35.2175 101.121C29.3704 101.534 23.1813 101.675 17.4971 100.014C14.6469 99.1775 11.6989 97.6574 10.2277 95.008C9.093 92.9613 9.01156 90.5942 9.46217 88.3249C9.68476 87.2011 10.0322 86.1044 10.4503 85.0403C10.4991 84.9209 10.548 84.796 10.5968 84.6766C10.624 84.6115 10.6511 84.5463 10.6783 84.4866C10.738 84.3454 10.7 84.4323 10.7 84.4269C10.8086 84.1826 10.9226 83.9328 11.0366 83.6939C11.2483 83.2488 11.4763 82.809 11.7152 82.3747C12.2853 81.3269 12.9965 80.3822 13.6099 79.367C13.6208 79.3507 13.6317 79.3344 13.6425 79.3236C13.7565 79.1716 13.762 78.9381 13.6317 78.797C7.41543 72.0487 0.428274 62.4882 2.95277 52.7105C3.33823 51.2229 3.91914 49.844 4.70092 48.5301C5.4827 47.2163 6.31334 46.1577 7.22542 45.2021C7.70317 44.6972 8.20807 44.2141 8.72926 43.758C8.95727 43.5571 9.19072 43.3563 9.4296 43.1608C9.55447 43.0577 9.68476 42.9545 9.80963 42.8514C9.86935 42.8025 10.2494 42.5093 10.0322 42.6722C10.9334 41.9882 11.8781 41.3638 12.8553 40.7883C13.0833 40.6526 13.3168 40.5223 13.5502 40.392C13.6642 40.3269 13.7837 40.2672 13.9031 40.202C14.2343 40.0229 13.686 40.3106 14.0117 40.1477C14.3592 39.974 14.7012 39.8003 15.0541 39.6428C15.369 39.4962 15.6838 39.3551 16.0042 39.2356C16.2322 39.1488 16.7316 38.861 16.7316 38.557C16.7425 32.5362 17.3668 26.1897 19.9673 20.6738C20.8686 18.7682 22.0792 16.8626 23.4419 15.3914C24.7883 13.9364 25.9827 12.9917 27.6603 12.0471C27.7634 11.9874 27.872 11.9331 27.9752 11.8734C28.0783 11.8136 28.2032 11.7539 28.0186 11.8516C28.2303 11.7431 28.4421 11.6399 28.6592 11.5368C29.0447 11.3576 29.4356 11.1893 29.8319 11.0373C30.0328 10.9558 30.2391 10.8853 30.4454 10.8093C30.0925 10.9341 30.7114 10.7224 30.8254 10.6898C31.2217 10.565 31.618 10.4564 32.0198 10.3532C32.2261 10.3044 32.4324 10.2555 32.6387 10.2066C32.7798 10.1741 33.3607 10.0655 33.0133 10.1252C33.4259 10.0492 33.8331 9.98405 34.2511 9.92433C35.0329 9.82118 35.8201 9.7506 36.6073 9.7126C36.2707 9.72889 36.8625 9.70717 36.9765 9.70174C37.1719 9.70174 37.3728 9.69631 37.5682 9.69631C37.9537 9.69631 38.3446 9.70174 38.7301 9.71803C39.4467 9.74517 40.1633 9.79404 40.8799 9.86461C41.0591 9.8809 41.2328 9.90262 41.412 9.92433C41.4934 9.93519 41.5749 9.94605 41.6563 9.95148C41.8029 9.96776 41.4609 9.92433 41.7269 9.96234C42.058 10.0058 42.3892 10.0546 42.7204 10.1089C43.3067 10.2012 43.8931 10.3098 44.474 10.4347C45.4023 10.6301 46.3198 10.8581 47.2319 11.1241C47.5196 11.211 47.802 11.2979 48.0843 11.3902C48.1766 11.4227 48.2689 11.4553 48.3611 11.4825C48.5457 11.5422 48.0843 11.3847 48.3231 11.4716C48.3394 11.477 48.3611 11.4825 48.3774 11.4933C49.0886 11.7593 50.2559 11.5259 50.5599 10.7441C50.9291 9.77775 51.4394 8.83853 52.118 8.05132C52.4058 7.71472 52.7369 7.40526 53.0844 7.12295C53.1876 7.04152 53.345 6.92751 53.535 6.80264C53.6327 6.73749 53.7305 6.67777 53.8336 6.61805C53.8716 6.59634 54.2571 6.39004 54.0725 6.48233C54.2462 6.39546 54.4199 6.31403 54.5991 6.23802C54.7077 6.19459 54.8163 6.15116 54.9248 6.10773C55.2832 5.972 54.6805 6.1783 55.0497 6.06429C55.2723 5.99372 55.5003 5.92857 55.7283 5.87428C55.8423 5.84713 55.9564 5.81999 56.0704 5.79827C56.3418 5.73855 55.9075 5.81999 56.2061 5.77656C57.243 5.61369 57.8891 5.58111 58.9097 5.62454C62.292 5.77113 65.7123 6.87322 68.8286 8.2359C69.5398 8.54536 70.2455 8.8711 70.9296 9.24027C71.4671 9.53344 72.466 9.28914 72.8732 8.86024C74.5725 7.04695 76.4184 5.35852 78.514 4.01212C80.1427 2.96975 81.8311 2.19883 83.5847 1.76993C84.2416 1.61249 85.0451 1.48762 85.9029 1.43333C86.0494 1.42248 86.0223 1.42791 86.272 1.42248C86.4566 1.42248 86.6358 1.42248 86.8204 1.42248C87.2601 1.43333 87.6999 1.46048 88.1342 1.51477C89.4589 1.67221 91.0279 2.12825 92.3525 2.70916C97.521 4.97849 101.576 9.38686 104.72 13.9635C105.263 14.7562 105.789 15.5651 106.278 16.3903C106.359 16.526 106.441 16.6672 106.522 16.8029C106.549 16.8518 106.577 16.9006 106.609 16.9495C106.718 17.1341 106.544 16.8301 106.615 16.9604C106.663 17.0472 106.707 17.1286 106.756 17.2155C107.125 17.9159 108.205 17.563 108.732 17.2807C110.409 16.3794 112.331 15.5108 114.009 14.9625C114.829 14.6964 115.659 14.4684 116.501 14.2893C116.468 14.2947 116.881 14.2133 116.713 14.2458C116.544 14.2784 116.946 14.2024 116.919 14.2078C117.103 14.1753 117.283 14.1481 117.467 14.121C117.842 14.0667 118.216 14.0232 118.596 13.9907C119.699 13.8984 121.132 13.9581 122.288 14.197C123.504 14.4467 124.438 14.7833 125.546 15.3805C129.579 17.5575 132.082 21.8628 133.613 26.1083C134.851 29.5448 135.6 33.1769 135.958 36.8089C135.996 37.2052 136.029 37.6015 136.056 37.9978C136.056 38.0684 136.045 38.1716 136.067 38.2367C136.116 38.3887 136.197 38.4321 136.322 38.5407C136.887 39.0239 137.663 39.3768 138.288 39.7894C142.256 42.4279 146.029 45.669 148.516 49.7897C150.199 52.5802 151.165 55.8539 151.024 59.1276C150.899 61.9561 150.052 64.7141 148.744 67.2114C146.855 70.8272 144.357 73.8131 141.268 76.419C140.85 76.7719 140.595 76.9077 140.557 77.5429C140.416 79.7633 140.166 81.9838 139.743 84.1663C139.102 87.5106 138.07 90.8277 136.284 93.7431C135.578 94.9049 134.791 95.9473 133.885 96.8702C133.445 97.3154 132.983 97.7388 132.495 98.1352C132.18 98.3903 132.267 98.3252 131.952 98.5478C131.697 98.7324 131.436 98.9061 131.17 99.0689C130.937 99.2155 130.692 99.3567 130.448 99.4924C130.394 99.5196 130.339 99.5521 130.285 99.5793C130.025 99.7259 130.443 99.5033 130.274 99.5847C130.122 99.6607 129.976 99.7367 129.824 99.8073C129.303 100.052 128.77 100.269 128.233 100.464C128.526 100.356 128.195 100.475 128.081 100.513C127.951 100.557 127.826 100.595 127.696 100.633C127.408 100.719 127.12 100.795 126.832 100.866C126.572 100.931 126.311 100.985 126.051 101.04C126.409 100.964 125.98 101.051 125.898 101.067C125.736 101.094 125.578 101.121 125.415 101.143C124.856 101.224 124.297 101.284 123.738 101.327C123.607 101.338 123.472 101.344 123.341 101.349C123.059 101.365 123.504 101.349 123.162 101.355C122.869 101.36 122.571 101.365 122.277 101.365C121.164 101.365 120.057 101.284 118.949 101.154C118.748 101.132 118.928 101.154 118.966 101.154C118.895 101.143 118.824 101.137 118.748 101.127C118.618 101.11 118.493 101.089 118.363 101.072C118.081 101.029 117.798 100.985 117.516 100.937C116.989 100.844 116.468 100.741 115.942 100.627C114.948 100.41 113.96 100.149 112.983 99.8562C112.527 99.7204 112.071 99.5738 111.62 99.4273C111.414 99.3567 111.208 99.2861 111.007 99.2155C110.844 99.1612 111.007 99.2155 111.034 99.2264C110.969 99.2047 110.904 99.1775 110.838 99.1558C110.73 99.1178 110.621 99.0798 110.513 99.0364C109.769 98.7649 109.036 98.4718 108.308 98.1677C107.375 97.7714 106.452 97.3479 105.551 96.8811C105.426 96.8159 105.306 96.7562 105.187 96.6856C104.552 96.3327 103.243 96.7073 103.004 97.4348C102.092 100.247 100.469 103.016 98.0747 104.634C96.9998 105.361 96.0334 105.768 94.9042 106.072C94.611 106.154 94.3124 106.219 94.0138 106.284C93.8184 106.328 94.2038 106.252 94.003 106.284C93.927 106.295 93.851 106.311 93.775 106.322C93.6067 106.349 93.4329 106.376 93.2646 106.398C92.9606 106.442 92.6566 106.469 92.3471 106.496C92.1734 106.512 91.9997 106.523 91.8259 106.528C91.6305 106.539 91.9834 106.528 91.7879 106.528C91.6902 106.528 91.5925 106.534 91.5002 106.534C86.8638 106.626 82.2328 105.215 78.0091 103.352C77.0318 102.918 76.0492 102.468 75.1154 101.941C74.4748 101.577 73.4378 101.963 73.0144 102.506C72.4117 103.282 71.7005 103.993 70.8753 104.525C70.1804 104.976 69.6212 105.198 68.8557 105.372C68.302 105.497 67.455 105.535 66.6624 105.464C65.9078 105.399 65.0771 105.204 64.3116 104.965C61.4397 104.075 58.7957 102.326 56.5047 100.41C55.9835 99.9756 55.4677 99.5304 54.99 99.0527C54.4797 98.5478 52.7424 98.8735 52.6446 99.6824C51.7271 107.359 52.1669 115.313 54.8977 122.604C56.4178 126.67 58.6274 130.584 61.6025 133.771C62.1183 134.325 62.6612 134.884 63.2584 135.357C63.7144 135.709 64.3713 135.623 64.8708 135.405C65.1151 135.302 65.9621 134.743 65.506 134.385L65.4952 134.428Z" fill="#EAEAEA"/>
<g clip-path="url(#clip0_147_11685)">
<path d="M139.038 449.743C138.788 448.258 150.904 374.349 150.904 374.349L240.383 350.866L254.226 362.241C254.226 362.241 259.663 378.06 261.147 396.356C262.631 414.643 265.1 452.469 265.1 452.469L204.291 451.235L195.886 427.502L194.651 450.735L139.038 449.743V449.743Z" fill="#040000" stroke="#040000" stroke-miterlimit="10"/>
<path d="M144.975 412.005C144.378 412.005 143.829 411.594 143.692 410.981C143.531 410.271 143.975 409.569 144.685 409.416C165.441 404.753 167.127 378.753 167.143 378.487C167.183 377.761 167.796 377.205 168.53 377.253C169.256 377.293 169.805 377.914 169.773 378.632C169.757 378.915 167.974 406.875 145.265 411.973C145.169 411.997 145.072 412.005 144.975 412.005V412.005Z" fill="white"/>
<path d="M246.949 389.168C233.767 389.168 224.942 384.191 219.707 379.77C213.431 374.478 210.874 368.944 210.769 368.71C210.47 368.049 210.761 367.274 211.422 366.976C212.084 366.677 212.858 366.968 213.165 367.621C213.552 368.476 223.063 388.515 250.926 386.385C251.644 386.328 252.281 386.869 252.338 387.595C252.394 388.321 251.853 388.95 251.127 389.007C249.692 389.12 248.304 389.168 246.957 389.168H246.949Z" fill="white"/>
<path d="M256.944 453.284C256.251 453.284 255.67 452.736 255.638 452.034C255.621 451.63 253.645 411.877 252.185 398.469C250.741 385.207 243.682 366.847 243.618 366.67C243.36 365.992 243.69 365.234 244.368 364.967C245.046 364.709 245.804 365.04 246.07 365.718C246.369 366.484 253.314 384.57 254.799 398.187C256.267 411.667 258.243 451.501 258.267 451.905C258.3 452.631 257.743 453.244 257.017 453.284C256.993 453.284 256.977 453.284 256.953 453.284H256.944Z" fill="white"/>
<path d="M148.679 378.311L150.163 359.031L241.376 333.813L247.063 337.524L246.563 353.836L148.679 378.311Z" fill="#FFFEFB"/>
<path d="M149.493 378.182C149.929 372.567 150.356 366.952 150.792 361.338C150.856 360.523 150.913 359.716 150.977 358.902L150.251 359.353C153.276 358.514 156.302 357.683 159.327 356.845C166.595 354.836 173.863 352.827 181.123 350.819L207.397 343.558C214.996 341.453 222.604 339.355 230.203 337.25C232.703 336.556 235.204 335.871 237.705 335.177C238.875 334.854 240.165 334.636 241.303 334.185C241.351 334.168 241.408 334.152 241.456 334.144L240.601 334.112C241.98 335.007 243.36 335.911 244.739 336.806C245.046 337.008 246.167 337.573 246.256 337.774C246.264 337.79 246.207 338.436 246.207 338.597C246.086 342.493 245.974 346.39 245.852 350.286C245.812 351.536 245.78 352.795 245.74 354.045L246.466 353.497L236.68 355.941C228.92 357.885 221.152 359.821 213.391 361.765C203.937 364.129 194.49 366.493 185.036 368.856C176.896 370.889 168.757 372.93 160.609 374.963C156.665 375.947 152.663 376.818 148.743 377.931C148.686 377.948 148.63 377.956 148.573 377.972C147.605 378.214 147.775 378.883 148.751 378.633C152.01 377.819 155.269 377.004 158.536 376.189C166.296 374.245 174.065 372.309 181.825 370.365C191.28 368.001 200.726 365.637 210.181 363.274C218.32 361.241 226.46 359.2 234.607 357.167C238.552 356.183 242.553 355.312 246.474 354.199C246.53 354.182 246.587 354.174 246.643 354.158C246.901 354.094 247.361 353.932 247.369 353.61C247.498 349.286 247.627 344.962 247.764 340.638L247.845 337.895C247.861 337.395 247.918 337.323 247.514 337.032C246.562 336.346 245.53 335.741 244.546 335.096C243.779 334.596 242.973 333.886 242.126 333.515C241.625 333.297 241.037 333.539 240.536 333.676L238.003 334.378L228.444 337.016C218.425 339.783 208.398 342.558 198.379 345.325C188.36 348.092 177.421 351.117 166.942 354.013C161.392 355.546 155.826 357.022 150.3 358.611C150.219 358.635 150.138 358.652 150.058 358.676C149.888 358.724 149.356 358.885 149.332 359.127C148.896 364.742 148.469 370.357 148.033 375.971C147.968 376.786 147.912 377.593 147.847 378.407C147.807 378.956 149.437 378.625 149.469 378.157L149.493 378.182Z" fill="#060001"/>
<path d="M137.465 161.826C137.465 161.826 134.626 164.432 134.263 171.063C134.263 171.063 127.035 172.725 122.654 179.122C118.274 185.519 121.71 191.327 121.71 191.327C121.71 191.327 110.223 191.448 106.9 199.62C103.584 207.792 104.415 215.14 104.415 215.14C104.415 215.14 101.575 219.287 102.043 225.918C102.519 232.549 111.837 246.965 129.527 248.86C147.218 250.756 168.386 225.168 168.386 225.168L176.912 197.054L162.061 169.885L137.457 161.826H137.465Z" fill="black"/>
<path d="M161.278 197.49C161.278 197.49 167.32 202.944 167.675 207.203C168.03 211.462 167.675 214.076 167.675 214.076C167.675 214.076 161.988 220.239 173.363 224.143C184.737 228.056 194.571 220.473 194.571 220.473L200.137 198.797L197.41 185.648L188.883 183.276L168.627 190.504L161.278 197.49V197.49Z" fill="#FFFEFB"/>
<path d="M160.52 197.813C163.045 200.104 165.917 203.186 166.716 206.574C167.248 208.825 167.119 211.471 166.901 213.762C166.901 213.818 166.845 214.383 166.934 214.06C167.006 213.802 166.934 214.036 166.837 214.141C166.659 214.35 166.506 214.576 166.361 214.802C165.03 216.94 165.167 219.424 166.942 221.28C168.716 223.135 171.185 224.095 173.524 224.813C176.291 225.66 179.22 225.902 182.091 225.62C186.23 225.217 190.312 223.748 193.837 221.554C194.321 221.256 195.128 220.885 195.386 220.344C195.668 219.763 195.741 218.973 195.902 218.352C197.475 212.221 199.048 206.09 200.629 199.959C200.742 199.515 200.96 199.015 200.952 198.555C200.928 197.62 200.54 196.571 200.355 195.659L198.379 186.132L198.233 185.43C198.201 185.293 198.024 185.237 197.919 185.205C195.16 184.438 192.393 183.494 189.586 182.889C188.908 182.744 188.319 183.027 187.69 183.252L183.858 184.616C180.236 185.906 176.614 187.197 173 188.488L169.168 189.851C168.62 190.045 168.176 190.182 167.74 190.577C165.328 192.788 162.997 195.095 160.625 197.353C159.94 198.007 161.545 197.999 161.94 197.628C163.546 196.103 165.151 194.57 166.756 193.046C167.531 192.312 168.402 191.61 169.112 190.803C169.426 190.44 169.031 190.819 169.015 190.819C169.168 190.835 169.459 190.658 169.596 190.609L184.189 185.406C185.867 184.809 187.545 184.212 189.215 183.615L188.392 183.72L196.918 186.092L196.604 185.866C197.104 188.286 197.604 190.706 198.112 193.126L199.064 197.708C199.145 198.096 199.266 198.491 199.306 198.878C199.339 199.136 199.347 198.765 199.298 199.039C198.919 201.226 198.177 203.404 197.628 205.549C196.765 208.921 195.894 212.293 195.031 215.657L194.103 219.255C194.014 219.594 193.901 219.933 193.845 220.272C193.756 220.747 193.756 220.344 193.909 220.344C193.877 220.344 193.974 220.32 193.78 220.433C193.619 220.53 193.466 220.651 193.304 220.756C192.772 221.102 192.223 221.433 191.667 221.74C189.908 222.708 188.029 223.474 186.093 224.007C180.76 225.459 174.581 224.926 169.902 221.796C167.595 220.247 166.321 217.722 167.74 215.133C167.902 214.842 168.087 214.576 168.273 214.318C168.321 214.254 168.378 214.197 168.426 214.133C168.289 214.318 168.491 214.1 168.523 213.955C168.846 212.334 168.708 210.494 168.636 208.857C168.579 207.582 168.523 206.348 168.071 205.146C167.692 204.146 167.143 203.21 166.555 202.323C165.482 200.717 164.199 199.249 162.828 197.894C162.578 197.644 162.327 197.402 162.069 197.168C161.642 196.781 160.109 197.41 160.553 197.813H160.52Z" fill="#060001"/>
<path d="M197.289 188.601C197.289 188.601 189.706 187.891 188.762 188.835C187.818 189.778 172.411 200.919 158.673 198.789C144.935 196.66 134.028 192.868 136.4 167.748C138.771 142.635 152.751 134.576 159.616 126.994C166.489 119.411 186.624 123.678 186.624 123.678L202.024 137.892L214.108 152.582L220.272 166.086L218.852 180.3L210.325 186.221L197.297 188.593L197.289 188.601Z" fill="#FFFEFB"/>
<path d="M142.563 145.959C142.563 145.959 144.58 145.37 145.29 144.184C146 142.998 154.413 135.536 161.52 131.035C168.627 126.534 177.872 125.703 182.486 127.01C182.486 127.01 183.906 115.877 187.819 113.264C187.819 113.264 182.962 104.737 172.653 106.157C162.343 107.576 160.447 118.007 160.447 118.007C160.447 118.007 153.219 115.635 148.484 120.612C143.749 125.59 140.312 136.488 142.563 145.967V145.959Z" fill="black"/>
<path d="M208.066 184.922L224.733 185.398L236.26 186.664L237.607 186.003H237.567C239.108 171.313 231.291 165.037 231.291 165.037C231.291 165.037 235.437 159.47 230.702 143.361C225.967 127.251 219.328 125.944 219.328 125.944C217.077 110.666 202.621 107.584 197.652 108.294C192.675 109.004 181.897 109.835 182.486 127.009C183.075 144.184 198.951 149.282 198.951 149.282C199.894 159.704 206.058 163.262 206.058 163.262L198.596 177.355L199.217 177.75L208.066 184.938V184.922Z" fill="black"/>
<path d="M240.415 181.889C240.415 181.889 240.383 181.889 240.367 181.889C239.673 181.865 239.132 181.284 239.157 180.59C239.584 168.377 229.17 165.537 228.726 165.424C228.057 165.247 227.645 164.569 227.823 163.891C227.992 163.222 228.678 162.818 229.347 162.98C229.476 163.012 242.174 166.4 241.665 180.671C241.641 181.348 241.085 181.889 240.407 181.889H240.415Z" fill="black"/>
<path d="M187.819 114.513C187.141 114.513 186.576 113.973 186.56 113.287C186.423 107.979 177.985 104.752 177.905 104.72C177.251 104.478 176.92 103.752 177.17 103.099C177.412 102.445 178.138 102.115 178.792 102.357C179.203 102.51 188.908 106.213 189.085 113.223C189.101 113.916 188.553 114.497 187.859 114.513H187.827H187.819Z" fill="black"/>
<path d="M145.323 120.282C145.177 120.282 145.024 120.257 144.879 120.201C144.233 119.959 143.903 119.241 144.145 118.587C144.976 116.345 148.025 112.319 153.575 113.199C154.261 113.304 154.729 113.949 154.624 114.635C154.519 115.32 153.873 115.788 153.188 115.683C148.307 114.917 146.581 119.281 146.508 119.467C146.315 119.967 145.839 120.282 145.331 120.282H145.323Z" fill="black"/>
<path d="M230.937 138.134C230.937 138.134 230.904 138.134 230.888 138.134C230.195 138.109 229.654 137.528 229.678 136.827C229.888 131.172 224.62 127.695 224.572 127.663C223.991 127.283 223.822 126.509 224.193 125.92C224.564 125.339 225.346 125.162 225.927 125.541C226.193 125.71 232.453 129.8 232.195 136.915C232.171 137.593 231.614 138.125 230.937 138.125V138.134Z" fill="black"/>
<path d="M246.417 228.797C245.901 228.797 245.417 228.475 245.231 227.958C244.997 227.305 245.344 226.587 245.998 226.353C246.103 226.313 252.871 223.804 253.702 217.73C253.798 217.044 254.428 216.552 255.121 216.657C255.807 216.753 256.291 217.383 256.202 218.076C255.162 225.7 247.183 228.604 246.845 228.725C246.708 228.773 246.562 228.797 246.425 228.797H246.417Z" fill="black"/>
<path d="M206.058 163.254C206.058 163.254 211.979 160.414 215.222 162.778C218.457 165.149 217.989 173.596 207.244 178.411C196.507 183.227 198.951 169.409 198.951 169.409L206.058 163.246V163.254Z" fill="#FFFEFB"/>
<path d="M153.542 170.724C153.348 170.724 153.163 170.659 153.001 170.53C152.953 170.49 148.331 166.496 151.154 160.075C153.808 154.049 161.246 147.612 161.56 147.338C161.915 147.039 162.44 147.071 162.746 147.426C163.045 147.773 163.013 148.306 162.658 148.612C162.585 148.677 155.188 155.074 152.687 160.753C150.364 166.037 154.042 169.215 154.074 169.247C154.429 169.546 154.478 170.078 154.179 170.433C154.01 170.627 153.776 170.732 153.534 170.732L153.542 170.724Z" fill="black"/>
<path d="M171.822 144.66C171.596 144.66 171.37 144.571 171.201 144.386C170.886 144.047 170.911 143.515 171.249 143.2C171.322 143.127 178.986 136.254 185.988 142.232C186.343 142.53 186.383 143.063 186.076 143.418C185.77 143.773 185.246 143.813 184.891 143.506C179.026 138.497 172.645 144.192 172.379 144.434C172.218 144.579 172.016 144.652 171.814 144.652L171.822 144.66Z" fill="black"/>
<path d="M159.261 145.015C158.802 145.015 158.422 144.635 158.422 144.176C158.422 140.836 155.244 139.803 155.107 139.763C154.663 139.626 154.421 139.158 154.55 138.714C154.687 138.271 155.155 138.021 155.591 138.158C157.148 138.634 160.092 140.497 160.092 144.176C160.092 144.635 159.713 145.015 159.253 145.015H159.261Z" fill="black"/>
<path d="M149.291 182.332H149.186C148.727 182.332 148.348 181.953 148.356 181.485C148.356 181.025 148.735 180.654 149.195 180.654C149.275 180.654 149.316 180.654 149.38 180.654C153.914 180.654 165.353 179.549 166.748 174.402C166.869 173.959 167.329 173.692 167.781 173.813C168.224 173.934 168.491 174.394 168.37 174.846C166.385 182.155 150.848 182.34 149.291 182.34V182.332Z" fill="black"/>
<path d="M173.129 158.752C174.372 158.752 175.379 157.134 175.379 155.138C175.379 153.142 174.372 151.524 173.129 151.524C171.886 151.524 170.878 153.142 170.878 155.138C170.878 157.134 171.886 158.752 173.129 158.752Z" fill="#010101"/>
<path d="M152.56 152.552C153.015 150.912 152.489 149.334 151.385 149.028C150.282 148.723 149.019 149.804 148.564 151.444C148.11 153.085 148.636 154.662 149.739 154.968C150.843 155.274 152.105 154.192 152.56 152.552Z" fill="#010101"/>
<path d="M203.686 165.513C203.589 165.513 203.492 165.497 203.396 165.465L192.973 161.673C192.538 161.512 192.312 161.036 192.473 160.6C192.634 160.165 193.11 159.939 193.546 160.1L203.968 163.891C204.404 164.053 204.63 164.529 204.469 164.964C204.348 165.303 204.025 165.513 203.678 165.513H203.686Z" fill="black"/>
<path d="M212.81 169.57C212.584 169.57 212.367 169.449 212.254 169.239C211.205 167.295 207.397 168.11 206.026 168.586C205.695 168.699 205.34 168.522 205.227 168.199C205.114 167.868 205.284 167.513 205.615 167.4C205.857 167.312 211.592 165.367 213.367 168.643C213.536 168.949 213.415 169.328 213.117 169.498C213.02 169.546 212.915 169.57 212.818 169.57H212.81Z" fill="black"/>
<path d="M204.759 175.015C204.533 175.015 204.315 174.894 204.202 174.676C204.041 174.37 204.154 173.991 204.46 173.829C204.501 173.805 208.478 171.651 209.349 167.271C209.414 166.932 209.752 166.714 210.091 166.779C210.43 166.843 210.656 167.182 210.583 167.521C209.591 172.498 205.235 174.846 205.049 174.943C204.953 174.991 204.856 175.015 204.759 175.015V175.015Z" fill="black"/>
<path d="M137.707 148.096C137.376 148.096 137.062 147.903 136.933 147.58C136.755 147.153 136.957 146.66 137.384 146.483C137.538 146.418 141.127 144.966 145.387 146.088C145.838 146.209 146.105 146.669 145.984 147.112C145.863 147.556 145.403 147.83 144.959 147.709C141.273 146.733 138.062 148.016 138.03 148.032C137.925 148.072 137.82 148.096 137.715 148.096H137.707Z" fill="black"/>
<path d="M146.467 135.302C146.072 135.302 145.717 135.02 145.644 134.617C144.749 129.744 150.251 123.944 150.484 123.694C150.807 123.363 151.332 123.347 151.67 123.67C152.001 123.992 152.017 124.525 151.695 124.856C151.646 124.912 146.556 130.285 147.29 134.31C147.371 134.762 147.072 135.205 146.62 135.286C146.572 135.294 146.516 135.302 146.467 135.302V135.302Z" fill="white"/>
<path d="M189.351 117.297C189.206 117.297 189.061 117.257 188.932 117.184C188.528 116.95 188.399 116.442 188.625 116.039C190.247 113.247 194.595 108.706 199.475 111.465C199.879 111.691 200.024 112.207 199.79 112.61C199.564 113.014 199.048 113.159 198.644 112.925C193.99 110.295 190.231 116.611 190.069 116.886C189.916 117.152 189.634 117.305 189.343 117.305L189.351 117.297Z" fill="white"/>
<path d="M193.385 203.064C193.006 203.064 192.659 202.798 192.57 202.411C192.514 202.161 191.231 196.272 196.039 189.988C196.322 189.617 196.846 189.552 197.217 189.834C197.588 190.117 197.653 190.641 197.37 191.012C193.062 196.643 194.192 201.991 194.208 202.048C194.305 202.499 194.022 202.951 193.571 203.048C193.506 203.064 193.45 203.072 193.385 203.072V203.064Z" fill="white"/>
<path d="M125.978 190.504C125.647 190.504 125.332 190.31 125.203 189.98C125.179 189.915 122.791 183.792 128.519 178.952C128.874 178.654 129.406 178.694 129.705 179.049C130.003 179.404 129.955 179.936 129.608 180.235C124.832 184.268 126.688 189.149 126.768 189.351C126.938 189.778 126.728 190.27 126.3 190.44C126.196 190.48 126.091 190.504 125.986 190.504H125.978Z" fill="white"/>
<path d="M108.44 214.673C108.134 214.673 107.843 214.511 107.698 214.221C106.141 211.236 107.577 206.122 107.633 205.904C107.762 205.46 108.222 205.202 108.674 205.331C109.118 205.46 109.376 205.92 109.255 206.372C108.884 207.671 108.158 211.47 109.19 213.455C109.408 213.866 109.247 214.374 108.835 214.584C108.714 214.648 108.577 214.681 108.448 214.681L108.44 214.673Z" fill="white"/>
<path d="M185.35 177.468C189.288 177.468 192.481 174.426 192.481 170.675C192.481 166.924 189.288 163.883 185.35 163.883C181.411 163.883 178.219 166.924 178.219 170.675C178.219 174.426 181.411 177.468 185.35 177.468Z" fill="#FF7F6B"/>
<path d="M142.975 163.488C145.492 163.488 147.533 161.545 147.533 159.148C147.533 156.751 145.492 154.808 142.975 154.808C140.458 154.808 138.417 156.751 138.417 159.148C138.417 161.545 140.458 163.488 142.975 163.488Z" fill="#FF7F6B"/>
<path d="M175.653 172.144C170.757 172.144 167.046 170.757 164.618 168.03C161.464 164.489 161.512 159.834 161.601 158.447C160.939 157.737 159.011 155.736 157.204 154.744C155.873 154.01 155.115 154.413 154.833 154.647C154.615 155.744 153.598 159.721 150.097 162.246C147.443 164.166 144.023 164.779 139.933 164.069C135.899 163.367 133.262 161.754 132.116 159.253C130.285 155.284 132.963 150.686 133.076 150.493C133.31 150.097 133.826 149.96 134.222 150.202C134.617 150.436 134.754 150.952 134.52 151.348C134.496 151.388 132.181 155.389 133.641 158.551C134.552 160.512 136.763 161.81 140.223 162.407C143.853 163.037 146.838 162.52 149.121 160.875C152.558 158.39 153.227 154.147 153.235 154.107C153.259 153.969 153.316 153.832 153.397 153.719C153.961 152.985 155.647 151.953 158.019 153.26C160.487 154.615 162.996 157.47 163.101 157.591C163.254 157.769 163.335 158.011 163.303 158.245C163.303 158.293 162.722 163.375 165.884 166.909C168.014 169.297 171.37 170.482 175.855 170.45C182.163 170.402 186.608 168.167 188.391 164.174C189.811 160.98 189.222 156.97 186.963 154.429C186.657 154.082 186.689 153.55 187.036 153.243C187.383 152.937 187.915 152.969 188.222 153.316C190.9 156.333 191.602 161.076 189.924 164.852C188.73 167.538 185.317 172.055 175.871 172.128C175.798 172.128 175.734 172.128 175.661 172.128L175.653 172.144Z" fill="black"/>
<path d="M188.077 188.576C188.27 188.383 188.004 188.633 187.923 188.689C187.738 188.834 187.56 188.972 187.367 189.109C186.818 189.512 186.262 189.891 185.697 190.27C183.938 191.432 182.107 192.481 180.228 193.441C175.242 195.99 169.789 197.99 164.158 198.369C159.851 198.66 155.293 197.764 151.162 196.53C147.944 195.57 144.806 194.11 142.418 191.698C139.627 188.875 138.167 185.099 137.473 181.251C136.4 175.274 136.852 168.933 137.836 162.98C138.756 157.462 140.433 152.065 143.088 147.128C145.153 143.28 147.807 139.787 150.799 136.609C153.195 134.06 155.817 131.745 158.318 129.3C159.496 128.155 160.536 126.816 161.908 125.888C163.626 124.718 165.675 124.097 167.7 123.694C171.927 122.855 176.364 123 180.631 123.444C182.083 123.597 183.527 123.791 184.963 124.041C185.342 124.105 185.721 124.202 186.1 124.251C186.141 124.251 186.286 124.315 186.326 124.299C186.1 124.404 186.02 124.033 186.052 124.218C186.084 124.388 186.601 124.727 186.722 124.839L188.02 126.041L191.852 129.583C194.506 132.027 197.152 134.479 199.806 136.924C200.33 137.408 200.895 137.868 201.387 138.384C201.113 138.101 201.581 138.642 201.645 138.723L202.662 139.957C204.985 142.78 207.3 145.596 209.624 148.419L212.544 151.969C212.786 152.259 213.012 152.557 213.262 152.84C213.455 153.066 213.221 152.654 213.391 153.033C214.706 155.962 216.061 158.882 217.392 161.802L219.215 165.803C219.296 165.973 219.457 166.481 219.433 166.182C219.457 166.513 219.36 166.892 219.328 167.223L218.271 177.799L218.013 180.364L218.295 179.912C215.456 181.889 212.608 183.865 209.769 185.833C208.857 186.463 210.18 187.108 210.866 186.632C213.528 184.785 216.19 182.937 218.852 181.09C219.199 180.848 219.554 180.679 219.675 180.251C219.772 179.929 219.747 179.517 219.78 179.186L220.336 173.644L220.925 167.723C220.99 167.054 221.216 166.279 220.982 165.642C220.474 164.271 219.756 162.948 219.142 161.617L216.48 155.784C215.972 154.671 215.528 153.485 214.94 152.404C214.593 151.775 214.044 151.234 213.584 150.678C211.051 147.596 208.51 144.507 205.977 141.425C204.735 139.917 203.581 138.263 202.137 136.932C199.491 134.488 196.854 132.051 194.208 129.607L189.763 125.509C188.98 124.783 188.206 123.888 187.335 123.266C186.891 122.952 186.237 122.92 185.713 122.831C184.116 122.548 182.511 122.339 180.897 122.177C176.178 121.701 171.273 121.597 166.619 122.678C164.449 123.178 162.287 123.984 160.48 125.315C159.044 126.372 157.898 127.84 156.616 129.075C153.744 131.842 150.775 134.496 148.129 137.48C144.83 141.207 142.047 145.386 140.014 149.936C137.304 156.002 135.94 162.593 135.424 169.191C134.988 174.83 135.013 180.864 137.037 186.229C138.425 189.899 140.861 193.013 144.217 195.078C147.573 197.143 151.348 198.127 155.139 198.845C157.729 199.338 160.327 199.741 162.972 199.66C166.175 199.563 169.361 198.926 172.411 197.974C177.493 196.385 182.333 193.981 186.77 191.061C187.681 190.456 188.641 189.859 189.432 189.093C189.722 188.81 189.529 188.399 189.206 188.254C188.803 188.076 188.343 188.286 188.053 188.56L188.077 188.576Z" fill="#060001"/>
<path d="M161.037 218.875C161.037 218.875 175.372 227.281 185.754 225.796C196.136 224.312 205.776 215.664 205.776 215.664C205.776 215.664 226.29 214.672 237.906 218.383C249.523 222.094 318.979 261.638 331.346 275.731C343.704 289.824 347.165 295.261 339.009 308.603C330.853 321.954 303.418 346.179 264.358 350.132L242.851 329.86L274.74 303.166L250.765 288.831L253.298 320.962L242.851 329.86C242.851 329.86 243.844 357.481 204.542 347.655C204.542 347.655 203.525 357.941 184.245 359.425C184.245 359.425 174.976 360.167 170.338 356.085C170.338 356.085 159.77 369.525 145.217 357.844C136.715 351.019 131.31 344.864 132.052 332.264C132.794 319.663 105.665 305.135 105.665 305.135L80.2061 308.845C80.2061 308.845 85.6432 284.37 99.2359 258.419C112.829 232.468 133.843 219.367 161.029 218.867L161.037 218.875Z" fill="#FF453A"/>
<path d="M159.213 220.118C164.174 223.014 169.757 225.321 175.355 226.595C179.736 227.596 184.1 227.797 188.488 226.732C192.877 225.668 197.265 223.53 201.169 221.061C203.452 219.617 205.687 218.012 207.704 216.205L205.526 217.173C208.236 217.044 209.978 217.044 212.778 217.068C217.957 217.117 223.152 217.367 228.282 218.052C231.711 218.512 235.131 219.19 238.35 220.481C238.769 220.65 238.108 220.376 238.689 220.626C238.89 220.714 239.084 220.795 239.286 220.884C239.81 221.118 240.342 221.352 240.859 221.594C242.101 222.167 243.335 222.763 244.561 223.368C259.445 230.717 273.86 239.115 288.05 247.714C295.698 252.353 303.281 257.112 310.686 262.138C316.22 265.889 321.891 269.778 326.723 274.206C329.918 277.135 332.684 280.587 335.33 283.991C338.138 287.605 341.114 291.865 341.082 296.648C341.05 301.368 338.573 305.845 336.024 309.668C334.177 312.443 332.039 314.944 329.667 317.421C315.018 332.756 294.939 343.082 274.232 347.204C271.053 347.833 267.843 348.293 264.624 348.624L266.52 349.156C260.243 343.243 253.975 337.33 247.699 331.417C246.804 330.57 245.909 329.731 245.013 328.884L244.771 330.392C254.096 322.584 263.414 314.783 272.739 306.974C274.046 305.877 275.353 304.788 276.66 303.691C277.249 303.199 277.24 302.311 276.571 301.908C269.585 297.729 262.607 293.559 255.621 289.38L252.596 287.573C251.281 286.791 248.288 287.63 248.425 289.445C249.168 298.835 249.91 308.233 250.644 317.622C250.749 318.937 250.854 320.26 250.958 321.575L251.378 320.414C248.079 323.229 244.771 326.044 241.472 328.852C240.883 329.352 240.544 329.787 240.496 330.546C240.447 331.304 240.399 332.111 240.286 332.893C240.1 334.119 239.818 335.337 239.423 336.523C239.366 336.701 239.302 336.886 239.237 337.064C239.261 336.999 239.269 336.991 239.157 337.282C239.003 337.661 238.842 338.032 238.673 338.403C238.326 339.137 237.93 339.855 237.495 340.541C237.261 340.904 237.019 341.259 236.761 341.605C236.591 341.839 236.89 341.46 236.575 341.839C236.406 342.041 236.236 342.251 236.059 342.444C235.768 342.767 235.462 343.09 235.147 343.388C234.986 343.541 234.817 343.695 234.655 343.848C234.575 343.921 234.486 344.001 234.397 344.074C233.961 344.453 234.736 343.816 234.276 344.171C233.897 344.461 233.518 344.752 233.122 345.018C232.889 345.171 232.655 345.324 232.421 345.469C232.308 345.534 231.59 345.937 232.033 345.703C231.533 345.97 231.025 346.22 230.509 346.446C230.251 346.559 230.001 346.663 229.742 346.76C229.581 346.825 229.412 346.889 229.242 346.946C229.581 346.825 229.331 346.913 229.129 346.978C226.104 347.914 223.353 348.293 219.949 348.245C215.214 348.172 210.527 347.365 205.937 346.228C204.816 345.953 202.347 346.389 202.194 347.89C202.178 348.059 202.137 348.228 202.097 348.398C202.049 348.591 201.984 348.785 201.928 348.979C201.823 349.334 201.928 348.995 201.928 349.011C201.863 349.172 201.799 349.334 201.726 349.487C200.935 351.253 200.161 352.173 198.661 353.423C198.935 353.198 198.306 353.69 198.257 353.73C198.015 353.907 197.773 354.077 197.523 354.246C196.846 354.698 196.547 354.867 195.894 355.19C194.393 355.932 192.973 356.424 191.36 356.844C189.263 357.392 187.117 357.699 184.963 357.884C184.689 357.909 184.414 357.933 184.14 357.941C183.947 357.949 183.753 357.957 183.551 357.965C183.245 357.973 183.971 357.965 183.624 357.965C183.454 357.965 183.293 357.965 183.124 357.965C179.566 357.933 175.315 357.513 172.491 355.118C171.435 354.222 169.305 354.44 168.418 355.553C167.958 356.134 167.417 356.666 166.877 357.167C165.925 358.046 164.36 359.167 163.158 359.764C161.311 360.676 159.568 361.2 157.31 361.095C154.26 360.95 151.429 359.691 148.92 357.997C144.241 354.843 139.441 350.455 136.836 345.381C135.553 342.88 134.811 340.113 134.504 337.322C134.198 334.531 134.746 331.853 134.206 329.199C133.335 324.915 130.245 321.204 127.236 318.195C123.808 314.767 119.919 311.79 115.91 309.072C113.345 307.329 110.715 305.683 108.004 304.175C106.327 303.239 104.407 303.852 102.6 304.118C95.4039 305.167 88.2082 306.216 81.0125 307.265L80.4721 307.345L82.5614 308.62C83.4891 304.465 84.7072 300.367 85.9737 296.302C89.0149 286.524 92.6854 276.941 96.9851 267.648C101.309 258.314 106.189 249.215 113.087 241.503C118.637 235.299 125.268 230.104 132.802 226.531C141.563 222.384 151.13 220.577 160.778 220.376C161.698 220.36 163.255 219.674 163.392 218.633C163.545 217.472 162.085 217.342 161.303 217.359C152.05 217.544 142.837 219.222 134.238 222.691C125.986 226.023 118.483 231.072 112.175 237.332C105.02 244.431 99.6391 252.926 95.17 261.904C90.1604 271.964 85.9495 282.426 82.4404 293.091C80.7141 298.343 79.0603 303.667 77.8584 309.072C77.6164 310.152 79.2378 310.443 79.9477 310.346C87.3854 309.265 94.8151 308.184 102.253 307.095C103.301 306.942 104.358 306.789 105.407 306.635L103.842 306.369C107.472 308.313 110.957 310.572 114.305 312.968C117.193 315.033 119.984 317.243 122.525 319.728C124.848 321.995 127.171 324.568 128.551 327.537C129.14 328.811 129.608 330.199 129.704 331.611C129.85 333.74 129.583 335.878 129.777 338.016C130.156 342.194 131.56 346.163 133.924 349.632C136.287 353.101 139.546 355.965 142.813 358.627C146.589 361.7 151.082 364.048 156.043 364.128C162.029 364.233 168.482 361.377 172.241 356.626L168.168 357.062C173.903 361.926 182.825 361.482 189.779 360.135C195.821 358.965 202.678 356.207 205.776 350.495C206.276 349.567 206.768 348.478 206.881 347.414L203.138 349.075C213.617 351.673 226.209 353.165 235.801 346.986C240.657 343.856 243.851 338.75 244.876 333.095C245.078 331.957 245.239 330.78 245.199 329.618L244.763 330.392C247.296 328.239 249.821 326.085 252.354 323.923C253.274 323.14 254.395 322.398 255.202 321.495C255.815 320.809 255.597 319.889 255.524 319.042L253.701 295.882C253.5 293.317 253.298 290.76 253.096 288.194L248.926 290.066C255.912 294.245 262.889 298.415 269.875 302.594L272.9 304.401L272.812 302.618C263.486 310.427 254.169 318.227 244.844 326.036C243.537 327.133 242.23 328.222 240.923 329.319C240.536 329.642 240.254 330.425 240.681 330.828C246.731 336.531 252.782 342.227 258.824 347.93C259.864 348.914 260.897 349.906 261.954 350.882C262.768 351.633 263.64 351.681 264.737 351.56C267.108 351.302 269.472 350.971 271.82 350.56C280.5 349.043 288.978 346.559 297.093 343.114C310.202 337.556 322.56 329.578 332.572 319.421C336.177 315.767 339.493 311.774 342.042 307.313C343.776 304.28 345.35 300.916 345.688 297.399C345.987 294.382 345.309 291.445 343.962 288.743C342.171 285.153 339.654 281.991 337.089 278.933C335.29 276.788 333.499 274.602 331.458 272.682C328.336 269.737 324.876 267.14 321.415 264.615C311.638 257.508 301.361 251.078 291.027 244.827C280.395 238.397 269.625 232.194 258.678 226.313C254.629 224.135 250.547 221.997 246.409 220.005C243.472 218.593 240.504 217.205 237.333 216.391C230.202 214.551 222.676 214.148 215.343 214.035C212.753 213.995 210.156 214.019 207.566 214.092C205.993 214.14 204.8 214.285 203.517 215.398C203.154 215.713 203.525 215.398 203.452 215.455C203.299 215.576 203.154 215.697 203.001 215.818C202.517 216.205 202.033 216.576 201.532 216.947C200.201 217.939 198.822 218.867 197.41 219.73C194.087 221.763 190.392 223.522 186.536 224.199C179.889 225.377 172.645 222.473 166.748 219.658C165.425 219.028 164.102 218.367 162.835 217.625C161.851 217.052 160.391 217.367 159.504 217.98C158.794 218.472 158.189 219.529 159.173 220.101L159.213 220.118Z" fill="#040000"/>
<path d="M159.399 231.363C161.843 232.501 164.441 233.356 167.022 234.114C172.839 235.832 178.856 236.897 184.923 237.091C190.989 237.284 197.386 236.687 203.009 234.049C206.704 232.315 210.003 229.814 212.576 226.636C213.827 225.095 215.037 223.345 215.747 221.473C215.932 220.981 214.311 221.175 214.117 221.691C212.342 226.37 208.067 230.339 203.799 232.702C198.661 235.55 192.796 236.292 186.996 236.244C181.196 236.195 175.025 235.227 169.257 233.614C166.361 232.807 163.441 231.863 160.706 230.597C160.254 230.387 158.754 231.057 159.399 231.355V231.363Z" fill="#040000"/>
<path d="M125.752 249.029C125.752 249.029 132.794 227.152 136.32 218.811C139.845 210.469 158.383 192.674 160.424 193.045C162.465 193.416 160.238 202.128 153.567 210.469C153.567 210.469 155.85 210.59 157.834 212.196C159.811 213.801 159.318 215.906 159.318 215.906C159.318 215.906 162.287 215.785 163.521 217.512C164.756 219.238 164.514 220.23 164.514 220.23C164.514 220.23 167.353 222.207 167.353 224.312C167.353 226.418 165.627 234.815 165.627 234.815L147.339 259.29L125.776 249.029H125.752Z" fill="#FFFEFB"/>
<path d="M126.534 249.11C127.801 245.181 129.1 241.269 130.423 237.357C132.48 231.266 134.504 225.127 136.981 219.19C137.973 216.818 139.458 214.697 141.014 212.664C143.015 210.042 145.201 207.557 147.452 205.145C149.703 202.733 151.921 200.515 154.285 198.337C155.93 196.82 157.616 195.288 159.488 194.045C159.778 193.852 159.972 193.795 160.278 193.602C160.302 193.585 160.262 193.602 160.246 193.602C159.907 193.731 160.125 193.44 160.109 193.65C160.085 193.948 160.335 194.44 160.327 194.795C160.319 195.473 160.181 196.159 160.028 196.82C158.867 201.717 155.979 206.331 152.889 210.227C152.599 210.599 152.816 211.002 153.284 211.034C155.688 211.187 159.109 213.132 158.496 215.963C158.407 216.374 158.971 216.487 159.246 216.471C160.085 216.439 161.23 216.657 162.021 217.157C162.876 217.689 163.916 219.206 163.691 220.287C163.658 220.44 163.763 220.602 163.884 220.682C165.441 221.779 166.675 223.288 166.474 225.264C166.264 227.386 165.844 229.499 165.449 231.597C165.288 232.468 165.118 233.339 164.941 234.202C164.917 234.323 164.788 234.662 164.828 234.775C164.893 234.961 164.981 234.565 164.933 234.614C164.465 235.017 164.102 235.727 163.731 236.219C159.383 242.043 155.027 247.86 150.679 253.684C149.34 255.475 148 257.266 146.669 259.048L147.823 258.742C141.515 255.741 135.214 252.748 128.906 249.747C128.019 249.328 127.139 248.908 126.252 248.489C125.599 248.174 124.364 249.118 125.3 249.562C131.608 252.563 137.909 255.556 144.217 258.556C145.104 258.976 145.984 259.395 146.871 259.815C147.202 259.976 147.815 259.791 148.025 259.508C151.574 254.765 155.124 250.014 158.665 245.27C160.754 242.479 162.836 239.688 164.925 236.897C165.369 236.308 165.869 235.727 166.264 235.106C166.772 234.315 166.796 233.073 166.974 232.169C167.434 229.798 167.934 227.394 168.152 224.982C168.353 222.747 166.909 220.997 165.159 219.763L165.352 220.158C165.651 218.77 164.392 216.931 163.295 216.237C162.198 215.544 160.722 215.277 159.407 215.318L160.157 215.826C160.908 212.389 156.761 210.066 153.873 209.881L154.268 210.687C157.237 206.944 159.843 202.725 161.295 198.143C161.69 196.901 163.061 192.73 160.698 192.456C159.278 192.287 157.648 193.86 156.648 194.658C154.349 196.506 152.187 198.53 150.09 200.604C145.33 205.282 140.563 210.308 137.021 215.995C135.594 218.286 134.69 220.827 133.754 223.344C132.504 226.7 131.318 230.08 130.156 233.46C128.39 238.607 126.671 243.762 125.002 248.941C124.719 249.82 126.349 249.772 126.559 249.11H126.534Z" fill="#060001"/>
<path d="M247.183 330.787C247.183 330.787 235.873 335.974 231.057 339.87C226.233 343.767 224.757 352.294 224.757 354.334C224.757 356.375 223.272 378.624 223.272 378.624C223.272 378.624 223.732 382.335 227.443 380.108C227.443 380.108 228 385.481 233.284 382.238C233.284 382.238 236.067 387.522 240.423 383.722C240.423 383.722 244.319 388.449 246.723 384.836L248.022 367.411C248.022 367.411 263.131 359.53 265.358 347.3C267.584 335.063 247.191 330.803 247.191 330.803L247.183 330.787Z" fill="#FFFEFB"/>
<path d="M246.861 330.457C242.521 332.449 238.221 334.635 234.163 337.136C231.525 338.766 229.097 340.508 227.444 343.186C225.879 345.719 224.886 348.615 224.305 351.52C223.652 354.795 223.757 358.263 223.547 361.66C223.257 366.468 222.942 371.267 222.628 376.075C222.563 377.011 222.337 378.084 222.482 379.012C222.95 381.875 226.048 381.408 227.944 380.327L226.621 380.31C226.726 381.27 227.161 382.327 227.895 382.972C229.589 384.473 232.122 383.448 233.784 382.456L232.461 382.44C233.026 383.489 233.889 384.441 234.946 385.013C237.035 386.151 239.383 385.247 241.077 383.836L239.665 384.029C240.77 385.352 242.432 386.643 244.223 386.635C245.384 386.635 246.828 386.022 247.409 384.941C247.587 384.61 247.579 384.32 247.603 383.941C247.917 379.754 248.224 375.575 248.539 371.388C248.643 370.017 248.74 368.654 248.845 367.282L248.53 367.621C250.797 366.435 252.935 364.919 254.944 363.338C258.888 360.232 262.502 356.44 264.648 351.858C266.56 347.776 267.141 343.299 264.406 339.468C262.139 336.297 258.509 334.216 254.992 332.716C252.653 331.715 250.184 330.86 247.692 330.336C247.183 330.231 245.772 331.013 246.683 331.207C250.499 332.014 254.331 333.498 257.67 335.515C260.123 336.999 262.519 338.975 263.785 341.613C265.294 344.751 264.68 348.164 263.374 351.261C260.712 357.586 255.097 362.515 249.377 366.072C248.813 366.419 248.216 366.726 247.659 367.081C247.24 367.347 247.216 367.516 247.175 367.976L246.635 375.196L245.973 384.094C245.957 384.32 245.989 384.642 245.917 384.86C245.667 385.578 244.876 385.804 244.223 385.618C243.045 385.28 241.956 384.304 241.181 383.376C240.875 383.013 240.044 383.335 239.77 383.569C238.358 384.755 236.93 384.925 235.502 383.69C234.962 383.223 234.421 382.585 234.107 381.996C233.873 381.561 233.107 381.787 232.784 381.98C231.429 382.787 229.92 383.271 228.92 381.738C228.565 381.198 228.339 380.512 228.266 379.859C228.21 379.367 227.145 379.73 226.943 379.843C225.895 380.448 224.967 380.504 224.386 379.326C224.273 379.092 224.201 378.842 224.136 378.592C224.088 378.399 224.096 378.415 224.096 378.447C224.055 377.43 224.233 376.366 224.297 375.349C224.596 370.808 224.894 366.266 225.169 361.724C225.29 359.804 225.403 357.892 225.499 355.972C225.556 354.827 225.556 353.69 225.725 352.552C226.112 349.89 226.895 347.22 228.081 344.8C229.436 342.033 231.364 340.056 233.913 338.387C238.197 335.571 242.851 333.224 247.506 331.086C248.539 330.61 247.595 330.102 246.869 330.433L246.861 330.457Z" fill="#060001"/>
<path d="M228.266 380.037C228.758 373.608 229.258 367.17 229.75 360.741C229.823 359.821 229.896 358.902 229.96 357.982C230.025 357.135 228.363 357.361 228.298 358.103C227.806 364.532 227.306 370.97 226.814 377.399C226.742 378.319 226.669 379.238 226.604 380.158C226.54 381.005 228.202 380.779 228.266 380.037Z" fill="#040000"/>
<path d="M234.099 382.118C234.841 376.092 235.583 370.074 236.317 364.048C236.422 363.201 236.527 362.354 236.632 361.507C236.704 360.926 235.067 361.233 235.002 361.733C234.26 367.759 233.518 373.777 232.784 379.803C232.679 380.65 232.574 381.497 232.469 382.344C232.397 382.925 234.034 382.618 234.099 382.118Z" fill="#040000"/>
<path d="M241.237 383.498C241.77 377.964 242.302 372.422 242.835 366.888C242.907 366.089 242.988 365.291 243.06 364.5C243.077 364.331 241.471 364.476 241.423 364.936C240.89 370.47 240.358 376.012 239.826 381.545C239.753 382.344 239.672 383.143 239.6 383.933C239.584 384.103 241.189 383.957 241.237 383.498Z" fill="#040000"/>
<path d="M277.426 303.264C283.283 299.698 289.132 296.133 294.988 292.567C295.827 292.059 296.666 291.543 297.513 291.035C297.755 290.881 298.449 290.413 298.336 289.994C298.223 289.574 297.392 289.518 297.102 289.502C295.456 289.421 293.544 289.978 292.141 290.833C286.284 294.399 280.435 297.964 274.579 301.53C273.74 302.038 272.901 302.554 272.054 303.062C271.812 303.216 271.118 303.684 271.231 304.103C271.344 304.522 272.175 304.579 272.465 304.595C274.111 304.676 276.023 304.119 277.426 303.264V303.264Z" fill="#040000"/>
<path d="M152.816 210.51C151.356 212.51 149.896 214.511 148.436 216.52C148.226 216.802 148.024 217.084 147.814 217.375C147.605 217.665 148 217.705 148.218 217.697C148.532 217.681 149.105 217.576 149.307 217.294C150.767 215.293 152.227 213.293 153.687 211.284C153.897 211.002 154.099 210.719 154.308 210.429C154.518 210.139 154.123 210.098 153.905 210.106C153.59 210.123 153.018 210.227 152.816 210.51Z" fill="#040000"/>
<path d="M158.504 216.044C156.842 218.287 155.18 220.521 153.518 222.764C153.284 223.078 153.05 223.393 152.816 223.708C152.631 223.958 153.413 223.901 153.478 223.885C153.817 223.829 154.22 223.716 154.43 223.425C156.092 221.183 157.753 218.948 159.415 216.706C159.649 216.391 159.883 216.076 160.117 215.762C160.303 215.512 159.52 215.568 159.456 215.584C159.117 215.641 158.713 215.754 158.504 216.044V216.044Z" fill="#040000"/>
<path d="M163.739 220.215C162.367 222.272 160.996 224.321 159.632 226.378L159.044 227.257C158.834 227.58 159.229 227.741 159.487 227.749C159.85 227.765 160.35 227.62 160.568 227.297C161.94 225.24 163.311 223.191 164.674 221.134L165.263 220.255C165.473 219.932 165.078 219.771 164.819 219.763C164.456 219.747 163.956 219.892 163.739 220.215Z" fill="#040000"/>
<path d="M185.165 398.437C190.069 412.191 194.893 425.986 199.403 439.885C200.661 443.757 201.92 447.645 202.968 451.582C203.259 452.679 205.929 451.969 205.63 450.872C203.517 442.934 200.782 435.15 198.144 427.373C195.377 419.201 192.538 411.054 189.674 402.914C189.061 401.18 188.448 399.454 187.835 397.719C187.448 396.63 184.794 397.38 185.173 398.429L185.165 398.437Z" fill="white"/>
<path d="M189.085 450.872C191.32 443.225 193.514 435.537 195.232 427.761C195.619 425.994 196.111 424.139 196.127 422.323C196.144 420.944 193.441 421.339 193.433 422.533C193.417 424.026 193.054 425.542 192.747 426.994C192.247 429.382 191.658 431.754 191.053 434.117C189.867 438.748 188.601 443.362 187.286 447.96C186.988 449.001 186.689 450.041 186.391 451.082C186.028 452.316 188.754 452.018 189.085 450.872Z" fill="white"/>
<path d="M78.479 332.087C78.1241 330.377 77.4868 317.994 80.2053 308.854C82.9239 299.706 124.944 246.562 124.944 246.562L151.638 256.694C151.638 256.694 139.53 326.15 122.226 341.227C104.922 356.304 84.4082 360.507 78.4709 332.079L78.479 332.087Z" fill="#FF453A"/>
<path d="M80.8185 331.458C80.5523 330.111 80.5523 328.675 80.5201 327.303C80.4475 324.673 80.512 322.036 80.6975 319.406C80.9153 316.373 81.3026 313.331 82.0124 310.371C82.2948 309.193 82.6013 308.064 83.1176 306.975C85.4651 301.981 88.8855 297.391 92.0396 292.882C96.662 286.275 101.462 279.797 106.31 273.352C110.828 267.358 115.393 261.404 119.992 255.475C122.299 252.499 124.791 249.611 126.977 246.537C127.01 246.489 127.042 246.448 127.082 246.408L123.049 247.489C130.842 250.45 138.626 253.402 146.419 256.363C147.524 256.782 148.637 257.202 149.742 257.629L149.347 257.089C148.516 261.856 147.532 266.6 146.516 271.327C144.273 281.749 141.732 292.115 138.683 302.336C135.633 312.557 132.165 323.068 126.865 332.45C124.88 335.959 122.605 339.258 119.516 341.888C117.12 343.929 114.587 345.809 111.908 347.462C110.69 348.213 109.561 348.842 108.238 349.479C107.899 349.641 107.56 349.802 107.214 349.963C107.076 350.028 106.939 350.084 106.802 350.149C106.149 350.439 107.012 350.06 106.625 350.221C105.955 350.496 105.277 350.754 104.6 350.988C104.43 351.044 104.261 351.101 104.1 351.157C104.188 351.125 104.568 351.02 104.108 351.157C103.809 351.246 103.511 351.335 103.204 351.415C102.898 351.496 102.607 351.569 102.309 351.641C102.857 351.512 101.817 351.738 101.655 351.762C101.365 351.811 101.067 351.859 100.776 351.899C100.349 351.964 100.687 351.915 100.776 351.899C100.583 351.923 100.389 351.94 100.195 351.956C99.9372 351.98 99.6871 351.996 99.4289 352.004C99.2676 352.004 99.1143 352.02 98.953 352.02C98.8158 352.02 98.8239 352.02 98.9853 352.02C98.8885 352.02 98.7997 352.02 98.7029 352.02C96.4684 351.964 94.3145 351.544 92.2494 350.471C87.0865 347.801 84.1098 342.477 82.3271 337.153C81.7059 335.289 81.2138 333.378 80.8105 331.458C80.5846 330.377 75.8816 331.506 76.1317 332.708C77.4788 339.073 79.8586 345.922 85.0214 350.221C89.1597 353.666 94.5242 354.473 99.7355 353.771C105.995 352.932 111.917 350.1 117.136 346.632C121.468 343.752 125.525 340.501 128.567 336.249C131.358 332.345 133.512 327.989 135.432 323.601C137.723 318.365 139.659 312.968 141.417 307.539C144.918 296.738 147.734 285.718 150.218 274.65C151.565 268.657 152.897 262.623 153.905 256.556C153.921 256.468 153.937 256.387 153.953 256.298C154.01 255.959 153.865 255.871 153.558 255.758C145.765 252.797 137.981 249.845 130.188 246.884C129.083 246.465 127.97 246.045 126.865 245.618C125.84 245.23 123.509 245.835 122.831 246.699C120.879 249.167 118.943 251.652 117.007 254.136C112.546 259.872 108.117 265.632 103.729 271.432C98.7271 278.047 93.766 284.702 88.9661 291.47C85.4893 296.375 81.8753 301.32 79.0519 306.644C77.4788 309.621 76.898 312.944 76.4624 316.26C75.809 321.188 75.5912 326.263 75.9703 331.232C76.0107 331.724 76.0429 332.224 76.1397 332.708C76.3495 333.781 81.0605 332.684 80.8185 331.458V331.458Z" fill="#040000"/>
<path d="M124.574 252.498C122.516 256.507 120.451 260.525 118.394 264.534C118.104 265.099 117.822 265.655 117.531 266.22C117.378 266.51 118.096 266.454 118.201 266.438C118.507 266.389 118.991 266.26 119.153 265.962C121.21 261.952 123.275 257.935 125.332 253.926C125.622 253.361 125.905 252.805 126.195 252.24C126.348 251.949 125.63 252.006 125.525 252.022C125.219 252.07 124.735 252.2 124.574 252.498V252.498Z" fill="#040000"/>
<path d="M131.625 256.218C129.898 260.057 128.164 263.897 126.438 267.729C126.187 268.278 125.945 268.826 125.695 269.375C125.582 269.625 127.123 269.504 127.309 269.084C129.035 265.244 130.769 261.405 132.496 257.573C132.746 257.024 132.988 256.476 133.238 255.927C133.351 255.677 131.81 255.798 131.625 256.218Z" fill="#040000"/>
<path d="M137.578 258.371C136.392 262.049 135.198 265.72 134.012 269.398C133.843 269.923 133.674 270.455 133.504 270.98C133.206 271.899 134.835 271.948 135.077 271.205C136.263 267.527 137.457 263.856 138.643 260.178C138.812 259.654 138.982 259.121 139.151 258.597C139.449 257.677 137.82 257.629 137.578 258.371Z" fill="#040000"/>
<path d="M143.096 261.163C142.499 264.672 141.91 268.181 141.313 271.69C141.224 272.198 141.144 272.706 141.055 273.215C140.926 273.957 142.596 273.715 142.701 273.053C143.298 269.544 143.886 266.035 144.483 262.526C144.572 262.018 144.653 261.51 144.742 261.001C144.871 260.259 143.201 260.501 143.096 261.163Z" fill="#040000"/>
<path d="M286.768 345.34C274.901 349.882 264.366 350.132 264.366 350.132L242.859 329.86C242.859 329.86 265.261 311.322 265.907 310.58" fill="#FF453A"/>
<path d="M285.775 344.147C279.023 346.712 271.827 348.422 264.615 348.6L266.511 349.148C260.235 343.235 253.959 337.314 247.683 331.401C246.787 330.562 245.9 329.723 245.005 328.876L244.359 330.756C251.152 325.133 257.936 319.519 264.68 313.84C265.713 312.968 266.914 312.137 267.826 311.129C268.52 310.371 268.294 309.435 267.294 309.137C266.237 308.822 264.736 309.193 263.986 310.024C263.236 310.855 262.308 311.492 261.485 312.194C260.663 312.896 259.832 313.589 259.001 314.283C259.356 313.985 258.718 314.517 258.606 314.614C258.347 314.832 258.089 315.05 257.831 315.259C257.315 315.687 256.799 316.122 256.282 316.55C252.233 319.93 248.175 323.302 244.109 326.666C243.19 327.424 242.27 328.191 241.35 328.949C240.899 329.32 240.044 330.207 240.705 330.829C245.021 334.894 249.329 338.96 253.644 343.026C256.089 345.333 258.533 347.632 260.977 349.939C261.389 350.326 261.784 350.722 262.211 351.101C263.188 351.972 265.132 351.609 266.366 351.504C273.675 350.867 280.894 349.124 287.751 346.527C288.534 346.228 289.574 345.22 288.921 344.357C288.227 343.445 286.646 343.816 285.783 344.147H285.775Z" fill="#040000"/>
<path d="M250.998 331.441C253.862 329.279 256.734 327.117 259.598 324.947C260.009 324.641 260.412 324.334 260.824 324.019C261.235 323.705 261.155 323.374 260.638 323.318C260.041 323.253 259.243 323.455 258.759 323.826C255.895 325.988 253.023 328.15 250.159 330.32C249.748 330.626 249.345 330.933 248.933 331.247C248.522 331.562 248.602 331.893 249.119 331.949C249.716 332.014 250.514 331.812 250.998 331.441Z" fill="#040000"/>
<path d="M257.299 336.442C260.711 334.111 264.123 331.788 267.536 329.456C268.02 329.126 268.496 328.803 268.98 328.472C269.383 328.198 269.722 327.649 269.181 327.319C268.641 326.988 267.762 327.214 267.286 327.537C263.873 329.868 260.461 332.191 257.049 334.522L255.605 335.507C255.201 335.781 254.863 336.329 255.403 336.66C255.944 336.991 256.823 336.765 257.299 336.442Z" fill="#040000"/>
<path d="M262.97 341.945C266.165 340.049 269.36 338.153 272.554 336.257C273.006 335.991 273.458 335.725 273.909 335.451C274.361 335.177 274.95 334.644 274.538 334.087C274.167 333.587 273.215 333.603 272.731 333.894C269.537 335.79 266.342 337.685 263.148 339.581C262.696 339.847 262.244 340.113 261.793 340.388C261.341 340.662 260.752 341.194 261.164 341.751C261.535 342.251 262.486 342.235 262.97 341.945Z" fill="#040000"/>
<path d="M268.448 346.615C271.965 345.26 275.482 343.913 278.999 342.558C279.5 342.364 280 342.17 280.5 341.985C280.806 341.872 281.597 341.469 281.25 341.049C280.903 340.63 279.871 340.96 279.508 341.098C275.99 342.453 272.473 343.8 268.956 345.155C268.456 345.349 267.956 345.542 267.456 345.728C267.149 345.841 266.359 346.244 266.705 346.664C267.052 347.083 268.085 346.752 268.448 346.615Z" fill="#040000"/>
<path d="M237.607 186.003L236.26 186.664L224.733 185.398L208.066 184.922L199.217 177.734L198.596 177.339L198.717 180.065C185.802 190.488 188.762 205.178 188.762 205.178C177.033 212.051 184.495 224.49 184.495 224.49C184.495 224.49 183.075 228.402 183.309 230.177C183.543 231.952 182.365 242.14 199.185 242.971C216.004 243.802 219.683 225.797 219.683 225.797C219.683 225.797 249.417 235.509 254.153 211.817C258.799 188.584 238.398 186.083 237.607 185.995V186.003Z" fill="black"/>
<path d="M191.247 237.898C191.126 237.898 190.997 237.874 190.884 237.817C186.56 235.72 186.391 229.411 186.383 229.145C186.375 228.685 186.738 228.298 187.206 228.29C187.649 228.314 188.053 228.645 188.061 229.113C188.061 229.169 188.222 234.663 191.618 236.309C192.038 236.51 192.207 237.01 192.006 237.43C191.86 237.728 191.562 237.906 191.247 237.906V237.898Z" fill="white"/>
<path d="M243.617 220.005C243.311 220.005 243.02 219.835 242.875 219.553C242.665 219.141 242.827 218.633 243.238 218.423C243.561 218.254 251.168 214.188 249.2 205.008C249.103 204.556 249.393 204.105 249.845 204.008C250.297 203.911 250.748 204.201 250.845 204.653C253.088 215.116 244.101 219.867 244.012 219.908C243.891 219.972 243.762 219.997 243.633 219.997L243.617 220.005Z" fill="white"/>
</g>
<defs>
<clipPath id="clip0_147_11685">
<rect width="270" height="351" fill="white" transform="translate(75.7852 102.284)"/>
</clipPath>
</defs>
</svg>
