<svg width="22" height="22" viewBox="0 0 22 22" fill="none" xmlns="http://www.w3.org/2000/svg">
<g clip-path="url(#clip0_139_9684)">
<path d="M10.9967 21.0774C16.7114 21.0774 21.344 16.4448 21.344 10.7301C21.344 5.01546 16.7114 0.382812 10.9967 0.382812C5.28206 0.382812 0.649414 5.01546 0.649414 10.7301C0.649414 16.4448 5.28206 21.0774 10.9967 21.0774Z" fill="#D9D9D9"/>
<path d="M5.755 6.02968L5.63225 6.01172C5.47955 7.13447 5.2041 9.36202 5.2041 10.7363C5.2041 12.6285 7.88674 15.2572 7.88674 15.2572L6.39272 16.5207C6.39272 16.5207 6.41668 16.5476 6.42865 16.5596L7.21608 16.6794L19.7191 10.8021L5.755 6.02968Z" fill="white"/>
<path d="M5.9286 5.87076L5.80585 5.8528C5.6771 5.83483 5.37471 5.87076 5.35076 6.04441C5.24297 6.83483 5.14716 7.62525 5.06932 8.41866C4.98848 9.23902 4.8807 10.0893 4.92561 10.9157C4.99746 12.245 5.99148 13.5085 6.81782 14.4845C7.07531 14.7899 7.34177 15.0893 7.62621 15.3678L7.65914 15.2031C7.16213 15.6252 6.66213 16.0444 6.16513 16.4666C6.12022 16.5055 6.0813 16.5773 6.13219 16.6312C6.29387 16.8019 6.6801 16.7779 6.89866 16.8109C7.06034 16.8348 7.19507 16.8498 7.35076 16.7899C7.53639 16.7181 7.71603 16.6193 7.89567 16.5354C8.81782 16.1013 9.73698 15.6702 10.6591 15.236C13.1172 14.0803 15.5753 12.9247 18.0334 11.769C18.6352 11.4875 19.234 11.2031 19.8358 10.9217C19.9735 10.8588 20.0963 10.7091 19.8957 10.6402C18.3178 10.1013 16.737 9.55938 15.1591 9.02046C12.6651 8.16717 10.1711 7.31687 7.6771 6.46357C7.09627 6.26597 6.51543 6.06537 5.93459 5.86777C5.74896 5.80489 5.27291 6.07735 5.59028 6.18513C7.16812 6.72405 8.74896 7.26597 10.3268 7.80489C12.8208 8.65819 15.3148 9.50848 17.8088 10.3618C18.3897 10.5594 18.9705 10.76 19.5514 10.9576L19.6112 10.6761C18.2011 11.3378 16.7909 12.0025 15.3807 12.6642C13.1412 13.7151 10.9046 14.769 8.66513 15.8199C8.14716 16.0624 7.6292 16.3079 7.10824 16.5504L7.39267 16.5145L6.99746 16.4546L6.75195 16.4187C6.72201 16.4157 6.67411 16.3947 6.64716 16.4037C6.59926 16.4157 6.61423 16.3558 6.65914 16.4037L6.62621 16.5684C7.12321 16.1462 7.62321 15.727 8.12022 15.3049C8.16513 15.269 8.20405 15.1911 8.15315 15.1402C7.20106 14.2061 6.27591 13.0744 5.76393 11.8378C5.38968 10.9336 5.49447 9.99651 5.57531 9.04142C5.65914 8.01447 5.78189 6.99352 5.91962 5.97256L5.46453 6.16417L5.58728 6.18214C5.71303 6.2001 5.89866 6.18214 5.98848 6.07435C6.05435 5.99352 6.06932 5.88274 5.93159 5.86477L5.9286 5.87076Z" fill="black"/>
<path d="M5.72754 13.2338C5.72754 13.2338 6.62275 11.9703 8.01496 12.5242C9.40718 13.0751 10.4611 14.2607 10.012 14.7577C9.56287 15.2547 8.06586 16.623 6.91017 15.3356C5.75449 14.0482 5.72754 13.2308 5.72754 13.2308V13.2338Z" fill="#FF6057"/>
<path d="M8.383 6.9222C8.383 6.9222 7.17342 7.39525 7.04168 8.60484C6.90995 9.81442 8.17342 10.6827 9.64348 10.5779C11.1165 10.4731 12.1405 8.89525 11.6405 8.08088C11.1405 7.26651 9.4848 6.79346 8.38001 6.92519L8.383 6.9222Z" fill="#FF6057"/>
<path d="M12.7483 13.7068C12.7483 13.7068 10.9609 12.4434 12.1166 11.3925C13.2722 10.3416 15.6136 10.8655 16.0597 11.3655C16.5058 11.8655 12.7483 13.7068 12.7483 13.7068Z" fill="#FF6057"/>
<path d="M6.97892 11.6285C6.97892 11.6285 6.14958 10.5057 6.0927 10.365C6.03581 10.2243 6.07174 9.69434 6.07174 9.69434C6.07174 9.69434 6.60467 10.0895 6.70348 10.2063C6.80228 10.3231 7.21545 11.2123 7.21545 11.2123L6.97892 11.6255V11.6285Z" fill="black"/>
<path d="M9.4043 11.8085C9.48214 11.7486 10.0151 11.0779 10.2336 11.1169C10.4522 11.1558 11.2576 11.1378 11.2576 11.1378C11.2576 11.1378 11.0809 11.6887 10.8235 11.7486C10.566 11.8085 9.4043 11.8085 9.4043 11.8085Z" fill="black"/>
<path d="M12.0059 10.2871C12.0059 10.2871 12.4999 9.71521 12.5777 9.63737C12.6556 9.55952 13.2873 9.37988 13.2873 9.37988C13.2873 9.37988 13.5837 9.45773 13.3472 9.69425C13.1107 9.93078 12.8352 10.1883 12.5987 10.2452C12.3621 10.302 12.0059 10.2841 12.0059 10.2841V10.2871Z" fill="black"/>
<path d="M5.20334 10.7362C5.20334 9.36497 5.47879 7.13443 5.63149 6.01167L4.33508 5.83203C4.33508 5.83203 1.94287 12.0296 6.38897 16.5207L7.88298 15.2572C7.88298 15.2572 5.20035 12.6284 5.20035 10.7362H5.20334Z" fill="white"/>
<path d="M5.48505 10.6586C5.49104 9.0897 5.70062 7.51485 5.9102 5.96395C5.91918 5.90108 5.8623 5.89808 5.8114 5.8891C5.38026 5.82922 4.94613 5.76934 4.51499 5.70946C4.39822 5.69449 4.10182 5.74838 4.05391 5.88012C3.75751 6.64958 3.60182 7.49389 3.50301 8.30826C3.29044 10.0598 3.43715 11.8711 4.08685 13.5208C4.54493 14.6855 5.24852 15.7274 6.12278 16.6196C6.23056 16.7304 6.55391 16.5807 6.64673 16.5029C7.14373 16.0807 7.64373 15.6616 8.14074 15.2394C8.16769 15.2154 8.17667 15.1825 8.14972 15.1586C7.67367 14.6885 7.23655 14.1735 6.83236 13.6406C6.19463 12.7933 5.50301 11.7574 5.48505 10.6586C5.48505 10.5508 4.91619 10.6406 4.91918 10.8113C4.93715 11.9041 5.62277 12.928 6.25152 13.7723C6.66769 14.3292 7.11978 14.8681 7.61679 15.3562L7.62577 15.2753C7.12876 15.6975 6.62876 16.1166 6.13176 16.5388L6.65571 16.422C4.10481 13.8142 3.47307 10.0508 4.36828 6.59569C4.44014 6.32323 4.51499 6.04778 4.61679 5.78431L4.15571 5.95497L5.45212 6.13461L5.35331 6.05976C5.14074 7.63162 4.92816 9.22443 4.92218 10.8113C4.92218 10.916 5.48804 10.8322 5.48804 10.6586H5.48505Z" fill="black"/>
<path d="M11.2458 20.6948C7.629 20.6768 4.2308 18.6259 2.51823 15.4343C0.805651 12.2427 0.931399 8.11093 2.9823 5.03009C5.0332 1.94926 8.41343 0.398358 11.9524 0.835484C15.4913 1.27261 18.626 3.74566 19.9554 7.06003C21.4374 10.7636 20.5961 15.1499 17.7458 17.9672C17.4015 18.3085 17.0332 18.6259 16.641 18.9133C16.4554 19.0481 16.2667 19.2816 16.5332 19.4433C16.7757 19.593 17.2428 19.4822 17.4554 19.3265C19.2158 18.0391 20.5811 16.3115 21.3446 14.2606C22.108 12.2097 22.1949 10.0511 21.6739 7.99716C20.7158 4.2277 17.656 1.25465 13.8955 0.320514C10.135 -0.613618 5.629 0.616921 2.88349 3.578C0.176908 6.49417 -0.751236 10.7666 0.646968 14.5151C2.04517 18.2636 5.35056 20.8265 9.19787 21.3475C9.71284 21.4163 10.2278 21.4582 10.7488 21.4612C11.0302 21.4612 11.4554 21.3714 11.6051 21.099C11.7548 20.8265 11.4823 20.6948 11.2458 20.6948Z" fill="black"/>
</g>
<defs>
<clipPath id="clip0_139_9684">
<rect width="22" height="21.4611" fill="white"/>
</clipPath>
</defs>
</svg>
