<svg width="30" height="26" viewBox="0 0 30 26" fill="none" xmlns="http://www.w3.org/2000/svg">
<path d="M21.2041 25.782H8.13186C7.54842 25.782 7.04994 25.3629 6.9494 24.7893L6.54297 22.4697H22.7944L22.388 24.7893C22.2874 25.3629 21.7889 25.782 21.2055 25.782H21.2041Z" fill="#FFDCD3"/>
<path d="M21.5299 25.5685H21.1532C20.8133 25.5685 20.4735 25.5685 20.1322 25.5685C19.6323 25.5685 19.1324 25.5685 18.6311 25.5685H11.1087C10.6286 25.5685 10.1485 25.5685 9.66846 25.5685H8.5044C8.49024 25.5685 8.47467 25.5685 8.4605 25.5685C8.43643 25.5685 8.41236 25.5685 8.38828 25.5671C8.36138 25.5657 8.33589 25.5628 8.30898 25.56C8.27216 25.5572 8.34155 25.5643 8.34155 25.5643C8.33164 25.5586 8.3104 25.5586 8.29765 25.5558C8.23959 25.543 8.18295 25.5274 8.12772 25.5062C8.11356 25.5005 8.10081 25.4963 8.08665 25.4906C8.09656 25.4949 8.13196 25.5119 8.08806 25.4906C8.06541 25.4793 8.04275 25.468 8.02009 25.4552C7.97336 25.4283 7.92663 25.3986 7.88414 25.366C7.79776 25.3009 7.71987 25.223 7.65332 25.138L7.68305 25.1777C7.44939 24.8675 7.42107 24.4738 7.35593 24.1028C7.27379 23.6313 7.19024 23.1611 7.10811 22.6895C7.08687 22.5706 7.06704 22.4516 7.0458 22.3327L6.21595 22.681H7.83458C8.41802 22.681 9.00146 22.681 9.58491 22.681H16.4177C17.1484 22.681 17.8791 22.681 18.6113 22.681H21.8089C22.0185 22.681 22.2309 22.6881 22.4405 22.681C22.449 22.681 22.4589 22.681 22.4688 22.681L22.296 22.5536C22.2266 22.9529 22.1558 23.3537 22.0864 23.753L21.9448 24.5574C21.9193 24.699 21.9023 24.8449 21.8641 24.9851C21.8344 25.0955 21.7876 25.2017 21.7267 25.2994C21.7197 25.3122 21.7112 25.3235 21.7027 25.3363C21.6998 25.3405 21.6729 25.3787 21.6913 25.3533C21.7097 25.3278 21.6871 25.3575 21.6857 25.3618C21.6743 25.3759 21.663 25.3901 21.6503 25.4028C21.612 25.4467 21.571 25.4864 21.5271 25.5246C21.469 25.5756 21.5667 25.4977 21.52 25.5303C21.4959 25.5473 21.4718 25.5628 21.4478 25.5784C21.4237 25.594 21.3812 25.6096 21.486 25.5572C21.4732 25.5628 21.4605 25.5713 21.4478 25.577C21.4378 25.5813 21.4279 25.5869 21.418 25.5912C21.367 25.6167 21.5356 25.5459 21.4633 25.5728C21.4166 25.5898 21.3175 25.6082 21.4917 25.5657C21.4803 25.5685 21.4704 25.5713 21.4591 25.5742C21.401 25.5912 21.5894 25.5487 21.5299 25.5586C21.5157 25.5614 21.5002 25.5628 21.486 25.5671C21.4308 25.5784 21.6007 25.5558 21.5441 25.56C21.5087 25.5628 21.3925 25.5671 21.5285 25.5657C21.2892 25.5685 21.0144 25.6138 20.8148 25.7569C20.7694 25.7894 20.6802 25.8461 20.6986 25.914C20.7156 25.9778 20.8289 25.9933 20.8785 25.9919C21.5398 25.9863 22.262 25.7583 22.667 25.206C22.8129 25.0077 22.8695 24.784 22.9106 24.5475C23.0069 23.9966 23.1032 23.4457 23.1995 22.8949C23.2292 22.7235 23.2604 22.5508 23.2901 22.3794C23.3057 22.344 23.2986 22.3143 23.2661 22.2902C23.2193 22.2647 23.1698 22.252 23.1159 22.252H21.4973C20.9139 22.252 20.3304 22.252 19.747 22.252H15.282C14.4932 22.252 13.703 22.252 12.9142 22.252H8.86127C8.41519 22.252 7.96911 22.252 7.52445 22.252C7.31345 22.252 7.10244 22.252 6.89286 22.252C6.88295 22.252 6.87445 22.252 6.86454 22.252C6.67053 22.252 6.4836 22.2888 6.30375 22.3652C6.22586 22.3978 6.01345 22.4842 6.03469 22.6003C6.13665 23.1809 6.23861 23.7615 6.34057 24.3421C6.37739 24.5532 6.40571 24.767 6.45244 24.9766C6.58698 25.577 7.13926 25.9565 7.73403 25.9905C7.92663 26.0018 8.12347 25.9919 8.31606 25.9919C8.78055 25.9919 9.24504 25.9919 9.70952 25.9919H16.3795C17.0833 25.9919 17.7871 25.9919 18.4909 25.9919C19.0163 25.9919 19.5431 25.9919 20.0685 25.9919H20.8742C21.1136 25.9919 21.3897 25.9424 21.588 25.8008C21.6333 25.7682 21.7225 25.7115 21.7041 25.6436C21.6871 25.5784 21.5738 25.5657 21.5242 25.5657L21.5299 25.5685Z" fill="#050101"/>
<path d="M23.5598 23.3194H5.7747C4.97884 23.3194 4.30618 22.7331 4.19572 21.9458L2.64648 10.8604H26.688L25.1387 21.9458C25.0283 22.7331 24.3542 23.3194 23.5598 23.3194Z" fill="#FFDCD3"/>
<path d="M23.7414 22.9781H7.40362C6.92356 22.9781 6.44349 22.9824 5.96201 22.9781C5.96059 22.9781 5.95776 22.9781 5.95635 22.9781C5.8997 22.9781 5.84447 22.9753 5.78783 22.9696C5.7595 22.9668 5.7156 22.9668 5.6887 22.9555C5.78924 22.998 5.70569 22.9583 5.67595 22.9498C5.61223 22.9342 5.55133 22.9116 5.49044 22.8903C5.3899 22.8563 5.56125 22.93 5.46778 22.8804C5.44937 22.8705 5.42955 22.8606 5.41114 22.8507C5.35449 22.8209 5.30068 22.787 5.24828 22.7487C5.22279 22.7303 5.1973 22.7105 5.17181 22.6907C5.11092 22.6453 5.2058 22.7275 5.14632 22.668C5.06277 22.5845 4.98489 22.4981 4.91833 22.4004C4.89992 22.3734 4.88293 22.3465 4.86593 22.3182C4.8631 22.314 4.81495 22.2205 4.84469 22.2828C4.81637 22.2233 4.79088 22.1624 4.76964 22.1016C4.73565 22.0024 4.71299 21.899 4.69883 21.7957C4.66626 21.5733 4.63652 21.3496 4.60537 21.1273C4.44534 19.9816 4.28532 18.836 4.1253 17.6903L3.53478 13.4703C3.41299 12.5965 3.28979 11.7228 3.168 10.849C3.16234 10.8066 3.15667 10.7655 3.15101 10.723L2.46419 11.1988H3.11136C3.69338 11.1988 4.27541 11.1988 4.85744 11.1988C5.71985 11.1988 6.58369 11.1988 7.44611 11.1988H20.8001C21.7178 11.1988 22.634 11.1988 23.5517 11.1988C24.2116 11.1988 24.8701 11.1988 25.53 11.1988C25.8415 11.1988 26.1545 11.2087 26.4646 11.1988C26.4788 11.1988 26.4915 11.1988 26.5057 11.1988L26.1786 10.9043C26.1177 11.3362 26.0582 11.7681 25.9973 12.2C25.8557 13.2097 25.7155 14.2194 25.5739 15.2305C25.4124 16.3889 25.2496 17.5473 25.0882 18.7057C24.9649 19.5837 24.8432 20.4603 24.72 21.3383L24.6364 21.933C24.6336 21.95 24.6322 21.9656 24.6293 21.9826C24.6293 21.9854 24.6293 21.9868 24.6293 21.9897C24.6237 22.0237 24.6194 22.0562 24.6123 22.0902C24.6067 22.1171 24.601 22.1455 24.5939 22.1724C24.5911 22.1837 24.5628 22.2757 24.5755 22.2389C24.5925 22.1894 24.5557 22.2899 24.5571 22.2871C24.5486 22.3069 24.5401 22.3267 24.5316 22.3465C24.5132 22.3862 24.4934 22.4244 24.4721 22.4627C24.4452 22.5094 24.4169 22.5547 24.3858 22.5986C24.3943 22.5873 24.4382 22.5335 24.39 22.5901C24.3688 22.6142 24.3489 22.6397 24.3277 22.6638C24.2965 22.6992 24.2555 22.7289 24.2257 22.7657C24.1861 22.8153 24.3121 22.7006 24.23 22.7615C24.213 22.7742 24.196 22.7884 24.179 22.8011C24.1408 22.8294 24.0997 22.8549 24.0586 22.8818C23.9992 22.9201 24.1719 22.828 24.0728 22.8733C24.0431 22.8861 24.0147 22.9017 23.985 22.9144C23.9666 22.9229 23.9411 22.9286 23.9255 22.9399C23.934 22.9342 24.0515 22.8988 23.9652 22.9257C23.9184 22.9399 23.8717 22.9541 23.8236 22.964C23.7301 22.9852 23.8165 22.9399 23.8476 22.9611C23.842 22.9583 23.7825 22.9696 23.7811 22.9696C23.7244 22.9753 23.6692 22.9781 23.6126 22.9781C23.4044 22.981 23.0829 23.1353 23.0504 23.3647C23.0149 23.6196 23.3307 23.6607 23.5063 23.6593C24.5146 23.6494 25.4946 22.9201 25.6475 21.899C25.6659 21.7787 25.6815 21.6583 25.6985 21.5394C25.8104 20.7435 25.9208 19.9476 26.0327 19.1518C26.1941 17.9948 26.3556 16.8378 26.5184 15.6809C26.6685 14.6089 26.8187 13.5354 26.9688 12.4634C27.0438 11.9239 27.1458 11.3815 27.1953 10.8391C27.1953 10.8306 27.1982 10.8236 27.1982 10.8151C27.2222 10.638 27.0268 10.5205 26.871 10.5205H26.2239C25.6419 10.5205 25.0598 10.5205 24.4778 10.5205H8.53369C7.61604 10.5205 6.69981 10.5205 5.78216 10.5205C5.12225 10.5205 4.46375 10.5205 3.80384 10.5205C3.49229 10.5205 3.18075 10.5205 2.8692 10.5205C2.85504 10.5205 2.84229 10.5205 2.82813 10.5205C2.56332 10.5205 2.09175 10.6409 2.14131 10.9963C2.23053 11.6293 2.31833 12.2623 2.40754 12.8968C2.5973 14.2577 2.78848 15.6185 2.97824 16.9794L3.51495 20.8171L3.66506 21.8863C3.67356 21.95 3.68205 22.0123 3.69197 22.0761C3.75852 22.5236 3.99502 22.9144 4.3363 23.2047C4.72432 23.5333 5.21996 23.6607 5.71844 23.6607H6.43641C7.41637 23.6607 8.39632 23.6607 9.37486 23.6607C10.7513 23.6607 12.1264 23.6607 13.5029 23.6607H23.3789C23.6168 23.6607 23.9199 23.597 24.0388 23.3619C24.145 23.1551 23.9468 22.9781 23.7414 22.9781Z" fill="#050101"/>
<path d="M28.0534 8.12402H1.28023C0.856334 8.12402 0.512695 8.46766 0.512695 8.89156V10.6702C0.512695 11.0941 0.856334 11.4377 1.28023 11.4377H28.0534C28.4773 11.4377 28.821 11.0941 28.821 10.6702V8.89156C28.821 8.46766 28.4773 8.12402 28.0534 8.12402Z" fill="#FF453A"/>
<path d="M28.2446 11.1306H1.54357C1.5195 11.1306 1.49542 11.1306 1.47277 11.1306C1.47277 11.1306 1.35098 11.1164 1.41329 11.1292C1.4756 11.1419 1.35664 11.1122 1.35806 11.1122C1.41612 11.1306 1.30283 11.0824 1.28159 11.0711C1.24902 11.0527 1.20087 11.0102 1.15556 10.955C1.09041 10.8757 1.05501 10.7964 1.03377 10.6902C1.0281 10.6618 1.01819 10.5188 1.01961 10.6123C1.01961 10.6038 1.01961 10.5953 1.01961 10.5868C1.02669 10.0288 1.01961 9.47087 1.01961 8.91434C1.01961 8.79963 1.01961 8.68068 1.06634 8.57305C1.05076 8.61129 1.08333 8.5419 1.089 8.53482C1.10458 8.50791 1.12015 8.48242 1.13998 8.45693C1.09325 8.51782 1.23769 8.38188 1.18671 8.41445L1.17113 8.42719C1.21786 8.39887 1.2122 8.40029 1.15414 8.43144C1.17397 8.42719 1.2646 8.39745 1.12723 8.43569C1.21786 8.4102 1.11732 8.43427 1.10174 8.43569C1.13998 8.43144 1.17397 8.42861 1.09041 8.43144C1.11166 8.43144 1.13148 8.43144 1.15272 8.43144H27.6172C27.6993 8.43144 27.7815 8.43002 27.8622 8.43144C27.8749 8.43144 27.8891 8.43144 27.9019 8.43144C28.0109 8.43144 27.8664 8.41162 27.9217 8.43427C27.9358 8.43994 28.0137 8.46401 27.9528 8.43994C28.0675 8.48667 28.1228 8.53057 28.2007 8.63536C28.2573 8.71042 28.2913 8.8053 28.3069 8.90867C28.3111 8.93275 28.3154 9.03471 28.3139 8.95116C28.3139 8.96249 28.3139 8.9724 28.3139 8.98373C28.3111 9.25421 28.3139 9.52469 28.3139 9.79517V10.6491C28.3139 10.7525 28.3111 10.8544 28.28 10.955C28.2686 10.9918 28.2488 11.0187 28.2162 11.0768C28.2106 11.0881 28.1709 11.1334 28.212 11.0867C28.195 11.1051 28.1766 11.1207 28.1596 11.1391C28.0732 11.2269 28.2191 11.0711 28.1327 11.1561C28.1468 11.1419 28.229 11.1192 28.1468 11.1461C28.2715 11.1037 28.1978 11.132 28.1709 11.1362C28.3621 11.1008 28.0831 11.1334 28.2446 11.1306C28.0137 11.1362 27.7093 11.1971 27.5804 11.4152C27.4629 11.6135 27.6809 11.7494 27.8636 11.7452C28.508 11.7282 29.3123 11.3571 29.3279 10.6137C29.3321 10.3956 29.3279 10.1775 29.3279 9.96085C29.3279 9.63656 29.3279 9.31085 29.3279 8.98656C29.3279 8.89734 29.3307 8.80671 29.3251 8.7175C29.3081 8.44843 29.158 8.20769 28.9455 8.04626C28.549 7.74604 27.9854 7.81684 27.5138 7.81684H2.81525C2.38475 7.81684 1.95425 7.81684 1.52375 7.81684C1.47135 7.81684 1.41895 7.81684 1.36656 7.81968C0.750545 7.84092 0.0212418 8.26434 0.00566449 8.94833C-0.00708061 9.49495 0.00566449 10.0444 0.00566449 10.591C0.00566449 10.6873 0.00141612 10.7865 0.011329 10.8827C0.0396514 11.1646 0.220915 11.4095 0.451743 11.5625C0.644336 11.6899 0.88366 11.7423 1.11166 11.7438C1.23486 11.7438 1.35948 11.7438 1.48268 11.7438H27.8636C28.093 11.7438 28.4003 11.6744 28.5278 11.4591C28.6467 11.2566 28.4258 11.1292 28.2446 11.1292V11.1306Z" fill="#070102"/>
<path d="M15.8064 1.49696C15.8064 0.86815 15.2967 0.358398 14.6679 0.358398C14.039 0.358398 13.5293 0.86815 13.5293 1.49696V11.4835C13.5293 12.1123 14.039 12.622 14.6679 12.622C15.2967 12.622 15.8064 12.1123 15.8064 11.4835V1.49696Z" fill="#FF453A"/>
<path d="M15.2952 1.53929V11.2142C15.2952 11.3176 15.2952 11.4224 15.2952 11.5258C15.2952 11.6462 15.2754 11.7651 15.24 11.8798L15.2697 11.7878C15.2343 11.8911 15.1862 11.9889 15.1253 12.0795L15.1862 11.9917C15.1522 12.0412 15.114 12.088 15.0729 12.1319C15.0616 12.1432 15.0503 12.1545 15.0389 12.1659C14.9908 12.2154 15.1196 12.0993 15.0786 12.1319C15.0559 12.1489 15.0347 12.1687 15.012 12.1857C14.9894 12.2027 14.9511 12.2183 14.9327 12.2395C14.9398 12.231 15.0573 12.1715 14.9865 12.2069C14.9724 12.214 14.9582 12.2225 14.944 12.2282C14.9186 12.2409 14.8916 12.2508 14.8647 12.2636C14.8095 12.2891 15.0064 12.2168 14.9313 12.2381C14.9157 12.2423 14.9001 12.248 14.8846 12.2523C14.8577 12.2593 14.8237 12.2622 14.7982 12.2721C14.8067 12.2678 14.9511 12.248 14.8676 12.2593C14.8506 12.2622 14.835 12.2636 14.818 12.265C14.7883 12.2678 14.7571 12.2678 14.7274 12.2692C14.6622 12.2707 14.8888 12.2749 14.8053 12.2692C14.7883 12.2692 14.7713 12.2678 14.7543 12.2664C14.7245 12.2636 14.6948 12.2607 14.6651 12.2565C14.6481 12.2537 14.5787 12.2395 14.6651 12.2565C14.7514 12.2735 14.6849 12.2607 14.6651 12.2551C14.6028 12.2381 14.5419 12.2154 14.4838 12.1885L14.5801 12.2338C14.4753 12.1843 14.3804 12.122 14.2955 12.0455L14.3677 12.1106C14.2643 12.0158 14.1793 11.9039 14.1142 11.7793L14.1553 11.8628C14.0845 11.7212 14.0448 11.5697 14.0349 11.4111L14.0406 11.5031C14.0363 11.3955 14.0391 11.2865 14.0391 11.1788V1.77012C14.0391 1.66532 14.0391 1.56053 14.0391 1.45574C14.0391 1.33537 14.059 1.21641 14.0944 1.10171L14.0646 1.19376C14.1 1.09038 14.1482 0.992666 14.2091 0.902034L14.1482 0.989833C14.1822 0.940269 14.2204 0.893537 14.2615 0.849637C14.2728 0.838308 14.2841 0.826979 14.2955 0.81565C14.3436 0.766086 14.2147 0.882208 14.2558 0.849637C14.2785 0.832644 14.2997 0.812818 14.3224 0.795825C14.345 0.778831 14.3833 0.763254 14.4017 0.742012C14.3946 0.750509 14.277 0.809986 14.3479 0.774583C14.362 0.767502 14.3762 0.759005 14.3903 0.753341C14.4158 0.740596 14.4427 0.730683 14.4696 0.717938C14.5249 0.692448 14.328 0.76467 14.4031 0.743428C14.4187 0.73918 14.4342 0.733515 14.4498 0.729267C14.4767 0.722186 14.5107 0.719354 14.5362 0.709441C14.5277 0.71369 14.3833 0.733515 14.4668 0.722186C14.4838 0.719354 14.4994 0.717938 14.5164 0.716522C14.5461 0.71369 14.5773 0.71369 14.607 0.712273C14.6721 0.710857 14.4456 0.706609 14.5291 0.712273C14.5461 0.712273 14.5631 0.71369 14.5801 0.715106C14.6098 0.717938 14.6396 0.72077 14.6693 0.725019C14.6863 0.727851 14.7557 0.742012 14.6693 0.725019C14.5829 0.708025 14.6495 0.72077 14.6693 0.726435C14.7316 0.743428 14.7925 0.766086 14.8506 0.792992L14.7543 0.747676C14.8591 0.797241 14.954 0.85955 15.0389 0.936021L14.9667 0.870879C15.0701 0.965759 15.155 1.07763 15.2202 1.20225L15.1791 1.1187C15.2499 1.26031 15.2896 1.41184 15.2995 1.57044L15.2938 1.4784C15.2938 1.49822 15.2952 1.51946 15.2952 1.53929C15.2952 1.64408 15.325 1.71914 15.4142 1.78003C15.5034 1.84092 15.6493 1.86216 15.7569 1.85084C15.89 1.83667 16.0302 1.79702 16.1364 1.71347C16.2115 1.65399 16.3163 1.55911 16.3148 1.45432C16.312 1.19517 16.2582 0.977088 16.1378 0.749093C16.0373 0.559332 15.8787 0.396478 15.7031 0.274692C15.2726 -0.0212776 14.6778 -0.0736742 14.1907 0.0962605C13.9018 0.196805 13.6455 0.345498 13.4302 0.567829C13.2546 0.749093 13.1413 0.967175 13.0691 1.20508C13.0309 1.33112 13.0195 1.45857 13.0195 1.58885V6.6345C13.0195 7.20519 13.0195 7.77447 13.0195 8.34517V10.9636C13.0195 11.1434 13.0195 11.3233 13.0195 11.5045C13.0195 11.5187 13.0195 11.5343 13.0195 11.5484C13.0238 11.8062 13.0818 12.0243 13.2065 12.2508C13.4359 12.6686 13.9046 12.9221 14.3691 12.9716C15.2768 13.0679 16.312 12.4208 16.3177 11.438C16.3177 11.2865 16.3177 11.1349 16.3177 10.9834V3.47371C16.3177 3.06304 16.3177 2.65236 16.3177 2.24169V1.45432C16.3177 1.35094 16.2879 1.27447 16.1987 1.21358C16.1095 1.15269 15.9636 1.13145 15.856 1.14277C15.7229 1.15694 15.5827 1.19659 15.4765 1.28014C15.4 1.33962 15.2981 1.43308 15.2981 1.53929H15.2952Z" fill="#070102"/>
<path d="M6.63086 14.7275V16.3122C6.63086 16.3504 6.73565 16.3532 6.7484 16.3546C6.8277 16.3575 6.91833 16.3405 6.99339 16.3192C7.06844 16.298 7.15482 16.2725 7.22421 16.2272C7.2582 16.2045 7.30493 16.179 7.30493 16.1323V14.5477C7.30493 14.5094 7.20014 14.5066 7.1874 14.5052C7.10809 14.5024 7.01746 14.5194 6.94241 14.5406C6.86735 14.5618 6.78097 14.5873 6.71158 14.6326C6.67759 14.6553 6.63086 14.6808 6.63086 14.7275Z" fill="black"/>
<path d="M6.62598 17.5347V21.6287C6.62598 21.7915 6.79025 21.8652 6.93752 21.8496C7.06781 21.8354 7.30855 21.7462 7.30855 21.5777V17.4837C7.30855 17.3208 7.14428 17.2472 6.997 17.2628C6.86672 17.2769 6.62598 17.3662 6.62598 17.5347Z" fill="black"/>
<path d="M8.6084 14.7281V16.3127C8.6084 16.3538 8.71036 16.3623 8.72735 16.3637C8.80666 16.3694 8.8987 16.3538 8.97376 16.3326C9.06014 16.3085 9.28106 16.2533 9.28106 16.1329V14.5482C9.28106 14.5072 9.1791 14.4987 9.1621 14.4973C9.0828 14.4916 8.99075 14.5072 8.9157 14.5284C8.82931 14.5525 8.6084 14.6077 8.6084 14.7281Z" fill="black"/>
<path d="M8.6084 17.5503V21.6443C8.6084 21.7038 8.62114 21.7378 8.67779 21.7675C8.7401 21.8001 8.83356 21.8029 8.90012 21.793C8.98792 21.7803 9.07997 21.7562 9.15502 21.7066C9.19892 21.6769 9.28247 21.6231 9.28247 21.5622V17.4682C9.28247 17.4087 9.26973 17.3747 9.21308 17.345C9.15077 17.3124 9.05731 17.3096 8.99075 17.3195C8.90295 17.3322 8.8109 17.3563 8.73585 17.4059C8.69195 17.4356 8.6084 17.4894 8.6084 17.5503Z" fill="black"/>
<path d="M10.5869 14.7279V16.3126C10.5869 16.348 10.6931 16.348 10.7016 16.348C10.7809 16.348 10.8701 16.331 10.9466 16.3098C11.0231 16.2885 11.1066 16.2616 11.1774 16.2205C11.21 16.2021 11.2596 16.1752 11.2596 16.1327V14.5481C11.2596 14.5127 11.1534 14.5127 11.1449 14.5127C11.0656 14.5127 10.9763 14.5297 10.8999 14.5509C10.8234 14.5722 10.7399 14.5991 10.669 14.6401C10.6365 14.6586 10.5869 14.6855 10.5869 14.7279Z" fill="black"/>
<path d="M10.584 17.5417V21.6357C10.584 21.7943 10.7511 21.8453 10.887 21.8283C10.9748 21.8183 11.0683 21.7929 11.1405 21.7376C11.1901 21.7008 11.2623 21.6399 11.2623 21.5719V17.4779C11.2623 17.3193 11.0952 17.2683 10.9593 17.2853C10.8715 17.2953 10.778 17.3207 10.7058 17.376C10.6562 17.4128 10.584 17.4737 10.584 17.5417Z" fill="black"/>
<path d="M12.5654 14.7277V16.3124C12.5654 16.3605 12.6631 16.3832 12.6915 16.3874C12.7694 16.4002 12.8656 16.3874 12.9407 16.3648C13.0497 16.3336 13.2395 16.2713 13.2395 16.1325V14.5479C13.2395 14.4997 13.1418 14.4771 13.1135 14.4728C13.0356 14.4601 12.9393 14.4728 12.8642 14.4955C12.7552 14.5266 12.5654 14.589 12.5654 14.7277Z" fill="black"/>
<path d="M12.5596 17.5298V21.6238C12.5596 21.7909 12.721 21.8787 12.8754 21.8646C13.0141 21.8518 13.2436 21.7555 13.2436 21.5813V17.4873C13.2436 17.3202 13.0821 17.2324 12.9278 17.2466C12.789 17.2593 12.5596 17.3556 12.5596 17.5298Z" fill="black"/>
<path d="M14.5439 14.728V16.3127C14.5439 16.3537 14.6459 16.3622 14.6629 16.3622C14.7422 16.3679 14.8342 16.3509 14.9093 16.3297C14.9943 16.3056 15.2166 16.2504 15.2166 16.1314V14.5468C15.2166 14.5057 15.1146 14.4972 15.0976 14.4972C15.0183 14.4915 14.9263 14.5085 14.8512 14.5298C14.7663 14.5538 14.5439 14.6091 14.5439 14.728Z" fill="black"/>
<path d="M14.541 17.539V21.633C14.541 21.793 14.7067 21.8553 14.8483 21.8384C14.9361 21.8284 15.031 21.803 15.1018 21.7463C15.1528 21.7067 15.2208 21.6443 15.2208 21.5735V17.4795C15.2208 17.3195 15.0551 17.2572 14.9135 17.2742C14.8257 17.2841 14.7308 17.3096 14.66 17.3662C14.609 17.4059 14.541 17.4682 14.541 17.539Z" fill="black"/>
<path d="M16.5195 14.6667V16.2513C16.5195 16.4113 16.6852 16.4708 16.8254 16.4538C16.9132 16.4439 17.0081 16.4184 17.0789 16.3632C17.1299 16.3235 17.1993 16.2627 17.1993 16.1933V14.6086C17.1993 14.4486 17.0336 14.3891 16.8934 14.4061C16.8056 14.416 16.7107 14.4415 16.6399 14.4968C16.5889 14.5364 16.5195 14.5973 16.5195 14.6667Z" fill="black"/>
<path d="M16.5234 17.5998V21.6938C16.5234 21.742 16.6211 21.7646 16.6495 21.7689C16.7274 21.7816 16.8237 21.7689 16.8987 21.7477C17.0078 21.7165 17.1961 21.6528 17.1961 21.514V17.42C17.1961 17.3718 17.0984 17.3492 17.0701 17.3449C16.9922 17.3322 16.8959 17.3449 16.8208 17.3662C16.7118 17.3973 16.5234 17.4611 16.5234 17.5998Z" fill="black"/>
<path d="M18.502 14.7277V16.3124C18.502 16.3648 18.5982 16.3959 18.6322 16.403C18.7101 16.42 18.8078 16.4101 18.8829 16.3874C19.0075 16.3506 19.1746 16.2812 19.1746 16.1311V14.5465C19.1746 14.4941 19.0783 14.4629 19.0443 14.4558C18.9664 14.4388 18.8687 14.4487 18.7937 14.4714C18.6691 14.5082 18.502 14.5776 18.502 14.7277Z" fill="black"/>
<path d="M18.502 17.5991V21.6931C18.502 21.7313 18.6053 21.737 18.6195 21.737C18.6988 21.7398 18.7894 21.7242 18.8659 21.703C18.9424 21.6818 19.0273 21.6563 19.0967 21.6095C19.1321 21.5869 19.176 21.56 19.176 21.5132V17.4192C19.176 17.381 19.0727 17.3753 19.0585 17.3753C18.9792 17.3725 18.8886 17.3881 18.8121 17.4093C18.7356 17.4306 18.6506 17.4561 18.5813 17.5028C18.5459 17.5254 18.502 17.5523 18.502 17.5991Z" fill="black"/>
<path d="M20.4746 14.6613C20.4746 15.1244 20.4746 15.5875 20.4746 16.0505V16.246C20.4746 16.4116 20.6375 16.4909 20.7876 16.4754C20.9221 16.4626 21.1572 16.3692 21.1572 16.1978V14.6132C21.1572 14.4475 20.9943 14.3682 20.8442 14.3838C20.7097 14.3965 20.4746 14.49 20.4746 14.6613Z" fill="black"/>
<path d="M20.4775 17.54V21.634C20.4775 21.7926 20.6446 21.8465 20.782 21.8295C20.8698 21.8196 20.9633 21.7941 21.0355 21.7388C21.0851 21.7006 21.1559 21.6397 21.1559 21.5717V17.4777C21.1559 17.3191 20.9888 17.2653 20.8514 17.2823C20.7636 17.2922 20.6701 17.3177 20.5979 17.3729C20.5483 17.4112 20.4775 17.4721 20.4775 17.54Z" fill="black"/>
<path d="M22.458 14.7276V16.3122C22.458 16.4467 23.1307 16.3434 23.1307 16.1324C23.1307 15.6693 23.1307 15.2062 23.1307 14.7431V14.5477C23.1307 14.4132 22.458 14.5166 22.458 14.7276Z" fill="black"/>
<path d="M22.458 17.5992V21.6932C22.458 21.7343 22.56 21.7428 22.577 21.7442C22.6563 21.7498 22.7483 21.7343 22.8234 21.713C22.9098 21.6889 23.1307 21.6323 23.1307 21.5133V17.4193C23.1307 17.3783 23.0287 17.3698 23.0117 17.3684C22.9324 17.3627 22.8404 17.3783 22.7653 17.3995C22.6789 17.4236 22.458 17.4802 22.458 17.5992Z" fill="black"/>
<path d="M17.5549 8.12402L20.9395 11.5482C21.4479 12.0623 22.2777 12.0651 22.7889 11.5539L26.2188 8.12402C26.2188 8.12402 17.3057 8.12402 17.5549 8.12402Z" fill="#FFDCD3"/>
<path d="M17.0944 8.35325C17.2318 8.49203 17.3691 8.63081 17.5065 8.76959C17.8237 9.08963 18.1409 9.41109 18.4567 9.73113C18.8164 10.0951 19.1775 10.459 19.5372 10.8244L20.3203 11.6174C20.3713 11.6684 20.4223 11.7208 20.4733 11.7718C20.5738 11.8737 20.6758 11.9714 20.799 12.0465C21.0142 12.1782 21.2451 12.2674 21.4957 12.3071C22.0098 12.3878 22.538 12.2462 22.96 11.9474C23.0803 11.8624 23.1809 11.7534 23.2857 11.65L23.9598 10.9759L25.0119 9.92373L26.0386 8.89704L26.6178 8.31784L26.6461 8.28952C26.7481 8.18756 26.7608 8.01055 26.6801 7.89584C26.5838 7.75989 26.4125 7.73299 26.2581 7.73299H25.3915C24.7032 7.73299 24.0136 7.73299 23.3253 7.73299H18.655C18.3052 7.73299 17.954 7.72732 17.6042 7.73299C17.5985 7.73299 17.5943 7.73299 17.5886 7.73299C17.464 7.73299 17.3068 7.79671 17.2091 7.8746C17.1298 7.93691 17.0392 8.0502 17.0363 8.15782C17.0278 8.42689 17.2856 8.51752 17.5107 8.51752H17.5164C17.641 8.51752 17.7982 8.45379 17.8959 8.37591C17.9752 8.3136 18.0659 8.20031 18.0687 8.09268C18.0772 7.82362 17.8195 7.73299 17.5943 7.73299H17.5886C17.464 7.73299 17.3068 7.79671 17.2091 7.8746C17.1298 7.93691 17.0392 8.0502 17.0363 8.15782C17.0278 8.42689 17.2856 8.51752 17.5107 8.51752C17.7996 8.51752 18.0899 8.51752 18.3788 8.51752C19.0685 8.51752 19.7567 8.51752 20.4464 8.51752C21.2819 8.51752 22.116 8.51752 22.9515 8.51752C23.6723 8.51752 24.3945 8.51752 25.1153 8.51752C25.4651 8.51752 25.8149 8.52601 26.1647 8.51752C26.1703 8.51752 26.1746 8.51752 26.1802 8.51752L25.7922 7.96098L25.349 8.40423L24.3322 9.421C23.9583 9.79486 23.5859 10.1673 23.212 10.5412C22.96 10.7932 22.7093 11.0439 22.4573 11.2959C22.4318 11.3214 22.4063 11.3469 22.3808 11.3724C22.3751 11.3781 22.3695 11.3837 22.3638 11.3894C22.3638 11.3894 22.3624 11.3908 22.361 11.3922C22.4799 11.2719 22.3638 11.3852 22.3284 11.4121C22.3086 11.4276 22.2901 11.4418 22.2703 11.456C22.2618 11.4616 22.2533 11.4673 22.2448 11.473C22.2038 11.5027 22.3241 11.4248 22.3114 11.4305C22.2661 11.4531 22.2222 11.48 22.1754 11.5013C22.1542 11.5112 22.1301 11.5169 22.1103 11.5282C22.0976 11.5353 22.2434 11.4815 22.1939 11.497C22.1811 11.5013 22.1684 11.5055 22.1556 11.5098C22.1117 11.5239 22.0664 11.5353 22.0197 11.5438C21.9163 11.5636 22.1457 11.5282 22.0692 11.5353C22.0466 11.5381 22.0225 11.5409 21.9998 11.5424C21.9772 11.5438 21.9531 11.5452 21.9305 11.5452C21.8851 11.5452 21.7874 11.5324 21.9616 11.548C21.9191 11.5438 21.8752 11.5409 21.8327 11.5339C21.8101 11.5296 21.7874 11.5268 21.7634 11.5211C21.7534 11.5197 21.7435 11.5169 21.7336 11.514C21.6798 11.5027 21.8526 11.548 21.7832 11.5268C21.6925 11.4985 21.6062 11.4631 21.5226 11.4177L21.6217 11.4715C21.5113 11.4092 21.4122 11.3342 21.3229 11.245L21.398 11.32C21.0142 10.932 20.6305 10.544 20.2481 10.156C19.642 9.54279 19.0359 8.92961 18.4298 8.31643C18.291 8.17623 18.1522 8.03604 18.0149 7.89584C17.9285 7.80804 17.8506 7.75706 17.7232 7.73723C17.5957 7.71741 17.4371 7.7429 17.3238 7.80379C17.2204 7.85902 17.11 7.93974 17.0675 8.05445C17.0335 8.14508 17.0165 8.27536 17.093 8.35183L17.0944 8.35325Z" fill="#020202"/>
</svg>
