<svg width="32" height="32" viewBox="0 0 32 32" fill="none" xmlns="http://www.w3.org/2000/svg">
<path fill-rule="evenodd" clip-rule="evenodd" d="M16 3.20001C12.4654 3.20001 9.60005 6.06539 9.60005 9.60001V11.2H8.00006C7.18478 11.2 6.49988 11.813 6.40984 12.6233L4.80984 27.0233C4.75958 27.4756 4.90433 27.928 5.20785 28.2671C5.51137 28.6062 5.94495 28.8 6.40006 28.8H25.6001C26.0552 28.8 26.4887 28.6062 26.7923 28.2671C27.0958 27.928 27.2405 27.4756 27.1903 27.0233L25.5903 12.6233C25.5002 11.813 24.8153 11.2 24.0001 11.2H22.4V9.60001C22.4 6.06539 19.5347 3.20001 16 3.20001ZM19.2 11.2V9.60001C19.2 7.8327 17.7674 6.40001 16 6.40001C14.2327 6.40001 12.8 7.8327 12.8 9.60001V11.2H19.2ZM9.60005 16C9.60005 15.1164 10.3164 14.4 11.2 14.4C12.0837 14.4 12.8 15.1164 12.8 16C12.8 16.8837 12.0837 17.6 11.2 17.6C10.3164 17.6 9.60005 16.8837 9.60005 16ZM20.8 14.4C19.9164 14.4 19.2 15.1164 19.2 16C19.2 16.8837 19.9164 17.6 20.8 17.6C21.6837 17.6 22.4 16.8837 22.4 16C22.4 15.1164 21.6837 14.4 20.8 14.4Z" fill="#FF5C21"/>
</svg>
