<svg width="32" height="32" viewBox="0 0 32 32" fill="none" xmlns="http://www.w3.org/2000/svg">
<path fill-rule="evenodd" clip-rule="evenodd" d="M8.00005 3.20001C6.23274 3.20001 4.80005 4.6327 4.80005 6.40001V28.8L10.4 25.6L16 28.8L21.6 25.6L27.2 28.8V6.40001C27.2 4.6327 25.7674 3.20001 24 3.20001H8.00005ZM12 8.00001C10.6746 8.00001 9.60005 9.07453 9.60005 10.4C9.60005 11.7255 10.6746 12.8 12 12.8C13.3255 12.8 14.4 11.7255 14.4 10.4C14.4 9.07453 13.3255 8.00001 12 8.00001ZM21.9314 8.46864C21.3066 7.8438 20.2935 7.8438 19.6687 8.46864L10.0687 18.0686C9.44384 18.6935 9.44384 19.7065 10.0687 20.3314C10.6935 20.9562 11.7066 20.9562 12.3314 20.3314L21.9314 10.7314C22.5563 10.1065 22.5563 9.09348 21.9314 8.46864ZM20 16C18.6746 16 17.6 17.0745 17.6 18.4C17.6 19.7255 18.6746 20.8 20 20.8C21.3255 20.8 22.4 19.7255 22.4 18.4C22.4 17.0745 21.3255 16 20 16Z" fill="#FF5C21"/>
</svg>
