<svg width="23" height="26" viewBox="0 0 23 26" fill="none" xmlns="http://www.w3.org/2000/svg">
<path d="M18.0629 2.40234H1.59485C0.982089 2.40234 0.485352 2.89908 0.485352 3.51184V24.5963C0.485352 25.209 0.982089 25.7057 1.59485 25.7057H18.0629C18.6756 25.7057 19.1723 25.209 19.1723 24.5963V3.51184C19.1723 2.89908 18.6756 2.40234 18.0629 2.40234Z" fill="#FFDCD3"/>
<path d="M18.2428 25.4097H13.6519C12.7356 25.4097 11.8193 25.4097 10.903 25.4097H2.02169C1.94253 25.4097 1.86338 25.4097 1.78423 25.4097C1.7802 25.4097 1.77752 25.4097 1.77349 25.4097C1.73593 25.4097 1.69836 25.4057 1.6608 25.4043C1.60177 25.403 1.73056 25.4218 1.67422 25.4057C1.65946 25.4017 1.64336 25.399 1.62726 25.3963C1.58701 25.3869 1.54676 25.3748 1.50786 25.3614C1.57896 25.3869 1.47834 25.3453 1.45554 25.3332C1.41931 25.3144 1.38577 25.2916 1.35089 25.2702C1.34284 25.2662 1.30125 25.2353 1.34284 25.2662C1.33077 25.2568 1.31869 25.2474 1.30796 25.2366C1.24759 25.1816 1.19124 25.1239 1.14295 25.0582C1.06513 24.9522 1.00879 24.8221 0.979272 24.6598C0.964515 24.5779 0.964515 24.531 0.964515 24.4357V15.6027C0.964515 14.6502 0.964515 13.699 0.964515 12.7464C0.964515 11.7939 0.964515 10.8977 0.964515 9.97203C0.964515 9.13757 0.964515 8.3031 0.964515 7.46863V4.02611C0.964515 3.83829 0.961832 3.65047 0.964515 3.46264C0.964515 3.40764 0.96854 3.35263 0.976589 3.29763C0.987322 3.21982 1.00745 3.14334 1.03562 3.06956C1.0544 3.02126 1.01684 3.10712 1.04099 3.06151C1.04769 3.04809 1.0544 3.03333 1.06111 3.01992C1.08257 2.97967 1.10672 2.94076 1.13221 2.90186C1.13892 2.89247 1.17649 2.84015 1.14831 2.87771C1.12148 2.91259 1.15234 2.87369 1.1577 2.86832C1.18588 2.8388 1.21539 2.81063 1.24357 2.78246C1.26369 2.76233 1.27979 2.72745 1.22881 2.79185C1.23686 2.78246 1.25564 2.77172 1.26637 2.76502C1.28381 2.75428 1.29991 2.74221 1.31735 2.73148C1.39114 2.68318 1.30528 2.73953 1.30394 2.73684C1.3026 2.72879 1.45017 2.6805 1.35492 2.71135C1.27174 2.73818 1.39248 2.70196 1.41261 2.69794C1.49578 2.67647 1.38577 2.70733 1.37638 2.70465C1.38846 2.70733 1.42468 2.69928 1.43944 2.6966C1.47834 2.69123 1.49578 2.71269 1.41529 2.6966C1.46761 2.70733 1.53469 2.6966 1.58701 2.6966H2.76895C3.44914 2.6966 4.13067 2.6966 4.81085 2.6966C5.67483 2.6966 6.54016 2.6966 7.40414 2.6966C8.34594 2.6966 9.28773 2.6966 10.2309 2.6966C11.174 2.6966 12.0809 2.6966 13.0053 2.6966H17.136C17.3829 2.6966 17.6297 2.69391 17.8752 2.6966C17.8994 2.6966 17.9235 2.6966 17.9477 2.69794C17.9692 2.69794 17.9906 2.70196 18.0121 2.7033C18.0081 2.7033 17.9383 2.68855 17.9826 2.69928C18.0228 2.71001 18.0644 2.71672 18.1047 2.73014C18.1194 2.73416 18.1342 2.73953 18.1489 2.74489C18.0805 2.72074 18.1315 2.73818 18.1462 2.74489C18.1865 2.76636 18.2281 2.78514 18.2683 2.81063C18.2817 2.81868 18.3596 2.87234 18.3153 2.8388C18.3475 2.86295 18.377 2.89113 18.4052 2.92064C18.4629 2.97833 18.5125 3.04138 18.5568 3.10981C18.5756 3.13798 18.6051 3.19701 18.6292 3.26409C18.6574 3.34324 18.6762 3.42508 18.6869 3.50826C18.6909 3.54716 18.6923 3.61156 18.6923 3.67596V24.4894C18.6923 24.5417 18.6923 24.594 18.6923 24.645C18.6923 24.6893 18.6896 24.7335 18.6842 24.7778C18.6748 24.8556 18.6574 24.9334 18.6319 25.0072C18.6292 25.0139 18.6051 25.073 18.6198 25.0408C18.6332 25.0112 18.6104 25.0569 18.6104 25.0582C18.5903 25.0944 18.5729 25.1307 18.5501 25.1655C18.5393 25.1816 18.4857 25.2581 18.5085 25.2272C18.5367 25.1897 18.4977 25.2393 18.4897 25.2487C18.4763 25.2635 18.4615 25.2782 18.4468 25.2916C18.436 25.3024 18.424 25.3118 18.4132 25.3225C18.3582 25.3775 18.4226 25.3198 18.428 25.3131C18.4052 25.3413 18.3582 25.3614 18.3274 25.3815C18.2589 25.4258 18.4172 25.3413 18.3113 25.3869C18.2053 25.4325 18.3904 25.3681 18.3046 25.3909C18.2844 25.3963 18.2643 25.4017 18.2442 25.407C18.1945 25.4204 18.2039 25.3909 18.2804 25.4003C18.2563 25.3976 18.1033 25.4097 18.2402 25.4084C18.0215 25.411 17.7317 25.4714 17.611 25.6794C17.5009 25.8699 17.7049 26 17.8806 25.9987C18.3622 25.992 18.8251 25.8444 19.1887 25.5184C19.453 25.2823 19.6368 24.9321 19.6488 24.5752C19.6502 24.5229 19.6488 24.4706 19.6488 24.4183V8.41177C19.6488 7.65645 19.6488 6.90248 19.6488 6.14716C19.6488 5.58638 19.6488 5.02694 19.6488 4.46615V3.55924C19.6488 3.43581 19.6515 3.31239 19.63 3.1903C19.5147 2.53024 18.8774 2.11435 18.2361 2.10764C18.0027 2.10495 17.7706 2.10764 17.5372 2.10764C16.967 2.10764 16.3955 2.10764 15.8253 2.10764C15.0177 2.10764 14.2114 2.10764 13.4037 2.10764H1.92643C1.82447 2.10764 1.72251 2.10764 1.62055 2.11166C0.843772 2.1452 0.0160113 2.73148 0.00527856 3.5646C0.00259538 3.73364 0.00527856 3.90268 0.00527856 4.07172V15.6617C0.00527856 16.5901 0.00527856 17.5198 0.00527856 18.4482V20.9261C0.00527856 21.5902 0.00527856 22.2556 0.00527856 22.9197C0.00527856 23.353 0.00527856 23.7877 0.00527856 24.2211C0.00527856 24.4639 -0.01887 24.7429 0.0361351 24.9791C0.185052 25.6083 0.795475 25.9933 1.41797 26C1.48908 26 1.56018 26 1.63128 26H2.89909C3.60476 26 4.3091 26 5.01477 26H15.671C16.2157 26 16.759 26 17.3037 26H17.8833C18.102 26 18.3931 25.9343 18.5125 25.729C18.6239 25.5372 18.4172 25.4097 18.2428 25.4097V25.4097Z" fill="#020202"/>
<path d="M3.50045 12.0488C4.21101 12.0488 4.78704 11.4727 4.78704 10.7622C4.78704 10.0516 4.21101 9.47559 3.50045 9.47559C2.78989 9.47559 2.21387 10.0516 2.21387 10.7622C2.21387 11.4727 2.78989 12.0488 3.50045 12.0488Z" fill="#FF453A"/>
<path d="M4.46514 10.7874C4.46514 10.8505 4.46111 10.9149 4.45172 10.9779C4.4477 11.0088 4.44099 11.0396 4.43428 11.0705C4.4316 11.0826 4.42891 11.0946 4.42623 11.1067C4.42489 11.1134 4.40477 11.1818 4.4155 11.1483C4.42623 11.1121 4.40745 11.1698 4.40745 11.1711C4.40208 11.1859 4.39672 11.1993 4.39135 11.214C4.38062 11.2395 4.36988 11.2637 4.35781 11.2892C4.34439 11.316 4.33098 11.3428 4.31488 11.3697C4.30549 11.3858 4.2961 11.4005 4.28671 11.4166L4.27731 11.4314C4.26121 11.4555 4.2639 11.4515 4.28536 11.4206C4.27329 11.4636 4.20755 11.5213 4.17669 11.5535C4.15657 11.5749 4.13376 11.5951 4.11364 11.6165C4.08547 11.646 4.16999 11.5696 4.12303 11.6085C4.10962 11.6192 4.09486 11.6313 4.08144 11.642C4.05729 11.6608 4.03314 11.6782 4.009 11.6943C3.99692 11.7024 3.98351 11.7104 3.97143 11.7185C3.93655 11.744 4.04388 11.6796 3.98753 11.7091C3.93118 11.7386 3.87618 11.7587 3.82252 11.7856C3.91777 11.7359 3.83325 11.7815 3.80105 11.7896C3.77153 11.7976 3.74068 11.8043 3.71116 11.8124C3.64543 11.8271 3.77958 11.803 3.73397 11.8084C3.71787 11.811 3.70311 11.8124 3.68701 11.8151C3.64945 11.8191 3.61054 11.8218 3.57298 11.8231C3.55956 11.8231 3.54749 11.8231 3.53407 11.8231C3.61725 11.8191 3.57164 11.8231 3.54883 11.8231C3.51663 11.8218 3.48578 11.8191 3.45358 11.8151C3.44687 11.8151 3.3704 11.8017 3.3704 11.8017C3.3704 11.799 3.43748 11.8178 3.3704 11.8017C3.35296 11.7976 3.33418 11.7923 3.31674 11.7869C3.26173 11.7708 3.19331 11.7534 3.14635 11.7212C3.15172 11.7252 3.20002 11.7493 3.15843 11.7265C3.14501 11.7198 3.1316 11.7118 3.11818 11.7051C3.08867 11.689 3.06049 11.6715 3.03366 11.6527C2.98402 11.6192 2.93707 11.5816 2.89145 11.5427C2.93841 11.583 2.86999 11.5199 2.85925 11.5092C2.83645 11.485 2.81498 11.4609 2.79352 11.4354C2.75729 11.3911 2.7251 11.3442 2.69424 11.2959C2.67814 11.2704 2.66338 11.2436 2.64997 11.2167C2.67277 11.261 2.65399 11.2234 2.64862 11.2127C2.64058 11.1926 2.63118 11.1738 2.62313 11.1537C2.57752 11.0383 2.55069 10.9176 2.53727 10.7928C2.53056 10.7324 2.53727 10.8223 2.53727 10.7847C2.53727 10.7686 2.53727 10.7525 2.53727 10.7364C2.53727 10.7042 2.53727 10.672 2.5413 10.6398C2.54532 10.5768 2.55471 10.5151 2.56813 10.4534C2.57484 10.4225 2.58289 10.393 2.59094 10.3635C2.57484 10.4225 2.60301 10.334 2.60838 10.3179C2.63253 10.2588 2.65936 10.2011 2.69156 10.1461C2.69961 10.1327 2.70631 10.1206 2.71436 10.1072C2.71705 10.1032 2.75059 10.0549 2.7251 10.0898C2.69961 10.1247 2.73449 10.0777 2.73717 10.0737C2.74388 10.0643 2.75193 10.0549 2.75863 10.0455C2.77742 10.0227 2.7962 9.9999 2.81766 9.9771C2.83913 9.95429 2.88072 9.92612 2.89414 9.90063C2.87669 9.93551 2.85389 9.93417 2.87938 9.91538C2.89279 9.90465 2.90755 9.89258 2.92097 9.88184C2.94243 9.86575 2.9639 9.84965 2.98671 9.83355C2.99878 9.8255 3.0122 9.81745 3.02427 9.8094C3.07659 9.77452 2.96926 9.83757 3.00817 9.81879C3.03769 9.80403 3.0672 9.78659 3.09672 9.77318C3.12355 9.7611 3.1544 9.75171 3.18124 9.73829C3.08598 9.78659 3.17319 9.74232 3.2027 9.73427C3.23222 9.72622 3.26307 9.71951 3.29259 9.71146C3.31674 9.7061 3.34357 9.71146 3.26039 9.71683C3.27917 9.71683 3.29795 9.71146 3.31674 9.70878C3.34893 9.70475 3.37979 9.70207 3.41199 9.70073C3.42943 9.70073 3.45358 9.70341 3.46968 9.70073C3.46297 9.70207 3.39321 9.6967 3.44553 9.70073C3.47773 9.70341 3.50858 9.70475 3.54078 9.70878C3.55688 9.71012 3.57164 9.7128 3.58774 9.71549C3.59713 9.71683 3.60652 9.71817 3.61591 9.71951C3.64677 9.72488 3.64006 9.72354 3.59713 9.71549C3.59713 9.72219 3.77153 9.76781 3.79032 9.77586C3.80507 9.78123 3.81849 9.78793 3.83191 9.7933C3.89496 9.81879 3.79837 9.77318 3.84398 9.80001C3.87081 9.81476 3.89764 9.82818 3.92313 9.84428C3.98485 9.88184 4.04119 9.92612 4.09754 9.97173C4.10693 9.97978 4.12706 10.0039 4.09217 9.96636C4.10693 9.98112 4.12169 9.99588 4.13645 10.0106C4.15925 10.0348 4.18072 10.0589 4.20219 10.0844C4.24646 10.1381 4.28536 10.1944 4.32025 10.2548C4.32829 10.2682 4.335 10.2816 4.34171 10.2937C4.37123 10.346 4.32293 10.2508 4.34842 10.3058C4.36318 10.3393 4.37793 10.3729 4.39001 10.4064C4.41281 10.4695 4.4316 10.5352 4.44367 10.6023C4.45038 10.6398 4.45575 10.6761 4.45977 10.7136C4.45977 10.7257 4.46245 10.7391 4.4638 10.7512C4.45977 10.6962 4.4638 10.7794 4.4638 10.7888C4.4638 10.9417 4.61942 11.0021 4.75626 10.9873C4.83944 10.9779 4.92933 10.9538 4.99641 10.9001C5.0447 10.8625 5.11044 10.8022 5.1091 10.7351C5.10642 10.4198 5.01787 10.1193 4.83139 9.86306C4.64491 9.60682 4.39403 9.43644 4.10962 9.33716C3.46565 9.11311 2.69156 9.3224 2.25151 9.84294C1.83965 10.3299 1.77391 11.0235 2.10796 11.5696C2.26761 11.8298 2.51178 12.0217 2.78815 12.1451C3.10477 12.2873 3.46565 12.3021 3.80105 12.235C4.50807 12.0941 5.10373 11.473 5.1091 10.7351C5.1091 10.5822 4.95213 10.5218 4.81663 10.5365C4.73345 10.5459 4.64357 10.5701 4.57649 10.6237C4.52819 10.6626 4.4638 10.7217 4.4638 10.7888L4.46514 10.7874Z" fill="#020202"/>
<path d="M6.0883 10.193H10.4901C10.6926 10.193 10.8952 10.1984 11.0978 10.193C11.1005 10.193 11.1032 10.193 11.1072 10.193C11.2252 10.193 11.3742 10.1326 11.4667 10.0589C11.5405 9.99983 11.6277 9.89384 11.6304 9.79323C11.6385 9.53967 11.3929 9.45649 11.1823 9.45649H6.77922C6.57664 9.45649 6.37406 9.45112 6.17148 9.45649C6.16879 9.45649 6.16611 9.45649 6.16208 9.45649C6.04402 9.45649 5.89511 9.51686 5.80254 9.59065C5.72875 9.64968 5.64155 9.75566 5.63886 9.85628C5.63082 10.1098 5.87633 10.193 6.08696 10.193H6.0883Z" fill="#020202"/>
<path d="M5.95433 12.0855H10.3561C10.5587 12.0855 10.7612 12.0855 10.9638 12.0855C10.9665 12.0855 10.9692 12.0855 10.9732 12.0855C11.106 12.0855 11.2268 12.0748 11.3502 12.0171C11.4387 11.9755 11.5568 11.8963 11.5984 11.8024C11.6333 11.7233 11.648 11.6293 11.585 11.5582C11.5219 11.4871 11.4133 11.4375 11.3167 11.4375H6.91491C6.71233 11.4375 6.50975 11.4375 6.30717 11.4375C6.30449 11.4375 6.3018 11.4375 6.29778 11.4375C6.16496 11.4375 6.04422 11.4482 5.92079 11.5059C5.83225 11.5475 5.71419 11.6267 5.6726 11.7206C5.63772 11.7997 5.62296 11.8936 5.68601 11.9647C5.74907 12.0358 5.85774 12.0855 5.95433 12.0855V12.0855Z" fill="#020202"/>
<path d="M2.02126 7.02726H5.41548C5.54025 7.02726 5.67441 6.99775 5.78978 6.95079C5.87162 6.91725 5.99773 6.8542 6.04871 6.7737C6.08359 6.7187 6.11176 6.64625 6.05139 6.59259C5.98431 6.53222 5.88235 6.52148 5.79649 6.52148H2.40361C2.27884 6.52148 2.14468 6.551 2.02931 6.59795C1.94747 6.63149 1.82136 6.69455 1.77038 6.77504C1.7355 6.83005 1.70733 6.9025 1.7677 6.95616C1.83478 7.01653 1.93674 7.02726 2.0226 7.02726H2.02126Z" fill="#020202"/>
<path d="M3.50045 17.1659C4.21101 17.1659 4.78704 16.5899 4.78704 15.8794C4.78704 15.1688 4.21101 14.5928 3.50045 14.5928C2.78989 14.5928 2.21387 15.1688 2.21387 15.8794C2.21387 16.5899 2.78989 17.1659 3.50045 17.1659Z" fill="#FF453A"/>
<path d="M4.46908 15.9649C4.46774 16.2144 4.38724 16.4586 4.24503 16.6652C4.19271 16.7417 4.10148 16.8369 4.01428 16.9067C4.0505 16.8785 4.0183 16.904 4.00891 16.9107C3.99684 16.9187 3.98476 16.9281 3.97135 16.9362C3.94988 16.9509 3.91903 16.9764 3.89488 16.9831C3.94452 16.9684 3.92573 16.967 3.90695 16.9751C3.89085 16.9831 3.87475 16.9912 3.85865 16.9992C3.83853 17.01 3.81438 17.0086 3.88146 16.9899C3.86402 16.9952 3.84792 17.0033 3.83048 17.01C3.80633 17.018 3.74462 17.0314 3.8439 17.0073C3.83182 17.01 3.81975 17.014 3.80902 17.018C3.78084 17.0261 3.72852 17.0247 3.82243 17.0167C3.81036 17.0167 3.79694 17.0221 3.78621 17.0234C3.77145 17.0261 3.75535 17.0288 3.73925 17.0301C3.69632 17.0368 3.81707 17.0247 3.75267 17.0274C3.73657 17.0274 3.72047 17.0301 3.70571 17.0301C3.63595 17.0341 3.74194 17.0328 3.68827 17.0301C3.6601 17.0301 3.63058 17.0288 3.60241 17.0261C3.58631 17.0261 3.57155 17.0234 3.55546 17.022C3.49643 17.0167 3.58095 17.0288 3.54606 17.0207C3.48301 17.006 3.41996 16.9939 3.3569 16.9738C3.25494 16.9402 3.15566 16.8879 3.05638 16.8181C2.95711 16.7484 2.86588 16.6612 2.79075 16.5646C2.48487 16.1688 2.45401 15.608 2.70489 15.1774C2.76526 15.0727 2.82697 14.9976 2.92088 14.9104C2.94235 14.8903 2.96516 14.8701 2.98931 14.8514C2.95174 14.8809 3.01345 14.8353 3.02419 14.8272C3.04968 14.8098 3.07517 14.7964 3.10066 14.7789C3.13286 14.7574 3.04163 14.8084 3.09663 14.7816C3.11273 14.7735 3.12883 14.7655 3.14493 14.7574C3.20128 14.7293 3.08992 14.7762 3.13017 14.7628C3.14493 14.7574 3.15835 14.7521 3.1731 14.7467C3.18249 14.7427 3.24287 14.7239 3.18384 14.7427C3.12481 14.7615 3.18384 14.7427 3.19457 14.74C3.2053 14.7373 3.22006 14.7346 3.23079 14.7306C3.14627 14.7642 3.18652 14.74 3.21872 14.7346C3.23079 14.732 3.24287 14.7306 3.25628 14.7279C3.31934 14.7172 3.19323 14.732 3.25226 14.7279C3.27104 14.7279 3.28982 14.7252 3.30994 14.7239C3.35824 14.7212 3.30592 14.7226 3.29921 14.7239C3.32873 14.7199 3.36495 14.7239 3.39581 14.7279C3.41191 14.7279 3.428 14.7306 3.44276 14.732C3.45349 14.732 3.49508 14.74 3.45215 14.732C3.48838 14.7387 3.52594 14.7454 3.56216 14.7548C3.69498 14.7883 3.79023 14.8312 3.90561 14.9064C4.02099 14.9815 4.12563 15.0754 4.21015 15.1827C4.38322 15.4028 4.47042 15.6831 4.47176 15.9609C4.47176 15.9998 4.56836 16.0091 4.58445 16.0105C4.65958 16.0159 4.74679 16.0011 4.81789 15.981C4.89973 15.9582 5.10902 15.9045 5.10902 15.7905C5.10499 15.2055 4.70654 14.6971 4.1538 14.5213C3.81707 14.414 3.43874 14.4381 3.10334 14.5374C2.76794 14.6367 2.45535 14.8004 2.23131 15.0647C1.85432 15.5101 1.78187 16.1634 2.1052 16.6612C2.26351 16.904 2.48353 17.0824 2.7505 17.1911C3.05773 17.3159 3.40788 17.3226 3.72852 17.2555C4.12026 17.1723 4.51335 16.9966 4.7763 16.6853C4.99096 16.4304 5.10767 16.1232 5.10902 15.7891C5.10902 15.6778 4.4731 15.769 4.47176 15.9595L4.46908 15.9649Z" fill="#020202"/>
<path d="M5.92983 15.1774H8.32054C8.99804 15.1774 9.67689 15.1774 10.3544 15.1774H12.1132C12.399 15.1774 12.6847 15.1814 12.9718 15.1774C12.9759 15.1774 12.9799 15.1774 12.9839 15.1774C13.106 15.1774 13.2442 15.1439 13.3582 15.0982C13.44 15.066 13.5662 15.007 13.6198 14.9319C13.6547 14.8823 13.6869 14.8165 13.6279 14.7669C13.5608 14.7105 13.4588 14.7078 13.377 14.7078H7.19092C6.90516 14.7078 6.61941 14.7038 6.33231 14.7078C6.32828 14.7078 6.32426 14.7078 6.32023 14.7078C6.19815 14.7078 6.05996 14.7414 5.94593 14.787C5.86409 14.8192 5.73798 14.8782 5.68432 14.9534C5.64944 15.003 5.61724 15.0687 5.67627 15.1184C5.74335 15.1747 5.84531 15.1774 5.92715 15.1774H5.92983Z" fill="#020202"/>
<path d="M5.92706 17.1024H7.04326C7.63893 17.1024 8.23459 17.1024 8.83026 17.1024H9.23944C9.36019 17.1024 9.50105 17.0662 9.6124 17.0219C9.6929 16.9897 9.81901 16.9347 9.87536 16.8609C10.0068 16.6865 9.75998 16.6543 9.63655 16.6543H6.32283C6.20208 16.6543 6.06122 16.6905 5.94987 16.7348C5.86937 16.767 5.74326 16.822 5.68691 16.8958C5.55544 17.0702 5.80229 17.1024 5.92572 17.1024H5.92706Z" fill="#020202"/>
<path d="M3.49947 22.2822C4.21004 22.2822 4.78606 21.7061 4.78606 20.9956C4.78606 20.285 4.21004 19.709 3.49947 19.709C2.78891 19.709 2.21289 20.285 2.21289 20.9956C2.21289 21.7061 2.78891 22.2822 3.49947 22.2822Z" fill="#FF453A"/>
<path d="M4.46718 21.0335C4.46718 21.1623 4.4484 21.2911 4.40949 21.4145C4.4001 21.444 4.38937 21.4722 4.37863 21.5017C4.37461 21.5111 4.35851 21.5487 4.37595 21.5111C4.37059 21.5218 4.36522 21.5326 4.36119 21.5446C4.33302 21.605 4.29948 21.6614 4.26057 21.7164C4.24313 21.7405 4.22569 21.7647 4.20691 21.7888C4.19886 21.7982 4.19215 21.8076 4.1841 21.817C4.22033 21.7741 4.1935 21.8063 4.1841 21.817C4.13983 21.8613 4.09422 21.9042 4.04592 21.9458C3.99762 21.9874 4.08751 21.9203 4.05263 21.9404C4.03921 21.9485 4.02848 21.9579 4.01506 21.9659C3.98957 21.982 3.96408 21.9981 3.93859 22.0129C3.9292 22.0182 3.91579 22.0236 3.9064 22.0303C3.97079 21.982 3.93859 22.0129 3.9131 22.0249C3.88493 22.0384 3.85676 22.0491 3.82858 22.0598C3.76553 22.0866 3.90908 22.0357 3.842 22.0558C3.82992 22.0598 3.81785 22.0625 3.80712 22.0665C3.7776 22.0746 3.74675 22.0813 3.71723 22.0893C3.82456 22.0612 3.71991 22.088 3.69174 22.0907C3.67564 22.092 3.66088 22.0947 3.64479 22.0947C3.56697 22.1014 3.70113 22.096 3.63942 22.0947C3.6099 22.0947 3.58173 22.0947 3.55222 22.0934C3.53612 22.0934 3.52002 22.092 3.50526 22.0907C3.49721 22.0907 3.44221 22.0773 3.48514 22.0893C3.52807 22.1014 3.47172 22.0866 3.46501 22.0853C3.45294 22.0826 3.44086 22.0813 3.42879 22.0786C3.39257 22.0706 3.35634 22.0625 3.32146 22.0518C3.30939 22.0477 3.29866 22.0437 3.28658 22.041C3.34561 22.0598 3.28658 22.041 3.27719 22.037C3.24902 22.0263 3.22084 22.0142 3.19401 22.0008C3.14035 21.974 3.08668 21.9444 3.03705 21.9109C3.03302 21.9082 2.98338 21.8733 3.02095 21.9002C3.01156 21.8935 3.00216 21.8854 2.99277 21.8787C2.96997 21.8599 2.94716 21.8411 2.92435 21.8197C2.8774 21.7767 2.83447 21.7311 2.79556 21.6828C2.75934 21.6386 2.72714 21.5916 2.69628 21.5433C2.69628 21.5433 2.66677 21.491 2.68421 21.5218C2.67884 21.5111 2.67347 21.5004 2.66811 21.4896C2.65201 21.4574 2.63725 21.4239 2.62384 21.3904C2.57822 21.275 2.54871 21.1529 2.53797 21.0295C2.52858 20.9262 2.53797 20.8041 2.56481 20.6807C2.57822 20.6203 2.59566 20.5613 2.61847 20.5036C2.61847 20.5049 2.63994 20.4499 2.62786 20.4767C2.61579 20.5036 2.63994 20.4499 2.63994 20.4513C2.65469 20.4217 2.66945 20.3922 2.68689 20.3627C2.71506 20.3131 2.74726 20.2661 2.78214 20.2205C2.79288 20.2057 2.80495 20.1923 2.81568 20.1789C2.81032 20.1843 2.7808 20.2165 2.81032 20.1856C2.83581 20.1601 2.85996 20.1333 2.88679 20.1091C2.90825 20.089 2.9324 20.0702 2.95521 20.0501C2.98875 20.0219 2.94313 20.0635 2.94045 20.0609C2.94045 20.0609 2.97399 20.038 2.97667 20.0354C3.00216 20.0179 3.02765 20.0018 3.05314 19.9871C3.06522 19.979 3.08132 19.9736 3.09205 19.9656C3.029 20.0126 3.05985 19.983 3.08534 19.971C3.11352 19.9575 3.14169 19.9468 3.16986 19.9361C3.23158 19.9106 3.10412 19.9562 3.14706 19.9441C3.16181 19.9401 3.17657 19.9347 3.19133 19.9307C3.22084 19.9227 3.25304 19.9186 3.28121 19.9079C3.27719 19.9093 3.19535 19.9213 3.25036 19.9146C3.26914 19.9119 3.28792 19.9093 3.3067 19.9066C3.32549 19.9039 3.34427 19.9025 3.36305 19.9012C3.41537 19.8958 3.34561 19.9039 3.34024 19.9012C3.36305 19.9106 3.41001 19.9012 3.43684 19.9012C3.46501 19.9012 3.50526 19.9012 3.53209 19.9092C3.47172 19.8891 3.50392 19.9066 3.52538 19.9092C3.54685 19.9119 3.56831 19.9173 3.58978 19.9213C3.6193 19.928 3.65015 19.9361 3.67967 19.9441C3.6904 19.9468 3.74809 19.9683 3.6904 19.9468C3.70784 19.9535 3.72394 19.9602 3.74138 19.9669C3.80309 19.9924 3.86212 20.0233 3.91847 20.0568C3.93323 20.0662 3.94933 20.0756 3.96408 20.0863C3.96811 20.089 4.01641 20.1239 3.98018 20.0971C4.00836 20.1185 4.03653 20.1413 4.06336 20.1655C4.113 20.2098 4.15861 20.2567 4.2002 20.3077C4.24179 20.3587 4.28338 20.4177 4.31826 20.4781C4.3357 20.5076 4.30082 20.4405 4.32497 20.4915C4.33302 20.5076 4.34107 20.5237 4.34912 20.5398C4.36388 20.5733 4.37863 20.6069 4.39071 20.6404C4.41352 20.7035 4.4323 20.7692 4.44437 20.8363C4.45108 20.8739 4.45645 20.9101 4.46047 20.9476C4.46047 20.9597 4.46315 20.9731 4.4645 20.9852C4.4645 20.9919 4.46718 21.0577 4.46718 21.0335C4.46718 21.0912 4.47925 21.1247 4.53426 21.1542C4.59329 21.1864 4.68183 21.1891 4.74489 21.1811C4.82807 21.169 4.91527 21.1462 4.98637 21.0979C5.02931 21.0684 5.10578 21.0161 5.10578 20.9584C5.10309 20.6471 5.01857 20.3614 4.83343 20.1091C4.64829 19.8569 4.39876 19.6973 4.11702 19.602C3.45965 19.3793 2.67482 19.6168 2.22941 20.1413C1.83364 20.6082 1.78668 21.275 2.10464 21.7942C2.25087 22.033 2.48029 22.2275 2.73653 22.3375C3.07059 22.4824 3.43416 22.5012 3.78968 22.4288C4.48864 22.2852 5.10041 21.6989 5.10578 20.9597C5.10578 20.8188 4.94076 20.796 4.82807 20.8121C4.74489 20.8242 4.65769 20.847 4.58658 20.8953C4.54365 20.9248 4.46718 20.9772 4.46718 21.0348V21.0335Z" fill="#020202"/>
<path d="M6.08539 20.4201H10.4871C10.6897 20.4201 10.8923 20.4255 11.0949 20.4201C11.0976 20.4201 11.1003 20.4201 11.1043 20.4201C11.2223 20.4201 11.3713 20.3584 11.4638 20.2873C11.5376 20.2296 11.6248 20.1263 11.6288 20.0257C11.6396 19.7734 11.39 19.6997 11.1834 19.6997H10.6844C10.2846 19.6997 9.88477 19.6997 9.48498 19.6997H6.78168C6.5791 19.6997 6.37652 19.6943 6.17394 19.6997C6.17125 19.6997 6.16857 19.6997 6.16454 19.6997C6.04648 19.6997 5.89757 19.7614 5.805 19.8325C5.73121 19.8902 5.64401 19.9935 5.63998 20.0941C5.62925 20.3463 5.87879 20.4201 6.08539 20.4201V20.4201Z" fill="#020202"/>
<path d="M6.07779 22.3227H12.0894C12.3672 22.3227 12.6449 22.3294 12.9226 22.3227C12.9266 22.3227 12.9306 22.3227 12.9347 22.3227C13.05 22.3227 13.203 22.2597 13.2942 22.1939C13.364 22.1429 13.4592 22.0477 13.4646 21.9524C13.4699 21.8572 13.4351 21.7794 13.3532 21.7311C13.2526 21.672 13.1439 21.668 13.0299 21.668H7.01824C6.74053 21.668 6.46282 21.6613 6.18511 21.668C6.18109 21.668 6.17706 21.668 6.17304 21.668C6.05766 21.668 5.90472 21.7311 5.81349 21.7968C5.74373 21.8478 5.64848 21.943 5.64311 22.0383C5.63775 22.1336 5.67263 22.2114 5.75446 22.2597C5.85508 22.3187 5.96375 22.3227 6.07779 22.3227Z" fill="#020202"/>
<path d="M13.4139 4.44622H5.74805V1.68255C5.74805 0.951381 6.34103 0.358398 7.0722 0.358398H12.0911C12.8222 0.358398 13.4152 0.951381 13.4152 1.68255V4.44756L13.4139 4.44622Z" fill="#FF453A"/>
<path d="M13.4538 4.08916H6.73244C6.42253 4.08916 6.11128 4.08246 5.80137 4.08916C5.79735 4.08916 5.79332 4.08916 5.78796 4.08916L6.23202 4.41249V1.85676C6.23202 1.65955 6.23068 1.4677 6.28569 1.27451L6.25885 1.36708C6.29642 1.24365 6.34874 1.12828 6.4185 1.02095L6.36216 1.10949C6.38899 1.06925 6.41716 1.03034 6.44668 0.992776C6.46009 0.976677 6.47351 0.960578 6.48827 0.944479C6.499 0.933746 6.54059 0.900206 6.54461 0.885449C6.54461 0.885449 6.45473 0.967286 6.50168 0.927038C6.51107 0.918989 6.51912 0.910939 6.52851 0.90289C6.54461 0.889474 6.56071 0.876058 6.57681 0.862642C6.59559 0.847884 6.61572 0.833127 6.6345 0.819711C6.67206 0.794221 6.76061 0.75129 6.61303 0.830444C6.65328 0.808978 6.69219 0.786171 6.73378 0.767389C6.75256 0.757998 6.77268 0.749948 6.79281 0.741899C6.8572 0.713726 6.71365 0.770072 6.72036 0.768731C6.73512 0.766047 6.74988 0.757998 6.76463 0.753973C6.80891 0.740557 6.85452 0.729825 6.89879 0.719092C6.96721 0.702993 6.8183 0.731166 6.82366 0.731166C6.83574 0.731166 6.84915 0.727141 6.86123 0.7258C6.8894 0.721775 6.91757 0.719092 6.94575 0.71775C7.02758 0.712384 7.10942 0.715067 7.19126 0.715067H11.9459C11.9767 0.715067 12.0076 0.715067 12.0398 0.715067C12.0465 0.715067 12.0532 0.715067 12.0599 0.715067C12.1149 0.715067 11.9405 0.709701 11.9941 0.713725C12.0035 0.713725 12.0129 0.713725 12.0223 0.715067C12.0478 0.716409 12.0733 0.719092 12.0974 0.723117C12.1216 0.727141 12.1471 0.729825 12.1712 0.735191C12.1833 0.737874 12.1967 0.741899 12.2075 0.74324C12.194 0.74324 12.0907 0.713725 12.1592 0.732508C12.2504 0.756656 12.3389 0.792879 12.4235 0.83581L12.3309 0.787513C12.4436 0.846543 12.5455 0.92033 12.6381 1.00753L12.5683 0.940454C12.681 1.05046 12.7736 1.17657 12.8434 1.31744L12.8018 1.23292C12.8742 1.38452 12.9172 1.54685 12.9306 1.71455L12.9239 1.62064C12.9306 1.73333 12.9279 1.84603 12.9279 1.95872V2.61476C12.9279 3.11919 12.9279 3.62497 12.9279 4.12941V4.48225C12.9279 4.58421 12.9601 4.66605 13.046 4.72776C13.1318 4.78947 13.2687 4.81631 13.3733 4.80557C13.4994 4.7935 13.6336 4.75593 13.7328 4.67276C13.808 4.61104 13.8992 4.51847 13.8992 4.41383V1.72663C13.8992 1.67833 13.8992 1.62869 13.8979 1.58039C13.8844 1.30939 13.8214 1.07461 13.6899 0.83581C13.4484 0.393086 12.9856 0.11806 12.4999 0.0268318C12.3336 -0.00402477 12.1632 0.00134159 11.9941 0.00134159H8.09012C7.76948 0 7.44884 0 7.12955 0C6.21458 0.00134159 5.29828 0.713725 5.26339 1.6676C5.24864 2.06202 5.26339 2.45779 5.26339 2.85222V4.48091C5.26339 4.73044 5.49415 4.80423 5.70746 4.80423H6.47485C7.08393 4.80423 7.69435 4.80423 8.30344 4.80423H12.4288C12.7387 4.80423 13.05 4.81094 13.3599 4.80423C13.3639 4.80423 13.3679 4.80423 13.3733 4.80423C13.4914 4.80423 13.6403 4.74252 13.7328 4.67141C13.8066 4.61507 13.8952 4.51176 13.8992 4.41249C13.9099 4.16027 13.6591 4.08916 13.4551 4.08916H13.4538Z" fill="#020202"/>
<path d="M16.8262 12.1398C18.7015 12.1398 20.2218 10.6195 20.2218 8.7442C20.2218 6.86888 18.7015 5.34863 16.8262 5.34863C14.9509 5.34863 13.4307 6.86888 13.4307 8.7442C13.4307 10.6195 14.9509 12.1398 16.8262 12.1398Z" fill="#FF453A"/>
<path d="M19.8238 8.85187C19.8238 8.89749 19.8238 8.94176 19.8211 8.98737V8.93774C19.8117 9.21947 19.7661 9.49986 19.6856 9.77086C19.6453 9.90502 19.597 10.0378 19.5407 10.1666C19.5165 10.2216 19.491 10.2766 19.4629 10.3316C19.4468 10.3638 19.4293 10.396 19.4119 10.4282C19.3837 10.4806 19.4293 10.4001 19.4105 10.4323C19.3998 10.4497 19.3891 10.4685 19.3783 10.4873C19.2402 10.7194 19.0738 10.9354 18.8846 11.1286C18.8752 11.1379 18.8524 11.154 18.8471 11.1675C18.8484 11.1634 18.8981 11.1192 18.8618 11.154C18.8363 11.1782 18.8095 11.2037 18.7827 11.2278C18.733 11.2721 18.6834 11.315 18.6324 11.3553C18.5814 11.3955 18.5278 11.4358 18.4741 11.4747C18.4594 11.4854 18.4446 11.4948 18.4298 11.5055C18.4204 11.5122 18.3695 11.5458 18.4218 11.5109C18.4741 11.476 18.4218 11.5109 18.4137 11.5163C18.3936 11.5297 18.3735 11.5418 18.352 11.5552C18.2984 11.5887 18.2434 11.6196 18.187 11.6491C18.1575 11.6652 18.128 11.6799 18.0985 11.6947C18.0824 11.7028 18.0663 11.7121 18.0488 11.7188L18.1065 11.692C18.0958 11.6974 18.0851 11.7028 18.073 11.7068C18.0126 11.7349 17.9496 11.7604 17.8878 11.7846C17.8597 11.7953 17.8302 11.8061 17.802 11.8168C17.7711 11.8275 17.7 11.8476 17.8369 11.8061C17.8141 11.8128 17.7899 11.8208 17.7671 11.8275C17.7081 11.845 17.649 11.8611 17.5887 11.8758C17.5524 11.8852 17.4129 11.912 17.5685 11.8825C17.5323 11.8892 17.4948 11.8973 17.4585 11.9026C17.3901 11.9147 17.3217 11.9241 17.2533 11.9308C17.2211 11.9348 17.1057 11.9375 17.2399 11.9335C17.2009 11.9348 17.1634 11.9389 17.1245 11.9402C17.0534 11.9429 16.9823 11.9442 16.9125 11.9416C16.8776 11.9416 16.8414 11.9389 16.8065 11.9375C16.7596 11.9348 16.8951 11.9442 16.828 11.9375C16.8025 11.9348 16.777 11.9335 16.7515 11.9308C16.6147 11.9174 16.4778 11.8959 16.3423 11.8664C16.3235 11.8624 16.3061 11.8584 16.2873 11.8544L16.2699 11.8503C16.2404 11.8423 16.2457 11.845 16.2873 11.8544C16.2846 11.8584 16.2055 11.8315 16.1988 11.8302C16.1277 11.8101 16.0579 11.7873 15.9895 11.7618C15.8634 11.7162 15.7413 11.6625 15.6219 11.6021C15.5897 11.586 15.5575 11.5686 15.5253 11.5512C15.5092 11.5431 15.4931 11.5337 15.4783 11.5243C15.469 11.519 15.4005 11.4774 15.4515 11.5096C15.3898 11.472 15.3294 11.4331 15.2691 11.3915C15.1456 11.3056 15.0276 11.2131 14.9176 11.1111C14.6908 10.9045 14.4936 10.6684 14.3286 10.4095L14.3554 10.451C13.9905 9.87014 13.8094 9.18995 13.8349 8.5044V8.55404C13.8443 8.27231 13.8899 7.99192 13.9704 7.72091C14.0106 7.58676 14.0589 7.45394 14.1153 7.32515C14.1394 7.27014 14.1649 7.21513 14.1931 7.16013C14.2092 7.12793 14.2266 7.09573 14.2441 7.06354C14.2723 7.01121 14.2266 7.09171 14.2454 7.05951C14.2562 7.04207 14.2669 7.02329 14.2776 7.00451C14.4158 6.77241 14.5822 6.55641 14.7713 6.36323C14.7807 6.35383 14.8035 6.33774 14.8089 6.32432C14.8075 6.32834 14.7579 6.37262 14.7941 6.33774C14.8196 6.31359 14.8465 6.2881 14.8733 6.26395C14.9229 6.21968 14.9726 6.17675 15.0235 6.1365C15.0745 6.09625 15.1282 6.056 15.1819 6.0171C15.1966 6.00636 15.2114 5.99697 15.2261 5.98624C15.2355 5.97953 15.2865 5.94599 15.2342 5.98087C15.1819 6.01575 15.2342 5.98087 15.2422 5.97551C15.2623 5.96209 15.2825 5.95002 15.3039 5.9366C15.3576 5.90306 15.4126 5.8722 15.469 5.84269C15.4985 5.82659 15.528 5.81183 15.5575 5.79707C15.5736 5.78903 15.5897 5.77963 15.6071 5.77293L15.5494 5.79976C15.5602 5.79439 15.5709 5.78903 15.583 5.785C15.6434 5.75683 15.7064 5.73134 15.7681 5.70719C15.7963 5.69646 15.8258 5.68572 15.854 5.67499C15.8848 5.66426 15.956 5.64413 15.8191 5.68572C15.8419 5.67902 15.8661 5.67097 15.8889 5.66426C15.9479 5.64682 16.0069 5.63072 16.0673 5.61596C16.1035 5.60657 16.2431 5.57974 16.0874 5.60925C16.1236 5.60254 16.1612 5.5945 16.1974 5.58913C16.2659 5.57705 16.3343 5.56766 16.4027 5.56096C16.4349 5.55693 16.5503 5.55425 16.4161 5.55827C16.455 5.55693 16.4926 5.55291 16.5315 5.55156C16.6026 5.54888 16.6737 5.54754 16.7435 5.55022C16.7783 5.55022 16.8146 5.55291 16.8494 5.55425C16.8964 5.55693 16.7609 5.54754 16.828 5.55425C16.8535 5.55693 16.879 5.55827 16.9045 5.56096C17.0413 5.57437 17.1781 5.59584 17.3136 5.62535C17.3324 5.62938 17.3499 5.6334 17.3686 5.63743L17.3861 5.64145C17.4156 5.6495 17.4102 5.64682 17.3686 5.63743C17.3713 5.6334 17.4505 5.66023 17.4572 5.66157C17.5283 5.6817 17.5981 5.70451 17.6665 5.73C17.7926 5.77561 17.9147 5.82927 18.0341 5.88964C18.0663 5.90574 18.0985 5.92318 18.1307 5.94062C18.1468 5.94867 18.1629 5.95807 18.1776 5.96746C18.187 5.97282 18.2554 6.01441 18.2045 5.98221C18.2662 6.01978 18.3265 6.05869 18.3869 6.10027C18.5103 6.18614 18.6284 6.27871 18.7384 6.38067C18.9651 6.58727 19.1623 6.82339 19.3274 7.08232L19.3005 7.04073C19.6413 7.58273 19.8224 8.21194 19.8238 8.85187C19.8238 8.90956 19.9391 8.93774 19.9727 8.9431C20.0652 8.95786 20.1793 8.9431 20.2678 8.91761C20.3993 8.88005 20.6207 8.80492 20.6207 8.63856C20.618 7.9074 20.3819 7.2044 19.9552 6.61276C19.5407 6.03722 18.9423 5.59584 18.2729 5.36106C17.4921 5.08737 16.6227 5.08067 15.8312 5.31142C15.0396 5.54217 14.3608 5.96343 13.847 6.58191C13.3868 7.13598 13.097 7.83227 13.0447 8.5527C12.9924 9.27313 13.1547 10.0137 13.5424 10.6402C13.9302 11.2667 14.4775 11.743 15.1429 12.0341C15.8862 12.3601 16.7274 12.4151 17.5176 12.2515C18.3198 12.0851 19.0617 11.6907 19.6332 11.1017C20.1323 10.5865 20.4731 9.91039 20.5804 9.20069C20.6086 9.01421 20.6207 8.82638 20.6207 8.63722C20.6207 8.57953 20.5053 8.55136 20.4717 8.54599C20.3792 8.53123 20.2651 8.54599 20.1766 8.57148C20.0451 8.60905 19.8251 8.68418 19.8238 8.85053V8.85187Z" fill="#020202"/>
<path d="M16.6936 10.0762C16.5393 10.0762 16.385 10.0172 16.267 9.89915L13.5462 7.1784C13.3101 6.94229 13.3101 6.55993 13.5462 6.32515C13.7824 6.09038 14.1647 6.08903 14.3995 6.32515L16.6923 8.61793L20.929 4.38119C21.1651 4.14507 21.5475 4.14507 21.7822 4.38119C22.017 4.61731 22.0184 4.99966 21.7822 5.23444L17.1189 9.89781C17.0008 10.0159 16.8465 10.0749 16.6923 10.0749L16.6936 10.0762Z" fill="#4098E9"/>
<path d="M16.8102 9.86871C16.7887 9.86871 16.7686 9.86602 16.7471 9.86602C16.6814 9.86334 16.7847 9.87944 16.7471 9.86602C16.731 9.86066 16.7123 9.85663 16.6962 9.85261C16.6344 9.83785 16.7337 9.87676 16.6774 9.8459C16.6452 9.82846 16.6143 9.81102 16.5848 9.78955C16.5352 9.75333 16.6063 9.8137 16.5607 9.76809C16.5526 9.76004 16.5432 9.75065 16.5352 9.7426L16.3755 9.58295C16.1635 9.37098 15.9529 9.16035 15.7409 8.94838C15.2285 8.43589 14.7146 7.92206 14.2021 7.40957C14.0827 7.29017 13.9633 7.17345 13.8453 7.05271C13.8413 7.04869 13.8372 7.04466 13.8332 7.04064C13.8077 7.0138 13.7849 6.98563 13.7648 6.95478C13.7581 6.94404 13.7514 6.93331 13.7447 6.92124C13.7648 6.95612 13.7312 6.88904 13.7286 6.88099C13.7178 6.85147 13.7084 6.82062 13.7017 6.78976C13.699 6.77769 13.6964 6.76427 13.695 6.7522C13.695 6.74817 13.6897 6.68646 13.691 6.73073C13.6897 6.66097 13.7004 6.5912 13.7232 6.52547C13.7071 6.57376 13.7299 6.51473 13.7326 6.50803C13.738 6.49595 13.7447 6.48522 13.7514 6.47314C13.7608 6.4557 13.7728 6.4396 13.7836 6.42351C13.7554 6.46644 13.7715 6.43826 13.7809 6.42887C13.7956 6.41411 13.8091 6.39936 13.8238 6.3846C13.8681 6.33764 13.7876 6.40741 13.8211 6.38728C13.8265 6.3846 13.8614 6.36313 13.8614 6.35911C13.8184 6.38192 13.8117 6.38594 13.8413 6.36984C13.8493 6.36582 13.8587 6.36179 13.8681 6.35777C13.9124 6.33899 13.8963 6.36716 13.848 6.36448C13.8574 6.36448 13.8936 6.35508 13.903 6.34972C13.8963 6.35374 13.8198 6.35911 13.8721 6.35643C13.9016 6.35643 13.9419 6.36716 13.8667 6.35374C13.8788 6.35508 13.8922 6.35374 13.9043 6.35508H13.9231C13.9539 6.36045 13.9486 6.35911 13.907 6.35374C13.9177 6.34435 14.0412 6.40204 13.9741 6.36984C14.0036 6.3846 14.0318 6.39936 14.0586 6.4168C14.064 6.41948 14.1136 6.45973 14.0774 6.42887C14.0881 6.43826 14.0975 6.44765 14.1069 6.45705C14.1096 6.45973 14.1109 6.46107 14.1136 6.46375C14.1297 6.47985 14.1471 6.49729 14.1632 6.51339L14.3792 6.72939L15.0997 7.44982C15.5263 7.87645 15.9516 8.30173 16.3782 8.72836L16.401 8.75116C16.5459 8.89605 16.8263 8.82227 16.9564 8.69213L17.485 8.16355C17.8915 7.75705 18.2994 7.3492 18.7059 6.9427L20.0676 5.58099C20.3896 5.25901 20.7115 4.93702 21.0335 4.61504C21.0858 4.56272 21.1382 4.50906 21.1918 4.45674C21.1945 4.45405 21.2146 4.43125 21.2213 4.4299L21.1945 4.45271C21.2026 4.44734 21.2106 4.44064 21.2187 4.43527C21.228 4.42856 21.2535 4.41917 21.2589 4.40978C21.2549 4.41649 21.1905 4.44064 21.2388 4.4232C21.2495 4.41917 21.2629 4.4138 21.2737 4.40844C21.1972 4.44734 21.2307 4.42454 21.2616 4.41515C21.2871 4.40844 21.3099 4.41515 21.2294 4.42051C21.2415 4.42051 21.2535 4.41649 21.2656 4.41649C21.275 4.41649 21.334 4.40576 21.2804 4.41515C21.2348 4.4232 21.2696 4.41515 21.2857 4.41783C21.2911 4.41783 21.3313 4.41917 21.3313 4.4232C21.3313 4.42722 21.2602 4.40441 21.3139 4.42185C21.326 4.42588 21.3381 4.42856 21.3501 4.43259C21.3595 4.43527 21.3676 4.43795 21.377 4.44198C21.3944 4.44869 21.389 4.446 21.3609 4.43527C21.3649 4.43125 21.4226 4.46747 21.4279 4.47149C21.4414 4.47954 21.4534 4.49028 21.4682 4.49832C21.4964 4.51577 21.4467 4.47552 21.4682 4.49832C21.5125 4.54394 21.5541 4.58955 21.5863 4.64456C21.5688 4.61504 21.5983 4.67139 21.6024 4.68481C21.6131 4.71432 21.6225 4.74518 21.6292 4.77603C21.6345 4.80152 21.6372 4.82567 21.6399 4.85116C21.6359 4.81628 21.6399 4.8458 21.6399 4.85385C21.6399 4.87263 21.6386 4.89141 21.6359 4.91019C21.6332 4.93837 21.6278 4.96654 21.6211 4.99471C21.6184 5.00679 21.6144 5.01886 21.6104 5.03094C21.601 5.06448 21.6332 4.98801 21.6064 5.03899C21.5943 5.06179 21.5836 5.08594 21.5702 5.10741C21.5634 5.11814 21.5554 5.12887 21.5487 5.1396C21.5822 5.08997 21.5487 5.1396 21.538 5.149C21.5312 5.15705 21.5232 5.16375 21.5165 5.1718C21.495 5.19327 21.4736 5.21473 21.4521 5.2362L21.1489 5.5394C20.7826 5.90565 20.415 6.27325 20.0488 6.6395L18.6723 8.01597L17.4595 9.22877C17.2623 9.42598 17.0664 9.6232 16.8692 9.81907C16.8665 9.82175 16.8639 9.82443 16.8612 9.82712C16.825 9.86468 16.8612 9.83248 16.8679 9.82443C16.8545 9.83651 16.8384 9.84724 16.8236 9.85663C16.774 9.88883 16.8263 9.87139 16.829 9.85529C16.829 9.85932 16.7901 9.87273 16.7901 9.87273C16.7954 9.86736 16.8679 9.84992 16.8129 9.86468C16.8129 9.86468 16.774 9.87273 16.7713 9.87541C16.7847 9.85395 16.841 9.86736 16.7954 9.87005C16.774 9.87005 16.7538 9.87273 16.7324 9.87273C16.6049 9.87541 16.397 9.96798 16.3755 10.1102C16.3514 10.2685 16.5553 10.2873 16.6613 10.2846C16.9309 10.2806 17.1966 10.1598 17.3884 9.97201C17.4072 9.95323 17.426 9.93444 17.4448 9.91566L17.7413 9.61917C18.1115 9.24889 18.4818 8.87861 18.8507 8.50968C19.3216 8.03878 19.7939 7.56654 20.2648 7.09564C20.6713 6.68914 21.0791 6.2813 21.4856 5.8748C21.6721 5.68831 21.8613 5.50318 22.0464 5.31401C22.202 5.15436 22.2919 4.94776 22.2825 4.72371C22.2705 4.45137 22.1028 4.20183 21.8532 4.08914C21.4454 3.90266 20.9597 4.02072 20.6485 4.33197C20.4043 4.57614 20.1601 4.82031 19.916 5.06448L18.5918 6.38862C18.1437 6.83671 17.6956 7.28481 17.2489 7.73156C16.99 7.99048 16.731 8.24941 16.4721 8.50833L16.4345 8.5459L16.99 8.48687C16.6049 8.10183 16.2186 7.71546 15.8335 7.33042L15.0514 6.54827C14.9279 6.42485 14.8085 6.2974 14.6824 6.17934C14.3859 5.90297 13.9218 5.87345 13.5676 6.05457C13.2335 6.22495 12.9961 6.55498 13.0631 6.94136C13.1061 7.18687 13.2845 7.34115 13.4495 7.50617C13.9539 8.01061 14.4584 8.51504 14.9628 9.01948L15.6846 9.74126C15.8053 9.862 15.9221 9.99347 16.0549 10.1008C16.2011 10.2202 16.393 10.2819 16.5808 10.2846C16.668 10.2859 16.7512 10.2739 16.8317 10.2376C16.8893 10.2108 16.9698 10.1598 16.9994 10.0995C17.0624 9.96664 16.9444 9.87139 16.8156 9.87005L16.8102 9.86871Z" fill="#020202"/>
</svg>
