<svg width="67" height="66" viewBox="0 0 67 66" fill="none" xmlns="http://www.w3.org/2000/svg">
<path d="M41.1541 9.086C44.5645 12.5211 46.8408 16.9012 47.6708 21.6757C48.4803 26.3147 47.868 31.1016 45.9327 35.4036C45.715 35.8885 45.4808 36.361 45.2342 36.8294C44.9302 37.3964 44.7535 37.7046 44.3755 38.284C43.7016 39.3235 42.9497 40.3056 42.1238 41.2301C41.7211 41.682 41.2979 42.1176 40.8623 42.5408C40.5049 42.8901 41.113 42.323 40.7391 42.6559C40.6281 42.7545 40.5172 42.8572 40.4021 42.9599C40.1392 43.19 39.8721 43.416 39.6009 43.6379C39.1407 44.0118 38.6641 44.3652 38.1792 44.7021C38.0601 44.7843 37.9368 44.8665 37.8135 44.9486C37.3985 45.2363 38.1915 44.7185 37.7601 44.9815C37.4684 45.1582 37.1807 45.339 36.8849 45.5074C36.3836 45.7951 35.8659 46.058 35.3482 46.3169C34.8839 46.547 35.8412 46.0991 35.3687 46.3087C35.2372 46.3662 35.1057 46.4237 34.9743 46.4813C34.6661 46.6127 34.3579 46.7401 34.0415 46.8552C33.7745 46.9579 33.5033 47.0524 33.2362 47.1469C32.7349 47.3195 33.8238 46.9661 33.3184 47.1181C33.1828 47.1592 33.0472 47.2003 32.9075 47.2414C32.6363 47.3195 32.361 47.3975 32.0857 47.4674C31.946 47.5044 31.8104 47.5372 31.6707 47.5701C31.494 47.6112 30.8119 47.7221 31.6214 47.5907C31.0626 47.6852 30.5079 47.8002 29.9449 47.8742C29.6655 47.9112 29.382 47.9399 29.1026 47.9728C28.5931 48.0262 29.645 47.9399 29.1355 47.9687C28.9465 47.981 28.7575 47.9933 28.5726 48.0016C28.0096 48.0303 27.4426 48.0385 26.8756 48.0262C26.7359 48.0262 26.5921 48.018 26.4524 48.0139C25.9593 48.0016 26.9002 48.0468 26.4113 48.0139C26.0826 47.9892 25.7539 47.9687 25.4251 47.9317C24.9074 47.8783 24.3938 47.8084 23.8843 47.7221C23.6049 47.6769 23.3255 47.6235 23.0502 47.566C22.9105 47.5372 22.7749 47.5044 22.6352 47.4756C22.4462 47.4304 22.4503 47.4345 22.6475 47.4797C22.5571 47.4592 22.4626 47.4345 22.3722 47.4099C21.2176 47.114 20.0877 46.736 18.9906 46.2758C16.7512 45.3349 14.8693 44.1597 12.9792 42.5326C9.2812 39.3482 6.65972 35.1119 5.48457 30.3743C4.35872 25.8504 4.59704 21.1005 6.17075 16.7122C6.57754 15.5822 7.0665 14.4851 7.63764 13.4291C8.12249 12.5293 8.81279 11.4774 9.53185 10.5364C10.2961 9.54209 11.1384 8.60115 12.0506 7.74239C11.7794 7.99714 12.1451 7.66021 12.1739 7.63145C12.2848 7.52872 12.3999 7.43011 12.5108 7.33149C12.7368 7.13427 12.9669 6.94115 13.197 6.75214C13.6942 6.34946 14.2119 5.96323 14.742 5.60164C14.8611 5.51946 14.9803 5.42496 15.1076 5.35511C14.6392 5.60575 15.0707 5.37976 15.1611 5.32223C15.4076 5.1661 15.6582 5.01817 15.913 4.87436C16.4184 4.58674 16.932 4.32377 17.4497 4.06491C17.914 3.83481 16.9567 4.28268 17.4292 4.07312C17.5607 4.0156 17.6922 3.95807 17.8236 3.90055C18.0866 3.78961 18.3537 3.67867 18.6208 3.57594C18.8879 3.47322 19.1549 3.37461 19.4261 3.2801C19.6028 3.21847 20.0712 3.13629 19.3439 3.30476C19.5288 3.26367 19.7096 3.18971 19.8904 3.13629C20.4369 2.97604 20.9998 2.87332 21.5422 2.71307C20.7286 2.95139 21.6573 2.69253 21.875 2.65555C22.1996 2.59802 22.5284 2.54872 22.853 2.50352C23.1324 2.46654 23.4159 2.43777 23.6953 2.4049C24.2048 2.35149 23.1529 2.43777 23.6624 2.40901C23.8021 2.40079 23.9459 2.38847 24.0856 2.38025C24.6979 2.34738 25.3101 2.33505 25.9223 2.34738C26.062 2.34738 26.2058 2.3556 26.3455 2.35971C26.8386 2.37203 25.8977 2.32683 26.3866 2.35971C26.6701 2.38025 26.9495 2.40079 27.2331 2.42545C27.8453 2.48297 28.4534 2.56515 29.0574 2.67198C29.3368 2.72129 29.6162 2.77471 29.8915 2.83223C30.0312 2.86099 30.1668 2.89386 30.3065 2.92263C29.9162 2.83634 30.3805 2.94317 30.4339 2.9555C31.0338 3.10753 31.6255 3.28421 32.209 3.48144C34.5469 4.27446 36.5028 5.29758 38.4299 6.71927C39.3955 7.43422 40.3035 8.22313 41.1541 9.06957C41.4376 9.34897 42.058 9.37363 42.4073 9.36952C43.0154 9.3613 43.7098 9.21338 44.2686 8.97917C44.7329 8.78194 46.3149 8.01768 45.604 7.31095C41.869 3.61703 37.0246 1.20099 31.8351 0.342227C26.6455 -0.516536 20.5889 0.251831 15.5802 2.52406C10.4317 4.85793 6.08858 8.5765 3.24931 13.4867C0.746984 17.8257 -0.333661 22.8879 0.0895571 27.8761C0.516885 32.9259 2.57956 37.7498 5.86259 41.6081C9.21546 45.5485 13.8421 48.3837 18.8714 49.5958C24.4185 50.9353 30.2161 50.4874 35.5618 48.5316C40.698 46.6497 45.3411 43.2023 48.4392 38.6743C51.336 34.438 52.8439 29.4662 52.7987 24.3383C52.7535 19.2597 51.0648 14.3372 48.0899 10.2324C47.3421 9.20105 46.508 8.23135 45.6081 7.32739C45.3287 7.04798 44.7001 7.02333 44.3549 7.02743C43.7468 7.03565 43.0524 7.18357 42.4936 7.41778C42.0211 7.61501 40.4514 8.37516 41.1582 9.086H41.1541Z" fill="#999999"/>
<path d="M42.6538 44.5339C44.8685 46.7486 47.0873 48.9674 49.302 51.1821C52.848 54.7281 56.394 58.2741 59.94 61.8201C60.7494 62.6295 61.5589 63.439 62.3683 64.2485C62.9107 64.7908 63.7161 65.2305 64.468 65.3743C65.0268 65.4811 65.8733 65.477 66.354 65.0867C67.525 64.1375 66.8964 62.6008 66.0047 61.705C63.79 59.4903 61.5712 57.2715 59.3565 55.0568C55.8105 51.5108 52.2645 47.9648 48.7185 44.4188C47.9091 43.6094 47.0996 42.7999 46.2902 41.9905C45.7478 41.4481 44.9424 41.0084 44.1905 40.8646C43.6317 40.7578 42.7852 40.7619 42.3045 41.1522C41.1335 42.1014 41.7621 43.6381 42.6538 44.5339Z" fill="#999999"/>
</svg>
