<svg width="18" height="18" viewBox="0 0 18 18" fill="none" xmlns="http://www.w3.org/2000/svg">
<path d="M7.99615 15.2213C6.13615 15.2213 4.28615 14.5113 2.86615 13.1013C0.0361524 10.2713 0.0361524 5.68126 2.86615 2.85126C5.69615 0.0212598 10.2962 0.0212598 13.1162 2.85126C15.9362 5.68126 15.9462 10.2813 13.1162 13.1013C11.7062 14.5113 9.84615 15.2213 7.98615 15.2213H7.99615ZM7.99615 1.73126C6.39615 1.73126 4.79615 2.34126 3.57615 3.56126C1.13615 5.99126 1.13615 9.96126 3.57615 12.3913C6.01615 14.8213 9.97615 14.8313 12.4162 12.3913C14.8562 9.95126 14.8562 5.99126 12.4162 3.55126C11.1962 2.33126 9.59615 1.72126 7.99615 1.72126V1.73126Z" fill="#999999"/>
<path d="M16.7462 17.2712C16.6162 17.2712 16.4862 17.2212 16.3962 17.1212L12.4862 13.2112C12.2862 13.0112 12.2862 12.7012 12.4862 12.5012C12.6862 12.3012 12.9962 12.3012 13.1962 12.5012L17.1062 16.4112C17.3062 16.6112 17.3062 16.9212 17.1062 17.1212C17.0062 17.2212 16.8762 17.2712 16.7562 17.2712H16.7462Z" fill="#999999"/>
</svg>
