<svg width="16" height="16" viewBox="0 0 16 16" fill="none" xmlns="http://www.w3.org/2000/svg">
<path d="M7.24484 4.80035C7.24484 2.30035 5.72484 0.110352 3.85484 0.110352C1.98484 0.110352 0.464844 2.30035 0.464844 4.80035C0.464844 6.92035 1.56484 7.99035 3.04484 8.27035C3.04484 8.27035 3.04484 8.27035 3.04484 8.29035V15.1904C3.04484 15.6404 3.40484 16.0004 3.85484 16.0004C4.30484 16.0004 4.66484 15.6404 4.66484 15.1904V8.29035C4.66484 8.29035 4.66484 8.29035 4.66484 8.27035C6.14484 8.00035 7.24484 6.93035 7.24484 4.80035Z" fill="#FF453A"/>
<path d="M14.7545 0C14.3145 0 13.9645 0.35 13.9645 0.79V4.36H13.3445V0.79C13.3445 0.35 12.9945 0 12.5545 0C12.1145 0 11.7645 0.35 11.7645 0.79V4.36H11.1445V0.79C11.1445 0.35 10.7945 0 10.3545 0C9.91445 0 9.56445 0.35 9.56445 0.79V5.88C9.75445 7.05 10.6145 7.99 11.7245 8.31V15.19C11.7245 15.64 12.0845 16 12.5345 16C12.9845 16 13.3445 15.64 13.3445 15.19V8.31C14.4745 8 15.3445 7.05 15.5345 5.88V0.79C15.5345 0.35 15.1845 0 14.7445 0H14.7545Z" fill="#FF453A"/>
</svg>
