<svg width="16" height="16" viewBox="0 0 16 16" fill="none" xmlns="http://www.w3.org/2000/svg">
<path d="M7.24497 4.79999C7.24497 2.29999 5.72497 0.109985 3.85497 0.109985C1.98497 0.109985 0.464966 2.29999 0.464966 4.79999C0.464966 6.91999 1.56497 7.98999 3.04497 8.26999C3.04497 8.26999 3.04497 8.26999 3.04497 8.28999V15.19C3.04497 15.64 3.40497 16 3.85497 16C4.30497 16 4.66497 15.64 4.66497 15.19V8.28999C4.66497 8.28999 4.66497 8.28999 4.66497 8.26999C6.14497 7.99999 7.24497 6.92999 7.24497 4.79999V4.79999Z" fill="#FF614C"/>
<path d="M14.7549 0C14.3149 0 13.9649 0.35 13.9649 0.79V4.36H13.3449V0.79C13.3449 0.35 12.9949 0 12.5549 0C12.1149 0 11.7649 0.35 11.7649 0.79V4.36H11.1449V0.79C11.1449 0.35 10.7949 0 10.3549 0C9.91494 0 9.56494 0.35 9.56494 0.79V5.88C9.75494 7.05 10.6149 7.99 11.7249 8.31V15.19C11.7249 15.64 12.0849 16 12.5349 16C12.9849 16 13.3449 15.64 13.3449 15.19V8.31C14.4749 8 15.3449 7.05 15.5349 5.88V0.79C15.5349 0.35 15.1849 0 14.7449 0H14.7549Z" fill="#FF614C"/>
</svg>
