<svg width="182" height="22" viewBox="0 0 182 22" fill="none" xmlns="http://www.w3.org/2000/svg">
<path d="M0.594727 20.3394L1.47102 15.2316C3.36417 15.6956 5.07458 15.9299 6.60691 15.9299C7.38011 15.9299 8.06427 15.9158 8.65939 15.8924C9.25452 15.8689 9.77936 15.8174 10.248 15.7518V14.2054L7.45977 13.9711C6.20391 13.8493 5.15424 13.6431 4.31075 13.3525C3.46727 13.062 2.79248 12.659 2.28639 12.1529C1.78029 11.6468 1.41947 11.033 1.20391 10.3207C0.988355 9.6084 0.880575 8.7696 0.880575 7.80428C0.880575 6.47813 1.01647 5.37691 1.29295 4.49125C1.56942 3.60559 2.00522 2.89331 2.60972 2.34973C3.20954 1.80615 3.99211 1.42658 4.94337 1.20165C5.89932 0.976723 7.06146 0.864258 8.43915 0.864258C11.1711 0.864258 13.65 1.12199 15.8712 1.63745L15.098 6.59059C13.172 6.28132 11.6303 6.12668 10.4776 6.12668C9.32481 6.12668 8.34543 6.17822 7.53475 6.28132V7.80428L9.75593 8.01046C11.1149 8.14636 12.2489 8.37597 13.1627 8.69462C14.0765 9.01327 14.8075 9.43033 15.3698 9.9458C15.9274 10.4613 16.3258 11.0704 16.5554 11.778C16.7897 12.4856 16.9021 13.2916 16.9021 14.2007C16.9021 15.5081 16.7287 16.6093 16.3867 17.5044C16.0446 18.3994 15.6275 19.0789 15.1496 19.5428C14.7559 19.9224 14.2639 20.2176 13.6781 20.4331C13.0924 20.6487 12.4738 20.808 11.8225 20.9111C11.1664 21.0142 10.5104 21.0798 9.84965 21.1032C9.18892 21.1314 8.58911 21.1407 8.0549 21.1407C6.71469 21.1407 5.42134 21.0704 4.18423 20.9345C2.94712 20.7987 1.75218 20.5972 0.599414 20.3394H0.594727Z" fill="#FF453A"/>
<path d="M30.0558 20.6766V13.8396H25.4119V20.6766H19.2217V1.32324H25.4119V8.16017H30.0558V1.32324H36.2461V20.6766H30.0558Z" fill="#FF453A"/>
<path d="M43.9642 20.6768H37.4365L42.4412 1.32812H52.0101L57.0148 20.6768H50.4871L49.7655 17.6074H44.6577L43.9595 20.6768H43.9642ZM47.0616 7.26065L45.7964 12.6777H48.6361L47.399 7.26065H47.0616Z" fill="#FF453A"/>
<path d="M71.7245 14.2239L75.0797 20.6719H68.2709L65.7404 14.9174H64.4002V20.6719H58.21V1.32324H67.9616C72.3993 1.32324 74.6158 3.5866 74.6158 8.10862C74.6158 11.2061 73.6504 13.2445 71.7245 14.2239ZM65.8154 6.27638H64.3955V10.147H65.8154C66.5745 10.147 67.1181 10.0674 67.4555 9.91275C67.7929 9.75811 67.9569 9.40665 67.9569 8.8537V7.56504C67.9569 7.01677 67.7882 6.66064 67.4555 6.506C67.1181 6.35136 66.5745 6.2717 65.8154 6.2717V6.27638Z" fill="#FF453A"/>
<path d="M89.6246 13.3757H83.4344V15.7234H91.0211V20.6766H77.2441V1.32324H90.8664L90.0933 6.27638H83.4391V8.88182H89.6293V13.371L89.6246 13.3757Z" fill="#FF453A"/>
<path d="M111.607 16.0046H107.582V20.6719H101.392V1.32324H111.143C115.581 1.32324 117.797 3.70375 117.797 8.46945C117.797 9.51912 117.694 10.4985 117.488 11.4123C117.282 12.3261 116.935 13.118 116.443 13.7975C115.951 14.4769 115.318 15.0158 114.536 15.4095C113.753 15.8031 112.779 16.0046 111.607 16.0046ZM109.002 6.27638H107.582V11.0515H109.002C109.761 11.0515 110.304 10.9718 110.642 10.8172C110.979 10.6625 111.143 10.3017 111.143 9.73468V7.56973C111.143 7.02146 110.975 6.66532 110.642 6.51068C110.304 6.35604 109.761 6.27638 109.002 6.27638Z" fill="#FF453A"/>
<path d="M132.039 20.6766H119.653V1.32324H125.844V15.7187H132.034V20.6719L132.039 20.6766Z" fill="#FF453A"/>
<path d="M138.36 20.6768H131.832L136.837 1.32812H146.406L151.41 20.6768H144.883L144.161 17.6074H139.053L138.355 20.6768H138.36ZM141.457 7.26065L140.192 12.6777H143.032L141.795 7.26065H141.457Z" fill="#FF453A"/>
<path d="M166.378 6.28126H161.888V20.6768H155.698V6.28126H151.209V1.32812H166.378V6.28126Z" fill="#FF453A"/>
<path d="M180.464 13.3757H174.273V15.7234H181.86V20.6766H168.083V1.32324H181.705L180.932 6.27638H174.278V8.88182H180.468V13.371L180.464 13.3757Z" fill="#FF453A"/>
</svg>
