<svg width="181" height="22" viewBox="0 0 181 22" fill="none" xmlns="http://www.w3.org/2000/svg">
<path d="M8.99827 21.2857C7.18912 21.2857 5.68152 21.0096 4.47541 20.4571C3.28654 19.8857 2.39062 19.1524 1.78753 18.2571C1.20176 17.3428 0.89162 16.381 0.857117 15.3714C0.857117 15.2 0.908808 15.0571 1.01219 14.9428C1.11557 14.8285 1.24479 14.7714 1.39986 14.7714H5.5092C5.75047 14.7714 5.93998 14.8191 6.07779 14.9143C6.21568 14.9905 6.36209 15.1048 6.51716 15.2571C6.67223 15.4667 6.85314 15.6667 7.0599 15.8571C7.26666 16.0286 7.53377 16.1714 7.86109 16.2857C8.18848 16.381 8.56756 16.4285 8.99827 16.4285C9.79087 16.4285 10.4026 16.3143 10.8333 16.0857C11.264 15.8381 11.4794 15.5048 11.4794 15.0857C11.4794 14.7619 11.3588 14.4953 11.1176 14.2857C10.8936 14.0762 10.5059 13.8857 9.95453 13.7143C9.4032 13.5428 8.65369 13.3619 7.70602 13.1714C6.37934 12.9238 5.23357 12.5619 4.26865 12.0857C3.30379 11.5905 2.56288 10.9333 2.04598 10.1143C1.54634 9.27619 1.29648 8.24762 1.29648 7.02855C1.29648 5.79048 1.60662 4.69526 2.2269 3.74284C2.86443 2.79048 3.74315 2.04762 4.86308 1.51426C6.00026 0.980977 7.31835 0.714264 8.81736 0.714264C10.0579 0.714264 11.1521 0.895264 12.0997 1.25712C13.0646 1.61905 13.8744 2.09526 14.5291 2.68569C15.1839 3.25712 15.6835 3.87619 16.0281 4.54283C16.3727 5.20955 16.5536 5.84762 16.5708 6.45712C16.5708 6.62855 16.5106 6.78098 16.3899 6.91426C16.2865 7.02855 16.166 7.08569 16.0281 7.08569H11.712C11.5052 7.08569 11.3243 7.04762 11.1692 6.97141C11.0314 6.89526 10.9022 6.77141 10.7816 6.59998C10.6954 6.33334 10.4801 6.09526 10.1354 5.88569C9.79087 5.67619 9.35151 5.57141 8.81736 5.57141C8.23158 5.57141 7.78356 5.68569 7.47342 5.91426C7.16328 6.12383 7.00821 6.43812 7.00821 6.85712C7.00821 7.14284 7.103 7.39048 7.2925 7.59998C7.48208 7.80955 7.81806 7.99998 8.30046 8.17141C8.78292 8.32383 9.45489 8.49526 10.3164 8.68569C11.9533 8.95241 13.2713 9.33333 14.2706 9.82855C15.2872 10.3238 16.0281 10.9714 16.4933 11.7714C16.9585 12.5714 17.1911 13.5714 17.1911 14.7714C17.1911 16.1238 16.8379 17.2857 16.1315 18.2571C15.4251 19.2285 14.4516 19.981 13.211 20.5143C11.9877 21.0286 10.5835 21.2857 8.99827 21.2857ZM20.0777 21C19.9054 21 19.7503 20.9333 19.6125 20.8C19.4746 20.6667 19.4057 20.4857 19.4057 20.2571V1.74283C19.4057 1.53333 19.4746 1.36191 19.6125 1.22855C19.7503 1.07619 19.9054 0.999978 20.0777 0.999978H24.2904C24.48 0.999978 24.635 1.07619 24.7556 1.22855C24.8935 1.36191 24.9624 1.53333 24.9624 1.74283V8.19998H30.2345V1.74283C30.2345 1.53333 30.2953 1.36191 30.4155 1.22855C30.5537 1.07619 30.7172 0.999978 30.9065 0.999978H35.1192C35.3092 0.999978 35.4643 1.07619 35.5844 1.22855C35.7227 1.36191 35.7912 1.53333 35.7912 1.74283V20.2571C35.7912 20.4667 35.7227 20.6476 35.5844 20.8C35.4643 20.9333 35.3092 21 35.1192 21H30.9065C30.7172 21 30.5537 20.9333 30.4155 20.8C30.2953 20.6476 30.2345 20.4667 30.2345 20.2571V13.6285H24.9624V20.2571C24.9624 20.4667 24.8935 20.6476 24.7556 20.8C24.635 20.9333 24.48 21 24.2904 21H20.0777ZM38.0862 21C37.9312 21 37.7935 20.9428 37.6727 20.8286C37.5693 20.6953 37.5176 20.5428 37.5176 20.3714C37.5176 20.2953 37.5351 20.2285 37.5693 20.1714L43.462 1.88569C43.5137 1.67619 43.6254 1.47619 43.798 1.28569C43.9873 1.09526 44.2373 0.999978 44.5475 0.999978H49.2771C49.6047 0.999978 49.8541 1.09526 50.0266 1.28569C50.1991 1.47619 50.3109 1.67619 50.3626 1.88569L56.2811 20.1714C56.2985 20.2285 56.3069 20.2953 56.3069 20.3714C56.3069 20.5428 56.2468 20.6953 56.126 20.8286C56.0226 20.9428 55.8934 21 55.7383 21H51.7582C51.4655 21 51.2497 20.9238 51.1121 20.7714C50.9745 20.619 50.8795 20.4762 50.8278 20.3428L50.0266 17.9428H43.798L42.9968 20.3428C42.9451 20.4762 42.8501 20.619 42.7125 20.7714C42.5916 20.9238 42.3765 21 42.0663 21H38.0862ZM44.9868 13.1143H48.8377L46.8993 6.68569L44.9868 13.1143ZM58.6937 21C58.5212 21 58.3661 20.9333 58.2285 20.8C58.0909 20.6476 58.0217 20.4667 58.0217 20.2571V1.74283C58.0217 1.53333 58.0909 1.36191 58.2285 1.22855C58.3661 1.07619 58.5212 0.999978 58.6937 0.999978H66.0595C68.403 0.999978 70.238 1.59048 71.5645 2.77141C72.9084 3.95241 73.5804 5.59998 73.5804 7.71426C73.5804 9.04762 73.3045 10.181 72.7533 11.1143C72.2022 12.0476 71.4785 12.781 70.5824 13.3143L73.9422 20.0571C73.9939 20.1714 74.0197 20.2762 74.0197 20.3714C74.0197 20.5428 73.968 20.6953 73.8647 20.8286C73.7613 20.9428 73.6321 21 73.477 21H69.1092C68.7816 21 68.5322 20.9143 68.3597 20.7428C68.1872 20.5524 68.0754 20.381 68.0237 20.2285L65.4392 14.3428H63.5784V20.2571C63.5784 20.4667 63.5092 20.6476 63.3716 20.8C63.2508 20.9333 63.0957 21 62.9064 21H58.6937ZM63.5784 9.62855H66.0336C66.6365 9.62855 67.0849 9.44762 67.3776 9.08569C67.6703 8.70476 67.8169 8.23812 67.8169 7.68569C67.8169 7.11426 67.6703 6.62855 67.3776 6.22855C67.1017 5.82855 66.6539 5.62855 66.0336 5.62855H63.5784V9.62855ZM76.9667 21C76.7948 21 76.6398 20.9333 76.5015 20.8C76.3639 20.6476 76.2947 20.4667 76.2947 20.2571V1.74283C76.2947 1.53333 76.3639 1.36191 76.5015 1.22855C76.6398 1.07619 76.7948 0.999978 76.9667 0.999978H89.6307C89.8207 0.999978 89.9842 1.07619 90.1218 1.22855C90.26 1.36191 90.3285 1.53333 90.3285 1.74283V5.11426C90.3285 5.30476 90.26 5.47619 90.1218 5.62855C89.9842 5.78098 89.8207 5.85712 89.6307 5.85712H81.6446V8.68569H89.0621C89.2521 8.68569 89.4156 8.76191 89.5532 8.91426C89.6915 9.04762 89.7599 9.21905 89.7599 9.42855V12.5143C89.7599 12.7238 89.6915 12.9048 89.5532 13.0571C89.4156 13.1905 89.2521 13.2571 89.0621 13.2571H81.6446V16.1428H89.8375C90.0274 16.1428 90.1909 16.219 90.3285 16.3714C90.4668 16.5238 90.5353 16.7048 90.5353 16.9143V20.2571C90.5353 20.4667 90.4668 20.6476 90.3285 20.8C90.1909 20.9333 90.0274 21 89.8375 21H76.9667ZM99.0008 21C98.8283 21 98.6732 20.9333 98.5356 20.8C98.3973 20.6476 98.3288 20.4667 98.3288 20.2571V1.74283C98.3288 1.53333 98.3973 1.36191 98.5356 1.22855C98.6732 1.07619 98.8283 0.999978 99.0008 0.999978H106.548C108.047 0.999978 109.347 1.24762 110.45 1.74283C111.57 2.23812 112.44 2.99048 113.06 3.99998C113.681 5.00955 113.991 6.27619 113.991 7.79998C113.991 9.32384 113.681 10.581 113.06 11.5714C112.44 12.5428 111.57 13.2571 110.45 13.7143C109.347 14.1714 108.047 14.4 106.548 14.4H104.092V20.2571C104.092 20.4667 104.023 20.6476 103.885 20.8C103.765 20.9333 103.61 21 103.42 21H99.0008ZM103.989 9.79998H106.418C106.918 9.79998 107.34 9.63812 107.685 9.31427C108.047 8.97141 108.227 8.44762 108.227 7.74284C108.227 7.20955 108.089 6.72383 107.814 6.28569C107.538 5.84762 107.073 5.62855 106.418 5.62855H103.989V9.79998ZM116.87 21C116.697 21 116.542 20.9333 116.405 20.8C116.267 20.6476 116.198 20.4667 116.198 20.2571V1.74283C116.198 1.53333 116.267 1.36191 116.405 1.22855C116.542 1.07619 116.697 0.999978 116.87 0.999978H121.16C121.35 0.999978 121.514 1.07619 121.651 1.22855C121.789 1.36191 121.858 1.53333 121.858 1.74283V15.9143H129.327C129.517 15.9143 129.681 15.9905 129.818 16.1428C129.956 16.2762 130.025 16.4476 130.025 16.6571V20.2571C130.025 20.4667 129.956 20.6476 129.818 20.8C129.681 20.9333 129.517 21 129.327 21H116.87ZM131.067 21C130.912 21 130.775 20.9428 130.654 20.8286C130.55 20.6953 130.499 20.5428 130.499 20.3714C130.499 20.2953 130.516 20.2285 130.55 20.1714L136.443 1.88569C136.495 1.67619 136.606 1.47619 136.779 1.28569C136.968 1.09526 137.218 0.999978 137.528 0.999978H142.258C142.586 0.999978 142.835 1.09526 143.008 1.28569C143.18 1.47619 143.292 1.67619 143.344 1.88569L149.262 20.1714C149.28 20.2285 149.288 20.2953 149.288 20.3714C149.288 20.5428 149.228 20.6953 149.107 20.8286C149.004 20.9428 148.874 21 148.719 21H144.739C144.447 21 144.231 20.9238 144.093 20.7714C143.955 20.619 143.86 20.4762 143.809 20.3428L143.008 17.9428H136.779L135.978 20.3428C135.926 20.4762 135.831 20.619 135.693 20.7714C135.573 20.9238 135.358 21 135.047 21H131.067ZM137.968 13.1143H141.819L139.88 6.68569L137.968 13.1143ZM153.864 21C153.674 21 153.51 20.9333 153.373 20.8C153.252 20.6476 153.192 20.4667 153.192 20.2571V6.31426H148.746C148.557 6.31426 148.393 6.24762 148.255 6.11426C148.135 5.96191 148.075 5.78098 148.075 5.57141V1.74283C148.075 1.53333 148.135 1.36191 148.255 1.22855C148.393 1.07619 148.557 0.999978 148.746 0.999978H163.271C163.461 0.999978 163.616 1.07619 163.737 1.22855C163.874 1.36191 163.943 1.53333 163.943 1.74283V5.57141C163.943 5.78098 163.874 5.96191 163.737 6.11426C163.616 6.24762 163.461 6.31426 163.271 6.31426H158.826V20.2571C158.826 20.4667 158.757 20.6476 158.619 20.8C158.498 20.9333 158.343 21 158.154 21H153.864ZM166.717 21C166.545 21 166.39 20.9333 166.252 20.8C166.114 20.6476 166.045 20.4667 166.045 20.2571V1.74283C166.045 1.53333 166.114 1.36191 166.252 1.22855C166.39 1.07619 166.545 0.999978 166.717 0.999978H179.381C179.571 0.999978 179.735 1.07619 179.872 1.22855C180.01 1.36191 180.079 1.53333 180.079 1.74283V5.11426C180.079 5.30476 180.01 5.47619 179.872 5.62855C179.735 5.78098 179.571 5.85712 179.381 5.85712H171.395V8.68569H178.813C179.003 8.68569 179.166 8.76191 179.304 8.91426C179.442 9.04762 179.51 9.21905 179.51 9.42855V12.5143C179.51 12.7238 179.442 12.9048 179.304 13.0571C179.166 13.1905 179.003 13.2571 178.813 13.2571H171.395V16.1428H179.588C179.778 16.1428 179.941 16.219 180.079 16.3714C180.217 16.5238 180.286 16.7048 180.286 16.9143V20.2571C180.286 20.4667 180.217 20.6476 180.079 20.8C179.941 20.9333 179.778 21 179.588 21H166.717Z" fill="#FF5C21"/>
</svg>
