<svg width="18" height="18" viewBox="0 0 18 18" fill="none" xmlns="http://www.w3.org/2000/svg">
<path d="M4.85002 17.4999C4.13002 17.4999 3.54002 16.9099 3.54002 16.1899V9.66986C1.90002 9.19986 0.960022 7.80986 0.960022 5.80986C0.960022 2.98986 2.74002 0.609863 4.85002 0.609863C6.96002 0.609863 8.74002 2.98986 8.74002 5.79986C8.74002 7.79986 7.81002 9.18986 6.16002 9.65986V16.1799C6.16002 16.8999 5.58002 17.4899 4.85002 17.4899V17.4999ZM4.85002 1.60986C3.31002 1.60986 1.96002 3.56986 1.96002 5.79986C1.96002 7.47986 2.71002 8.50986 4.13002 8.76986L4.54002 8.84986V16.1899C4.54002 16.3599 4.68002 16.4999 4.85002 16.4999C5.02002 16.4999 5.16002 16.3599 5.16002 16.1899L5.12002 8.82986L5.57002 8.77986C6.99002 8.51986 7.74002 7.48986 7.74002 5.80986C7.74002 3.57986 6.39002 1.61986 4.85002 1.61986V1.60986Z" fill="#999999"/>
<path d="M13.54 17.5C12.82 17.5 12.23 16.91 12.23 16.19V9.66C11.1 9.2 10.27 8.18 10.07 6.96V1.79C10.07 1.08 10.64 0.5 11.35 0.5C11.81 0.5 12.22 0.75 12.45 1.12C12.68 0.75 13.08 0.5 13.55 0.5C14.02 0.5 14.42 0.75 14.65 1.12C14.88 0.75 15.28 0.5 15.75 0.5C16.46 0.5 17.04 1.08 17.04 1.79V6.88C16.83 8.18 15.99 9.22 14.85 9.67V16.19C14.85 16.91 14.26 17.5 13.54 17.5ZM11.35 1.5C11.19 1.5 11.06 1.63 11.06 1.79V6.88C11.21 7.76 11.92 8.56 12.86 8.82L13.22 8.92V16.18C13.22 16.35 13.36 16.49 13.53 16.49C13.7 16.49 13.84 16.35 13.84 16.18V8.92L14.21 8.82C15.16 8.56 15.88 7.76 16.04 6.79V1.79C16.04 1.63 15.9 1.5 15.74 1.5C15.58 1.5 15.45 1.63 15.45 1.79V5.86H13.83V1.79C13.83 1.63 13.7 1.5 13.54 1.5C13.38 1.5 13.25 1.63 13.25 1.79V5.86H11.63V1.79C11.63 1.63 11.5 1.5 11.34 1.5H11.35Z" fill="#999999"/>
</svg>
