<svg width="18" height="18" viewBox="0 0 18 18" fill="none" xmlns="http://www.w3.org/2000/svg">
<circle cx="9" cy="9" r="8" stroke="black" stroke-width="2"/>
<path d="M8 4.5C8 5.05228 8.44772 5.5 9 5.5C9.55228 5.5 10 5.05228 10 4.5H8ZM8 1.125V4.5H10V1.125H8Z" fill="black"/>
<path d="M10 13.5C10 12.9477 9.55228 12.5 9 12.5C8.44772 12.5 8 12.9477 8 13.5L10 13.5ZM10 16.875L10 13.5L8 13.5L8 16.875L10 16.875Z" fill="black"/>
<path d="M4.5 10C5.05228 10 5.5 9.55228 5.5 9C5.5 8.44772 5.05228 8 4.5 8L4.5 10ZM1.125 10L4.5 10L4.5 8L1.125 8L1.125 10Z" fill="black"/>
<path d="M13.5 8C12.9477 8 12.5 8.44772 12.5 9C12.5 9.55229 12.9477 10 13.5 10L13.5 8ZM16.875 8L13.5 8L13.5 10L16.875 10L16.875 8Z" fill="black"/>
</svg>
