<svg width="16" height="18" viewBox="0 0 16 18" fill="none" xmlns="http://www.w3.org/2000/svg">
<path d="M14.7024 18H1.29765C0.683528 18 0.175293 17.4918 0.175293 16.8777C0.175293 12.6106 3.64823 9.12708 7.92588 9.12708H8.07412C12.3412 9.12708 15.8247 12.6 15.8247 16.8777C15.8247 17.4918 15.3165 18 14.7024 18ZM7.92588 10.1859C4.24118 10.1859 1.23412 13.1824 1.23412 16.8777L14.7024 16.9412C14.7659 13.193 11.7694 10.1859 8.07412 10.1859H7.92588V10.1859Z" fill="#999999"/>
<path d="M8.33647 8.32235C6.03882 8.32235 4.17529 6.45882 4.17529 4.16118C4.17529 1.86353 6.04941 0 8.33647 0C10.6235 0 12.4976 1.86353 12.4976 4.16118C12.4976 6.45882 10.6341 8.32235 8.33647 8.32235V8.32235ZM8.33647 1.05882C6.63176 1.05882 5.23412 2.44588 5.23412 4.16118C5.23412 5.87647 6.62118 7.26353 8.33647 7.26353C10.0518 7.26353 11.4388 5.87647 11.4388 4.16118C11.4388 2.44588 10.0518 1.05882 8.33647 1.05882V1.05882Z" fill="#999999"/>
</svg>
